<?xml version="1.0" encoding="utf-8"?>
<!-- Generator: Adobe Illustrator 24.0.0, SVG Export Plug-In . SVG Version: 6.00 Build 0)  -->
<svg version="1.1" id="Layer_1" xmlns="http://www.w3.org/2000/svg" xmlns:xlink="http://www.w3.org/1999/xlink" x="0px" y="0px"
	 viewBox="0 0 72 72" style="enable-background:new 0 0 72 72;" xml:space="preserve">
<style type="text/css">
	.st0{fill:none;}
</style>
<path class="st0" d="M0,0h72v72H0V0z"/>
<path d="M36,18.5c-14.9,0-27,6.3-27,14c0,6.7,9.2,12.3,21.4,13.7L26.5,50c-0.8,0.8-0.8,2,0,2.8l0,0c0.8,0.8,2,0.8,2.8,0l7.1-7.1
	c0.8-0.8,0.8-2.1,0-2.8l-7.1-7.1c-0.8-0.8-2-0.8-2.8,0l0,0c-0.8,0.8-0.8,2,0,2.8l3.5,3.5c-9.8-1.1-17-5-17-9.6c0-5.5,10.3-10,23-10
	c12.7,0,23,4.5,23,10c0,3.6-4.3,6.7-10.8,8.5c-0.8,0.2-1.4,1-1.4,1.9v0c0,1.3,1.2,2.2,2.5,1.9c8.2-2.4,13.7-7,13.7-12.2
	C63,24.8,50.9,18.5,36,18.5z"/>
</svg>
