<?xml version="1.0" encoding="utf-8"?>
<!-- Generator: Adobe Illustrator 24.0.0, SVG Export Plug-In . SVG Version: 6.00 Build 0)  -->
<svg version="1.1" id="Layer_1" xmlns="http://www.w3.org/2000/svg" xmlns:xlink="http://www.w3.org/1999/xlink" x="0px" y="0px"
	 viewBox="0 0 72 72" style="enable-background:new 0 0 72 72;" xml:space="preserve">
<style type="text/css">
	.st0{fill:none;}
	.st1{display:none;}
</style>
<title>clear</title>
<rect class="st0" width="72" height="72"/>
<path class="st1" d="M57.2,53.4l-8-8h12.4l0-5.4H43.8L40,36.2l3.8-3.8h17.8l0-5.4H49.2l8-8l-3.8-3.8l-8,8V10.8l-5.4,0v17.8l-3.8,3.8
	l-3.8-3.8V10.7l-5.4,0v12.4l-8-8L15.2,19l8,8H10.7l0,5.4h17.8l3.8,3.8L28.5,40H10.7l0,5.4h12.4l-8,8l3.8,3.8l8-8v12.4l5.4,0V43.8
	l3.8-3.8l3.8,3.8v17.8l5.4,0V49.2l8,8L57.2,53.4z"/>
<path d="M61,34H49.3l9.3-9.3c0.8-0.8,0.8-2,0-2.8l0,0c-0.8-0.8-2-0.8-2.8,0L43.7,34H38v-5.7l12.1-12.1c0.8-0.8,0.8-2,0-2.8l0,0
	c-0.8-0.8-2-0.8-2.8,0L38,22.7V11c0-1.1-0.9-2-2-2h0c-1.1,0-2,0.9-2,2v11.7l-9.3-9.3c-0.8-0.8-2-0.8-2.8,0l0,0c-0.8,0.8-0.8,2,0,2.8
	L34,28.3V34h-5.7L16.2,21.9c-0.8-0.8-2-0.8-2.8,0l0,0c-0.8,0.8-0.8,2,0,2.8l9.3,9.3H11c-1.1,0-2,0.9-2,2v0c0,1.1,0.9,2,2,2h11.7
	l-9.3,9.3c-0.8,0.8-0.8,2,0,2.8l0,0c0.8,0.8,2,0.8,2.8,0L28.3,38H34v5.7L21.9,55.8c-0.8,0.8-0.8,2,0,2.8l0,0c0.8,0.8,2,0.8,2.8,0
	l9.3-9.3V61c0,1.1,0.9,2,2,2h0c1.1,0,2-0.9,2-2V49.3l9.3,9.3c0.8,0.8,2,0.8,2.8,0l0,0c0.8-0.8,0.8-2,0-2.8L38,43.7V38h5.7l12.1,12.1
	c0.8,0.8,2,0.8,2.8,0l0,0c0.8-0.8,0.8-2,0-2.8L49.3,38H61c1.1,0,2-0.9,2-2v0C63,34.9,62.1,34,61,34z"/>
</svg>
