<?xml version="1.0" encoding="utf-8"?>
<!-- Generator: Adobe Illustrator 24.0.0, SVG Export Plug-In . SVG Version: 6.00 Build 0)  -->
<svg version="1.1" id="Layer_1" xmlns="http://www.w3.org/2000/svg" xmlns:xlink="http://www.w3.org/1999/xlink" x="0px" y="0px"
	 viewBox="0 0 72 72" style="enable-background:new 0 0 72 72;" xml:space="preserve">
<style type="text/css">
	.st0{fill:none;}
</style>
<rect class="st0" width="72" height="72"/>
<path d="M36,9C21.1,9,9,21.1,9,36s12.1,27,27,27s27-12.1,27-27S50.9,9,36,9z M36,59c-12.7,0-23-10.3-23-23s10.3-23,23-23
	s23,10.3,23,23S48.7,59,36,59z"/>
<path d="M47.6,41.9l-8.6-5c-0.6-0.4-1-1-1-1.7V23.4c0-1.1-0.9-2-2-2h0c-1.1,0-2,0.9-2,2v13c0,1.4,0.8,2.7,2,3.5l9.6,5.5
	c1,0.6,2.2,0.2,2.7-0.7v0C48.9,43.7,48.5,42.4,47.6,41.9z"/>
</svg>
