<?xml version="1.0" encoding="utf-8"?>
<!-- Generator: Adobe Illustrator 24.0.0, SVG Export Plug-In . SVG Version: 6.00 Build 0)  -->
<svg version="1.1" id="Layer_1" xmlns="http://www.w3.org/2000/svg" xmlns:xlink="http://www.w3.org/1999/xlink" x="0px" y="0px"
	 viewBox="0 0 72 72" style="enable-background:new 0 0 72 72;" xml:space="preserve">
<style type="text/css">
	.st0{fill:none;}
</style>
<rect class="st0" width="72" height="72"/>
<g>
	<circle cx="48" cy="36" r="3"/>
	<path d="M61,21v-6c0-2.2-1.8-4-4-4H13c-2.2,0-4,1.8-4,4v42c0,2.2,1.8,4,4,4h44c2.2,0,4-1.8,4-4v-6h0c1.1,0,2-0.9,2-2V23
		C63,21.9,62.1,21,61,21L61,21z M57,57H13V15h44v6H37c-2.2,0-4,1.8-4,4v22c0,2.2,1.8,4,4,4h20V57z M59,47H37V25h22V47z"/>
</g>
</svg>
