<?xml version="1.0" encoding="utf-8"?>
<!-- Generator: Adobe Illustrator 24.0.0, SVG Export Plug-In . SVG Version: 6.00 Build 0)  -->
<svg version="1.1" id="Layer_1" xmlns="http://www.w3.org/2000/svg" xmlns:xlink="http://www.w3.org/1999/xlink" x="0px" y="0px"
	 viewBox="0 0 72 72" style="enable-background:new 0 0 72 72;" xml:space="preserve">
<style type="text/css">
	.st0{fill:none;}
</style>
<title>account_box</title>
<rect class="st0" width="72" height="72"/>
<path d="M59,9H13c-2.2,0-4,1.8-4,4v46c0,2.2,1.8,4,4,4h46c2.2,0,4-1.8,4-4V13C63,10.8,61.2,9,59,9z M59,59H13V13h46V59z"/>
<path d="M36,36.6c5.5,0,10-4.5,10-10s-4.5-10-10-10s-10,4.5-10,10S30.5,36.6,36,36.6z M36,20.6c3.3,0,6,2.7,6,6s-2.7,6-6,6
	s-6-2.7-6-6S32.7,20.6,36,20.6z"/>
<path d="M36.1,39.1c-6.6,0-12.7,2.3-17.6,6.1c-1,0.8-1.5,1.9-1.5,3.1v3.1c0,2.2,1.8,4,4,4h30c2.2,0,4-1.8,4-4v-3.2
	c0-1.2-0.6-2.4-1.5-3.2C48.6,41.3,42.6,39.1,36.1,39.1z M20.9,51.4v-2.1c0-0.6,0.3-1.2,0.8-1.6c4-2.9,9-4.6,14.3-4.6
	c5.2,0,10.1,1.6,14.1,4.5c0.5,0.4,0.8,1,0.8,1.6v2.2H20.9z"/>
</svg>
