<?xml version="1.0" encoding="utf-8"?>
<!-- Generator: Adobe Illustrator 24.0.0, SVG Export Plug-In . SVG Version: 6.00 Build 0)  -->
<svg version="1.1" id="Layer_1" xmlns="http://www.w3.org/2000/svg" xmlns:xlink="http://www.w3.org/1999/xlink" x="0px" y="0px"
	 viewBox="0 0 72 72" style="enable-background:new 0 0 72 72;" xml:space="preserve">
<style type="text/css">
	.st0{fill:none;}
	.st1{fill-rule:evenodd;clip-rule:evenodd;}
</style>
<title>account_balance</title>
<rect class="st0" width="72" height="72"/>
<g>
	<path class="st1" d="M51,37.7v16c0,1.1,0.9,2,2,2h0c1.1,0,2-0.9,2-2v-16c0-1.1-0.9-2-2-2h0C51.9,35.8,51,36.6,51,37.7z"/>
	<path class="st1" d="M36,55.8L36,55.8c1.1,0,2-0.9,2-2v-16c0-1.1-0.9-2-2-2h0c-1.1,0-2,0.9-2,2v16C34,54.9,34.9,55.8,36,55.8z"/>
	<path class="st1" d="M19,55.8L19,55.8c1.1,0,2-0.9,2-2v-16c0-1.1-0.9-2-2-2h0c-1.1,0-2,0.9-2,2v16C17,54.9,17.9,55.8,19,55.8z"/>
</g>
<path class="st1" d="M61,62.2H11c-1.1,0-2-0.9-2-2v0c0-1.1,0.9-2,2-2h50c1.1,0,2,0.9,2,2v0C63,61.3,62.1,62.2,61,62.2z"/>
<path class="st1" d="M32.2,10.9L8.2,23.7c-3.7,2-2.3,7.5,1.9,7.5H62c4.2,0,5.6-5.6,1.9-7.5L39.8,10.9C37.4,9.6,34.6,9.6,32.2,10.9z
	 M10,27.2l24.1-12.8c1.2-0.6,2.6-0.6,3.8,0L62,27.2H10z"/>
</svg>
