<?xml version="1.0" encoding="utf-8"?>
<!-- Generator: Adobe Illustrator 24.0.0, SVG Export Plug-In . SVG Version: 6.00 Build 0)  -->
<svg version="1.1" id="Layer_1" xmlns="http://www.w3.org/2000/svg" xmlns:xlink="http://www.w3.org/1999/xlink" x="0px" y="0px"
	 viewBox="0 0 72 72" style="enable-background:new 0 0 72 72;" xml:space="preserve">
<style type="text/css">
	.st0{fill:none;}
	.st1{display:none;}
</style>
<title>android</title>
<rect class="st0" width="72" height="72"/>
<path class="st1" d="M36.1,57.4c8.8,0,15.9-7.2,15.9-16v-17c0-5.5-2.9-10.6-7.5-13.5l3.9-4c0.4-0.4,0.4-1,0-1.4v0
	c-0.4-0.4-1-0.4-1.4,0l-4.4,4.4c-2.1-1-4.3-1.4-6.6-1.5c-2.3,0-4.5,0.5-6.6,1.5L25,5.5c-0.4-0.4-1-0.4-1.4,0l0,0
	c-0.4,0.4-0.4,1,0,1.4l3.9,4c-4.7,2.9-7.5,8-7.5,13.6v16.9C20,50.3,27.2,57.5,36.1,57.4L36.1,57.4z M36,53.4L36,53.4
	c-6.6,0-12-5.4-12-12V28.8h24v12.6C48,48,42.6,53.4,36,53.4z M48,24.8H24v-0.1c0-5.9,4.1-11.1,9.9-12.1C41.4,11.3,48,17.1,48,24.4
	V24.8z"/>
<g>
	<circle cx="41" cy="25.3" r="2.5"/>
	<circle cx="31" cy="25.3" r="2.5"/>
	<path d="M44.9,15l3.8-3.8c0.6-0.6,0.6-1.5,0-2.1c-0.6-0.6-1.5-0.6-2.1,0l-4.4,4.4c-1.9-0.8-4-1.2-6.1-1.2s-4.2,0.4-6.1,1.2
		l-4.4-4.4c-0.6-0.6-1.5-0.6-2.1,0c-0.6,0.6-0.6,1.5,0,2.1l3.8,3.8c-4.3,2.9-7.1,7.8-7.1,13.3v19c0,8.8,7.2,16,16,16s16-7.2,16-16
		v-19C52,22.8,49.2,17.9,44.9,15z M48,47.3c0,6.6-5.4,12-12,12c-6.6,0-12-5.4-12-12v-12h24V47.3z M48,31.3H24v-3c0-6.6,5.4-12,12-12
		c6.6,0,12,5.4,12,12V31.3z"/>
</g>
</svg>
