<?xml version="1.0" encoding="utf-8"?>
<!-- Generator: Adobe Illustrator 24.0.0, SVG Export Plug-In . SVG Version: 6.00 Build 0)  -->
<svg version="1.1" id="Layer_1" xmlns="http://www.w3.org/2000/svg" xmlns:xlink="http://www.w3.org/1999/xlink" x="0px" y="0px"
	 viewBox="0 0 72 72" style="enable-background:new 0 0 72 72;" xml:space="preserve">
<style type="text/css">
	.st0{fill:none;}
</style>
<title>info</title>
<rect class="st0" width="72" height="72"/>
<g>
	<path d="M48,34H38V24c0-1.1-0.9-2-2-2h0c-1.1,0-2,0.9-2,2v10H24c-1.1,0-2,0.9-2,2v0c0,1.1,0.9,2,2,2h10v10c0,1.1,0.9,2,2,2h0
		c1.1,0,2-0.9,2-2V38h10c1.1,0,2-0.9,2-2v0C50,34.9,49.1,34,48,34z"/>
	<path d="M9,13v46c0,2.2,1.8,4,4,4h46c2.2,0,4-1.8,4-4V13c0-2.2-1.8-4-4-4H13C10.8,9,9,10.8,9,13z M59,59H13V13h46V59z"/>
</g>
</svg>
