<?xml version="1.0" encoding="utf-8"?>
<!-- Generator: Adobe Illustrator 24.0.0, SVG Export Plug-In . SVG Version: 6.00 Build 0)  -->
<svg version="1.1" id="Layer_1" xmlns="http://www.w3.org/2000/svg" xmlns:xlink="http://www.w3.org/1999/xlink" x="0px" y="0px"
	 viewBox="0 0 72 72" style="enable-background:new 0 0 72 72;" xml:space="preserve">
<style type="text/css">
	.st0{fill:none;}
</style>
<title>photo_camera</title>
<rect class="st0" width="72" height="72"/>
<g>
	<path d="M37.7,52.7C45.2,54,51.6,47.5,50.4,40c-0.7-4.6-4.4-8.2-9-9c-7.5-1.2-13.9,5.2-12.7,12.7C29.4,48.3,33.1,52,37.7,52.7z
		 M38.1,35c4.9-0.9,9.2,3.3,8.2,8.2c-0.5,2.7-2.7,5-5.5,5.5c-4.9,0.9-9.2-3.3-8.2-8.2C33.2,37.7,35.4,35.5,38.1,35z"/>
	<path d="M18,28.3L18,28.3c1.1,0,2-0.9,2-2v-4h5c1.1,0,2-0.9,2-2v0c0-1.1-0.9-2-2-2h-5v-5c0-1.1-0.9-2-2-2h0c-1.1,0-2,0.9-2,2v5h-5
		c-1.1,0-2,0.9-2,2v0c0,1.1,0.9,2,2,2h5v4C16,27.5,16.9,28.3,18,28.3z"/>
	<path d="M59,23.9l-7.2,0l-4.4-4.4c-0.8-0.8-1.8-1.2-2.8-1.2H34c-1.1,0-2,0.9-2,2v0c0,1.1,0.9,2,2,2h10.6l4.4,4.4
		c0.8,0.8,1.8,1.2,2.8,1.2l7.2,0l0,28.7H20V35.3c0-1.1-0.9-2-2-2h0c-1.1,0-2,0.9-2,2v21.3c0,2.2,1.8,4,4,4h39c2.2,0,4-1.8,4-4
		l0-28.7C63,25.7,61.2,23.9,59,23.9z"/>
</g>
</svg>
