<?xml version="1.0" encoding="utf-8"?>
<!-- Generator: Adobe Illustrator 24.0.0, SVG Export Plug-In . SVG Version: 6.00 Build 0)  -->
<svg version="1.1" id="Layer_1" xmlns="http://www.w3.org/2000/svg" xmlns:xlink="http://www.w3.org/1999/xlink" x="0px" y="0px"
	 viewBox="0 0 72 72" style="enable-background:new 0 0 72 72;" xml:space="preserve">
<style type="text/css">
	.st0{fill:none;}
</style>
<path class="st0" d="M0,0h72v72H0V0z"/>
<path d="M23.8,39.3c3.9,0,7-3.1,7-7s-3.1-7-7-7s-7,3.1-7,7S19.9,39.3,23.8,39.3z M23.8,29.3c1.7,0,3,1.3,3,3c0,1.7-1.3,3-3,3
	c-1.6,0-3-1.3-3-3C20.8,30.7,22.2,29.3,23.8,29.3z"/>
<path d="M53,22.4H37.6c-2.2,0-4,1.8-4,4v17H13v-19c0-1.1-0.9-2-2-2h0c-1.1,0-2,0.9-2,2v21c0,1.1,0.9,2,2,2h50c1.1,0,2-0.9,2-2v-13
	C63,26.9,58.5,22.4,53,22.4z M59,43.4H37.6v-17H53c3.3,0,6,2.7,6,6V43.4z"/>
</svg>
