<?xml version="1.0" encoding="utf-8"?>
<!-- Generator: Adobe Illustrator 24.0.0, SVG Export Plug-In . SVG Version: 6.00 Build 0)  -->
<svg version="1.1" id="Layer_1" xmlns="http://www.w3.org/2000/svg" xmlns:xlink="http://www.w3.org/1999/xlink" x="0px" y="0px"
	 viewBox="0 0 72 72" style="enable-background:new 0 0 72 72;" xml:space="preserve">
<style type="text/css">
	.st0{fill:none;}
</style>
<title>photo_camera</title>
<rect x="0.2" class="st0" width="72" height="72"/>
<path d="M46.7,18.8H13c-2.2,0-4,1.8-4,4v19c0,2.2,1.8,4,4,4h0.8c0,4.1,3.4,7.5,7.5,7.5c4.1,0,7.5-3.4,7.5-7.5h14.5
	c0,4.1,3.4,7.5,7.5,7.5c4.1,0,7.5-3.4,7.5-7.5H59c2.2,0,4-1.8,4-4v-6.7c0-1.1-0.4-2.1-1.2-2.8L49.5,19.9
	C48.7,19.2,47.7,18.8,46.7,18.8z M42.9,22.8h3.7l8.3,8.3h-12V22.8z M27.9,22.8h11V31h-11V22.8z M13,22.8h10.9V31H13V22.8z M22,49.2
	c-2.5,0.5-4.6-1.7-4.1-4.1c0.3-1.4,1.4-2.5,2.8-2.7c2.5-0.5,4.6,1.7,4.1,4.1C24.4,47.8,23.3,48.9,22,49.2z M51.4,49.2
	c-2.5,0.5-4.6-1.7-4.1-4.1c0.3-1.4,1.4-2.5,2.8-2.7c2.5-0.5,4.6,1.7,4.1,4.1C53.9,47.8,52.8,48.9,51.4,49.2z M59,41.8h-1.9
	c-1.3-2.1-3.7-3.5-6.3-3.5c-2.7,0-5,1.4-6.3,3.5H27.6c-1.3-2.1-3.7-3.5-6.3-3.5c-2.7,0-5,1.4-6.3,3.5H13V35h45.9l0.1,0.1V41.8z"/>
</svg>
