<?xml version="1.0" encoding="utf-8"?>
<!-- Generator: Adobe Illustrator 24.0.0, SVG Export Plug-In . SVG Version: 6.00 Build 0)  -->
<svg version="1.1" id="Layer_1" xmlns="http://www.w3.org/2000/svg" xmlns:xlink="http://www.w3.org/1999/xlink" x="0px" y="0px"
	 viewBox="0 0 72 72" style="enable-background:new 0 0 72 72;" xml:space="preserve">
<style type="text/css">
	.st0{fill:none;}
</style>
<title>account_box</title>
<rect class="st0" width="72" height="72"/>
<path d="M59,11.6H13c-2.2,0-4,1.8-4,4v36c0,2.2,1.8,4,4,4h8.1l3.2-4H13v-36h46v36H47.6l3.3,4H59c2.2,0,4-1.8,4-4v-36
	C63,13.4,61.2,11.6,59,11.6z"/>
<path d="M48.5,59l-10.6-13c-1-1.2-2.8-1.2-3.7,0L23.5,59c-1.3,1.6-0.2,3.9,1.9,3.9h21.2C48.6,62.9,49.7,60.5,48.5,59z M28.8,58.9
	L36,50l7.2,8.9H28.8z"/>
</svg>
