<?xml version="1.0" encoding="utf-8"?>
<!-- Generator: Adobe Illustrator 24.0.0, SVG Export Plug-In . SVG Version: 6.00 Build 0)  -->
<svg version="1.1" id="Layer_1" xmlns="http://www.w3.org/2000/svg" xmlns:xlink="http://www.w3.org/1999/xlink" x="0px" y="0px"
	 viewBox="0 0 72 72" style="enable-background:new 0 0 72 72;" xml:space="preserve">
<style type="text/css">
	.st0{fill:none;}
</style>
<rect class="st0" width="72" height="72"/>
<path d="M36.1,12.8c-13.3,0-24,10.7-24,24s10.7,24,24,24s24-10.7,24-24S49.4,12.8,36.1,12.8z M36.1,56.8c-11,0-20-9-20-20
	s9-20,20-20s20,9,20,20S47.2,56.8,36.1,56.8z"/>
<path d="M58.9,20.7l-10-8.4c-0.8-0.7-1-2-0.2-2.8l0,0c0.7-0.8,2-1,2.8-0.2l10,8.4c0.8,0.7,1,2,0.2,2.8l0,0
	C61,21.3,59.8,21.4,58.9,20.7z"/>
<path d="M13.1,20.7l10-8.4c0.8-0.7,1-2,0.2-2.8l0,0c-0.7-0.8-2-1-2.8-0.2l-10,8.4c-0.8,0.7-1,2-0.2,2.8l0,0
	C11,21.3,12.3,21.4,13.1,20.7z"/>
<path d="M46.2,41.5L39,37.4c-0.6-0.4-1-1-1-1.7v-8.9c0-1.1-0.9-2-2-2h0c-1.1,0-2,0.9-2,2v11.2c0,0.7,0.4,1.4,1,1.7l9.2,5.3
	c1,0.6,2.2,0.2,2.7-0.7l0,0C47.5,43.3,47.2,42.1,46.2,41.5z"/>
</svg>
