<?xml version="1.0" encoding="utf-8"?>
<!-- Generator: Adobe Illustrator 24.0.0, SVG Export Plug-In . SVG Version: 6.00 Build 0)  -->
<svg version="1.1" id="Layer_1" xmlns="http://www.w3.org/2000/svg" xmlns:xlink="http://www.w3.org/1999/xlink" x="0px" y="0px"
	 viewBox="0 0 72 72" style="enable-background:new 0 0 72 72;" xml:space="preserve">
<style type="text/css">
	.st0{fill:none;}
</style>
<title>alarm_on</title>
<rect class="st0" width="72" height="72"/>
<path d="M36.1,14c-13.3,0-24,10.7-24,24s10.7,24,24,24s24-10.7,24-24S49.4,14,36.1,14z M36.1,58c-11,0-20-9-20-20s9-20,20-20
	s20,9,20,20S47.1,58,36.1,58z"/>
<path d="M58.9,21.9l-10-8.4c-0.8-0.7-1-2-0.2-2.8l0,0c0.7-0.8,2-1,2.8-0.2l10,8.4c0.8,0.7,1,2,0.2,2.8l0,0
	C61,22.5,59.8,22.6,58.9,21.9z"/>
<path d="M13.1,21.9l10-8.4c0.8-0.7,1-2,0.2-2.8l0,0c-0.7-0.8-2-1-2.8-0.2l-10,8.4c-0.8,0.7-1,2-0.2,2.8l0,0
	C11,22.5,12.2,22.6,13.1,21.9z"/>
<path d="M28.2,37.5l4.2,4.2l11.3-11.3c0.8-0.8,2-0.8,2.8,0l0,0c0.8,0.8,0.8,2,0,2.8L33.8,46c-0.8,0.8-2,0.8-2.8,0l-5.7-5.7
	c-0.8-0.8-0.8-2,0-2.8l0,0C26.1,36.7,27.4,36.7,28.2,37.5z"/>
</svg>
