<?xml version="1.0" encoding="utf-8"?>
<!-- Generator: Adobe Illustrator 24.0.0, SVG Export Plug-In . SVG Version: 6.00 Build 0)  -->
<svg version="1.1" id="Layer_1" xmlns="http://www.w3.org/2000/svg" xmlns:xlink="http://www.w3.org/1999/xlink" x="0px" y="0px"
	 viewBox="0 0 72 72" style="enable-background:new 0 0 72 72;" xml:space="preserve">
<style type="text/css">
	.st0{fill:none;}
</style>
<title>alarm_add</title>
<rect class="st0" width="72" height="72"/>
<path d="M58.9,21.9l-10-8.4c-0.8-0.7-1-2-0.2-2.8l0,0c0.7-0.8,2-1,2.8-0.2l10,8.4c0.8,0.7,1,2,0.2,2.8l0,0
	C61,22.5,59.8,22.6,58.9,21.9z"/>
<g>
	<path d="M36.1,18c11,0,20,9,20,20c0,2.8-0.6,5.5-1.6,7.9l3,3c1.7-3.3,2.6-7,2.6-10.9c0-13.3-10.7-24-24-24c-3.9,0-7.7,1-10.9,2.6
		l3,3C30.6,18.6,33.3,18,36.1,18z"/>
	<path d="M23.2,13.5c0.8-0.7,1-2,0.2-2.8c-0.7-0.8-2-1-2.8-0.2l-0.9,0.7l2.8,2.8L23.2,13.5z"/>
	<path d="M60.2,57.3L14.7,11.8c-0.8-0.8-2-0.8-2.8,0l0,0c-0.8,0.8-0.8,2,0,2.8l1.7,1.7l-3,2.5c-0.8,0.7-1,2-0.2,2.8l0,0
		c0.7,0.8,2,1,2.8,0.2l3.3-2.8l2.3,2.3c-4.7,4.9-7.3,11.8-6.5,19.2c1.2,11,10.1,19.9,21.1,21.1c7.5,0.8,14.3-1.8,19.2-6.5l4.7,4.7
		c0.8,0.8,2,0.8,2.8,0l0,0C61,59.3,61,58.1,60.2,57.3z M33.9,57.9c-9.2-1-16.6-8.4-17.6-17.6c-0.7-6.2,1.5-11.9,5.3-16l28.2,28.2
		C45.7,56.4,40.1,58.6,33.9,57.9z"/>
</g>
</svg>
