<?xml version="1.0" encoding="utf-8"?>
<!-- Generator: Adobe Illustrator 24.0.0, SVG Export Plug-In . SVG Version: 6.00 Build 0)  -->
<svg version="1.1" id="Layer_1" xmlns="http://www.w3.org/2000/svg" xmlns:xlink="http://www.w3.org/1999/xlink" x="0px" y="0px"
	 viewBox="0 0 72 72" style="enable-background:new 0 0 72 72;" xml:space="preserve">
<style type="text/css">
	.st0{fill:none;}
</style>
<title>all_out</title>
<rect class="st0" width="72" height="72"/>
<path d="M36,11.6c-13.3,0-24,10.7-24,24c0,13.3,10.7,24,24,24s24-10.7,24-24C60,22.3,49.3,11.6,36,11.6z M36,55.6c-11,0-20-9-20-20
	c0-11,9-20,20-20c11,0,20,9,20,20C56,46.6,47.1,55.6,36,55.6z"/>
<g>
	<path d="M11,19L11,19c1.1,0,2-0.9,2-2v-4h4c1.1,0,2-0.9,2-2v0c0-1.1-0.9-2-2-2h-6c-1.1,0-2,0.9-2,2v6C9,18.1,9.9,19,11,19z"/>
	<path d="M11,53L11,53c-1.1,0-2,0.9-2,2v6c0,1.1,0.9,2,2,2h6c1.1,0,2-0.9,2-2v0c0-1.1-0.9-2-2-2h-4v-4C13,53.9,12.1,53,11,53z"/>
	<path d="M53,11L53,11c0,1.1,0.9,2,2,2h4v4c0,1.1,0.9,2,2,2h0c1.1,0,2-0.9,2-2v-6c0-1.1-0.9-2-2-2h-6C53.9,9,53,9.9,53,11z"/>
	<path d="M59,59h-4c-1.1,0-2,0.9-2,2v0c0,1.1,0.9,2,2,2h6c1.1,0,2-0.9,2-2v-6c0-1.1-0.9-2-2-2h0c-1.1,0-2,0.9-2,2V59z"/>
</g>
</svg>
