<?xml version="1.0" encoding="utf-8"?>
<!-- Generator: Adobe Illustrator 24.0.0, SVG Export Plug-In . SVG Version: 6.00 Build 0)  -->
<svg version="1.1" id="Layer_1" xmlns="http://www.w3.org/2000/svg" xmlns:xlink="http://www.w3.org/1999/xlink" x="0px" y="0px"
	 viewBox="0 0 72 72" style="enable-background:new 0 0 72 72;" xml:space="preserve">
<style type="text/css">
	.st0{fill:none;}
	.st1{fill-rule:evenodd;clip-rule:evenodd;}
</style>
<title>all_inbox</title>
<rect class="st0" width="72" height="72"/>
<g>
	<path class="st1" d="M63,47H44c-1.1,0-2,0.9-2,2v1.8c0,3-2.2,5.8-5.2,6.2c-3.6,0.4-6.8-2.4-6.8-6v-2c0-1.1-0.9-2-2-2H9v12
		c0,2.2,1.8,4,4,4h46c2.2,0,4-1.8,4-4V47z M13,59v-8h13c0,3.1,1.5,6.1,4,8H13z M59,59H42c2.5-1.9,4-4.9,4-8h13V59z"/>
	<path class="st1" d="M59,9H13c-2.2,0-4,1.8-4,4v26c0,2.2,1.8,4,4,4h46c2.2,0,4-1.8,4-4V13C63,10.8,61.2,9,59,9z M13,39v-8h13
		c0,3.1,1.5,6.1,4,8H13z M59,39H42c2.5-1.9,4-4.9,4-8h13V39z M59,27H44c-1.1,0-2,0.9-2,2v1.8c0,3-2.2,5.8-5.2,6.2
		c-3.6,0.4-6.8-2.4-6.8-6v-2c0-1.1-0.9-2-2-2H13V13h46V27z"/>
</g>
</svg>
