<?xml version="1.0" encoding="utf-8"?>
<!-- Generator: Adobe Illustrator 24.0.0, SVG Export Plug-In . SVG Version: 6.00 Build 0)  -->
<svg version="1.1" id="Layer_1" xmlns="http://www.w3.org/2000/svg" xmlns:xlink="http://www.w3.org/1999/xlink" x="0px" y="0px"
	 viewBox="0 0 72 72" style="enable-background:new 0 0 72 72;" xml:space="preserve">
<style type="text/css">
	.st0{fill:none;}
</style>
<title>android</title>
<rect class="st0" width="72" height="72"/>
<circle cx="42" cy="20.5" r="2"/>
<circle cx="30" cy="20.5" r="2"/>
<g>
	<path d="M56,30.8v15c0,1.1,0.9,2,2,2h0c1.1,0,2-0.9,2-2v-15c0-1.1-0.9-2-2-2h0C56.9,28.8,56,29.7,56,30.8z"/>
	<path d="M14,47.8L14,47.8c1.1,0,2-0.9,2-2v-15c0-1.1-0.9-2-2-2h0c-1.1,0-2,0.9-2,2v15C12,46.9,12.9,47.8,14,47.8z"/>
</g>
<path d="M44.5,10.9l3.9-4c0.4-0.4,0.4-1,0-1.4v0c-0.4-0.4-1-0.4-1.4,0l-4.4,4.4c-2.1-1-4.3-1.4-6.6-1.5c-2.3,0-4.5,0.5-6.6,1.5
	L25,5.5c-0.4-0.4-1-0.4-1.4,0l0,0c-0.4,0.4-0.4,1,0,1.4l3.9,4c-4.7,2.9-7.5,8-7.5,13.6v24c0,2.2,1.8,4,4,4h3.9v10.9c0,1.1,0.9,2,2,2
	h0c1.1,0,2-0.9,2-2v-11H40v11c0,1.1,0.9,2,2,2h0c1.1,0,2-0.9,2-2v-11h4c2.2,0,4-1.8,4-4v-24C52,18.9,49.1,13.8,44.5,10.9z M48,48.4
	H24V28.8h24V48.4z M48,24.8H24v-0.1c0-5.9,4.1-11.1,9.9-12.1C41.4,11.3,48,17.1,48,24.4V24.8z"/>
</svg>
