<?xml version="1.0" encoding="utf-8"?>
<!-- Generator: Adobe Illustrator 24.0.0, SVG Export Plug-In . SVG Version: 6.00 Build 0)  -->
<svg version="1.1" id="Layer_1" xmlns="http://www.w3.org/2000/svg" xmlns:xlink="http://www.w3.org/1999/xlink" x="0px" y="0px"
	 viewBox="0 0 72 72" style="enable-background:new 0 0 72 72;" xml:space="preserve">
<style type="text/css">
	.st0{fill:none;}
</style>
<title>all_out</title>
<rect class="st0" width="72" height="72"/>
<g>
	<path d="M49,13v6c0,2.2,1.8,4,4,4h6c2.2,0,4-1.8,4-4v-6c0-2.2-1.8-4-4-4h-6C50.8,9,49,10.8,49,13z M58,19h-4c-0.6,0-1-0.4-1-1v-4
		c0-0.6,0.4-1,1-1h4c0.6,0,1,0.4,1,1v4C59,18.6,58.6,19,58,19z"/>
	<path d="M29,13v6c0,2.2,1.8,4,4,4h6c2.2,0,4-1.8,4-4v-6c0-2.2-1.8-4-4-4h-6C30.8,9,29,10.8,29,13z M38,19h-4c-0.6,0-1-0.4-1-1v-4
		c0-0.6,0.4-1,1-1h4c0.6,0,1,0.4,1,1v4C39,18.6,38.6,19,38,19z"/>
	<path d="M9,13v6c0,2.2,1.8,4,4,4h6c2.2,0,4-1.8,4-4v-6c0-2.2-1.8-4-4-4h-6C10.8,9,9,10.8,9,13z M18,19h-4c-0.6,0-1-0.4-1-1v-4
		c0-0.6,0.4-1,1-1h4c0.6,0,1,0.4,1,1v4C19,18.6,18.6,19,18,19z"/>
	<path d="M49,33v6c0,2.2,1.8,4,4,4h6c2.2,0,4-1.8,4-4v-6c0-2.2-1.8-4-4-4h-6C50.8,29,49,30.8,49,33z M58,39h-4c-0.6,0-1-0.4-1-1v-4
		c0-0.6,0.4-1,1-1h4c0.6,0,1,0.4,1,1v4C59,38.6,58.6,39,58,39z"/>
	<path d="M29,33v6c0,2.2,1.8,4,4,4h6c2.2,0,4-1.8,4-4v-6c0-2.2-1.8-4-4-4h-6C30.8,29,29,30.8,29,33z M38,39h-4c-0.6,0-1-0.4-1-1v-4
		c0-0.6,0.4-1,1-1h4c0.6,0,1,0.4,1,1v4C39,38.6,38.6,39,38,39z"/>
	<path d="M9,33v6c0,2.2,1.8,4,4,4h6c2.2,0,4-1.8,4-4v-6c0-2.2-1.8-4-4-4h-6C10.8,29,9,30.8,9,33z M18,39h-4c-0.6,0-1-0.4-1-1v-4
		c0-0.6,0.4-1,1-1h4c0.6,0,1,0.4,1,1v4C19,38.6,18.6,39,18,39z"/>
	<path d="M49,53v6c0,2.2,1.8,4,4,4h6c2.2,0,4-1.8,4-4v-6c0-2.2-1.8-4-4-4h-6C50.8,49,49,50.8,49,53z M58,59h-4c-0.6,0-1-0.4-1-1v-4
		c0-0.6,0.4-1,1-1h4c0.6,0,1,0.4,1,1v4C59,58.6,58.6,59,58,59z"/>
	<path d="M29,53v6c0,2.2,1.8,4,4,4h6c2.2,0,4-1.8,4-4v-6c0-2.2-1.8-4-4-4h-6C30.8,49,29,50.8,29,53z M38,59h-4c-0.6,0-1-0.4-1-1v-4
		c0-0.6,0.4-1,1-1h4c0.6,0,1,0.4,1,1v4C39,58.6,38.6,59,38,59z"/>
	<path d="M9,53v6c0,2.2,1.8,4,4,4h6c2.2,0,4-1.8,4-4v-6c0-2.2-1.8-4-4-4h-6C10.8,49,9,50.8,9,53z M18,59h-4c-0.6,0-1-0.4-1-1v-4
		c0-0.6,0.4-1,1-1h4c0.6,0,1,0.4,1,1v4C19,58.6,18.6,59,18,59z"/>
</g>
</svg>
