<?xml version="1.0" encoding="utf-8"?>
<!-- Generator: Adobe Illustrator 24.0.0, SVG Export Plug-In . SVG Version: 6.00 Build 0)  -->
<svg version="1.1" id="Layer_1" xmlns="http://www.w3.org/2000/svg" xmlns:xlink="http://www.w3.org/1999/xlink" x="0px" y="0px"
	 viewBox="0 0 72 72" style="enable-background:new 0 0 72 72;" xml:space="preserve">
<style type="text/css">
	.st0{display:none;fill:none;}
	.st1{fill:none;}
</style>
<title>info</title>
<rect y="0" class="st0" width="72" height="72"/>
<g>
	<path d="M55.2,9H16.8c-1.2,0-2.3,0.5-3.1,1.5l-3.8,4.7C9.3,15.9,9,16.8,9,17.7V59c0,2.2,1.8,4,4,4h46c2.2,0,4-1.8,4-4V17.7
		c0-0.9-0.3-1.8-0.9-2.5l-3.8-4.7C57.5,9.5,56.4,9,55.2,9z M16.8,13h38.3l3.8,4.7H13L16.8,13z M13,59V21.7h46V59H13z"/>
	<path d="M34,28.3v17.8l-5.7-5.7c-0.8-0.8-2-0.8-2.8,0l0,0c-0.8,0.8-0.8,2,0,2.8l9.1,9.1c0.8,0.8,2,0.8,2.8,0l9.1-9.1
		c0.8-0.8,0.8-2,0-2.8l0,0c-0.8-0.8-2-0.8-2.8,0L38,46.2V28.3c0-1.1-0.9-2-2-2l0,0C34.9,26.3,34,27.2,34,28.3z"/>
</g>
<rect class="st1" width="72" height="72"/>
</svg>
