<?xml version="1.0" encoding="utf-8"?>
<!-- Generator: Adobe Illustrator 24.0.0, SVG Export Plug-In . SVG Version: 6.00 Build 0)  -->
<svg version="1.1" id="Layer_1" xmlns="http://www.w3.org/2000/svg" xmlns:xlink="http://www.w3.org/1999/xlink" x="0px" y="0px"
	 viewBox="0 0 72 72" style="enable-background:new 0 0 72 72;" xml:space="preserve">
<style type="text/css">
	.st0{fill:none;}
</style>
<title>arrow_back</title>
<rect class="st0" width="72" height="72"/>
<path d="M61,34H15.9l19.2-19.2c0.8-0.8,0.8-2,0-2.8l0,0c-0.8-0.8-2-0.8-2.8,0L9.6,34.6c-0.8,0.8-0.8,2,0,2.8L32.2,60
	c0.8,0.8,2,0.8,2.8,0l0,0c0.8-0.8,0.8-2,0-2.8L15.9,38H61c1.1,0,2-0.9,2-2v0C63,34.9,62.1,34,61,34z"/>
</svg>
