<?xml version="1.0" encoding="utf-8"?>
<!-- Generator: Adobe Illustrator 24.0.0, SVG Export Plug-In . SVG Version: 6.00 Build 0)  -->
<svg version="1.1" id="Layer_1" xmlns="http://www.w3.org/2000/svg" xmlns:xlink="http://www.w3.org/1999/xlink" x="0px" y="0px"
	 viewBox="0 0 72 72" style="enable-background:new 0 0 72 72;" xml:space="preserve">
<style type="text/css">
	.st0{fill:none;}
</style>
<title>arrow_right_alt</title>
<rect class="st0" width="72" height="72"/>
<path d="M51.1,26.5L51.1,26.5c-0.8,0.8-0.8,2,0,2.8l4.6,4.6H11.4c-1.1,0-2,0.9-2,2v0c0,1.1,0.9,2,2,2h44.3l-4.6,4.6
	c-0.8,0.8-0.8,2,0,2.8l0,0c0.8,0.8,2,0.8,2.8,0l8-8c0.8-0.8,0.8-2,0-2.8l-8-8C53.1,25.8,51.9,25.8,51.1,26.5z"/>
</svg>
