<?xml version="1.0" encoding="utf-8"?>
<!-- Generator: Adobe Illustrator 24.0.0, SVG Export Plug-In . SVG Version: 6.00 Build 0)  -->
<svg version="1.1" id="Layer_1" xmlns="http://www.w3.org/2000/svg" xmlns:xlink="http://www.w3.org/1999/xlink" x="0px" y="0px"
	 viewBox="0 0 72 72" style="enable-background:new 0 0 72 72;" xml:space="preserve">
<style type="text/css">
	.st0{fill:none;}
</style>
<title>account_box</title>
<rect class="st0" width="72" height="72"/>
<path d="M59,12H13c-2.2,0-4,1.8-4,4v40c0,2.2,1.8,4,4,4h46c2.2,0,4-1.8,4-4V16C63,13.8,61.2,12,59,12z M59,56H13V16h46V56z"/>
<g>
	<path d="M20,33L20,33c1.1,0,2-0.9,2-2v-6h6c1.1,0,2-0.9,2-2v0c0-1.1-0.9-2-2-2h-8c-1.1,0-2,0.9-2,2v8C18,32.1,18.9,33,20,33z"/>
	<path d="M50,41v6h-6c-1.1,0-2,0.9-2,2v0c0,1.1,0.9,2,2,2h8c1.1,0,2-0.9,2-2v-8c0-1.1-0.9-2-2-2h0C50.9,39,50,39.9,50,41z"/>
</g>
</svg>
