<?xml version="1.0" encoding="utf-8"?>
<!-- Generator: Adobe Illustrator 24.0.0, SVG Export Plug-In . SVG Version: 6.00 Build 0)  -->
<svg version="1.1" id="Layer_1" xmlns="http://www.w3.org/2000/svg" xmlns:xlink="http://www.w3.org/1999/xlink" x="0px" y="0px"
	 viewBox="0 0 72 72" style="enable-background:new 0 0 72 72;" xml:space="preserve">
<style type="text/css">
	.st0{fill:none;}
</style>
<rect class="st0" width="72" height="72"/>
<path d="M59,9H13c-2.2,0-4,1.8-4,4v46c0,2.2,1.8,4,4,4h46c2.2,0,4-1.8,4-4V13C63,10.8,61.2,9,59,9z M59,59H13V13h46V59z"/>
<g>
	<path d="M36,52L36,52c1.1,0,2-0.9,2-2V22c0-1.1-0.9-2-2-2h0c-1.1,0-2,0.9-2,2v28C34,51.1,34.9,52,36,52z"/>
	<path d="M23.5,52L23.5,52c1.1,0,2-0.9,2-2V30c0-1.1-0.9-2-2-2h0c-1.1,0-2,0.9-2,2v20C21.5,51.1,22.4,52,23.5,52z"/>
	<path d="M46.5,36v14c0,1.1,0.9,2,2,2h0c1.1,0,2-0.9,2-2V36c0-1.1-0.9-2-2-2h0C47.4,34,46.5,34.9,46.5,36z"/>
</g>
</svg>
