<?xml version="1.0" encoding="utf-8"?>
<!-- Generator: Adobe Illustrator 24.0.0, SVG Export Plug-In . SVG Version: 6.00 Build 0)  -->
<svg version="1.1" id="Layer_1" xmlns="http://www.w3.org/2000/svg" xmlns:xlink="http://www.w3.org/1999/xlink" x="0px" y="0px"
	 viewBox="0 0 72 72" style="enable-background:new 0 0 72 72;" xml:space="preserve">
<style type="text/css">
	.st0{fill:none;}
</style>
<title>assignment_returned</title>
<rect class="st0" width="72" height="72"/>
<g>
	<path d="M57.2,14.4C57.2,14.4,57.1,14.4,57.2,14.4H43c-1-3.9-5-6.2-8.8-5.2c-2.5,0.7-4.5,2.6-5.2,5.2H15.3c-2,0-3.6,1.6-3.6,3.6
		v41.4c0,2,1.6,3.6,3.6,3.6h41.4c2,0,3.6-1.6,3.6-3.6V17.6C60.3,15.9,58.9,14.4,57.2,14.4z M36,12.6c1,0,1.8,0.8,1.8,1.8
		S37,16.2,36,16.2s-1.8-0.8-1.8-1.8S35,12.6,36,12.6z M56.3,59H15.7V18.4h40.6V59z"/>
	<path d="M57.1,14.4H43C42.2,11.3,39.4,9,36,9s-6.2,2.3-7,5.4H15.3c-2,0-3.6,1.6-3.6,3.6v41.4c0,2,1.6,3.6,3.6,3.6h41.4
		c2,0,3.6-1.6,3.6-3.6V17.6C60.3,15.8,58.9,14.4,57.1,14.4z M36,12.6c1,0,1.8,0.8,1.8,1.8S37,16.2,36,16.2s-1.8-0.8-1.8-1.8
		S35,12.6,36,12.6z M56.3,59H15.7V18.4h40.6V59z"/>
	<path d="M47.3,36.7H29.5l5.7-5.7c0.8-0.8,0.8-2,0-2.8l0,0c-0.8-0.8-2-0.8-2.8,0l-9.1,9.1c-0.8,0.8-0.8,2,0,2.8l9.1,9.1
		c0.8,0.8,2,0.8,2.8,0l0,0c0.8-0.8,0.8-2,0-2.8l-5.7-5.7h17.8c1.1,0,2-0.9,2-2v0C49.3,37.6,48.4,36.7,47.3,36.7z"/>
</g>
</svg>
