<?xml version="1.0" encoding="utf-8"?>
<!-- Generator: Adobe Illustrator 24.0.0, SVG Export Plug-In . SVG Version: 6.00 Build 0)  -->
<svg version="1.1" id="Layer_1" xmlns="http://www.w3.org/2000/svg" xmlns:xlink="http://www.w3.org/1999/xlink" x="0px" y="0px"
	 viewBox="0 0 72 72" style="enable-background:new 0 0 72 72;" xml:space="preserve">
<style type="text/css">
	.st0{fill:none;}
</style>
<title>account_box</title>
<rect class="st0" width="72" height="72"/>
<g>
	<path d="M43,14.4C42.2,11.3,39.4,9,36,9s-6.2,2.3-7,5.4H15.7c-2.2,0-4,1.8-4,4V59c0,2.2,1.8,4,4,4h40.6c2.2,0,4-1.8,4-4V18.4
		c0-2.2-1.8-4-4-4H43z M36,12.6c1,0,1.8,0.8,1.8,1.8S37,16.2,36,16.2s-1.8-0.8-1.8-1.8S35,12.6,36,12.6z M56.3,59H15.7V18.4h40.6V59
		z"/>
	<path d="M50,25.5H22c-1.1,0-2,0.9-2,2v0c0,1.1,0.9,2,2,2h28c1.1,0,2-0.9,2-2v0C52,26.4,51.1,25.5,50,25.5z"/>
	<path d="M50,36.7H22c-1.1,0-2,0.9-2,2v0c0,1.1,0.9,2,2,2h28c1.1,0,2-0.9,2-2v0C52,37.6,51.1,36.7,50,36.7z"/>
	<path d="M38,47.8H22c-1.1,0-2,0.9-2,2v0c0,1.1,0.9,2,2,2h16c1.1,0,2-0.9,2-2v0C40,48.7,39.1,47.8,38,47.8z"/>
</g>
</svg>
