<?xml version="1.0" encoding="utf-8"?>
<!-- Generator: Adobe Illustrator 24.0.0, SVG Export Plug-In . SVG Version: 6.00 Build 0)  -->
<svg version="1.1" id="Layer_1" xmlns="http://www.w3.org/2000/svg" xmlns:xlink="http://www.w3.org/1999/xlink" x="0px" y="0px"
	 viewBox="0 0 72 72" style="enable-background:new 0 0 72 72;" xml:space="preserve">
<style type="text/css">
	.st0{fill:none;}
</style>
<title>account_box</title>
<rect class="st0" width="72" height="72"/>
<g>
	<path d="M57.1,14.4H43C42.2,11.3,39.4,9,36,9s-6.2,2.3-7,5.4H15.3c-2,0-3.6,1.6-3.6,3.6v41.4c0,2,1.6,3.6,3.6,3.6h41.4
		c2,0,3.6-1.6,3.6-3.6V17.6C60.3,15.8,58.9,14.4,57.1,14.4z M36,12.6c1,0,1.8,0.8,1.8,1.8S37,16.2,36,16.2s-1.8-0.8-1.8-1.8
		S35,12.6,36,12.6z M56.3,59H15.7V18.4h40.6V59z"/>
	<path d="M36,24.8L36,24.8c-1.1,0-2,0.9-2,2v14c0,1.1,0.9,2,2,2h0c1.1,0,2-0.9,2-2v-14C38,25.7,37.1,24.8,36,24.8z"/>
	<path d="M35.4,51.1c1.9,0.4,3.5-1.2,3-3c-0.2-0.9-0.9-1.6-1.8-1.8c-1.9-0.4-3.5,1.2-3,3C33.8,50.2,34.5,50.9,35.4,51.1z"/>
</g>
</svg>
