<?xml version="1.0" encoding="utf-8"?>
<!-- Generator: Adobe Illustrator 24.0.0, SVG Export Plug-In . SVG Version: 6.00 Build 0)  -->
<svg version="1.1" id="Layer_1" xmlns="http://www.w3.org/2000/svg" xmlns:xlink="http://www.w3.org/1999/xlink" x="0px" y="0px"
	 viewBox="0 0 72 72" style="enable-background:new 0 0 72 72;" xml:space="preserve">
<style type="text/css">
	.st0{fill:none;}
</style>
<title>account_box</title>
<rect x="-0.5" class="st0" width="72" height="72"/>
<path d="M57.1,14.4H43C42.2,11.3,39.4,9,36,9s-6.2,2.3-7,5.4H15.3c-2,0-3.6,1.6-3.6,3.6v41.4c0,2,1.6,3.6,3.6,3.6h41.4
	c2,0,3.6-1.6,3.6-3.6V17.6C60.3,15.8,58.9,14.4,57.1,14.4z M36,12.6c1,0,1.8,0.8,1.8,1.8S37,16.2,36,16.2s-1.8-0.8-1.8-1.8
	S35,12.6,36,12.6z M56.3,59H15.7V18.4h40.6V59z"/>
<path d="M36,40.5c4.6,0,8.4-3.8,8.4-8.4s-3.8-8.4-8.4-8.4s-8.4,3.8-8.4,8.4S31.4,40.5,36,40.5z M36,27c2.8,0,5.1,2.3,5.1,5.1
	s-2.3,5.1-5.1,5.1S31,34.9,31,32.1C31,29.3,33.3,27,36,27z"/>
<path d="M36.1,42.6c-5.6,0-10.7,1.9-14.8,5.1c-0.8,0.6-1.3,1.6-1.3,2.6V53c0,1.9,1.5,3.4,3.4,3.4h25.3c1.9,0,3.4-1.5,3.4-3.4v-2.7
	c0-1-0.5-2-1.3-2.7C46.7,44.5,41.6,42.6,36.1,42.6z M23.4,53v-1.7c0-0.5,0.2-1,0.7-1.4c3.4-2.4,7.5-3.9,12-3.9
	c4.4,0,8.5,1.4,11.9,3.7c0.4,0.3,0.7,0.8,0.7,1.4V53H23.4z"/>
</svg>
