<?xml version="1.0" encoding="utf-8"?>
<!-- Generator: Adobe Illustrator 24.0.0, SVG Export Plug-In . SVG Version: 6.00 Build 0)  -->
<svg version="1.1" id="Layer_1" xmlns="http://www.w3.org/2000/svg" xmlns:xlink="http://www.w3.org/1999/xlink" x="0px" y="0px"
	 viewBox="0 0 72 72" style="enable-background:new 0 0 72 72;" xml:space="preserve">
<style type="text/css">
	.st0{fill:none;}
</style>
<title>attach_file</title>
<rect class="st0" width="72" height="72"/>
<path d="M49.5,22.1c-1.1,0-2,0.9-2,2v23c0,6.3-5,11.8-11.3,11.9c-6.4,0.1-11.7-5.1-11.7-11.5V20.2V20c0-3.3,2.2-6.2,5.4-6.8
	c4.6-1,8.6,2.4,8.6,6.8v23.3c0,1.3-0.9,2.5-2.2,2.6c-1.5,0.1-2.8-1-2.8-2.5V24c0-1.1-0.9-2-2-2h0c-1.1,0-2,0.9-2,2v19.2
	c0,3.6,2.7,6.7,6.3,6.8c3.7,0.1,6.7-2.8,6.7-6.5V20l0,0c0-6.1-4.9-11-11-11l0,0c-6.1,0-11,4.9-11,11v0.2v26.9c0,8,5.8,15,13.8,15.8
	c9.3,1,17.2-6.3,17.2-15.4V24.1C51.5,23,50.6,22.1,49.5,22.1L49.5,22.1z"/>
</svg>
