<?xml version="1.0" encoding="utf-8"?>
<!-- Generator: Adobe Illustrator 24.0.0, SVG Export Plug-In . SVG Version: 6.00 Build 0)  -->
<svg version="1.1" id="Layer_1" xmlns="http://www.w3.org/2000/svg" xmlns:xlink="http://www.w3.org/1999/xlink" x="0px" y="0px"
	 viewBox="0 0 72 72" style="enable-background:new 0 0 72 72;" xml:space="preserve">
<style type="text/css">
	.st0{fill:none;}
</style>
<path class="st0" d="M0,0h72v72H0V0z"/>
<path d="M37,13v29.1c-2.6-2.4-6.3-3.6-10.3-2.9c-5,0.9-8.9,5-9.6,10C16,56.9,22.2,63.5,29.8,63C36.2,62.6,41,57,41,50.7
	C41,40.4,41,21,41,21h10c2.2,0,4-1.8,4-4v-4c0-2.2-1.8-4-4-4H41C38.8,9,37,10.8,37,13z M30.6,58.9c-5.6,1.1-10.5-3.8-9.4-9.4
	c0.6-3.1,3.1-5.7,6.3-6.3c5.6-1.1,10.5,3.8,9.4,9.4C36.3,55.7,33.7,58.3,30.6,58.9z M51,17H41v-4h10V17z"/>
</svg>
