<?xml version="1.0" encoding="utf-8"?>
<!-- Generator: Adobe Illustrator 24.0.0, SVG Export Plug-In . SVG Version: 6.00 Build 0)  -->
<svg version="1.1" id="Layer_1" xmlns="http://www.w3.org/2000/svg" xmlns:xlink="http://www.w3.org/1999/xlink" x="0px" y="0px"
	 viewBox="0 0 72 72" style="enable-background:new 0 0 72 72;" xml:space="preserve">
<style type="text/css">
	.st0{fill:none;}
</style>
<title>autorenew</title>
<rect class="st0" width="72" height="72"/>
<path d="M57.4,14.9v5.1C52.5,13.4,44.5,9,35.6,9c-11.1,0-20.6,6.7-24.8,16.3c-0.6,1.3,0.4,2.7,1.8,2.7h0.1c0.8,0,1.5-0.4,1.8-1.1
	C18,18.7,26.1,13,35.6,13c8.3,0,15.6,4.4,19.6,11h-6.9c-1.1,0-1.9,0.9-1.9,1.9v0.1c0,1.1,0.9,1.9,1.9,1.9h8.8h2.3
	c1.1,0,1.9-0.9,1.9-1.9V14.9c0-1.1-0.9-1.9-1.9-1.9h-0.1C58.2,13,57.4,13.9,57.4,14.9z"/>
<path d="M59.3,44c-0.8,0-1.5,0.4-1.8,1.1C54,53.3,45.9,59,36.4,59c-8.3,0-15.6-4.4-19.6-11h6.9c1.1,0,1.9-0.9,1.9-1.9v-0.1
	c0-1.1-0.9-1.9-1.9-1.9h-8.8h-2.3c-1.1,0-1.9,0.9-1.9,1.9v11.1c0,1.1,0.9,1.9,1.9,1.9h0.1c1.1,0,1.9-0.9,1.9-1.9v-5.1
	C19.5,58.6,27.5,63,36.4,63c11.1,0,20.6-6.7,24.8-16.3c0.6-1.3-0.4-2.7-1.8-2.7H59.3z"/>
</svg>
