<?xml version="1.0" encoding="utf-8"?>
<!-- Generator: Adobe Illustrator 24.0.0, SVG Export Plug-In . SVG Version: 6.00 Build 0)  -->
<svg version="1.1" id="Layer_1" xmlns="http://www.w3.org/2000/svg" xmlns:xlink="http://www.w3.org/1999/xlink" x="0px" y="0px"
	 viewBox="0 0 72 72" style="enable-background:new 0 0 72 72;" xml:space="preserve">
<style type="text/css">
	.st0{fill:none;}
</style>
<title>info</title>
<rect class="st0" width="72" height="72"/>
<g>
	<circle cx="36" cy="51" r="2.5"/>
	<circle cx="51" cy="36" r="2.5"/>
	<circle cx="21" cy="36" r="2.5"/>
	<path d="M36,9L36,9c-1.1,0-2,0.9-2,2v8c0,1.1,0.9,2,2,2h0c1.1,0,2-0.9,2-2v-5.9C49.8,14.1,59,24,59,36c0,13.5-11.8,24.4-25.6,22.9
		C23,57.7,14.6,49.5,13.2,39.2c-0.9-6.9,1.2-13.3,5.3-18l16.4,16.4c0.8,0.8,2,0.8,2.8,0l0,0c0.8-0.8,0.8-2,0-2.8L19.9,16.8
		c-0.8-0.8-2-0.8-2.8,0C11.8,22,8.7,29.2,9,37.3c0.6,13.6,11.6,24.8,25.3,25.7C50,63.9,63,51.5,63,36C63,21.1,50.9,9,36,9z"/>
</g>
</svg>
