<?xml version="1.0" encoding="utf-8"?>
<!-- Generator: Adobe Illustrator 24.0.0, SVG Export Plug-In . SVG Version: 6.00 Build 0)  -->
<svg version="1.1" id="Layer_1" xmlns="http://www.w3.org/2000/svg" xmlns:xlink="http://www.w3.org/1999/xlink" x="0px" y="0px"
	 viewBox="0 0 72 72" style="enable-background:new 0 0 72 72;" xml:space="preserve">
<style type="text/css">
	.st0{fill:none;}
	.st1{display:none;fill:#CC3232;}
</style>
<title>backup</title>
<rect class="st0" width="72" height="72"/>
<path class="st1" d="M52.8,31.9c-1.5-7.9-8.4-13.8-16.7-13.8c-6.8,0-12.7,4-15.4,9.9C14.2,28.6,9,34.2,9,40.9c0,7.2,5.8,13,13,13
	c3.1,0,5.9-1.1,8.2-2.9c1.9,0.7,3.9,1.1,6,1.1c2.9,0,5.5-0.7,7.9-2c2,2.3,5,3.7,8.3,3.7c6.1,0,11-4.9,11-11
	C63.3,37,58.7,32.2,52.8,31.9z M52.3,49.9c-0.2,0-0.5,0-0.7,0c-0.2,0-0.3,0-0.5-0.1c-0.1,0-0.2,0-0.2,0c-0.2,0-0.4-0.1-0.6-0.1
	c0,0-0.1,0-0.1,0c-0.2-0.1-0.4-0.1-0.6-0.2c0,0,0,0,0,0c-0.8-0.4-1.6-0.9-2.2-1.5c0,0,0,0,0,0c-1-1-1.7-2.2-1.9-3.7
	c-1,1-2.2,1.9-3.4,2.5l0,0c0,0,0,0,0,0c-0.4,0.2-0.8,0.4-1.3,0.6c-0.1,0-0.1,0-0.2,0.1c-0.4,0.1-0.8,0.3-1.2,0.4
	c-0.1,0-0.2,0.1-0.3,0.1c-0.4,0.1-0.7,0.2-1.1,0.2c-0.1,0-0.2,0-0.3,0.1c-0.5,0.1-1,0.1-1.5,0.1c-0.5,0-1,0-1.5-0.1c0,0-0.1,0-0.1,0
	c-0.5-0.1-1-0.2-1.4-0.3c0,0,0,0,0,0l0,0c-1.3-0.3-2.6-0.9-3.7-1.6c-0.8,1.1-1.9,2.1-3.1,2.7c-0.3,0.2-0.6,0.3-0.9,0.4
	c-0.1,0-0.1,0-0.2,0.1c-0.2,0.1-0.5,0.2-0.7,0.2c-0.1,0-0.2,0-0.3,0.1c-0.2,0.1-0.5,0.1-0.7,0.1c-0.1,0-0.2,0-0.3,0
	c-0.3,0-0.7,0.1-1,0.1c-5,0-9-4-9-9c0-0.3,0-0.6,0-0.8c0-0.1,0-0.2,0-0.3c0-0.2,0.1-0.4,0.1-0.6c0-0.1,0-0.2,0.1-0.3
	c0-0.2,0.1-0.3,0.1-0.5c0-0.1,0.1-0.2,0.1-0.3c0.1-0.2,0.1-0.4,0.2-0.5c0-0.1,0.1-0.1,0.1-0.2c0.1-0.2,0.2-0.5,0.3-0.7
	c0-0.1,0.1-0.2,0.1-0.2c0.1-0.2,0.2-0.3,0.3-0.4c0.1-0.1,0.1-0.2,0.2-0.3c0.1-0.1,0.2-0.2,0.3-0.4c0.1-0.1,0.2-0.2,0.2-0.3
	c0.1-0.1,0.2-0.2,0.3-0.3c0.1-0.1,0.2-0.2,0.3-0.3c0.1-0.1,0.2-0.2,0.3-0.3c0.2-0.1,0.3-0.3,0.5-0.4c0.1-0.1,0.2-0.2,0.3-0.2
	c0.1-0.1,0.2-0.2,0.4-0.2c0.1-0.1,0.2-0.1,0.3-0.2c0.1-0.1,0.3-0.1,0.4-0.2c0.1-0.1,0.2-0.1,0.3-0.2c0.1-0.1,0.3-0.1,0.4-0.2
	c0.1,0,0.2-0.1,0.3-0.1c0.9-0.3,2-0.5,3-0.5c0.5,0,1,0.1,1.5,0.2c0.3-1.4,0.9-2.6,1.6-3.8l0,0c0,0,0,0,0,0c0.4-0.7,0.9-1.3,1.4-1.9
	c0,0,0-0.1,0.1-0.1c0.5-0.5,1.1-1,1.6-1.5c0.1-0.1,0.2-0.1,0.3-0.2c0.2-0.1,0.4-0.3,0.6-0.4c0.2-0.1,0.4-0.3,0.6-0.4
	c0.1-0.1,0.3-0.2,0.4-0.2c0.2-0.1,0.4-0.2,0.6-0.3c0.1-0.1,0.2-0.1,0.4-0.2c0.3-0.1,0.6-0.2,1-0.3c0.1,0,0.2-0.1,0.3-0.1
	c0.3-0.1,0.6-0.2,0.9-0.2c0.1,0,0.1,0,0.2,0c0.4-0.1,0.7-0.1,1.1-0.2c0.1,0,0.2,0,0.3,0c0.4,0,0.8-0.1,1.2-0.1c0.4,0,0.8,0,1.3,0.1
	c0.1,0,0.3,0,0.4,0.1c0.3,0,0.5,0.1,0.8,0.1c0.2,0,0.3,0.1,0.5,0.1c0.2,0.1,0.5,0.1,0.7,0.2c0.2,0,0.3,0.1,0.5,0.1
	c0.2,0.1,0.5,0.2,0.7,0.2c0.2,0.1,0.3,0.1,0.5,0.2c0.2,0.1,0.4,0.2,0.7,0.3c0.1,0.1,0.3,0.1,0.4,0.2c0.2,0.1,0.4,0.3,0.7,0.4
	c0.1,0.1,0.2,0.1,0.3,0.2c0.3,0.2,0.6,0.4,0.9,0.7c0.1,0,0.1,0.1,0.2,0.2c0.2,0.2,0.5,0.4,0.7,0.6c0.1,0.1,0.2,0.2,0.3,0.3
	c0.2,0.2,0.3,0.3,0.5,0.5c0.1,0.1,0.2,0.3,0.3,0.4c0.1,0.2,0.3,0.3,0.4,0.5c0.1,0.1,0.2,0.3,0.3,0.4c0.1,0.2,0.2,0.4,0.3,0.6
	c0.1,0.2,0.2,0.3,0.3,0.5c0.1,0.2,0.2,0.4,0.3,0.6c0.1,0.2,0.2,0.3,0.2,0.5c0.1,0.2,0.2,0.4,0.2,0.7c0.1,0.2,0.1,0.3,0.2,0.5
	c0.1,0.4,0.2,0.7,0.3,1.1c0.2,0.9,0.3,1.7,0.3,2.7c0,0.5,0,1.1-0.1,1.6c1-0.5,2.1-0.8,3.3-0.8c1.1,0,2.2,0.3,3.2,0.8
	c0,0,0.1,0,0.1,0c0.1,0.1,0.3,0.2,0.4,0.2c0.1,0,0.1,0.1,0.2,0.1c0.1,0.1,0.2,0.2,0.3,0.2c0.1,0,0.1,0.1,0.2,0.1
	c0.1,0.1,0.2,0.2,0.3,0.3c0.1,0.1,0.1,0.1,0.2,0.2c0.1,0.1,0.2,0.2,0.3,0.3c0.1,0.1,0.1,0.1,0.2,0.2c0.1,0.1,0.2,0.2,0.2,0.3
	c0.1,0.1,0.1,0.2,0.2,0.2c0.1,0.1,0.1,0.2,0.2,0.3c0.1,0.1,0.1,0.2,0.2,0.3c0.1,0.1,0.1,0.2,0.2,0.3c0.1,0.1,0.1,0.2,0.1,0.3
	c0,0.1,0.1,0.2,0.1,0.3c0,0.1,0.1,0.2,0.1,0.3c0,0.1,0.1,0.2,0.1,0.3c0,0.1,0.1,0.3,0.1,0.4c0,0.1,0,0.2,0.1,0.3
	c0,0.1,0,0.3,0.1,0.4c0,0.1,0,0.2,0,0.2c0,0.2,0,0.5,0,0.7C59.3,46.8,56.2,49.9,52.3,49.9z"/>
<path d="M63.2,42.9c0-5.9-4.7-10.8-10.6-11c-1.5-7.9-8.4-13.8-16.7-13.8c-6.8,0-12.7,4-15.4,9.9c-6.5,0.7-11.6,6.2-11.6,12.9
	c0,7.1,5.7,12.9,12.8,13l30.5,0C58.2,53.9,63.2,49,63.2,42.9z M52.2,49.9H21.8c-5,0-9-4-9-9s4-9,9-9h1.4c0.9-3.5,3.3-6.7,6.8-8.4
	c6.4-3.2,14.2-0.6,17.4,5.8c1.1,2.1,1.5,4.4,1.3,6.6h3.3c3.9,0,7,3.1,7,7C59.2,46.8,56,49.9,52.2,49.9z"/>
<path d="M44.1,34.7L37.4,28c-0.8-0.8-2-0.8-2.8,0l-6.7,6.7c-1,1-1,2.6,0,3.5h0c1,1,2.6,1,3.5,0l2.1-2.1v8.9c0,1.4,1.1,2.5,2.5,2.5h0
	c1.4,0,2.5-1.1,2.5-2.5v-8.9l2.1,2.1c1,1,2.6,1,3.5,0l0,0C45.1,37.3,45.1,35.7,44.1,34.7z"/>
</svg>
