<?xml version="1.0" encoding="utf-8"?>
<!-- Generator: Adobe Illustrator 24.0.0, SVG Export Plug-In . SVG Version: 6.00 Build 0)  -->
<svg version="1.1" id="Layer_1" xmlns="http://www.w3.org/2000/svg" xmlns:xlink="http://www.w3.org/1999/xlink" x="0px" y="0px"
	 viewBox="0 0 72 72" style="enable-background:new 0 0 72 72;" xml:space="preserve">
<style type="text/css">
	.st0{fill:none;}
</style>
<title>local_offer</title>
<rect class="st0" width="72" height="72"/>
<g>
	<path d="M23,19.7L9.5,33.2c-1.6,1.6-1.6,4.1,0,5.7L23,52.3c0.8,0.8,1.8,1.2,2.8,1.2h33.8c2.2,0,4-1.8,4-4v-27c0-2.2-1.8-4-4-4H25.9
		C24.8,18.5,23.8,18.9,23,19.7z M59.6,22.5v27H25.9L12.4,36l13.5-13.5H59.6z"/>
	<path d="M50.5,42.4L44.1,36l6.4-6.4c0.8-0.8,0.8-2,0-2.8l0,0c-0.8-0.8-2-0.8-2.8,0l-6.4,6.4l-6.4-6.4c-0.8-0.8-2-0.8-2.8,0v0
		c-0.8,0.8-0.8,2,0,2.8l6.4,6.4l-6.4,6.4c-0.8,0.8-0.8,2,0,2.8v0c0.8,0.8,2,0.8,2.8,0l6.4-6.4l6.4,6.4c0.8,0.8,2,0.8,2.8,0l0,0
		C51.3,44.4,51.3,43.1,50.5,42.4z"/>
</g>
</svg>
