<?xml version="1.0" encoding="utf-8"?>
<!-- Generator: Adobe Illustrator 24.0.0, SVG Export Plug-In . SVG Version: 6.00 Build 0)  -->
<svg version="1.1" id="Layer_1" xmlns="http://www.w3.org/2000/svg" xmlns:xlink="http://www.w3.org/1999/xlink" x="0px" y="0px"
	 viewBox="0 0 72 72" style="enable-background:new 0 0 72 72;" xml:space="preserve">
<style type="text/css">
	.st0{fill:none;}
</style>
<title>local_shipping</title>
<rect class="st0" width="72" height="72"/>
<path d="M24,26.7c0-7.9,5.4-14.4,12-14.4s12,6.5,12,14.4c0,12.9-10.2,16.3-12,16.8C34.2,42.9,24,39.5,24,26.7z M33.6,50.8L36,47
	l2.4,3.8H33.6z M41.4,55.7c-1.5-0.4-2.7-0.8-3.2-1.5c-0.1-0.1-0.1-0.2-0.2-0.3h0.3c2.4,0,3.8-2.6,2.5-4.6l-1.7-2.6
	c6.5-2.7,12.8-9,12.8-19.9c0-10.1-7.2-18.4-16-18.4s-16,8.3-16,18.4c0,10.8,6.3,17.2,12.8,19.9l-1.7,2.6c-1.3,2,0.2,4.6,2.5,4.6h1.3
	c0.2,0.7,0.5,1.4,0.9,2c1.1,1.6,2.9,2.2,4.9,2.8c2.8,0.8,5.3,1.8,5.8,3.9c0.2,0.7,0.8,1.2,1.5,1.2h0c1,0,1.7-0.9,1.5-1.8
	C48.6,57.6,43.6,56.2,41.4,55.7z"/>
</svg>
