<?xml version="1.0" encoding="utf-8"?>
<!-- Generator: Adobe Illustrator 24.0.0, SVG Export Plug-In . SVG Version: 6.00 Build 0)  -->
<svg version="1.1" id="Layer_1" xmlns="http://www.w3.org/2000/svg" xmlns:xlink="http://www.w3.org/1999/xlink" x="0px" y="0px"
	 viewBox="0 0 72 72" style="enable-background:new 0 0 72 72;" xml:space="preserve">
<style type="text/css">
	.st0{fill:none;}
</style>
<title>thumb_up</title>
<rect class="st0" width="72" height="72"/>
<g>
	<circle cx="22.5" cy="22.5" r="4"/>
	<path d="M56.8,38.3V16.5c0-6.2-7.5-9.4-11.9-4.9l-3.8,3.8c-0.3-0.1-0.6-0.1-1-0.1c-0.8,0-1.5,0.2-2.1,0.6l5.4,5.4
		c0.4-0.6,0.6-1.3,0.6-2.1c0-0.3-0.1-0.7-0.1-1l3.8-3.8c1.9-1.9,5.1-0.6,5.1,2.1v21.8H33.4c-0.8-0.5-1.5-1.2-2.1-1.9l-3.6-4
		c-0.5-0.5-1.1-1-1.8-1.3c-0.8-0.4-1.7-0.6-2.6-0.6c-3.2,0-5.8,2.6-5.8,5.9v2H9v17.4c0,2.2,1.8,4,4,4h1.4c0,1.6,1.3,2.8,2.8,2.8
		h37.5c1.6,0,2.8-1.3,2.8-2.8H59c2.2,0,4-1.8,4-4V38.3H56.8z M59,55.7H13V42.3h46V55.7z"/>
</g>
</svg>
