<?xml version="1.0" encoding="utf-8"?>
<!-- Generator: Adobe Illustrator 24.0.0, SVG Export Plug-In . SVG Version: 6.00 Build 0)  -->
<svg version="1.1" id="Layer_1" xmlns="http://www.w3.org/2000/svg" xmlns:xlink="http://www.w3.org/1999/xlink" x="0px" y="0px"
	 viewBox="0 0 72 72" style="enable-background:new 0 0 72 72;" xml:space="preserve">
<style type="text/css">
	.st0{fill:none;}
</style>
<title>tag_faces</title>
<rect class="st0" width="72" height="72"/>
<g>
	<path d="M18.6,18.6c-10.8,10.8-12,27.6-3.4,39.7c1.4,2,4.4,2.3,6.1,0.5l37.6-37.6c1.8-1.8,1.5-4.7-0.5-6.1
		C46.3,6.7,29.5,7.8,18.6,18.6z M56.1,18.5l-7.7,7.7c-6.6-5.9-15.1-8.4-23.3-7.7C34.4,11.9,46.8,12,56.1,18.5z M22.8,22.8
		c7.9-1.5,16.4,0.6,22.8,6.2L29,45.6C23.3,39.2,21.3,30.7,22.8,22.8z M18.4,25.1c-0.7,8.3,1.8,16.7,7.7,23.3l-7.7,7.7
		C12,46.8,11.9,34.4,18.4,25.1z"/>
	<path d="M61.8,61.8L61.8,61.8c0.8-0.8,0.8-2,0-2.8l-17-17c-0.8-0.8-2-0.8-2.8,0l0,0c-0.8,0.8-0.8,2,0,2.8l17,17
		C59.8,62.6,61.1,62.6,61.8,61.8z"/>
</g>
</svg>
