<?xml version="1.0" encoding="utf-8"?>
<!-- Generator: Adobe Illustrator 24.0.0, SVG Export Plug-In . SVG Version: 6.00 Build 0)  -->
<svg version="1.1" id="Layer_1" xmlns="http://www.w3.org/2000/svg" xmlns:xlink="http://www.w3.org/1999/xlink" x="0px" y="0px"
	 viewBox="0 0 72 72" style="enable-background:new 0 0 72 72;" xml:space="preserve">
<style type="text/css">
	.st0{fill:none;}
</style>
<title>block</title>
<rect class="st0" width="72" height="72"/>
<path d="M36,9C21.1,9,9,21.1,9,36s12.1,27,27,27s27-12.1,27-27S50.9,9,36,9z M36,13c5.4,0,10.7,1.9,14.8,5.4L18.4,50.8
	c-8.2-9.7-6.9-24.2,2.8-32.4C25.4,14.9,30.6,13,36,13z M36,59c-5.4,0-10.7-1.9-14.8-5.4l32.4-32.4c8.2,9.7,6.9,24.2-2.8,32.4
	C46.6,57.1,41.4,59,36,59z"/>
</svg>
