<?xml version="1.0" encoding="utf-8"?>
<!-- Generator: Adobe Illustrator 24.0.0, SVG Export Plug-In . SVG Version: 6.00 Build 0)  -->
<svg version="1.1" id="Layer_1" xmlns="http://www.w3.org/2000/svg" xmlns:xlink="http://www.w3.org/1999/xlink" x="0px" y="0px"
	 viewBox="0 0 72 72" style="enable-background:new 0 0 72 72;" xml:space="preserve">
<style type="text/css">
	.st0{fill:none;}
	.st1{display:none;}
</style>
<title>local_offer</title>
<rect class="st0" width="72" height="72"/>
<path class="st1" d="M53.2,24.4L37.7,9H35v20.5L22.6,17.1l-3.8,3.8L33.9,36L18.8,51.1l3.8,3.8L35,42.5V63h2.7l15.4-15.4L41.5,36
	L53.2,24.4z M40.4,19.3l5.1,5.1l-5.1,5.1V19.3z M45.5,47.6l-5.1,5.1V42.5L45.5,47.6z"/>
<path d="M41.8,36.1L51.8,26c1.2-1.2,1.2-3.1,0-4.2L40.4,10.3C39.1,9,37,9.9,37,11.7v19.5L22.7,17c-0.8-0.8-2-0.8-2.8,0l0,0
	c-0.8,0.8-0.8,2,0,2.8l16.3,16.3L19.9,52.3c-0.8,0.8-0.8,2,0,2.8l0,0c0.8,0.8,2,0.8,2.8,0L37,40.9v19.4c0,1.8,2.2,2.7,3.4,1.4
	l11.4-11.4c1.2-1.2,1.2-3.1,0-4.2L41.8,36.1z M48.3,23.9L41,31.2V16.5L48.3,23.9z M41,55.5V40.9l7.3,7.3L41,55.5z"/>
</svg>
