<?xml version="1.0" encoding="utf-8"?>
<!-- Generator: Adobe Illustrator 24.0.0, SVG Export Plug-In . SVG Version: 6.00 Build 0)  -->
<svg version="1.1" id="Layer_1" xmlns="http://www.w3.org/2000/svg" xmlns:xlink="http://www.w3.org/1999/xlink" x="0px" y="0px"
	 viewBox="0 0 72 72" style="enable-background:new 0 0 72 72;" xml:space="preserve">
<style type="text/css">
	.st0{fill:none;}
</style>
<title>local_offer</title>
<rect class="st0" width="72" height="72"/>
<g>
	<path d="M55.1,52.3L19.7,16.9c-0.8-0.8-2-0.8-2.8,0l0,0c-0.8,0.8-0.8,2,0,2.8l17.8,17.8L19.9,52.3c-0.8,0.8-0.8,2,0,2.8h0
		c0.8,0.8,2,0.8,2.8,0L37,40.9v19.4c0,1.8,2.2,2.7,3.4,1.4l9.3-9.3l2.6,2.6c0.8,0.8,2,0.8,2.8,0l0,0C55.9,54.3,55.9,53,55.1,52.3z
		 M41,55.5V43.8l5.8,5.8L41,55.5z"/>
	<path d="M43.2,34.7l8.7-8.7c1.2-1.2,1.2-3.1,0-4.2L40.4,10.3C39.1,9,37,9.9,37,11.7v16.8L43.2,34.7z M41,16.5l7.4,7.4L41,31.2V16.5
		z"/>
</g>
</svg>
