<?xml version="1.0" encoding="utf-8"?>
<!-- Generator: Adobe Illustrator 24.0.0, SVG Export Plug-In . SVG Version: 6.00 Build 0)  -->
<svg version="1.1" id="Layer_1" xmlns="http://www.w3.org/2000/svg" xmlns:xlink="http://www.w3.org/1999/xlink" x="0px" y="0px"
	 viewBox="0 0 72 72" style="enable-background:new 0 0 72 72;" xml:space="preserve">
<style type="text/css">
	.st0{fill:none;}
</style>
<title>bookmark_border</title>
<rect class="st0" width="72" height="72"/>
<path d="M49,14.3H15c-2.2,0-4,1.8-4,4v43.4c0,2.9,2.9,4.8,5.6,3.7L32,58.9l15.4,6.6c2.6,1.1,5.6-0.8,5.6-3.7V18.3
	C53,16.1,51.2,14.3,49,14.3z M49,61.8l-15.4-6.6c-1-0.4-2.1-0.4-3.1,0L15,61.8V18.3h34V61.8z"/>
<path d="M57,6.2H23c-2.2,0-4,1.8-4,4h4h34v43.4v4c2.1,0,4-1.7,4-4V10.2C61,8,59.2,6.2,57,6.2z"/>
</svg>
