<?xml version="1.0" encoding="utf-8"?>
<!-- Generator: Adobe Illustrator 24.0.0, SVG Export Plug-In . SVG Version: 6.00 Build 0)  -->
<svg version="1.1" id="Layer_1" xmlns="http://www.w3.org/2000/svg" xmlns:xlink="http://www.w3.org/1999/xlink" x="0px" y="0px"
	 viewBox="0 0 72 72" style="enable-background:new 0 0 72 72;" xml:space="preserve">
<style type="text/css">
	.st0{fill:none;}
</style>
<title>local_offer</title>
<rect class="st0" width="72" height="72"/>
<path d="M56.5,27.5v-8c0-2.2-1.8-4-4-4h-8l-5.7-5.7c-1.6-1.6-4.1-1.6-5.7,0l-5.7,5.7h-8c-2.2,0-4,1.8-4,4v8l-5.7,5.7
	c-1.6,1.6-1.6,4.1,0,5.7l5.7,5.7v8c0,2.2,1.8,4,4,4h8l5.7,5.7c1.6,1.6,4.1,1.6,5.7,0l5.7-5.7h8c2.2,0,4-1.8,4-4v-8l5.7-5.7
	c1.6-1.6,1.6-4.1,0-5.7L56.5,27.5z M52.5,44.5v8h-8c-1.1,0-2.1,0.4-2.8,1.2L36,59.3l-5.7-5.7c-0.8-0.8-1.8-1.2-2.8-1.2h-8v-7.6
	c0-1.3-0.5-2.6-1.5-3.5L12.7,36l5.7-5.7c0.8-0.8,1.2-1.8,1.2-2.8v-8h8c1.1,0,2.1-0.4,2.8-1.2l5.7-5.7l5.7,5.7
	c0.8,0.8,1.8,1.2,2.8,1.2h8v8c0,1.1,0.4,2.1,1.2,2.8l5.7,5.7l-5.7,5.7C52.9,42.4,52.5,43.4,52.5,44.5z"/>
<path d="M36,20c-8.8,0-16,7.2-16,16s7.2,16,16,16s16-7.2,16-16S44.8,20,36,20z M36,48c-6.6,0-12-5.4-12-12c0-6.6,5.4-12,12-12
	c6.6,0,12,5.4,12,12C48,42.6,42.6,48,36,48z"/>
</svg>
