<?xml version="1.0" encoding="utf-8"?>
<!-- Generator: Adobe Illustrator 24.0.0, SVG Export Plug-In . SVG Version: 6.00 Build 0)  -->
<svg version="1.1" id="Layer_1" xmlns="http://www.w3.org/2000/svg" xmlns:xlink="http://www.w3.org/1999/xlink" x="0px" y="0px"
	 viewBox="0 0 72 72" style="enable-background:new 0 0 72 72;" xml:space="preserve">
<style type="text/css">
	.st0{fill:none;}
</style>
<title>bug_report</title>
<rect class="st0" width="72" height="72"/>
<g>
	<path d="M58,24.6h-5.9c-1.7-3.5-4.5-6.3-8-8.1l3.9-3.9c0.8-0.8,0.8-2,0-2.8v0c-0.8-0.8-2-0.8-2.8,0L40,15c-1.3-0.3-2.6-0.5-4-0.5
		s-2.7,0.2-4,0.5l-5.2-5.2c-0.8-0.8-2-0.8-2.8,0l0,0c-0.8,0.8-0.8,2,0,2.8l3.9,3.9c-3.5,1.8-6.3,4.6-8,8.1H14c-1.1,0-2,0.9-2,2v0
		c0,1.1,0.9,2,2,2h4.4c-0.3,1.3-0.4,2.6-0.4,3.9v3.9h-4c-1.1,0-2,0.9-2,2v0c0,1.1,0.9,2,2,2h4v4.1c0,1.4,0.2,2.7,0.4,3.9H14
		c-1.1,0-2,0.9-2,2v0c0,1.1,0.9,2,2,2h5.9c2.9,6,9,10.1,16.1,10.1c7.1,0,13.2-4.1,16.1-10.1H58c1.1,0,2-0.9,2-2v0c0-1.1-0.9-2-2-2
		h-4.4c0.3-1.3,0.4-2.6,0.4-3.9v-4.1h4c1.1,0,2-0.9,2-2v0c0-1.1-0.9-2-2-2h-4v-3.9c0-1.4-0.2-2.7-0.4-3.9H58c1.1,0,2-0.9,2-2v0
		C60,25.5,59.1,24.6,58,24.6z M50,40.5v4.1c0,7.7-6.3,14-14,14s-14-6.3-14-14v-4.1v-4v-3.9c0-7.7,6.3-14,14-14s14,6.3,14,14v3.9
		V40.5z"/>
	<path d="M32,34.6h8c1.1,0,2-0.9,2-2v0c0-1.1-0.9-2-2-2h-8c-1.1,0-2,0.9-2,2v0C30,33.7,30.9,34.6,32,34.6z"/>
	<path d="M32,46.6h8c1.1,0,2-0.9,2-2v0c0-1.1-0.9-2-2-2h-8c-1.1,0-2,0.9-2,2v0C30,45.7,30.9,46.6,32,46.6z"/>
</g>
</svg>
