<?xml version="1.0" encoding="utf-8"?>
<!-- Generator: Adobe Illustrator 24.0.0, SVG Export Plug-In . SVG Version: 6.00 Build 0)  -->
<svg version="1.1" id="Layer_1" xmlns="http://www.w3.org/2000/svg" xmlns:xlink="http://www.w3.org/1999/xlink" x="0px" y="0px"
	 viewBox="0 0 72 72" style="enable-background:new 0 0 72 72;" xml:space="preserve">
<style type="text/css">
	.st0{fill:none;}
</style>
<title>business</title>
<rect class="st0" width="72" height="72"/>
<path d="M59.2,38.6h-8.9V28.4H37.8V18.2v-4.2l-4-5h-8.5l-4,5v4.2h-8.5c-2.2,0-4,1.8-4,4v36.7c0,2.2,1.8,4,4,4h37.6h8.9v0h4V38.6
	H59.2z M21.3,58.9h-8.5v-6.2h8.5V58.9z M21.3,48.8h-8.5v-6.2h8.5V48.8z M21.3,38.6h-8.5v-6.2h8.5V38.6z M21.3,28.4h-8.5v-6.2h8.5
	V28.4z M33.8,58.9h-8.5v-6.2h8.5V58.9z M33.8,48.8h-8.5v-6.2h8.5V48.8z M33.8,38.6h-8.5v-6.2h8.5V38.6z M33.8,28.4h-8.5v-6.2h8.5
	V28.4z M33.8,18.2h-8.5v-4.2h8.5V18.2z M46.3,58.9h-8.5v-6.2h8.5V58.9z M46.3,48.8h-8.5v-6.2h8.5V48.8z M46.3,38.6h-8.5v-6.2h8.5
	V38.6z M59.2,58.9h-8.9v-6.2h8.9V58.9z M59.2,48.8h-8.9v-6.2h8.9V48.8z"/>
</svg>
