<?xml version="1.0" encoding="utf-8"?>
<!-- Generator: Adobe Illustrator 24.0.0, SVG Export Plug-In . SVG Version: 6.00 Build 0)  -->
<svg version="1.1" id="Layer_1" xmlns="http://www.w3.org/2000/svg" xmlns:xlink="http://www.w3.org/1999/xlink" x="0px" y="0px"
	 viewBox="0 0 72 72" style="enable-background:new 0 0 72 72;" xml:space="preserve">
<style type="text/css">
	.st0{fill:none;}
</style>
<title>business</title>
<rect class="st0" width="72" height="72"/>
<g>
	<g>
		<path d="M59,22.8H38v-7.2c0-2.2-1.8-4-4-4H13c-2.2,0-4,1.8-4,4v40.7c0,2.2,1.8,4,4,4H59c2.2,0,4-1.8,4-4V26.8
			C63,24.6,61.3,22.8,59,22.8z M34,22.8h-8.5v-7.2H34V22.8z M25.5,45.2V38H34v7.2H25.5z M34,49.2v7.2h-8.5v-7.2H34z M13,26.8h8.5V34
			H13V26.8z M13,38h8.5v7.2H13V38z M25.5,34v-7.2H34V34H25.5z M21.5,15.6v7.2H13v-7.2H21.5z M13,49.2h8.5v7.2H13V49.2z M38,56.4
			v-7.2h4v-4h-4V38h4v-4h-4v-7.2h21v29.5H38z"/>
	</g>
	<rect x="48.3" y="34" width="5" height="4"/>
	<rect x="48.3" y="45.2" width="5" height="4"/>
</g>
</svg>
