<?xml version="1.0" encoding="utf-8"?>
<!-- Generator: Adobe Illustrator 24.0.0, SVG Export Plug-In . SVG Version: 6.00 Build 0)  -->
<svg version="1.1" id="Layer_1" xmlns="http://www.w3.org/2000/svg" xmlns:xlink="http://www.w3.org/1999/xlink" x="0px" y="0px"
	 viewBox="0 0 72 72" style="enable-background:new 0 0 72 72;" xml:space="preserve">
<style type="text/css">
	.st0{fill:none;}
</style>
<title>autorenew</title>
<rect class="st0" width="72" height="72"/>
<path d="M36.2,56.1c-6.8,0-12.8-3.4-16.4-8.5h5.6c1.1,0,2-0.9,2-2v0c0-1.1-0.9-2-2-2h-10c-1.1,0-2,0.9-2,2v10c0,1.1,0.9,2,2,2h0
	c1.1,0,2-0.9,2-2V51c4.4,5.6,11.2,9.1,18.8,9.1c9.6,0,17.8-5.6,21.7-13.7c0.6-1.3-0.3-2.9-1.8-2.9h0c-0.8,0-1.5,0.4-1.8,1.1
	C51,51.4,44.2,56.1,36.2,56.1z"/>
<path d="M55.3,17.6v4c-4.4-5.8-11.3-9.5-19.1-9.5c-9.9,0-18.5,6-22.1,14.7c-0.6,1.3,0.4,2.8,1.8,2.8h0c0.8,0,1.5-0.5,1.8-1.2
	c3-7.2,10.1-12.3,18.4-12.3c7.2,0,13.5,3.8,17,9.5h-5.9c-1.1,0-2,0.9-2,2v0c0,1.1,0.9,2,2,2h10c1.1,0,2-0.9,2-2v-10c0-1.1-0.9-2-2-2
	h0C56.2,15.6,55.3,16.5,55.3,17.6z"/>
</svg>
