<?xml version="1.0" encoding="utf-8"?>
<!-- Generator: Adobe Illustrator 24.0.0, SVG Export Plug-In . SVG Version: 6.00 Build 0)  -->
<svg version="1.1" id="Layer_1" xmlns="http://www.w3.org/2000/svg" xmlns:xlink="http://www.w3.org/1999/xlink" x="0px" y="0px"
	 viewBox="0 0 72 72" style="enable-background:new 0 0 72 72;" xml:space="preserve">
<style type="text/css">
	.st0{fill:none;}
</style>
<path class="st0" d="M0,0h72v72H0V0z"/>
<g>
	<path d="M36,21c2.2,0,4-1.8,4-4c0-0.8-0.2-1.5-0.6-2.1L36,9L32.6,15C32.2,15.6,32,16.3,32,17C32,19.2,33.8,21,36,21z"/>
	<path d="M58,35c0-3.3-2.7-6-6-6H38v-3.9h-4V29H20c-3.3,0-6,2.7-6,6v24c0,2.2,1.8,4,4,4h36c2.2,0,4-1.8,4-4V35z M20,33h32
		c1.1,0,2,0.9,2,2v12.3c-1.2,0.2-2.5-0.2-3.4-1.1l-5.9-5.9l-5.9,5.9c-1.6,1.6-4.1,1.6-5.7,0l-5.9-5.9l-5.9,5.9
		c-0.9,0.9-2.2,1.3-3.4,1.1V35C18,33.8,18.9,33,20,33z M54,59H18v-8.1c2.5,0.1,5-0.7,6.9-2.6l2.4-2.4l2.4,2.4
		c3.5,3.5,9.2,3.5,12.7,0l2.4-2.4l2.4,2.4c1.9,1.9,4.4,2.8,6.9,2.6V59z"/>
</g>
</svg>
