<?xml version="1.0" encoding="utf-8"?>
<!-- Generator: Adobe Illustrator 24.0.0, SVG Export Plug-In . SVG Version: 6.00 Build 0)  -->
<svg version="1.1" id="Layer_1" xmlns="http://www.w3.org/2000/svg" xmlns:xlink="http://www.w3.org/1999/xlink" x="0px" y="0px"
	 viewBox="0 0 72 72" style="enable-background:new 0 0 72 72;" xml:space="preserve">
<style type="text/css">
	.st0{fill:none;}
</style>
<title>arrow_right_alt</title>
<rect class="st0" width="72" height="72"/>
<path d="M44.4,22.9L44.4,22.9c0,1.1,0.9,2,2,2h10.5L35.5,46.3L11.6,22.5c-0.8-0.8-2-0.8-2.8,0l0,0c-0.8,0.8-0.8,2,0,2.8l25.3,25.3
	c0.8,0.8,2,0.8,2.8,0l22.9-22.9v10.5c0,1.1,0.9,2,2,2h0c1.1,0,2-0.9,2-2V22.9c0-1.1-0.9-2-2-2l-15.4,0
	C45.3,20.9,44.4,21.8,44.4,22.9z"/>
</svg>
