<?xml version="1.0" encoding="utf-8"?>
<!-- Generator: Adobe Illustrator 24.0.0, SVG Export Plug-In . SVG Version: 6.00 Build 0)  -->
<svg version="1.1" id="Layer_1" xmlns="http://www.w3.org/2000/svg" xmlns:xlink="http://www.w3.org/1999/xlink" x="0px" y="0px"
	 viewBox="0 0 72 72" style="enable-background:new 0 0 72 72;" xml:space="preserve">
<style type="text/css">
	.st0{fill:none;}
</style>
<title>arrow_right_alt</title>
<rect class="st0" width="72" height="72"/>
<path d="M27.6,22.9L27.6,22.9c0,1.1-0.9,2-2,2H15.1l21.5,21.5l23.8-23.8c0.8-0.8,2-0.8,2.8,0l0,0c0.8,0.8,0.8,2,0,2.8L37.9,50.6
	c-0.8,0.8-2,0.8-2.8,0L12.2,27.7v10.5c0,1.1-0.9,2-2,2h0c-1.1,0-2-0.9-2-2V22.9c0-1.1,0.9-2,2-2l15.4,0
	C26.7,20.9,27.6,21.8,27.6,22.9z"/>
</svg>
