<?xml version="1.0" encoding="utf-8"?>
<!-- Generator: Adobe Illustrator 24.0.0, SVG Export Plug-In . SVG Version: 6.00 Build 0)  -->
<svg version="1.1" id="Layer_1" xmlns="http://www.w3.org/2000/svg" xmlns:xlink="http://www.w3.org/1999/xlink" x="0px" y="0px"
	 viewBox="0 0 72 72" style="enable-background:new 0 0 72 72;" xml:space="preserve">
<style type="text/css">
	.st0{fill:none;}
</style>
<title>arrow_right_alt</title>
<rect class="st0" width="72" height="72"/>
<path d="M59.5,35.9l0-21.4c0-1.1-0.9-2-2-2H36.1c-1.1,0-2,0.9-2,2v0c0,1.1,0.9,2,2,2h16.5L13.1,56.1c-0.8,0.8-0.8,2,0,2.8l0,0
	c0.8,0.8,2,0.8,2.8,0l39.5-39.5v16.5c0,1.1,0.9,2,2,2h0C58.6,37.9,59.5,37,59.5,35.9z"/>
</svg>
