<?xml version="1.0" encoding="utf-8"?>
<!-- Generator: Adobe Illustrator 24.0.0, SVG Export Plug-In . SVG Version: 6.00 Build 0)  -->
<svg version="1.1" id="Layer_1" xmlns="http://www.w3.org/2000/svg" xmlns:xlink="http://www.w3.org/1999/xlink" x="0px" y="0px"
	 viewBox="0 0 72 72" style="enable-background:new 0 0 72 72;" xml:space="preserve">
<style type="text/css">
	.st0{fill:none;}
	.st1{display:none;}
</style>
<path class="st0" d="M0,0h72v72H0V0z"/>
<path class="st1" d="M42.1,9.7l-0.2-0.1l0,0.1C39.9,9.2,38,9,36,9C21.1,9,9,21.1,9,36s12.1,27,27,27s27-12.1,27-27
	C63,23.2,54.1,12.5,42.1,9.7z M56,27.9H34.4l7.3-12.7C48.2,17,53.5,21.7,56,27.9z M39,14.6l-7.6,13.3l-3.1,5.4l-7.3-12.7
	c3.9-3.8,9.2-6.2,15.1-6.2C37,14.4,38,14.5,39,14.6z M19,22.7L26.7,36l3.1,5.4H15.1c-0.4-1.7-0.7-3.5-0.7-5.4
	C14.4,31,16.1,26.4,19,22.7z M16,44.1h21.5l-7.3,12.7C23.7,55,18.5,50.3,16,44.1z M33,57.4l10.8-18.7l7.3,12.7
	c-3.9,3.8-9.3,6.2-15.1,6.2C35,57.6,34,57.5,33,57.4z M53,49.3L42.2,30.6h14.7c0.5,1.7,0.7,3.5,0.7,5.4C57.6,41,55.9,45.6,53,49.3z"
	/>
<path d="M36,9C21.1,9,9,21.1,9,36s12.1,27,27,27c14.9,0,27-12.1,27-27S50.9,9,36,9z M57.6,28H36l7.9-13.6
	C50.2,16.7,55.2,21.7,57.6,28z M40.6,36l-2.3,4h-4.6l-2.3-4l2.3-4h4.6L40.6,36z M39.8,13.3L29.1,32l-7.8-13.6C25.2,15,30.4,13,36,13
	C37.3,13,38.6,13.1,39.8,13.3z M18.3,21.3L29.1,40H13.4c-0.2-1.3-0.4-2.6-0.4-4C13,30.4,15,25.3,18.3,21.3z M14.4,44H36l-7.9,13.6
	C21.8,55.3,16.8,50.3,14.4,44z M36,59c-1.3,0-2.6-0.1-3.8-0.3L42.9,40l7.8,13.6C46.8,57,41.6,59,36,59z M53.7,50.7L42.9,32h15.7
	c0.2,1.3,0.4,2.6,0.4,4C59,41.6,57,46.7,53.7,50.7z"/>
</svg>
