<?xml version="1.0" encoding="utf-8"?>
<!-- Generator: Adobe Illustrator 24.0.0, SVG Export Plug-In . SVG Version: 6.00 Build 0)  -->
<svg version="1.1" id="Layer_1" xmlns="http://www.w3.org/2000/svg" xmlns:xlink="http://www.w3.org/1999/xlink" x="0px" y="0px"
	 viewBox="0 0 72 72" style="enable-background:new 0 0 72 72;" xml:space="preserve">
<style type="text/css">
	.st0{fill:none;}
</style>
<title>home</title>
<rect x="0.2" y="0.1" class="st0" width="72" height="72"/>
<path d="M38.5,19.9l2.3-2.9c0.7-0.9,0.5-2.1-0.3-2.8l0,0c-0.9-0.7-2.1-0.5-2.8,0.3L36,16.6l-1.7-2.1c-0.7-0.9-1.9-1-2.7-0.3l0,0
	c-0.9,0.7-1,1.9-0.3,2.8c1,1.3,2.3,2.9,2.3,2.9l-24,30.8C9.1,51,9,51.4,9,51.9v4.4c0,1.1,0.9,2,2,2h0c1.1,0,2-0.9,2-2v-3.7l4.3-5.5
	v9.2c0,1.1,0.9,2,2,2h2.9c0.7,0,1.3-0.2,1.9-0.5c1.8-1,3.5-2.2,5-3.5c2.3-2,4.2-4.3,5.8-6.8c1.6,2.6,3.6,4.9,5.8,6.8
	c1.5,1.3,3.2,2.5,5,3.5c0.6,0.3,1.2,0.5,1.9,0.5h4.9c1.1,0,2-0.9,2-2v-9.2l4.3,5.5v3.7c0,1.1,0.9,2,2,2h0c1.1,0,2-0.9,2-2v-4.4
	c0-0.4-0.1-0.9-0.4-1.2L38.5,19.9z M50.7,54.3h-2.9c-4.5-2.5-8.2-6.4-10.6-11c-0.5-1-0.9-1.9-1.3-3c-0.3-0.9-1.6-0.9-1.9,0
	c-0.4,1-0.8,2-1.3,3c-2.4,4.7-6.1,8.5-10.6,11h-0.9V42L36,23.1L50.7,42V54.3z"/>
</svg>
