<?xml version="1.0" encoding="utf-8"?>
<!-- Generator: Adobe Illustrator 24.0.0, SVG Export Plug-In . SVG Version: 6.00 Build 0)  -->
<svg version="1.1" id="Layer_1" xmlns="http://www.w3.org/2000/svg" xmlns:xlink="http://www.w3.org/1999/xlink" x="0px" y="0px"
	 viewBox="0 0 72 72" style="enable-background:new 0 0 72 72;" xml:space="preserve">
<style type="text/css">
	.st0{fill:none;}
</style>
<title>info</title>
<rect class="st0" width="72" height="72"/>
<path d="M36,9C21.1,9,9,21.1,9,36s12.1,27,27,27s27-12.1,27-27S50.9,9,36,9z M36,59c-12.7,0-23-10.3-23-23c0-12.7,10.3-23,23-23
	c12.7,0,23,10.3,23,23C59,48.7,48.7,59,36,59z"/>
<path d="M46.6,43.8L38.8,36l7.8-7.8c0.8-0.8,0.8-2,0-2.8v0c-0.8-0.8-2-0.8-2.8,0L36,33.2l-7.8-7.8c-0.8-0.8-2-0.8-2.8,0l0,0
	c-0.8,0.8-0.8,2,0,2.8l7.8,7.8l-7.8,7.8c-0.8,0.8-0.8,2,0,2.8h0c0.8,0.8,2,0.8,2.8,0l7.8-7.8l7.8,7.8c0.8,0.8,2,0.8,2.8,0l0,0
	C47.4,45.8,47.4,44.6,46.6,43.8z"/>
</svg>
