<?xml version="1.0" encoding="utf-8"?>
<!-- Generator: Adobe Illustrator 24.0.0, SVG Export Plug-In . SVG Version: 6.00 Build 0)  -->
<svg version="1.1" id="Layer_1" xmlns="http://www.w3.org/2000/svg" xmlns:xlink="http://www.w3.org/1999/xlink" x="0px" y="0px"
	 viewBox="0 0 72 72" style="enable-background:new 0 0 72 72;" xml:space="preserve">
<style type="text/css">
	.st0{fill:none;}
</style>
<title>card_membership</title>
<rect class="st0" width="72" height="72"/>
<path d="M59,10H13c-2.2,0-4,1.8-4,4v34c0,2.2,1.8,4,4,4h13v7.5c0,1.6,1.7,2.5,3,1.7l7-4.2l7,4.2c1.3,0.8,3-0.2,3-1.7V52h13
	c2.2,0,4-1.8,4-4V14C63,11.8,61.2,10,59,10z M59,48H13v-8h46V48z M59,33H13V14h46V33z"/>
</svg>
