<?xml version="1.0" encoding="utf-8"?>
<!-- Generator: Adobe Illustrator 24.0.0, SVG Export Plug-In . SVG Version: 6.00 Build 0)  -->
<svg version="1.1" id="Layer_1" xmlns="http://www.w3.org/2000/svg" xmlns:xlink="http://www.w3.org/1999/xlink" x="0px" y="0px"
	 viewBox="0 0 72 72" style="enable-background:new 0 0 72 72;" xml:space="preserve">
<style type="text/css">
	.st0{fill:none;}
</style>
<title>card_travel</title>
<rect class="st0" width="72" height="72"/>
<path d="M59,20h-9v-6c0-2.2-1.8-4-4-4H28c-2.2,0-4,1.8-4,4v6H13c-2.2,0-4,1.8-4,4v34c0,2.2,1.8,4,4,4h46c2.2,0,4-1.8,4-4V24
	C63,21.8,61.2,20,59,20z M28,14h18v6H28V14z M59,58H13v-7h46V58z M59,44H13V24h11v7c0,1.1,0.9,2,2,2h0c1.1,0,2-0.9,2-2v-7h18v7
	c0,1.1,0.9,2,2,2h0c1.1,0,2-0.9,2-2v-7h9V44z"/>
</svg>
