<?xml version="1.0" encoding="utf-8"?>
<!-- Generator: Adobe Illustrator 24.0.0, SVG Export Plug-In . SVG Version: 6.00 Build 0)  -->
<svg version="1.1" id="Layer_1" xmlns="http://www.w3.org/2000/svg" xmlns:xlink="http://www.w3.org/1999/xlink" x="0px" y="0px"
	 viewBox="0 0 72 72" style="enable-background:new 0 0 72 72;" xml:space="preserve">
<style type="text/css">
	.st0{fill:none;}
</style>
<title>photo</title>
<rect class="st0" width="72" height="72"/>
<g>
	<path d="M9,33.1L9,33.1c0,1,0.8,1.9,1.8,2c5.6,0.4,10.7,2.9,14.4,6.7s6.2,8.8,6.7,14.4c0.1,1,0.9,1.8,2,1.8h0c1.2,0,2.1-1,2-2.2
		c-1-13.2-11.6-23.7-24.8-24.8C10,31,9,31.9,9,33.1z"/>
	<path d="M9,43.1L9,43.1c0,1.1,0.8,1.9,1.8,2c2.9,0.4,5.5,1.7,7.4,3.7c2,2,3.3,4.5,3.7,7.4c0.1,1,0.9,1.8,2,1.8h0.1
		c1.2,0,2.1-1.1,2-2.2c-1-7.6-7-13.6-14.6-14.6C10.1,41,9,41.9,9,43.1z"/>
	<path d="M9,52.1L9,56c0,1.1,0.9,2,2,2h3.9c0.6,0,1.1-0.5,1-1.1c-0.5-3-2.8-5.3-5.8-5.8C9.5,51,9,51.5,9,52.1z"/>
	<path d="M9,18v9h4v-9h46v36H40v4h19c2.2,0,4-1.8,4-4V18c0-2.2-1.8-4-4-4H13C10.8,14,9,15.8,9,18z"/>
</g>
</svg>
