<?xml version="1.0" encoding="utf-8"?>
<!-- Generator: Adobe Illustrator 24.0.0, SVG Export Plug-In . SVG Version: 6.00 Build 0)  -->
<svg version="1.1" id="Layer_1" xmlns="http://www.w3.org/2000/svg" xmlns:xlink="http://www.w3.org/1999/xlink" x="0px" y="0px"
	 viewBox="0 0 72 72" style="enable-background:new 0 0 72 72;" xml:space="preserve">
<style type="text/css">
	.st0{fill:none;}
</style>
<title>info</title>
<rect class="st0" width="72" height="72"/>
<g>
	<path d="M50.9,38c1.2-9.8-7-18.1-16.8-16.8C27.4,22,22,27.4,21.1,34.1c-1.2,9.8,7,18.1,16.8,16.8C44.6,50,50,44.6,50.9,38z
		 M37.4,46.9C37,47,36.5,47,36,47h0c-3.2,0-6.2-1.4-8.3-3.7c-2.1-2.4-3.1-5.5-2.7-8.7c0.6-4.9,4.6-8.8,9.5-9.5C35,25,35.5,25,36,25
		c3.2,0,6.2,1.4,8.3,3.7c2.1,2.4,3.1,5.5,2.7,8.7C46.3,42.3,42.3,46.3,37.4,46.9z"/>
	<path d="M45,11L45,11c0,1.1,0.9,2,2,2h12v12c0,1.1,0.9,2,2,2h0c1.1,0,2-0.9,2-2V11c0-1.1-0.9-2-2-2H47C45.9,9,45,9.9,45,11z"/>
	<path d="M59,59H47c-1.1,0-2,0.9-2,2v0c0,1.1,0.9,2,2,2h14c1.1,0,2-0.9,2-2V47c0-1.1-0.9-2-2-2h0c-1.1,0-2,0.9-2,2V59z"/>
	<path d="M11,45L11,45c-1.1,0-2,0.9-2,2v14c0,1.1,0.9,2,2,2h14c1.1,0,2-0.9,2-2v0c0-1.1-0.9-2-2-2H13V47C13,45.9,12.1,45,11,45z"/>
	<path d="M13,13h12c1.1,0,2-0.9,2-2v0c0-1.1-0.9-2-2-2H11c-1.1,0-2,0.9-2,2v14c0,1.1,0.9,2,2,2h0c1.1,0,2-0.9,2-2V13z"/>
</g>
</svg>
