<?xml version="1.0" encoding="utf-8"?>
<!-- Generator: Adobe Illustrator 24.0.0, SVG Export Plug-In . SVG Version: 6.00 Build 0)  -->
<svg version="1.1" id="Layer_1" xmlns="http://www.w3.org/2000/svg" xmlns:xlink="http://www.w3.org/1999/xlink" x="0px" y="0px"
	 viewBox="0 0 72 72" style="enable-background:new 0 0 72 72;" xml:space="preserve">
<style type="text/css">
	.st0{fill:none;}
</style>
<title>autorenew</title>
<rect class="st0" width="72" height="72"/>
<g>
	<path d="M62.9,30.8c0-11.9-9.6-21.5-21.5-21.5v21.8h21.4C62.8,31,62.9,30.9,62.9,30.8z M45.4,27.1V13.8c6.5,1.5,11.7,6.7,13.1,13.3
		H45.4z"/>
	<path d="M58.2,47.1c3-3.7,4.7-8.5,4.7-13.6H22.5l-3.9-8.3H11c-1.1,0-2,0.9-2,2v0c0,1.1,0.9,2,2,2h5.1l7.7,16.5
		c-3.3,1.7-5.5,5.3-4.8,9.5c0.6,3.9,3.8,7,7.7,7.5c5.3,0.7,9.8-3.2,10.2-8.2h6.4c0.4,5,4.9,8.9,10.2,8.2c3.9-0.5,7.1-3.7,7.7-7.6
		C61.5,51.9,60.3,49,58.2,47.1z M27.9,58.7c-2.8,0-5-2.2-5-5s2.2-5,5-5c2.8,0,5,2.2,5,5S30.6,58.7,27.9,58.7z M43.8,50.5h-7.5
		c-1.3-3.4-4.6-5.7-8.4-5.7c0,0-0.1,0-0.1,0l-3.4-7.3h34.1c-0.7,2.9-2,5.5-3.8,7.6c-0.8-0.2-1.6-0.4-2.5-0.4
		C48.4,44.7,45.1,47.1,43.8,50.5z M52.2,58.7c-2.8,0-5-2.2-5-5s2.2-5,5-5c2.8,0,5,2.2,5,5S54.9,58.7,52.2,58.7z"/>
</g>
</svg>
