<?xml version="1.0" encoding="utf-8"?>
<!-- Generator: Adobe Illustrator 24.0.0, SVG Export Plug-In . SVG Version: 6.00 Build 0)  -->
<svg version="1.1" id="Layer_1" xmlns="http://www.w3.org/2000/svg" xmlns:xlink="http://www.w3.org/1999/xlink" x="0px" y="0px"
	 viewBox="0 0 72 72" style="enable-background:new 0 0 72 72;" xml:space="preserve">
<style type="text/css">
	.st0{fill:none;}
</style>
<title>clear</title>
<rect class="st0" width="72" height="72"/>
<path d="M56.9,15.1L56.9,15.1c-0.8-0.8-2-0.8-2.8,0l-18,18l-18-18c-0.8-0.8-2-0.8-2.8,0l0,0c-0.8,0.8-0.8,2,0,2.8l18,18l-18,18
	c-0.8,0.8-0.8,2,0,2.8h0c0.8,0.8,2,0.8,2.8,0l18-18l18,18c0.8,0.8,2,0.8,2.8,0l0,0c0.8-0.8,0.8-2,0-2.8l-18-18l18-18
	C57.7,17.2,57.7,15.9,56.9,15.1z"/>
</svg>
