<?xml version="1.0" encoding="utf-8"?>
<!-- Generator: Adobe Illustrator 24.0.0, SVG Export Plug-In . SVG Version: 6.00 Build 0)  -->
<svg version="1.1" id="Layer_1" xmlns="http://www.w3.org/2000/svg" xmlns:xlink="http://www.w3.org/1999/xlink" x="0px" y="0px"
	 viewBox="0 0 72 72" style="enable-background:new 0 0 72 72;" xml:space="preserve">
<style type="text/css">
	.st0{fill:none;}
</style>
<title>code</title>
<rect class="st0" width="72" height="72"/>
<g>
	<path d="M13.7,36l9.9-9.9c0.8-0.8,0.8-2,0-2.8l0,0c-0.8-0.8-2-0.8-2.8,0L9.4,34.6c-0.8,0.8-0.8,2,0,2.8l11.3,11.3
		c0.8,0.8,2,0.8,2.8,0l0,0c0.8-0.8,0.8-2,0-2.8L13.7,36z"/>
	<path d="M58.3,36l-9.9-9.9c-0.8-0.8-0.8-2,0-2.8v0c0.8-0.8,2-0.8,2.8,0l11.3,11.3c0.8,0.8,0.8,2,0,2.8L51.3,48.7
		c-0.8,0.8-2,0.8-2.8,0v0c-0.8-0.8-0.8-2,0-2.8L58.3,36z"/>
</g>
</svg>
