<?xml version="1.0" encoding="utf-8"?>
<!-- Generator: Adobe Illustrator 24.0.0, SVG Export Plug-In . SVG Version: 6.00 Build 0)  -->
<svg version="1.1" id="Layer_1" xmlns="http://www.w3.org/2000/svg" xmlns:xlink="http://www.w3.org/1999/xlink" x="0px" y="0px"
	 viewBox="0 0 72 72" style="enable-background:new 0 0 72 72;" xml:space="preserve">
<style type="text/css">
	.st0{fill:none;}
</style>
<title>photo</title>
<rect class="st0" width="72" height="72"/>
<g>
	<path d="M17,13v38c0,2.2,1.8,4,4,4h38c2.2,0,4-1.8,4-4V13c0-2.2-1.8-4-4-4H21C18.8,9,17,10.8,17,13z M59,51H21V13h38V51z"/>
	<path d="M49,59H13V23c0-1.1-0.9-2-2-2h0c-1.1,0-2,0.9-2,2v36c0,2.2,1.8,4,4,4h36c1.1,0,2-0.9,2-2v0C51,59.9,50.1,59,49,59z"/>
	<path d="M44.7,29.5l-6.9,7.9l-4.4-5c-0.9-1-2.5-0.9-3.2,0.3l-7.5,11.9c-0.8,1.3,0.1,3.1,1.7,3.1h31c1.6,0,2.5-1.7,1.7-3.1
		l-9.3-14.9C47.2,28.6,45.6,28.5,44.7,29.5z M28.1,43.6l4.1-6.6l3.3,3.8c1.2,1.4,3.3,1.4,4.5,0l5.9-6.8l5.9,9.5H28.1z"/>
</g>
</svg>
