<?xml version="1.0" encoding="utf-8"?>
<!-- Generator: Adobe Illustrator 24.0.0, SVG Export Plug-In . SVG Version: 6.00 Build 0)  -->
<svg version="1.1" id="Layer_1" xmlns="http://www.w3.org/2000/svg" xmlns:xlink="http://www.w3.org/1999/xlink" x="0px" y="0px"
	 viewBox="0 0 72 72" style="enable-background:new 0 0 72 72;" xml:space="preserve">
<style type="text/css">
	.st0{fill:none;}
</style>
<title>create</title>
<rect class="st0" width="72" height="72"/>
<path d="M50.4,10.4L40.3,20.5L36,16.2c-0.8-0.8-2-0.8-2.8,0l0,0c-0.8,0.8-0.8,2,0,2.8l2.8,2.8L10.4,47.4c-0.8,0.8-1.2,1.8-1.2,2.8
	v10.6c0,1.1,0.9,2,2,2l10.6,0c1.1,0,2.1-0.4,2.8-1.2l25.6-25.6l2.8,2.8c0.8,0.8,2,0.8,2.8,0h0c0.8-0.8,0.8-2,0-2.8l-4.3-4.3
	l10.1-10.1c1.6-1.6,1.6-4.1,0-5.7L56,10.4C54.5,8.8,51.9,8.8,50.4,10.4z M58.8,18.8L47.4,30.2l-5.6-5.6l11.4-11.4L58.8,18.8z
	 M13.2,58.8l0-8.6l24.3-24.3l8.6,8.6L21.8,58.8H13.2z"/>
</svg>
