<?xml version="1.0" encoding="utf-8"?>
<!-- Generator: Adobe Illustrator 24.0.0, SVG Export Plug-In . SVG Version: 6.00 Build 0)  -->
<svg version="1.1" id="Layer_1" xmlns="http://www.w3.org/2000/svg" xmlns:xlink="http://www.w3.org/1999/xlink" x="0px" y="0px"
	 viewBox="0 0 72 72" style="enable-background:new 0 0 72 72;" xml:space="preserve">
<style type="text/css">
	.st0{fill:none;}
</style>
<title>announcement</title>
<rect class="st0" width="72" height="72"/>
<g>
	<path d="M9,12.8V61c0,1.8,2.2,2.7,3.4,1.4l9.6-9.6h37c2.2,0,4-1.8,4-4v-36c0-2.2-1.8-4-4-4H13C10.8,8.8,9,10.6,9,12.8z M59,48.8H23
		c-1,0-2,0.4-2.8,1.1l-7.2,7V12.8h46V48.8z"/>
	<path d="M50,20.8H22c-1.1,0-2,0.9-2,2v0c0,1.1,0.9,2,2,2h28c1.1,0,2-0.9,2-2v0C52,21.7,51.1,20.8,50,20.8z"/>
	<path d="M50,28.8H22c-1.1,0-2,0.9-2,2v0c0,1.1,0.9,2,2,2h28c1.1,0,2-0.9,2-2v0C52,29.7,51.1,28.8,50,28.8z"/>
	<path d="M50,36.8H22c-1.1,0-2,0.9-2,2v0c0,1.1,0.9,2,2,2h28c1.1,0,2-0.9,2-2v0C52,37.7,51.1,36.8,50,36.8z"/>
</g>
</svg>
