<?xml version="1.0" encoding="utf-8"?>
<!-- Generator: Adobe Illustrator 24.0.0, SVG Export Plug-In . SVG Version: 6.00 Build 0)  -->
<svg version="1.1" id="Layer_1" xmlns="http://www.w3.org/2000/svg" xmlns:xlink="http://www.w3.org/1999/xlink" x="0px" y="0px"
	 viewBox="0 0 72 72" style="enable-background:new 0 0 72 72;" xml:space="preserve">
<style type="text/css">
	.st0{fill:none;}
</style>
<title>contact_support</title>
<rect class="st0" width="72" height="72"/>
<path d="M34.5,7.7c-11.6,0.7-21.2,9.9-22.3,21.5c-1.3,13,7.8,24.1,19.9,26.1v3.9c0,2.7,2.6,4.7,5.2,3.8C50.4,58.8,60,46.3,60,31.7
	C60,17.9,48.4,6.9,34.5,7.7z M36,59.3v-3.9c0-2-1.5-3.6-3.4-4C22.8,49.7,15.5,41,16,30.6c0.5-10.1,8.8-18.4,18.9-18.9
	c11.5-0.6,21.1,8.6,21.1,20C56,44.6,47.6,55.5,36,59.3z"/>
<g>
	<path d="M36.6,18.7c-4.1-0.3-7.7,2.3-9,5.9c-0.5,1.3,0.5,2.6,1.9,2.6h0c0.8,0,1.6-0.5,1.9-1.3c0.8-2.2,3.1-3.7,5.7-3.2
		c2.3,0.5,3.9,2.6,3.8,4.9c-0.1,2.1-1.5,3.2-2.9,4.3c-1.3,1-2.7,2.1-3.5,4.1c-0.5,1.3,0.5,2.7,1.9,2.7h0c0.9,0,1.6-0.6,1.9-1.4
		c0.5-1.7,1.9-2.8,3.2-4c1.8-1.6,3.7-3.2,3.5-6.3C44.6,22.7,41,19,36.6,18.7z"/>
	<path d="M36,45.5L36,45.5c1.1,0,2-0.9,2-2v0c0-1.1-0.9-2-2-2h0c-1.1,0-2,0.9-2,2v0C34,44.6,34.9,45.5,36,45.5z"/>
</g>
</svg>
