<?xml version="1.0" encoding="utf-8"?>
<!-- Generator: Adobe Illustrator 24.0.0, SVG Export Plug-In . SVG Version: 6.00 Build 0)  -->
<svg version="1.1" id="Layer_1" xmlns="http://www.w3.org/2000/svg" xmlns:xlink="http://www.w3.org/1999/xlink" x="0px" y="0px"
	 viewBox="0 0 72 72" style="enable-background:new 0 0 72 72;" xml:space="preserve">
<style type="text/css">
	.st0{fill:none;}
</style>
<title>language</title>
<rect class="st0" width="72" height="72"/>
<path d="M36,9C21.1,9,9,21.1,9,36c0,14.9,12.1,27,27,27c14.9,0,27-12.1,27-27C63,21.1,50.9,9,36,9z M36,59c-12.7,0-23-10.3-23-23
	c0-12.7,10.3-23,23-23c12.7,0,23,10.3,23,23C59,48.7,48.7,59,36,59z"/>
<path d="M42.6,41.5c-0.6,0-1.2,0.3-1.6,0.8c-1.3,1.7-3,2.7-5,2.7c-3.9,0-7-4-7-9s3.1-9,7-9c2,0,3.7,1.1,5,2.7
	c0.4,0.5,0.9,0.8,1.6,0.8h0c1.7,0,2.6-1.9,1.6-3.2c-2-2.6-4.9-4.3-8.1-4.3c-6.1,0-11,5.8-11,13s4.9,13,11,13c3.2,0,6.1-1.7,8.1-4.3
	C45.2,43.4,44.2,41.5,42.6,41.5L42.6,41.5z"/>
</svg>
