<?xml version="1.0" encoding="utf-8"?>
<!-- Generator: Adobe Illustrator 24.0.0, SVG Export Plug-In . SVG Version: 6.00 Build 0)  -->
<svg version="1.1" id="Layer_1" xmlns="http://www.w3.org/2000/svg" xmlns:xlink="http://www.w3.org/1999/xlink" x="0px" y="0px"
	 viewBox="0 0 72 72" style="enable-background:new 0 0 72 72;" xml:space="preserve">
<style type="text/css">
	.st0{fill:none;}
</style>
<title>create</title>
<rect class="st0" width="72" height="72"/>
<g>
	<path d="M63.1,13.6l-5.6-5.6c-1.6-1.6-4.1-1.6-5.7,0l-5.6,5.6l11.2,11.2l5.6-5.6C64.7,17.7,64.7,15.2,63.1,13.6z M57.5,19.2
		L52,13.6l2.7-2.7l5.6,5.6L57.5,19.2z"/>
	<path d="M43.9,16L12.8,47.2c-0.8,0.8-1.2,1.8-1.2,2.8v7.6c0,1.1,0.9,2,2,2h7.6c1.1,0,2.1-0.4,2.8-1.2l31.1-31.1L43.9,16z
		 M21.2,55.6h-5.6V50l28.3-28.3l5.6,5.6L21.2,55.6z"/>
</g>
</svg>
