<?xml version="1.0" encoding="utf-8"?>
<!-- Generator: Adobe Illustrator 24.0.0, SVG Export Plug-In . SVG Version: 6.00 Build 0)  -->
<svg version="1.1" id="Layer_1" xmlns="http://www.w3.org/2000/svg" xmlns:xlink="http://www.w3.org/1999/xlink" x="0px" y="0px"
	 viewBox="0 0 72 72" style="enable-background:new 0 0 72 72;" xml:space="preserve">
<style type="text/css">
	.st0{fill:none;}
	.st1{display:none;}
</style>
<title>ic_3d_rotation</title>
<rect class="st0" width="72" height="72"/>
<path class="st1" d="M33.6,38.6c-0.1-0.4-0.3-0.8-0.5-1.1c-0.2-0.4-0.5-0.7-0.9-1c-0.4-0.3-0.8-0.5-1.4-0.7c0.5-0.2,0.8-0.5,1.2-0.7
	c0.3-0.3,0.6-0.6,0.8-0.9c0.2-0.3,0.4-0.7,0.5-1c0.1-0.4,0.2-0.7,0.2-1.1c0-0.8-0.1-1.5-0.4-2.2c-0.3-0.6-0.7-1.1-1.1-1.6
	c-0.5-0.4-1.1-0.7-1.7-1C29.5,27.1,28.8,27,28,27c-0.8,0-1.5,0.1-2.2,0.3c-0.7,0.2-1.3,0.5-1.7,1c-0.5,0.4-0.9,0.9-1.1,1.6
	c-0.3,0.6-0.4,1.3-0.4,2.2c0,0.4,0,0.7,0.2,1.1c0.1,0.4,0.3,0.7,0.5,1c0.2,0.3,0.5,0.7,0.8,0.9c0.3,0.3,0.7,0.5,1.2,0.7
	c-0.5,0.2-1,0.4-1.4,0.7c-0.4,0.3-0.7,0.6-0.9,1c-0.2,0.4-0.4,0.7-0.5,1.1c-0.1,0.4-0.2,0.8-0.2,1.3c0,0.8,0.2,1.5,0.5,2.2
	c0.3,0.7,0.7,1.2,1.2,1.6c0.5,0.4,1.1,0.8,1.9,1c0.7,0.2,1.4,0.3,2.2,0.3c0.8,0,1.6-0.1,2.2-0.3c0.7-0.2,1.4-0.6,1.9-1
	c0.5-0.4,0.9-1,1.2-1.6c0.3-0.7,0.5-1.4,0.5-2.2C33.8,39.4,33.7,39,33.6,38.6z M26,30c0.4-0.5,1.1-0.7,2-0.7c0.9,0,1.6,0.2,2,0.7
	c0.4,0.5,0.7,1.1,0.7,1.9c0,0.4-0.1,0.8-0.2,1.1c-0.1,0.3-0.3,0.6-0.6,0.8c-0.2,0.2-0.6,0.4-0.9,0.5c-0.3,0.1-0.6,0.2-1,0.2
	c-0.4,0-0.7-0.1-1-0.2c-0.4-0.1-0.7-0.3-0.9-0.5c-0.2-0.2-0.5-0.5-0.6-0.8c-0.1-0.3-0.2-0.7-0.2-1.1C25.3,31.1,25.5,30.5,26,30z
	 M30.1,41.9c-0.5,0.5-1.2,0.7-2.1,0.7c-0.9,0-1.6-0.2-2.1-0.7c-0.5-0.5-0.8-1.2-0.8-2.1c0-0.5,0.1-0.9,0.2-1.3
	c0.2-0.4,0.4-0.7,0.7-0.9c0.3-0.2,0.6-0.4,1-0.5c0.3-0.1,0.7-0.1,1-0.1c0.4,0,0.7,0.1,1,0.1c0.4,0.1,0.7,0.3,1,0.5
	c0.3,0.2,0.5,0.5,0.7,0.9c0.2,0.4,0.2,0.8,0.2,1.3C30.9,40.7,30.6,41.4,30.1,41.9z"/>
<g>
	<path d="M36.3,12l5.4,5.5c0.8,0.8,2.1,0.8,2.8,0l1.1-1.1c7,3.2,12.1,9.9,13.2,17.9c0.1,1,1,1.7,2,1.7l0.1,0c1.2-0.1,2-1.1,1.9-2.3
		c-1.7-13-12.7-23-25.8-23.4C36.1,10.3,35.7,11.4,36.3,12z"/>
	<path d="M35.7,60l-5.4-5.5c-0.8-0.8-2.1-0.8-2.8,0l-1.1,1.1c-7-3.2-12.1-9.9-13.2-17.9c-0.1-1-1-1.7-2-1.7l-0.1,0
		c-1.2,0.1-2,1.1-1.9,2.3c1.7,13,12.7,23,25.8,23.4C35.9,61.7,36.3,60.6,35.7,60z"/>
	<g>
		<path d="M31.6,26.6h14v14h4v-14c0-2.2-1.8-4-4-4h-14V26.6z"/>
		<path d="M26.6,45.6v-27c0-1.1-0.9-2-2-2h0c-1.1,0-2,0.9-2,2v4h-4c-1.1,0-2,0.9-2,2v0c0,1.1,0.9,2,2,2h4v19c0,2.2,1.8,4,4,4h19v4
			c0,1.1,0.9,2,2,2h0c1.1,0,2-0.9,2-2v-4h4c1.1,0,2-0.9,2-2v0c0-1.1-0.9-2-2-2H26.6z"/>
	</g>
</g>
</svg>
