<?xml version="1.0" encoding="utf-8"?>
<!-- Generator: Adobe Illustrator 24.0.0, SVG Export Plug-In . SVG Version: 6.00 Build 0)  -->
<svg version="1.1" id="Layer_1" xmlns="http://www.w3.org/2000/svg" xmlns:xlink="http://www.w3.org/1999/xlink" x="0px" y="0px"
	 viewBox="0 0 72 72" style="enable-background:new 0 0 72 72;" xml:space="preserve">
<style type="text/css">
	.st0{fill:none;}
</style>
<title>date_range</title>
<rect class="st0" width="72" height="72"/>
<path d="M54.5,15h-3v-4c0-1.1-0.9-2-2-2h0c-1.1,0-2,0.9-2,2v4h-23v-4c0-1.1-0.9-2-2-2h0c-1.1,0-2,0.9-2,2v4h-3c-2.2,0-4,1.8-4,4v40
	c0,2.2,1.8,4,4,4h37c2.2,0,4-1.8,4-4V19C58.5,16.8,56.7,15,54.5,15z M54.5,59h-37V29.6h37V59z M54.5,25.6h-37V19h37V25.6z"/>
<path d="M47,39.1h-1c-1.1,0-2-0.9-2-2v-1c0-1.1,0.9-2,2-2h1c1.1,0,2,0.9,2,2v1C49,38.3,48.1,39.1,47,39.1z"/>
<path d="M36.5,39.1h-1c-1.1,0-2-0.9-2-2v-1c0-1.1,0.9-2,2-2h1c1.1,0,2,0.9,2,2v1C38.5,38.3,37.6,39.1,36.5,39.1z"/>
<path d="M26,39.1h-1c-1.1,0-2-0.9-2-2v-1c0-1.1,0.9-2,2-2h1c1.1,0,2,0.9,2,2v1C28,38.3,27.1,39.1,26,39.1z"/>
</svg>
