<?xml version="1.0" encoding="utf-8"?>
<!-- Generator: Adobe Illustrator 24.0.0, SVG Export Plug-In . SVG Version: 6.00 Build 0)  -->
<svg version="1.1" id="Layer_1" xmlns="http://www.w3.org/2000/svg" xmlns:xlink="http://www.w3.org/1999/xlink" x="0px" y="0px"
	 viewBox="0 0 72 72" style="enable-background:new 0 0 72 72;" xml:space="preserve">
<style type="text/css">
	.st0{fill:none;}
</style>
<title>contact_support</title>
<rect class="st0" width="72" height="72"/>
<g>
	<path d="M34.9,9.2L13.3,24.4c-1.6,1.1-0.8,3.6,1.1,3.6H34v33.1c0,1.1,0.9,2,2,2h0c1.1,0,2-0.9,2-2V28h19.6c2,0,2.8-2.5,1.1-3.6
		L37.2,9.2C36.5,8.8,35.5,8.8,34.9,9.2z M20.8,24L36,13.3L51.3,24H20.8z"/>
	<path d="M56.4,47H46.1c-1.1,0-2,0.9-2,2v12.1c0,1.1,0.9,2,2,2h0c1.1,0,2-0.9,2-2V51h8.1v10.1c0,1.1,0.9,2,2,2h0c1.1,0,2-0.9,2-2
		V48.4l1.8-9.3c0.2-1.1-0.5-2.1-1.6-2.3l0,0c-1.1-0.2-2.1,0.5-2.3,1.6L56.4,47z"/>
	<path d="M11.5,36.8L11.5,36.8C10.4,37,9.7,38,9.9,39.1l1.8,9.3v12.7c0,1.1,0.9,2,2,2h0c1.1,0,2-0.9,2-2V51h8.1v10.1
		c0,1.1,0.9,2,2,2h0c1.1,0,2-0.9,2-2V49c0-1.1-0.9-2-2-2H15.6l-1.7-8.7C13.7,37.3,12.6,36.6,11.5,36.8z"/>
</g>
</svg>
