<?xml version="1.0" encoding="utf-8"?>
<!-- Generator: Adobe Illustrator 24.0.0, SVG Export Plug-In . SVG Version: 6.00 Build 0)  -->
<svg version="1.1" id="Layer_1" xmlns="http://www.w3.org/2000/svg" xmlns:xlink="http://www.w3.org/1999/xlink" x="0px" y="0px"
	 viewBox="0 0 72 72" style="enable-background:new 0 0 72 72;" xml:space="preserve">
<style type="text/css">
	.st0{fill:none;}
</style>
<title>delete</title>
<rect class="st0" width="72" height="72"/>
<path d="M50.1,20.2h-28c-2.2,0-4,1.8-4,4v35c0,2.2,1.8,4,4,4h28c2.2,0,4-1.8,4-4v-35C54.1,22,52.3,20.2,50.1,20.2z M50.1,59.2h-28
	v-35h28V59.2z"/>
<path d="M48.3,11.8l-1.4-2.1c-0.4-0.6-1-0.9-1.7-0.9H26.8c-0.7,0-1.3,0.3-1.7,0.9l-1.4,2.1H17c-1.1,0-2,0.9-2,2v0c0,1.1,0.9,2,2,2
	h38c1.1,0,2-0.9,2-2v0c0-1.1-0.9-2-2-2H48.3z"/>
</svg>
