<?xml version="1.0" encoding="utf-8"?>
<!-- Generator: Adobe Illustrator 24.0.0, SVG Export Plug-In . SVG Version: 6.00 Build 0)  -->
<svg version="1.1" id="Layer_1" xmlns="http://www.w3.org/2000/svg" xmlns:xlink="http://www.w3.org/1999/xlink" x="0px" y="0px"
	 viewBox="0 0 72 72" style="enable-background:new 0 0 72 72;" xml:space="preserve">
<style type="text/css">
	.st0{fill:none;}
</style>
<path class="st0" d="M0,0h72v72H0V0z"/>
<g>
	<circle cx="21.1" cy="48.8" r="3.5"/>
	<circle cx="42.1" cy="48.8" r="3.5"/>
	<g>
		<path d="M63.4,18.7c-0.7-7-6.3-12.6-13.2-13.4C43.8,4.5,38.1,7.9,35.3,13c-1.3-0.1-2.5-0.2-3.8-0.2c-6.2,0-12.1,1-17.7,2.9
			c-3.2,1.1-5.3,4.2-5.3,7.5l0,33.8c0,2.2,1.8,4,4,4h0v2.7c0,1.7,1.3,3,3,3h0c1.7,0,3-1.3,3-3v-2.7h26v2.7c0,1.7,1.3,3,3,3h0
			c1.7,0,3-1.3,3-3v-2.7h0c2.2,0,4-1.8,4-4V33.9C60.2,31.4,64.1,25.5,63.4,18.7z M15.2,19.5c5.1-1.7,10.6-2.7,16.3-2.7
			c0.8,0,1.6,0,2.4,0.1c-0.2,1.1-0.4,2.1-0.4,3.3c0,0.4,0,0.9,0.1,1.3H12.9C13.4,20.6,14.2,19.9,15.2,19.5z M50.5,57.1h-38V40.5h38
			V57.1z M50.5,36.5h-38v-11h22c2.1,5.7,7.6,9.7,14,9.7c0.7,0,1.3-0.1,2-0.1V36.5z M50.4,31c-7.5,1.2-13.9-5.2-12.7-12.7
			c0.7-4.6,4.4-8.2,9-9c7.5-1.2,13.9,5.2,12.7,12.7C58.6,26.6,54.9,30.3,50.4,31z"/>
		<path d="M48.5,12L48.5,12c-0.8,0-1.5,0.7-1.5,1.5V21l5.7,5.7c0.6,0.6,1.5,0.6,2.1,0l0,0c0.6-0.6,0.6-1.5,0-2.1L50,19.7v-6.2
			C50,12.6,49.3,12,48.5,12z"/>
	</g>
</g>
</svg>
