<?xml version="1.0" encoding="utf-8"?>
<!-- Generator: Adobe Illustrator 24.0.0, SVG Export Plug-In . SVG Version: 6.00 Build 0)  -->
<svg version="1.1" id="Layer_1" xmlns="http://www.w3.org/2000/svg" xmlns:xlink="http://www.w3.org/1999/xlink" x="0px" y="0px"
	 viewBox="0 0 72 72" style="enable-background:new 0 0 72 72;" xml:space="preserve">
<style type="text/css">
	.st0{fill:none;}
</style>
<path class="st0" d="M0,0h72v72H0V0z"/>
<path d="M63,46.6V15.5c0-2.2-1.8-4-4-4H13c-2.2,0-4,1.8-4,4v31.1c0,2.2,1.8,4,4,4h20v6h-5c-1.1,0-2,0.9-2,2v0c0,1.1,0.9,2,2,2h16
	c1.1,0,2-0.9,2-2v0c0-1.1-0.9-2-2-2h-5v-6h20C61.2,50.6,63,48.8,63,46.6z M13,15.5h46v31.1H13V15.5z"/>
</svg>
