<?xml version="1.0" encoding="utf-8"?>
<!-- Generator: Adobe Illustrator 24.0.0, SVG Export Plug-In . SVG Version: 6.00 Build 0)  -->
<svg version="1.1" id="Layer_1" xmlns="http://www.w3.org/2000/svg" xmlns:xlink="http://www.w3.org/1999/xlink" x="0px" y="0px"
	 viewBox="0 0 72 72" style="enable-background:new 0 0 72 72;" xml:space="preserve">
<style type="text/css">
	.st0{fill:none;}
</style>
<path class="st0" d="M0,0h72v72H0V0z"/>
<path d="M59,11.1H13c-2.2,0-4,1.8-4,4v31.1c0,2.2,1.8,4,4,4h18.1l-5.5,8.2c-0.2,0.3-0.3,0.6-0.3,0.9v0c0,0.8,0.7,1.5,1.5,1.5h18.1
	c0.8,0,1.5-0.7,1.5-1.5v0c0-0.3-0.1-0.6-0.3-0.9l-5.5-8.2H59c2.2,0,4-1.8,4-4V15.1C63,12.9,61.2,11.1,59,11.1z M31.5,56.9l4.4-6.5
	l4.4,6.5H31.5z M59,46.3H13V15.1h46V46.3z"/>
</svg>
