<?xml version="1.0" encoding="utf-8"?>
<!-- Generator: Adobe Illustrator 24.0.0, SVG Export Plug-In . SVG Version: 6.00 Build 0)  -->
<svg version="1.1" id="Layer_1" xmlns="http://www.w3.org/2000/svg" xmlns:xlink="http://www.w3.org/1999/xlink" x="0px" y="0px"
	 viewBox="0 0 72 72" style="enable-background:new 0 0 72 72;" xml:space="preserve">
<style type="text/css">
	.st0{fill:none;}
</style>
<path class="st0" d="M0,0h72v72H0V0z"/>
<circle cx="36" cy="44" r="4"/>
<path d="M59,19.4c0-3.4-2.1-6.4-5.3-7.5C48.1,10,42.2,9,36,9s-12.1,1-17.7,2.9C15.1,13,13,16.1,13,19.4l0,32.8c0,2.2,1.8,4,4,4h8.6
	l-2.7,3.2c-1.4,1.2-0.6,3.5,1.3,3.5h23.6c1.9,0,2.7-2.3,1.3-3.5l-2.7-3.2H55c2.2,0,4-1.8,4-4V19.4z M19.7,15.7
	C24.8,13.9,30.3,13,36,13s11.2,1,16.3,2.7c1,0.3,1.8,1.1,2.3,2H17.4C17.9,16.7,18.7,16,19.7,15.7z M42.3,59H29.7l2.1-2.8h8.4
	L42.3,59z M55,52.2H17V35.6h38V52.2z M17,31.6v-10h38v10H17z"/>
</svg>
