<?xml version="1.0" encoding="utf-8"?>
<!-- Generator: Adobe Illustrator 24.0.0, SVG Export Plug-In . SVG Version: 6.00 Build 0)  -->
<svg version="1.1" id="Layer_1" xmlns="http://www.w3.org/2000/svg" xmlns:xlink="http://www.w3.org/1999/xlink" x="0px" y="0px"
	 viewBox="0 0 72 72" style="enable-background:new 0 0 72 72;" xml:space="preserve">
<style type="text/css">
	.st0{fill:none;}
</style>
<title>directions</title>
<rect class="st0" width="72" height="72"/>
<g>
	<path d="M33.2,10.5L10.5,33.2c-1.6,1.6-1.6,4.1,0,5.7l22.6,22.6c1.6,1.6,4.1,1.6,5.7,0l22.6-22.6c1.6-1.6,1.6-4.1,0-5.7L38.8,10.5
		C37.3,9,34.7,9,33.2,10.5z M36,58.6L13.4,36L36,13.4L58.6,36L36,58.6z"/>
	<path d="M40.6,27.8c-0.8-0.8-2-0.8-2.8,0l0,0c-0.8,0.8-0.8,2,0,2.8l2.2,2.2H28.4c-0.8,0-1.5,0.7-1.5,1.5v8.5c0,1.1,0.9,2,2,2h0
		c1.1,0,2-0.9,2-2v-6h9.1l-2.2,2.2c-0.8,0.8-0.8,2,0,2.8l0,0c0.8,0.8,2,0.8,2.8,0l6-6c0.6-0.6,0.6-1.6,0-2.1L40.6,27.8z"/>
</g>
</svg>
