<?xml version="1.0" encoding="utf-8"?>
<!-- Generator: Adobe Illustrator 24.0.0, SVG Export Plug-In . SVG Version: 6.00 Build 0)  -->
<svg version="1.1" id="Layer_1" xmlns="http://www.w3.org/2000/svg" xmlns:xlink="http://www.w3.org/1999/xlink" x="0px" y="0px"
	 viewBox="0 0 72 72" style="enable-background:new 0 0 72 72;" xml:space="preserve">
<style type="text/css">
	.st0{fill:none;}
</style>
<path class="st0" d="M0,0h72v72H0V0z"/>
<circle cx="43.9" cy="17.2" r="4"/>
<path d="M20.2,36.3C14,36.3,9,41.3,9,47.6s5,11.2,11.2,11.2s11.2-5,11.2-11.2S26.5,36.3,20.2,36.3z M20.2,54.8
	c-4.1,0-7.2-3.2-7.2-7.2s3.2-7.2,7.2-7.2s7.2,3.2,7.2,7.2S24.3,54.8,20.2,54.8z"/>
<path d="M51.8,36.3c-6.3,0-11.2,5-11.2,11.2s5,11.2,11.2,11.2S63,53.9,63,47.6S58,36.3,51.8,36.3z M51.8,54.8
	c-4.1,0-7.2-3.2-7.2-7.2s3.2-7.2,7.2-7.2s7.2,3.2,7.2,7.2S55.8,54.8,51.8,54.8z"/>
<path d="M43.4,25.8l-4.7-4.7c-1.4-1.4-3.6-1.4-5,0l-7.4,7.4c-1.4,1.4-1.4,3.8,0.2,5.2l7.6,6.6v9.8c0,1.1,0.9,2,2,2h0
	c1.1,0,2-0.9,2-2V39.3c0-0.6-0.3-1.1-0.7-1.5L34,34.9l-2.8-2.4l0,0l6.6-6.6l0,0l2.7,2.7c2.5,2.5,5.7,4.2,8.9,4.9
	c1.2,0.3,2.4-0.7,2.4-2v0c0-1-0.7-1.8-1.6-2C47.8,29,45.4,27.8,43.4,25.8z"/>
</svg>
