<?xml version="1.0" encoding="utf-8"?>
<!-- Generator: Adobe Illustrator 24.0.0, SVG Export Plug-In . SVG Version: 6.00 Build 0)  -->
<svg version="1.1" id="Layer_1" xmlns="http://www.w3.org/2000/svg" xmlns:xlink="http://www.w3.org/1999/xlink" x="0px" y="0px"
	 viewBox="0 0 72 72" style="enable-background:new 0 0 72 72;" xml:space="preserve">
<style type="text/css">
	.st0{fill:none;}
</style>
<path class="st0" d="M0,0h72v72H0V0z"/>
<g>
	<circle cx="26.4" cy="45" r="3.5"/>
	<circle cx="47.4" cy="45" r="3.5"/>
	<path d="M59.8,20.5c0-3.4-2.1-6.4-5.3-7.5C48.9,11,43,10,36.8,10s-12.1,1-17.7,2.9c-3.2,1.1-5.3,4.2-5.3,7.5l0,32.8
		c0,2.2,1.8,4,4,4h8.6l-2.7,3.2C22.3,61.7,23.1,64,25,64h23.6c1.9,0,2.7-2.3,1.3-3.5l-2.7-3.2h8.6c2.2,0,4-1.8,4-4V20.5z M20.5,16.7
		C25.6,15,31.1,14,36.8,14s11.2,1,16.3,2.7c1,0.3,1.8,1.1,2.3,2H18.2C18.7,17.7,19.5,17,20.5,16.7z M17.8,22.6h17v10h-17V22.6z
		 M43.1,60H30.5l2.1-2.8H41L43.1,60z M55.8,53.3h-38V36.6h38V53.3z M55.8,32.6h-17v-10h17V32.6z"/>
</g>
</svg>
