<?xml version="1.0" encoding="utf-8"?>
<!-- Generator: Adobe Illustrator 24.0.0, SVG Export Plug-In . SVG Version: 6.00 Build 0)  -->
<svg version="1.1" id="Layer_1" xmlns="http://www.w3.org/2000/svg" xmlns:xlink="http://www.w3.org/1999/xlink" x="0px" y="0px"
	 viewBox="0 0 72 72" style="enable-background:new 0 0 72 72;" xml:space="preserve">
<style type="text/css">
	.st0{fill:none;}
</style>
<path class="st0" d="M0,0h72v72H0V0z"/>
<g>
	<path d="M23.4,49.8l1.8-1.8l1.8,1.8c4.7,4.7,12.3,4.7,17,0l1.8-1.8l1.8,1.8c1.6,1.6,3.6,2.7,5.7,3.2c1,0.2,2.1-0.4,2.4-1.4
		l3.6-12.7c0.6-2.1-0.6-4.2-2.6-4.9l-1.6-0.5v-13c0-2.2-1.8-4-4-4H43v-3.9c0-2.2-1.8-4-4-4h-7c-2.2,0-4,1.8-4,4v3.9h-8.2
		c-2.2,0-4,1.8-4,4v12.9L14.2,34c-2,0.7-3.2,2.8-2.6,4.9l3.7,12.7c0.3,1,1.4,1.6,2.4,1.4C19.8,52.5,21.7,51.4,23.4,49.8z M32,12.6h7
		v3.9h-7V12.6z M19.8,20.5h31.3v11.7l-14.5-4.7c-0.8-0.3-1.7-0.3-2.5,0l-14.4,4.7V20.5z M35.5,31.3l20.1,6.5l-3.1,10.7
		c-0.7-0.4-1.4-0.9-2-1.5l-3.2-3.2c-0.8-0.8-2-0.8-2.8,0L41.2,47c-3.1,3.1-8.2,3.1-11.3,0l-3.2-3.2c-0.8-0.8-2-0.8-2.8,0L20.6,47
		c-0.6,0.6-1.3,1.1-2,1.5l-3.1-10.7L35.5,31.3z"/>
	<path d="M56,59.4c-3.3,0-6.4-0.9-9-2.4c-0.6-0.3-1.3-0.3-1.9,0c-2.7,1.5-5.7,2.4-9,2.4s-6.4-0.9-9-2.4c-0.6-0.3-1.3-0.3-1.9,0
		c-2.7,1.5-5.7,2.4-9,2.4h-3c-1.1,0-2,0.9-2,2v0c0,1.1,0.9,2,2,2h3c3.6,0,7-0.9,10-2.4c3,1.5,6.4,2.4,10,2.4s7-0.9,10-2.4
		c3,1.5,6.4,2.4,10,2.4h3c1.1,0,2-0.9,2-2v0c0-1.1-0.9-2-2-2H56z"/>
</g>
</svg>
