<?xml version="1.0" encoding="utf-8"?>
<!-- Generator: Adobe Illustrator 24.0.0, SVG Export Plug-In . SVG Version: 6.00 Build 0)  -->
<svg version="1.1" id="Layer_1" xmlns="http://www.w3.org/2000/svg" xmlns:xlink="http://www.w3.org/1999/xlink" x="0px" y="0px"
	 viewBox="0 0 72 72" style="enable-background:new 0 0 72 72;" xml:space="preserve">
<style type="text/css">
	.st0{fill:none;}
</style>
<title>done_all</title>
<rect class="st0" width="72" height="72"/>
<g>
	<path d="M34.2,45.5l-8.5-8.5c-0.8-0.8-2-0.8-2.8,0l0,0c-0.8,0.8-0.8,2,0,2.8l9.9,9.9c0.8,0.8,2,0.8,2.8,0l25.5-25.5
		c0.8-0.8,0.8-2,0-2.8v0c-0.8-0.8-2-0.8-2.8,0L34.2,45.5z"/>
	<path d="M47.7,26.5L34.9,39.2l-2.8-2.8l12.7-12.7c0.8-0.8,2-0.8,2.8,0l0,0C48.4,24.4,48.4,25.7,47.7,26.5z"/>
	<path d="M23.6,50.5l1.4-1.4L13.7,37.8c-0.8-0.8-2-0.8-2.8,0l0,0c-0.8,0.8-0.8,2,0,2.8l9.9,9.9C21.6,51.3,22.8,51.3,23.6,50.5z"/>
</g>
</svg>
