<?xml version="1.0" encoding="utf-8"?>
<!-- Generator: Adobe Illustrator 24.0.0, SVG Export Plug-In . SVG Version: 6.00 Build 0)  -->
<svg version="1.1" id="Layer_1" xmlns="http://www.w3.org/2000/svg" xmlns:xlink="http://www.w3.org/1999/xlink" x="0px" y="0px"
	 viewBox="0 0 72 72" style="enable-background:new 0 0 72 72;" xml:space="preserve">
<style type="text/css">
	.st0{fill:none;}
</style>
<title>contact_support</title>
<rect class="st0" width="72" height="72"/>
<g>
	<path d="M40,13.4C49.8,15.1,57.5,23,58.8,33h4C61.5,20.8,52,11.1,40,9.3V13.4z"/>
	<path d="M34,58.9C22.2,57.9,13,48,13,36s9.2-21.9,21-22.9v-4C20,10.1,9,21.8,9,36s11,25.9,25,26.9V58.9z"/>
	<path d="M58.8,39c-1.3,10-9,17.9-18.8,19.6v4.1C52,60.9,61.5,51.2,62.8,39H58.8z"/>
</g>
</svg>
