<?xml version="1.0" encoding="utf-8"?>
<!-- Generator: Adobe Illustrator 24.0.0, SVG Export Plug-In . SVG Version: 6.00 Build 0)  -->
<svg version="1.1" id="Layer_1" xmlns="http://www.w3.org/2000/svg" xmlns:xlink="http://www.w3.org/1999/xlink" x="0px" y="0px"
	 viewBox="0 0 72 72" style="enable-background:new 0 0 72 72;" xml:space="preserve">
<style type="text/css">
	.st0{fill:none;}
	path{fill:white}
</style>
<title>code</title>
<rect class="st0" width="72" height="72"/>
<path d="M63.1,9.5c0,0-32.5-1.5-46.7,12.3c-9.6,9.2-10,24.3-0.9,33.7s24.2,9.5,33.7,0.3C63.4,42,63.1,9.5,63.1,9.5z M46.4,52.8
	c-3.8,3.7-8.8,5.7-14.1,5.7c0,0,0,0,0,0c-3.1,0-6-0.7-8.6-2c2.8-8.2,7.7-15.4,14.2-20.9c-7.8,4-14.3,10.2-18.9,17.7
	c-0.2-0.2-0.5-0.4-0.7-0.7c-3.6-3.8-5.6-8.7-5.4-14c0.1-5.3,2.3-10.3,6.2-14C29.3,14.8,50.7,13.6,59,13.4
	C58.5,22.2,56.5,43.1,46.4,52.8z"/>
</svg>
