<?xml version="1.0" encoding="utf-8"?>
<!-- Generator: Adobe Illustrator 24.0.0, SVG Export Plug-In . SVG Version: 6.00 Build 0)  -->
<svg version="1.1" id="Layer_1" xmlns="http://www.w3.org/2000/svg" xmlns:xlink="http://www.w3.org/1999/xlink" x="0px" y="0px"
	 viewBox="0 0 72 72" style="enable-background:new 0 0 72 72;" xml:space="preserve">
<style type="text/css">
	.st0{fill:none;}
</style>
<title>code</title>
<rect class="st0" width="72" height="72"/>
<g>
	<path d="M61,62.3H11c-1.1,0-2-0.9-2-2v0c0-1.1,0.9-2,2-2h50c1.1,0,2,0.9,2,2v0C63,61.4,62.1,62.3,61,62.3z"/>
	<g>
		<path d="M61,51.7H11c-1.6,0-2.5-1.8-1.7-3.1l25-38c0.8-1.2,2.6-1.2,3.3,0l25,38C63.5,49.9,62.6,51.7,61,51.7z M14.7,47.7h42.6
			L36,15.3L14.7,47.7z"/>
	</g>
</g>
</svg>
