<?xml version="1.0" encoding="utf-8"?>
<!-- Generator: Adobe Illustrator 24.0.0, SVG Export Plug-In . SVG Version: 6.00 Build 0)  -->
<svg version="1.1" id="Layer_1" xmlns="http://www.w3.org/2000/svg" xmlns:xlink="http://www.w3.org/1999/xlink" x="0px" y="0px"
	 viewBox="0 0 72 72" style="enable-background:new 0 0 72 72;" xml:space="preserve">
<style type="text/css">
	.st0{fill:none;}
</style>
<title>explore</title>
<rect class="st0" width="72" height="72"/>
<path d="M51,15v-4c0-1.1-0.9-2-2-2H23c-1.1,0-2,0.9-2,2v4H10.8c-1.1,0-2,0.9-2,2v7c0,7.7,5.8,14.1,13.3,14.9c2,4.8,6.5,8.3,11.8,9
	V59H23.1c-1.1,0-2,0.9-2,2v0c0,1.1,0.9,2,2,2h25.7c1.1,0,2-0.9,2-2v0c0-1.1-0.9-2-2-2H38V47.9c5.3-0.7,9.8-4.2,11.8-9
	c7.5-0.8,13.3-7.2,13.3-14.9v-7c0-1.1-0.9-2-2-2H51z M12.8,24v-5H21v14.1c0,0.5,0,1,0.1,1.5C16.4,33.4,12.8,29.1,12.8,24z M47,33.1
	c0,6.1-4.9,11-11,11s-11-4.9-11-11V13h22V33.1z M59.2,24c0,5.1-3.5,9.4-8.2,10.6c0.1-0.5,0.1-1,0.1-1.5V19h8.2V24z"/>
</svg>
