<?xml version="1.0" encoding="utf-8"?>
<!-- Generator: Adobe Illustrator 24.0.0, SVG Export Plug-In . SVG Version: 6.00 Build 0)  -->
<svg version="1.1" id="Layer_1" xmlns="http://www.w3.org/2000/svg" xmlns:xlink="http://www.w3.org/1999/xlink" x="0px" y="0px"
	 viewBox="0 0 72 72" style="enable-background:new 0 0 72 72;" xml:space="preserve">
<style type="text/css">
	.st0{fill:none;}
</style>
<title>notifications</title>
<rect class="st0" width="72" height="72"/>
<path d="M34.9,9C24.4,9.6,16,18.5,16,28.9c0,6.1,2.7,11.6,7.1,15.3c0.9,0.8,1.4,1.9,1.4,3.1v8.7c0,2.2,1.8,4,4,4h2.4
	c1,1.7,2.9,2.9,5.1,2.9s4.1-1.2,5.1-2.9h2.3c2.2,0,4-1.8,4-4v-8.7c0-1.2,0.5-2.3,1.5-3.1c4.3-3.7,7-9.1,7-15.2
	C56,17.6,46.4,8.4,34.9,9z M43.5,56.1h-15v-3h15V56.1z M43.5,46.3v2.7h-15v-2.7c0-0.1,0-0.3,0-0.4h15C43.5,46.1,43.5,46.2,43.5,46.3
	z M45.9,41.6c-0.2,0.1-0.3,0.2-0.4,0.4H38v-7.2l3.8-3.8c0.8-0.8,0.8-2,0-2.8l0,0c-0.8-0.8-2-0.8-2.8,0l-3,3l-3-3
	c-0.8-0.8-2-0.8-2.8,0l0,0c-0.8,0.8-0.8,2,0,2.8l3.8,3.8V42h-7.5c-0.1-0.1-0.3-0.3-0.5-0.4c-4.1-3.3-6.6-8.5-6-14.3
	c0.8-7.3,6.7-13.3,14.1-14.1C43.8,12,52,19.6,52,29C52,34.1,49.6,38.7,45.9,41.6z"/>
</svg>
