<?xml version="1.0" encoding="utf-8"?>
<!-- Generator: Adobe Illustrator 24.0.0, SVG Export Plug-In . SVG Version: 6.00 Build 0)  -->
<svg version="1.1" id="Layer_1" xmlns="http://www.w3.org/2000/svg" xmlns:xlink="http://www.w3.org/1999/xlink" x="0px" y="0px"
	 viewBox="0 0 72 72" style="enable-background:new 0 0 72 72;" xml:space="preserve">
<style type="text/css">
	.st0{fill:none;}
</style>
<title>info</title>
<rect class="st0" width="72" height="72"/>
<g>
	<path d="M60,25.5L59,22.1l2.3-1.4c1.4-0.8,2-2.5,1.5-4c-0.5-1.4-1.9-2.4-3.4-2.4c-0.1,0-0.2,0-0.2,0h-2.7l-0.8-2.6
		C55.3,10.1,53.8,9,52.2,9c-1.6,0-3.1,1.2-3.5,2.8l-0.8,2.6h-2.6c-0.1,0-0.2,0-0.2,0c-1.5,0-2.9,0.9-3.4,2.4c-0.5,1.5,0.1,3.2,1.5,4
		l2.3,1.4l-1.1,3.3c-0.6,1.6-0.1,3.4,1.2,4.4c0.6,0.5,1.4,0.7,2.1,0.7c0.8,0,1.6-0.3,2.3-0.9l2.2-1.9l2.2,1.9
		c0.7,0.6,1.5,0.9,2.3,0.9c0.7,0,1.5-0.2,2.1-0.7C60.2,28.9,60.6,27.1,60,25.5z M52.2,23.8c-2.2,0-4-1.8-4-4c0-2.2,1.8-4,4-4
		c2.2,0,4,1.8,4,4C56.2,22,54.4,23.8,52.2,23.8z"/>
	<path d="M39.9,52.2l-1.2-3.2l1.4-1.4c2.4-2.4,3.4-5.5,3.2-8.6h2.1c0.8,0,1.5-0.7,1.5-1.5v0c0-0.8-0.7-1.5-1.5-1.5l-2.7,0
		C42,34.5,41.2,33.2,40,32c-1.2-1.2-2.5-2-3.9-2.5v-2.7c0-0.8-0.7-1.5-1.5-1.5h0c-0.8,0-1.5,0.7-1.5,1.5l0,2.1
		c-3.1-0.2-6.3,0.8-8.6,3.2l-1.4,1.4l-3.2-1.2c-4.1-1.6-8.7,0.5-10.3,4.6c-1.3,3.5-0.1,7.4,2.9,9.4c-1,3.7,0,7.7,2.8,10.6
		c2.9,2.9,6.9,3.8,10.6,2.8c2.1,2.9,5.9,4.2,9.4,2.9C39.4,60.9,41.5,56.3,39.9,52.2z M37.1,44.8L37.1,44.8L35,39.4
		c-0.4-1.1-1.2-1.9-2.3-2.3l-5.5-2.1l0.1-0.1c3.1-3.1,8.5-2.7,10.9,1.3C39.9,38.9,39.4,42.5,37.1,44.8z M15.6,43.3
		c-2.1-0.8-3.1-3.1-2.3-5.2c0.8-2.1,3.1-3.1,5.2-2.3l9.9,3.8c-0.3,0.4-0.7,0.8-1,1.2C24.3,43.8,19.7,44.9,15.6,43.3z M18.1,53.9
		c-1.7-1.7-2.3-4.1-1.9-6.3c3,0.7,6.1,0.4,8.8-0.7c-1.1,2.7-1.4,5.8-0.7,8.8C22.1,56.3,19.8,55.6,18.1,53.9z M33.8,58.8
		c-2.1,0.8-4.4-0.2-5.2-2.3c-1.6-4.2-0.5-8.7,2.5-11.7c0.4-0.4,0.8-0.7,1.2-1l3.8,9.9C36.9,55.7,35.9,58,33.8,58.8z"/>
</g>
</svg>
