<?xml version="1.0" encoding="utf-8"?>
<!-- Generator: Adobe Illustrator 24.0.0, SVG Export Plug-In . SVG Version: 6.00 Build 0)  -->
<svg version="1.1" id="Layer_1" xmlns="http://www.w3.org/2000/svg" xmlns:xlink="http://www.w3.org/1999/xlink" x="0px" y="0px"
	 viewBox="0 0 72 72" style="enable-background:new 0 0 72 72;" xml:space="preserve">
<style type="text/css">
	.st0{fill:none;}
</style>
<title>outlined_flag</title>
<rect class="st0" width="72" height="72"/>
<path d="M56.9,26H41.8l-3.2-5.1c-0.7-1.2-2-1.9-3.4-1.9H17.1v-2.6c1.5-0.8,2.3-2.6,1.9-4.4c-0.3-1.4-1.5-2.6-2.9-2.9
	c-2.6-0.6-5,1.4-5,3.9c0,1.5,0.8,2.8,2,3.4V61c0,1.1,0.9,2,2,2h0c1.1,0,2-0.9,2-2V51h14.8l3.2,5.1c0.7,1.2,2,1.9,3.4,1.9h18.4
	c2.2,0,4-1.8,4-4V30C60.9,27.8,59.1,26,56.9,26z M56.9,54H38.5l-3.2-5.1c-0.7-1.2-2-1.9-3.4-1.9H17.1V23h18.1l3.2,5.1
	c0.7,1.2,2,1.9,3.4,1.9h15.1V54z"/>
</svg>
