<?xml version="1.0" encoding="utf-8"?>
<!-- Generator: Adobe Illustrator 24.0.0, SVG Export Plug-In . SVG Version: 6.00 Build 0)  -->
<svg version="1.1" id="Layer_1" xmlns="http://www.w3.org/2000/svg" xmlns:xlink="http://www.w3.org/1999/xlink" x="0px" y="0px"
	 viewBox="0 0 72 72" style="enable-background:new 0 0 72 72;" xml:space="preserve">
<style type="text/css">
	.st0{fill:none;}
</style>
<title>explore</title>
<rect class="st0" width="72" height="72"/>
<g>
	<path d="M14.5,12.4v29.8c0,4.4,3.6,8,8,8h21.8c4.4,0,8-3.6,8-8V31.3h6.7c2.2,0,4-1.8,4-4V16.4c0-2.2-1.8-4-4-4H14.5z M44.3,46.2
		H22.5c-2.2,0-4-1.8-4-4V16.4h9.3v5.3l-4.6,3.9c-0.9,0.8-1.4,1.9-1.4,3.1v8.3c0,1.1,0.9,2,2,2h11.1c1.1,0,2-0.9,2-2v-8.3
		c0-1.2-0.5-2.3-1.4-3.1l-4.6-3.9v-5.2h17.5v25.8C48.3,44.4,46.5,46.2,44.3,46.2z M29.3,24.3l4.5,3.8v7.8h-9.1v-7.8L29.3,24.3z
		 M58.9,27.3h-6.7V16.4h6.7V27.3z"/>
	<path d="M11.1,59.6h44.6c1.1,0,2-0.9,2-2v0c0-1.1-0.9-2-2-2H11.1c-1.1,0-2,0.9-2,2v0C9.1,58.7,10,59.6,11.1,59.6z"/>
</g>
</svg>
