<?xml version="1.0" encoding="utf-8"?>
<!-- Generator: Adobe Illustrator 24.0.0, SVG Export Plug-In . SVG Version: 6.00 Build 0)  -->
<svg version="1.1" id="Layer_1" xmlns="http://www.w3.org/2000/svg" xmlns:xlink="http://www.w3.org/1999/xlink" x="0px" y="0px"
	 viewBox="0 0 72 72" style="enable-background:new 0 0 72 72;" xml:space="preserve">
<style type="text/css">
	.st0{fill:none;}
</style>
<title>code</title>
<rect class="st0" width="72" height="72"/>
<path d="M9.5,40v19c0,2.2,1.8,4,4,4h5c2.2,0,4-1.8,4-4V40c0-2.2-1.8-4-4-4h-5C11.3,36,9.5,37.8,9.5,40z M18.5,59h-5V40h5V59z"/>
<path d="M29.5,13v46c0,2.2,1.8,4,4,4h5c2.2,0,4-1.8,4-4V13c0-2.2-1.8-4-4-4h-5C31.3,9,29.5,10.8,29.5,13z M38.5,59h-5V13h5V59z"/>
<path d="M49.5,30v29c0,2.2,1.8,4,4,4h5c2.2,0,4-1.8,4-4V30c0-2.2-1.8-4-4-4h-5C51.3,26,49.5,27.8,49.5,30z M58.5,59h-5V30h5V59z"/>
</svg>
