<?xml version="1.0" encoding="utf-8"?>
<!-- Generator: Adobe Illustrator 24.0.0, SVG Export Plug-In . SVG Version: 6.00 Build 0)  -->
<svg version="1.1" id="Layer_1" xmlns="http://www.w3.org/2000/svg" xmlns:xlink="http://www.w3.org/1999/xlink" x="0px" y="0px"
	 viewBox="0 0 72 72" style="enable-background:new 0 0 72 72;" xml:space="preserve">
<style type="text/css">
	.st0{fill:none;}
</style>
<title>info</title>
<rect class="st0" width="72" height="72"/>
<path d="M45,59c-9.9,0-18.3-6.2-21.6-15H43c1.1,0,2-0.9,2-2v0c0-1.1-0.9-2-2-2H22.4c-0.2-1.3-0.4-2.6-0.4-4s0.1-2.7,0.4-4H43
	c1.1,0,2-0.9,2-2v0c0-1.1-0.9-2-2-2H23.5c3.2-8.8,11.7-15,21.6-15c5.2,0,10,1.7,13.8,4.6c0.8,0.6,1.9,0.5,2.6-0.2l0,0
	c0.9-0.9,0.8-2.3-0.2-3C56.7,11,51.1,9,45,9c-12.1,0-22.4,8-25.8,19H11c-1.1,0-2,0.9-2,2v0c0,1.1,0.9,2,2,2h7.3
	c-0.2,1.3-0.3,2.6-0.3,4s0.1,2.7,0.3,4H11c-1.1,0-2,0.9-2,2v0c0,1.1,0.9,2,2,2h8.2C22.6,55,32.9,63,45,63c6.1,0,11.7-2,16.2-5.4
	c1-0.7,1-2.1,0.2-3l0,0c-0.7-0.7-1.8-0.8-2.6-0.2C55,57.3,50.2,59,45,59z"/>
</svg>
