<?xml version="1.0" encoding="utf-8"?>
<!-- Generator: Adobe Illustrator 24.0.0, SVG Export Plug-In . SVG Version: 6.00 Build 0)  -->
<svg version="1.1" id="Layer_1" xmlns="http://www.w3.org/2000/svg" xmlns:xlink="http://www.w3.org/1999/xlink" x="0px" y="0px"
	 viewBox="0 0 72 72" style="enable-background:new 0 0 72 72;" xml:space="preserve">
<style type="text/css">
	.st0{fill:none;}
</style>
<title>date_range</title>
<rect class="st0" width="72" height="72"/>
<path d="M51.5,15v-4c0-1.1-0.9-2-2-2h0c-1.1,0-2,0.9-2,2v4h-23v-4c0-1.1-0.9-2-2-2h0c-1.1,0-2,0.9-2,2v4h-3c-2.2,0-4,1.8-4,4v40
	c0,2.2,1.8,4,4,4h37c2.2,0,4-1.8,4-4V19c0-2.2-1.8-4-4-4H51.5z M54.5,59h-37V29.6h37V59z M54.5,25.6h-37V19h37V25.6z"/>
<path d="M44.5,49.9l-5.7-5.7l5.7-5.7c0.8-0.8,0.8-2,0-2.8l0,0c-0.8-0.8-2-0.8-2.8,0L36,41.5l-5.7-5.7c-0.8-0.8-2-0.8-2.8,0l0,0
	c-0.8,0.8-0.8,2,0,2.8l5.7,5.7l-5.7,5.7c-0.8,0.8-0.8,2,0,2.8l0,0c0.8,0.8,2,0.8,2.8,0l5.7-5.7l5.7,5.7c0.8,0.8,2,0.8,2.8,0l0,0
	C45.3,52,45.3,50.7,44.5,49.9z"/>
</svg>
