<?xml version="1.0" encoding="utf-8"?>
<!-- Generator: Adobe Illustrator 24.0.0, SVG Export Plug-In . SVG Version: 6.00 Build 0)  -->
<svg version="1.1" id="Layer_1" xmlns="http://www.w3.org/2000/svg" xmlns:xlink="http://www.w3.org/1999/xlink" x="0px" y="0px"
	 viewBox="0 0 72 72" style="enable-background:new 0 0 72 72;" xml:space="preserve">
<style type="text/css">
	.st0{fill:none;}
</style>
<title>date_range</title>
<rect class="st0" width="72" height="72"/>
<g>
	<path d="M51.5,15v-4c0-1.1-0.9-2-2-2h0c-1.1,0-2,0.9-2,2v4h-23v-4c0-1.1-0.9-2-2-2h0c-1.1,0-2,0.9-2,2v4h-3c-2.2,0-4,1.8-4,4v40
		c0,2.2,1.8,4,4,4h37c2.2,0,4-1.8,4-4V19c0-2.2-1.8-4-4-4H51.5z M54.5,59h-37V29.6h37V59z M54.5,25.6h-37V19h37V25.6z"/>
	<g>
		<path d="M22,38L22,38c0,1.1,0.9,2,2,2h24c1.1,0,2-0.9,2-2v0c0-1.1-0.9-2-2-2H24C22.9,36,22,36.9,22,38z"/>
		<path d="M24,51h16c1.1,0,2-0.9,2-2v0c0-1.1-0.9-2-2-2H24c-1.1,0-2,0.9-2,2v0C22,50.1,22.9,51,24,51z"/>
	</g>
</g>
</svg>
