<?xml version="1.0" encoding="utf-8"?>
<!-- Generator: Adobe Illustrator 24.0.0, SVG Export Plug-In . SVG Version: 6.00 Build 0)  -->
<svg version="1.1" id="Layer_1" xmlns="http://www.w3.org/2000/svg" xmlns:xlink="http://www.w3.org/1999/xlink" x="0px" y="0px"
	 viewBox="0 0 72 72" style="enable-background:new 0 0 72 72;" xml:space="preserve">
<style type="text/css">
	.st0{fill:none;}
</style>
<rect class="st0" width="72" height="72"/>
<path d="M54.6,44.9H17.4c-1.1,0-2,0.9-2,2v13.2c0,1.1,0.9,2,2,2h0c1.1,0,2-0.9,2-2V48.9h33.2v11.2c0,1.1,0.9,2,2,2h0
	c1.1,0,2-0.9,2-2V46.9C56.6,45.8,55.7,44.9,54.6,44.9z"/>
<path d="M22,15.9v25h28v-25c0-3.3-2.7-6-6-6H28C24.7,9.9,22,12.6,22,15.9z M46,36.9H26v-21c0-1.1,0.9-2,2-2h16c1.1,0,2,0.9,2,2V36.9
	z"/>
<path d="M59,37.5h-2c-1.1,0-2-0.9-2-2v0c0-1.1,0.9-2,2-2h2c1.1,0,2,0.9,2,2v0C61,36.6,60.1,37.5,59,37.5z"/>
<path d="M15,37.5h-2c-1.1,0-2-0.9-2-2v0c0-1.1,0.9-2,2-2h2c1.1,0,2,0.9,2,2v0C17,36.6,16.1,37.5,15,37.5z"/>
</svg>
