<?xml version="1.0" encoding="utf-8"?>
<!-- Generator: Adobe Illustrator 24.0.0, SVG Export Plug-In . SVG Version: 6.00 Build 0)  -->
<svg version="1.1" id="Layer_1" xmlns="http://www.w3.org/2000/svg" xmlns:xlink="http://www.w3.org/1999/xlink" x="0px" y="0px"
	 viewBox="0 0 72 72" style="enable-background:new 0 0 72 72;" xml:space="preserve">
<style type="text/css">
	.st0{fill:none;}
</style>
<title>account_box</title>
<rect class="st0" width="72" height="72"/>
<path d="M59,9H13c-2.2,0-4,1.8-4,4v14c0,1.1,0.9,2,2,2h0c1.1,0,2-0.9,2-2V13h46v46H13V45c0-1.1-0.9-2-2-2h0c-1.1,0-2,0.9-2,2v14
	c0,2.2,1.8,4,4,4h46c2.2,0,4-1.8,4-4V13C63,10.8,61.2,9,59,9z"/>
<path d="M47.3,33.2l-7.1-7.1c-0.8-0.8-2-0.8-2.8,0l0,0c-0.8,0.8-0.8,2,0,2.8l5.1,5.1H11c-1.1,0-2,0.9-2,2v0c0,1.1,0.9,2,2,2h31.5
	l-5.1,5.1c-0.8,0.8-0.8,2,0,2.8l0,0c0.8,0.8,2,0.8,2.8,0l7.1-7.1l1.4-1.4c0.8-0.8,0.8-2,0-2.8L47.3,33.2z"/>
</svg>
