<?xml version="1.0" encoding="utf-8"?>
<!-- Generator: Adobe Illustrator 24.0.0, SVG Export Plug-In . SVG Version: 6.00 Build 0)  -->
<svg version="1.1" id="Layer_1" xmlns="http://www.w3.org/2000/svg" xmlns:xlink="http://www.w3.org/1999/xlink" x="0px" y="0px"
	 viewBox="0 0 72 72" style="enable-background:new 0 0 72 72;" xml:space="preserve">
<style type="text/css">
	.st0{fill:none;}
</style>
<title>explore</title>
<rect class="st0" width="72" height="72"/>
<path d="M16.9,16.9c-10.5,10.5-10.5,27.6,0,38.2s27.6,10.5,38.2,0s10.5-27.6,0-38.2S27.4,6.4,16.9,16.9z M52.3,52.3
	c-9,9-23.5,9-32.5,0s-9-23.5,0-32.5s23.5-9,32.5,0S61.2,43.3,52.3,52.3z"/>
<circle cx="36" cy="36" r="2.5"/>
<path d="M28.4,30.4l-7,15.7c-1.5,3.3,1.9,6.8,5.3,5.3l15.7-7c0.9-0.4,1.6-1.1,2-2l7-15.7c1.5-3.3-1.9-6.8-5.3-5.3l-15.7,7
	C29.5,28.8,28.8,29.5,28.4,30.4z M40.8,40.7l-15.7,7l7-15.7l15.7-7L40.8,40.7z"/>
</svg>
