<?xml version="1.0" encoding="utf-8"?>
<!-- Generator: Adobe Illustrator 24.0.0, SVG Export Plug-In . SVG Version: 6.00 Build 0)  -->
<svg version="1.1" id="Layer_1" xmlns="http://www.w3.org/2000/svg" xmlns:xlink="http://www.w3.org/1999/xlink" x="0px" y="0px"
	 viewBox="0 0 72 72" style="enable-background:new 0 0 72 72;" xml:space="preserve">
<style type="text/css">
	.st0{fill:none;}
</style>
<title>photo_camera</title>
<rect class="st0" width="72" height="72"/>
<path d="M9,48.7V59c0,2.2,1.8,4,4,4h10.3c1.1,0,2-0.9,2-2v-2c0.9-3.4,4-6,7.7-6s6.8,2.6,7.7,6v2c0,1.1,0.9,2,2,2H53c2.2,0,4-1.8,4-4
	V45h0c3.3,0,6-2.7,6-6v0c0-3.3-2.7-6-6-6h0V19c0-2.2-1.8-4-4-4H39v0c0-3.3-2.7-6-6-6h0c-3.3,0-6,2.7-6,6v0H13c-2.2,0-4,1.8-4,4v10.3
	c0,1.1,0.9,2,2,2h2c3.4,0.9,6,4,6,7.7s-2.6,6.8-6,7.7h-2C9.9,46.7,9,47.6,9,48.7z M57,41h-2c-1.1,0-2,0.9-2,2v16h-8.2
	c-1-5.7-5.9-10-11.8-10s-10.9,4.3-11.8,10H13v-8.2c5.7-1,10-5.9,10-11.8s-4.3-10.9-10-11.8V19h16c1.1,0,2-0.9,2-2v-2
	c0-1.1,0.9-2,2-2h0c1.1,0,2,0.9,2,2v2c0,1.1,0.9,2,2,2h16v16c0,1.1,0.9,2,2,2h2c1.1,0,2,0.9,2,2v0C59,40.1,58.1,41,57,41z"/>
</svg>
