<?xml version="1.0" encoding="utf-8"?>
<!-- Generator: Adobe Illustrator 24.0.0, SVG Export Plug-In . SVG Version: 6.00 Build 0)  -->
<svg version="1.1" id="Layer_1" xmlns="http://www.w3.org/2000/svg" xmlns:xlink="http://www.w3.org/1999/xlink" x="0px" y="0px"
	 viewBox="0 0 72 72" style="enable-background:new 0 0 72 72;" xml:space="preserve">
<style type="text/css">
	.st0{fill:none;}
</style>
<title>local_offer</title>
<rect class="st0" width="72" height="72"/>
<g>
	<path d="M50.8,18.7V11c0-1.1-0.9-2-2-2h0c-1.1,0-2,0.9-2,2v7.7H35.2c-0.6,0-1.1,0.5-1,1.1l0.3,2.9h24.7L55.4,59h-4.2v4h4.2
		c2,0,3.8-1.5,4-3.6l3.8-36.2c0.2-2.4-1.6-4.4-4-4.4H50.8z"/>
	<rect x="26" y="31.5" transform="matrix(-1.836970e-16 1 -1 -1.836970e-16 78.5076 22.5338)" width="4" height="38"/>
	<path d="M9,58.5L9,58.5l38,0v0c0,2.2-1.8,4-4,4H13C10.8,62.5,9,60.7,9,58.5z"/>
	<path d="M41,32.5c-3.8-2.5-8.3-3.9-13.2-3.9s-9.4,1.5-13.2,3.9c-3.7,2.4-5.8,6.6-5.8,11h2h2.1h29.9h1.8h2.2
		C46.8,39.1,44.7,35,41,32.5z M14,39.5c0.8-1.5,1.9-2.8,3.4-3.8c3-2,6.6-3.1,10.4-3.1s7.4,1.1,10.4,3.1c1.5,1,2.6,2.3,3.4,3.8H14z"
		/>
</g>
</svg>
