<?xml version="1.0" encoding="utf-8"?>
<!-- Generator: Adobe Illustrator 24.0.0, SVG Export Plug-In . SVG Version: 6.00 Build 0)  -->
<svg version="1.1" id="Layer_1" xmlns="http://www.w3.org/2000/svg" xmlns:xlink="http://www.w3.org/1999/xlink" x="0px" y="0px"
	 viewBox="0 0 72 72" style="enable-background:new 0 0 72 72;" xml:space="preserve">
<style type="text/css">
	.st0{fill:none;}
</style>
<title>filter</title>
<rect class="st0" width="72" height="72"/>
<path d="M34,21.3v29.3c0,1.6-1.8,2.6-3.2,1.6L10.1,37.6c-1.1-0.8-1.1-2.5,0-3.3l20.8-14.7C32.2,18.8,34,19.7,34,21.3z M30,25.2
	L14.7,36L30,46.8V25.2z"/>
<path d="M62.8,21.3v29.3c0,1.6-1.8,2.6-3.2,1.6L38.8,37.6c-1.1-0.8-1.1-2.5,0-3.3l20.8-14.7C60.9,18.8,62.8,19.7,62.8,21.3z
	 M58.8,25.2L43.5,36l15.3,10.8V25.2z"/>
</svg>
