<?xml version="1.0" encoding="utf-8"?>
<!-- Generator: Adobe Illustrator 24.0.0, SVG Export Plug-In . SVG Version: 6.00 Build 0)  -->
<svg version="1.1" id="Layer_1" xmlns="http://www.w3.org/2000/svg" xmlns:xlink="http://www.w3.org/1999/xlink" x="0px" y="0px"
	 viewBox="0 0 72 72" style="enable-background:new 0 0 72 72;" xml:space="preserve">
<style type="text/css">
	.st0{fill:none;}
</style>
<title>filter</title>
<rect class="st0" width="72" height="72"/>
<path d="M38,21.3v29.3c0,1.6,1.8,2.6,3.2,1.6l20.8-14.7c1.1-0.8,1.1-2.5,0-3.3L41.2,19.7C39.8,18.8,38,19.7,38,21.3z M42,25.2
	L57.3,36L42,46.8V25.2z"/>
<path d="M9.2,21.3v29.3c0,1.6,1.8,2.6,3.2,1.6l20.8-14.7c1.1-0.8,1.1-2.5,0-3.3L12.4,19.7C11.1,18.8,9.2,19.7,9.2,21.3z M13.2,25.2
	L28.5,36L13.2,46.8V25.2z"/>
</svg>
