<?xml version="1.0" encoding="utf-8"?>
<!-- Generator: Adobe Illustrator 24.0.0, SVG Export Plug-In . SVG Version: 6.00 Build 0)  -->
<svg version="1.1" id="Layer_1" xmlns="http://www.w3.org/2000/svg" xmlns:xlink="http://www.w3.org/1999/xlink" x="0px" y="0px"
	 viewBox="0 0 72 72" style="enable-background:new 0 0 72 72;" xml:space="preserve">
<style type="text/css">
	.st0{fill:none;}
</style>
<title>favorite_border</title>
<rect class="st0" width="72" height="72"/>
<path d="M46.4,10.2c-3.7,0-7.4,1.2-10.4,3.4c-3-2.2-6.7-3.4-10.4-3.4C16.3,10.2,9,17.5,9,26.9c0,10.4,8.3,18,20.9,29.4l6.1,5.5
	l6.1-5.5C54.7,44.8,63,37.3,63,26.9C63,17.5,55.7,10.2,46.4,10.2z M39.3,53.4l-3.3,3l-3.3-3C20.8,42.6,13,35.5,13,26.9
	c0-7.1,5.6-12.6,12.6-12.6c4,0,7.8,1.9,10.4,4.8c2.5-2.9,6.3-4.8,10.4-4.8c7.1,0,12.6,5.6,12.6,12.6C59,35.5,51.2,42.6,39.3,53.4z"
	/>
</svg>
