<?xml version="1.0" encoding="utf-8"?>
<!-- Generator: Adobe Illustrator 24.0.0, SVG Export Plug-In . SVG Version: 6.00 Build 0)  -->
<svg version="1.1" id="Layer_1" xmlns="http://www.w3.org/2000/svg" xmlns:xlink="http://www.w3.org/1999/xlink" x="0px" y="0px"
	 viewBox="0 0 72 72" style="enable-background:new 0 0 72 72;" xml:space="preserve">
<style type="text/css">
	.st0{fill:none;}
</style>
<title>contact_support</title>
<rect class="st0" width="72" height="72"/>
<g>
	<path d="M19,27h-8c-1.1,0-2,0.9-2,2v14c0,1.1,0.9,2,2,2h0c1.1,0,2-0.9,2-2v-4h6c3.3,0,6-2.7,6-6v0C25,29.7,22.3,27,19,27z M19,35
		h-6v-4h6c1.1,0,2,0.9,2,2v0C21,34.1,20.1,35,19,35z"/>
	<path d="M36,45L36,45c-1.1,0-2-0.9-2-2V29c0-1.1,0.9-2,2-2h0c1.1,0,2,0.9,2,2v14C38,44.1,37.1,45,36,45z"/>
	<path d="M50,43V32.9l7.2,10.7c0.6,0.9,1.6,1.4,2.6,1.4h0c1.7,0,3.2-1.4,3.2-3.2V29c0-1.1-0.9-2-2-2h0c-1.1,0-2,0.9-2,2v10.1
		l-7.2-10.7c-0.6-0.9-1.6-1.4-2.6-1.4h0c-1.7,0-3.2,1.4-3.2,3.2V43c0,1.1,0.9,2,2,2h0C49.1,45,50,44.1,50,43z"/>
</g>
</svg>
