<?xml version="1.0" encoding="utf-8"?>
<!-- Generator: Adobe Illustrator 24.0.0, SVG Export Plug-In . SVG Version: 6.00 Build 0)  -->
<svg version="1.1" id="Layer_1" xmlns="http://www.w3.org/2000/svg" xmlns:xlink="http://www.w3.org/1999/xlink" x="0px" y="0px"
	 viewBox="0 0 72 72" style="enable-background:new 0 0 72 72;" xml:space="preserve">
<style type="text/css">
	.st0{fill:none;}
</style>
<title>contact_support</title>
<rect class="st0" width="72" height="72"/>
<g>
	<path d="M9,29v14c0,1.1,0.9,2,2,2h9c1.7,0,3-1.3,3-3V31c0-2.2-1.8-4-4-4h-8C9.9,27,9,27.9,9,29z M13,41V31h6v10H13z"/>
	<path d="M62.9,32.1c-0.4-3-3.1-5.1-6.2-5.1H50c-1.1,0-2,0.9-2,2v14c0,1.1,0.9,2,2,2h0c1.1,0,2-0.9,2-2v-4h4l2,4.8
		c0.3,0.7,1,1.2,1.8,1.2h0c1.4,0,2.4-1.5,1.8-2.8l-1.7-4C62,37,63.3,34.7,62.9,32.1z M52,31h4.9c1,0,1.9,0.7,2.1,1.7
		c0.2,1.3-0.8,2.3-2,2.3h-5V31z"/>
	<path d="M38.8,42.9l3.8-13.3C43,28.3,42,27,40.7,27h0c-0.9,0-1.7,0.6-1.9,1.4L36,38.2l-2.8-9.7c-0.2-0.9-1-1.4-1.9-1.4h0
		c-1.3,0-2.3,1.3-1.9,2.6l3.8,13.3c0.4,1.3,1.5,2.1,2.8,2.1h0C37.3,45,38.5,44.1,38.8,42.9z"/>
</g>
</svg>
