<?xml version="1.0" encoding="utf-8"?>
<!-- Generator: Adobe Illustrator 24.0.0, SVG Export Plug-In . SVG Version: 6.00 Build 0)  -->
<svg version="1.1" id="Layer_1" xmlns="http://www.w3.org/2000/svg" xmlns:xlink="http://www.w3.org/1999/xlink" x="0px" y="0px"
	 viewBox="0 0 72 72" style="enable-background:new 0 0 72 72;" xml:space="preserve">
<style type="text/css">
	.st0{fill:none;}
</style>
<title>contact_support</title>
<rect class="st0" width="72" height="72"/>
<g>
	<path d="M13,43V32.9l7.2,10.7c0.6,0.9,1.6,1.4,2.6,1.4h0c1.7,0,3.2-1.4,3.2-3.2V29c0-1.1-0.9-2-2-2h0c-1.1,0-2,0.9-2,2v10.1
		l-7.2-10.7c-0.6-0.9-1.6-1.4-2.6-1.4h0C10.4,27,9,28.4,9,30.2V43c0,1.1,0.9,2,2,2h0C12.1,45,13,44.1,13,43z"/>
	<path d="M59,29v12h-3.5v-8c0-1.1-0.9-2-2-2h0c-1.1,0-2,0.9-2,2v8H48V29c0-1.1-0.9-2-2-2h0c-1.1,0-2,0.9-2,2v14c0,1.1,0.9,2,2,2h15
		c1.1,0,2-0.9,2-2V29c0-1.1-0.9-2-2-2h0C59.9,27,59,27.9,59,29z"/>
	<path d="M41.4,29L41.4,29c0-1.1-0.9-2-2-2h-8.8c-1.1,0-2,0.9-2,2v14c0,1.1,0.9,2,2,2h8.8c1.1,0,2-0.9,2-2v0c0-1.1-0.9-2-2-2h-6.8
		v-3h6.8c1.1,0,2-0.9,2-2v0c0-1.1-0.9-2-2-2h-6.8v-3h6.8C40.5,31,41.4,30.1,41.4,29z"/>
</g>
</svg>
