<?xml version="1.0" encoding="utf-8"?>
<!-- Generator: Adobe Illustrator 24.0.0, SVG Export Plug-In . SVG Version: 6.00 Build 0)  -->
<svg version="1.1" id="Layer_1" xmlns="http://www.w3.org/2000/svg" xmlns:xlink="http://www.w3.org/1999/xlink" x="0px" y="0px"
	 viewBox="0 0 72 72" style="enable-background:new 0 0 72 72;" xml:space="preserve">
<style type="text/css">
	.st0{fill:none;}
</style>
<title>place</title>
<rect class="st0" width="72" height="72"/>
<path d="M43.7,14.5H22.4c-2.2,0-4,1.8-4,4v43c0,2.2,1.8,4,4,4h35.1c2.2,0,4-1.8,4-4V32.4c0-1.1-0.4-2.1-1.2-2.8L46.5,15.7
	C45.8,14.9,44.7,14.5,43.7,14.5z M57.5,32.4H43.7V18.5h0L57.5,32.4z M22.4,61.5v-43h17.2v13.9c0,2.2,1.8,4,4,4h13.9v25.1H22.4z"/>
<path d="M41.4,6.5h-29c-1.1,0-2,0.9-2,2v29c0,1.1,0.9,2,2,2h0c1.1,0,2-0.9,2-2v-27h27c1.1,0,2-0.9,2-2v0C43.4,7.4,42.5,6.5,41.4,6.5
	z"/>
</svg>
