<?xml version="1.0" encoding="utf-8"?>
<!-- Generator: Adobe Illustrator 24.0.0, SVG Export Plug-In . SVG Version: 6.00 Build 0)  -->
<svg version="1.1" id="Layer_1" xmlns="http://www.w3.org/2000/svg" xmlns:xlink="http://www.w3.org/1999/xlink" x="0px" y="0px"
	 viewBox="0 0 72 72" style="enable-background:new 0 0 72 72;" xml:space="preserve">
<style type="text/css">
	.st0{fill:none;}
	.st1{fill-rule:evenodd;clip-rule:evenodd;}
</style>
<title>filter</title>
<rect class="st0" width="72" height="72"/>
<path class="st1" d="M44.9,32.8l17.9-17.9c2.5-2.5,0.7-6.8-2.8-6.8H12.1c-3.6,0-5.3,4.3-2.8,6.8l17.9,17.9v14.5
	c0,1.1,0.4,2.1,1.2,2.8l13.2,13.2c1.3,1.3,3.4,0.4,3.4-1.4V32.8z M31.1,47.3V32.8c0-1.1-0.4-2.1-1.2-2.8L12.1,12.1h47.9L42.1,29.9
	c-0.8,0.8-1.2,1.8-1.2,2.8v24.3L31.1,47.3z"/>
</svg>
