<?xml version="1.0" encoding="utf-8"?>
<!-- Generator: Adobe Illustrator 24.0.0, SVG Export Plug-In . SVG Version: 6.00 Build 0)  -->
<svg version="1.1" id="Layer_1" xmlns="http://www.w3.org/2000/svg" xmlns:xlink="http://www.w3.org/1999/xlink" x="0px" y="0px"
	 viewBox="0 0 72 72" style="enable-background:new 0 0 72 72;" xml:space="preserve">
<style type="text/css">
	.st0{fill:none;}
</style>
<path class="st0" d="M0,0h72v72H0V0z"/>
<path d="M56.4,24L42.6,10.2C41.8,9.4,40.8,9,39.7,9H18.4c-2.2,0-4,1.8-4,4l0,46c0,2.2,1.8,4,4,4h35.2c2.2,0,4-1.8,4-4V26.9
	C57.6,25.8,57.2,24.8,56.4,24z M18.4,59l0-46h21.3l13.9,13.9v29.2L47,49.5c1.7-2.2,2.7-5,2.7-8c0-7.5-6-13.5-13.5-13.5
	s-13.5,6-13.5,13.5c0,7.5,6,13.5,13.5,13.5c3,0,5.8-1,8-2.7l6.7,6.7H18.4z M36.2,51c-5.2,0-9.5-4.3-9.5-9.5s4.3-9.5,9.5-9.5
	s9.5,4.3,9.5,9.5S41.4,51,36.2,51z"/>
</svg>
