<?xml version="1.0" encoding="utf-8"?>
<!-- Generator: Adobe Illustrator 24.0.0, SVG Export Plug-In . SVG Version: 6.00 Build 0)  -->
<svg version="1.1" id="Layer_1" xmlns="http://www.w3.org/2000/svg" xmlns:xlink="http://www.w3.org/1999/xlink" x="0px" y="0px"
	 viewBox="0 0 72 72" style="enable-background:new 0 0 72 72;" xml:space="preserve">
<style type="text/css">
	.st0{fill:none;}
</style>
<title>code</title>
<rect class="st0" width="72" height="72"/>
<g>
	<path d="M47.4,19L31.8,34.6c-0.8,0.8-0.8,2,0,2.8L47.4,53c0.8,0.8,2,0.8,2.8,0l0,0c0.8-0.8,0.8-2,0-2.8L36.1,36l14.1-14.1
		c0.8-0.8,0.8-2,0-2.8l0,0C49.4,18.2,48.1,18.2,47.4,19z"/>
	<path d="M23.2,53.6L23.2,53.6c-1.1,0-2-0.9-2-2V20.4c0-1.1,0.9-2,2-2h0c1.1,0,2,0.9,2,2v31.1C25.2,52.7,24.3,53.6,23.2,53.6z"/>
</g>
</svg>
