<?xml version="1.0" encoding="utf-8"?>
<!-- Generator: Adobe Illustrator 24.0.0, SVG Export Plug-In . SVG Version: 6.00 Build 0)  -->
<svg version="1.1" id="Layer_1" xmlns="http://www.w3.org/2000/svg" xmlns:xlink="http://www.w3.org/1999/xlink" x="0px" y="0px"
	 viewBox="0 0 72 72" style="enable-background:new 0 0 72 72;" xml:space="preserve">
<style type="text/css">
	.st0{fill:none;}
</style>
<title>search</title>
<rect class="st0" width="72" height="72"/>
<g>
	<path d="M36.5,32.7h-5l7-18.6c1-2.6-1-5.4-3.7-5.4H17.5c-2.2,0-4,1.8-4,4v25c0,2.2,1.8,4,4,4h5v19.6c0,2,2.7,2.8,3.7,1L40,38.7
		C41.5,36,39.6,32.7,36.5,32.7z M17.5,37.7v-25h17.2l-8,21.3c-0.5,1.3,0.5,2.7,1.9,2.7h7.9l-10,17.2V39.7c0-1.1-0.9-2-2-2H17.5z"/>
	<path d="M45.4,32l1.3-3.7h8.6l1.3,3.7c0.3,0.8,1,1.3,1.9,1.3h0c1.4,0,2.4-1.4,1.9-2.7L52.9,10c-0.6-1.8-3.1-1.8-3.8,0l-7.5,20.6
		c-0.5,1.3,0.5,2.7,1.9,2.7h0C44.4,33.3,45.1,32.8,45.4,32z M51,16.5l2.8,7.8h-5.6L51,16.5z"/>
</g>
</svg>
