<?xml version="1.0" encoding="utf-8"?>
<!-- Generator: Adobe Illustrator 24.0.0, SVG Export Plug-In . SVG Version: 6.00 Build 0)  -->
<svg version="1.1" id="Layer_1" xmlns="http://www.w3.org/2000/svg" xmlns:xlink="http://www.w3.org/1999/xlink" x="0px" y="0px"
	 viewBox="0 0 72 72" style="enable-background:new 0 0 72 72;" xml:space="preserve">
<style type="text/css">
	.st0{fill:none;}
</style>
<title>search</title>
<rect class="st0" width="72" height="72"/>
<g>
	<path d="M55.1,55.1c0.8-0.8,0.8-2,0-2.8L19.7,16.9c-0.8-0.8-2-0.8-2.8,0l0,0c-0.8,0.8-0.8,2,0,2.8l5.6,5.6v12.4c0,2.2,1.8,4,4,4h5
		v19.6c0,2,2.7,2.8,3.7,1L44.1,47l8.1,8.1C53,55.9,54.3,55.9,55.1,55.1L55.1,55.1z M35.5,53.9V39.7c0-1.1-0.9-2-2-2h-7v-8.4
		l14.7,14.7L35.5,53.9z"/>
	<path d="M41.2,32.7l7.1,7.1l0.7-1.1c1.6-2.7-0.4-6-3.5-6H41.2z"/>
	<path d="M26.5,12.7h17.2l-6.1,16.4l3.1,3.1l6.8-18.1c1-2.6-1-5.4-3.7-5.4H26.5c-2.2,0-4,1.8-4,4V14l4,4V12.7z"/>
</g>
</svg>
