<?xml version="1.0" encoding="utf-8"?>
<!-- Generator: Adobe Illustrator 24.0.0, SVG Export Plug-In . SVG Version: 6.00 Build 0)  -->
<svg version="1.1" id="Layer_1" xmlns="http://www.w3.org/2000/svg" xmlns:xlink="http://www.w3.org/1999/xlink" x="0px" y="0px"
	 viewBox="0 0 72 72" style="enable-background:new 0 0 72 72;" xml:space="preserve">
<style type="text/css">
	.st0{fill:none;}
</style>
<title>flight_land</title>
<rect class="st0" width="72" height="72"/>
<g>
	<path d="M61,54.9H11c-1.1,0-2,0.9-2,2s0.9,2,2,2h50c1.1,0,2-0.9,2-2S62.1,54.9,61,54.9z"/>
	<path d="M57.9,26.5l-13.4,3.6L27.5,14.2c-1-1-2.5-1.3-3.8-0.9l-4.1,1.2c-1.3,0.4-1.8,1.8-1.2,2.9l9.9,17.1l-9.9,2.6l-3.8-3.1
		c-1-0.8-2.3-1.1-3.6-0.8l-3,0.8c-1.3,0.3-1.9,1.8-1.2,2.9l6.2,10.8c0.9,1.6,2.8,2.3,4.5,1.9L61,38.1c3.2-0.9,5.1-4.1,4.2-7.3l0,0
		C64.4,27.6,61.1,25.7,57.9,26.5z M60,34.2L16.5,45.9l-4.9-8.5l0.5-0.1l3.8,3.1c1,0.8,2.3,1.1,3.6,0.8l12.4-3.3
		c1.3-0.3,1.9-1.8,1.2-2.9l-9.9-17.1l1.6-0.5l17.1,15.9c1,0.9,2.4,1.3,3.8,0.9L59,30.4c1.1-0.3,2.1,0.3,2.4,1.4v0
		C61.7,32.9,61,33.9,60,34.2z"/>
</g>
</svg>
