<?xml version="1.0" encoding="utf-8"?>
<!-- Generator: Adobe Illustrator 24.0.0, SVG Export Plug-In . SVG Version: 6.00 Build 0)  -->
<svg version="1.1" id="Layer_1" xmlns="http://www.w3.org/2000/svg" xmlns:xlink="http://www.w3.org/1999/xlink" x="0px" y="0px"
	 viewBox="0 0 72 72" style="enable-background:new 0 0 72 72;" xml:space="preserve">
<style type="text/css">
	.st0{fill:none;}
</style>
<title>flight_land</title>
<rect class="st0" width="72" height="72"/>
<g>
	<path d="M58.5,41l-13.4-3.6l-6.8-22.3c-0.4-1.3-1.5-2.4-2.9-2.7l-4.1-1c-1.3-0.3-2.5,0.6-2.5,1.9l0,19.8L19,30.4l-1.7-4.6
		c-0.5-1.2-1.5-2.1-2.7-2.4l-3-0.8C10.3,22.3,9,23.2,9,24.5L9,37c0,1.8,1.2,3.4,3,3.9l43.5,11.6c3.2,0.9,6.5-1,7.3-4.2l0,0
		C63.6,45.1,61.7,41.8,58.5,41z M56.5,48.7L13,37l0-9.9l0.5,0.1l1.7,4.6c0.5,1.2,1.5,2.1,2.7,2.4l12.4,3.3c1.3,0.3,2.5-0.6,2.5-1.9
		l0-19.8l1.7,0.4l6.8,22.3c0.4,1.3,1.5,2.3,2.8,2.7l13.4,3.6c1.1,0.3,1.7,1.4,1.4,2.4v0C58.6,48.3,57.5,48.9,56.5,48.7z"/>
	<path d="M61,60.7H11c-1.1,0-2-0.9-2-2v0c0-1.1,0.9-2,2-2h50c1.1,0,2,0.9,2,2v0C63,59.8,62.1,60.7,61,60.7z"/>
</g>
</svg>
