<?xml version="1.0" encoding="utf-8"?>
<!-- Generator: Adobe Illustrator 24.0.0, SVG Export Plug-In . SVG Version: 6.00 Build 0)  -->
<svg version="1.1" id="Layer_1" xmlns="http://www.w3.org/2000/svg" xmlns:xlink="http://www.w3.org/1999/xlink" x="0px" y="0px"
	 viewBox="0 0 72 72" style="enable-background:new 0 0 72 72;" xml:space="preserve">
<style type="text/css">
	.st0{fill:none;}
</style>
<title>search</title>
<rect class="st0" width="72" height="72"/>
<g>
	<path d="M36.2,63L36.2,63c1.1,0,2-0.9,2-2V11c0-1.1-0.9-2-2-2h0c-1.1,0-2,0.9-2,2v50C34.2,62.1,35.1,63,36.2,63z"/>
	<path d="M54.5,14.3v4.4h4v-0.4C58.5,16.1,56.7,14.3,54.5,14.3L54.5,14.3z"/>
	<rect x="54.5" y="22.3" width="4" height="4.4"/>
	<rect x="54.5" y="33.3" width="4" height="4.4"/>
	<rect x="54.5" y="44.3" width="4" height="4.4"/>
	<path d="M54.5,58.3L54.5,58.3c2.2,0,4-1.8,4-4v-0.4h-4V58.3z"/>
	<rect x="44.2" y="54.3" width="6.2" height="4"/>
	<path d="M19,58.3h10.2v-4H19v-36h10.2v-4H19c-2.2,0-4,1.8-4,4v36C15,56.5,16.8,58.3,19,58.3z"/>
	<rect x="43.2" y="14" width="6.2" height="4"/>
</g>
</svg>
