<?xml version="1.0" encoding="utf-8"?>
<!-- Generator: Adobe Illustrator 24.0.0, SVG Export Plug-In . SVG Version: 6.00 Build 0)  -->
<svg version="1.1" id="Layer_1" xmlns="http://www.w3.org/2000/svg" xmlns:xlink="http://www.w3.org/1999/xlink" x="0px" y="0px"
	 viewBox="0 0 72 72" style="enable-background:new 0 0 72 72;" xml:space="preserve">
<style type="text/css">
	.st0{fill:none;}
</style>
<title>local_shipping</title>
<rect class="st0" width="72" height="72"/>
<g>
	<path d="M49,27L49,27c-1.1,0-2,0.9-2,2v10H25V29c0-1.1-0.9-2-2-2h0c-1.1,0-2,0.9-2,2v10h-4c-1.1,0-2,0.9-2,2v12c0,1.1,0.9,2,2,2h4
		v6c0,1.1,0.9,2,2,2h0c1.1,0,2-0.9,2-2v-6h10.6c0,4.4,3.6,8,8,8c4.4,0,8-3.6,8-8H55c1.1,0,2-0.9,2-2V41c0-1.1-0.9-2-2-2h-4V29
		C51,27.9,50.1,27,49,27z M43.6,59c-2.2,0-4-1.8-4-4s1.8-4,4-4s4,1.8,4,4S45.8,59,43.6,59z M53,43v8h-2.4c-1.4-2.4-4-4-6.9-4
		c-3,0-5.5,1.6-6.9,4H19v-8H53z"/>
	<path d="M22.9,13l-0.5,3.8c-0.3,2.5-2.6,4.4-5.2,4.1c-2.9-0.3-4.6-3.2-4-6l0.5-2L22.9,13z M34,13v4.2v0c0,2.3-2,4.1-4.3,3.8
		c-2.1-0.3-3.5-2.3-3.2-4.4l0.4-3.6L34,13z M45.1,13l0.5,3.7c0.3,2.3-1.6,4.3-3.9,4.3c-2.1-0.1-3.7-1.9-3.7-4v-4H45.1z M58.4,13
		l0.5,2.2c0.7,3-1.5,5.8-4.6,5.8h0c-2.4,0-4.4-1.8-4.7-4.1L49.2,13L58.4,13z M9.8,12.1l-0.5,2.2C8,19.7,12.1,25,17.7,25h0
		c2.5,0,4.8-1.1,6.5-2.9c1.4,1.7,3.6,2.9,6,2.9c2.3,0,4.4-1,5.8-2.6c1.4,1.6,3.5,2.6,5.8,2.6c2.5,0,4.6-1.1,6-2.9
		c1.8,2,4.5,3.1,7.4,2.8c5.4-0.6,8.7-5.7,7.5-11l-0.5-1.9c-0.4-1.8-2-3.1-3.9-3.1L13.7,9C11.8,9,10.2,10.3,9.8,12.1z"/>
</g>
</svg>
