<?xml version="1.0" encoding="utf-8"?>
<!-- Generator: Adobe Illustrator 24.0.0, SVG Export Plug-In . SVG Version: 6.00 Build 0)  -->
<svg version="1.1" id="Layer_1" xmlns="http://www.w3.org/2000/svg" xmlns:xlink="http://www.w3.org/1999/xlink" x="0px" y="0px"
	 viewBox="0 0 72 72" style="enable-background:new 0 0 72 72;" xml:space="preserve">
<style type="text/css">
	.st0{fill:none;}
</style>
<title>assignment_returned</title>
<rect class="st0" width="72" height="72"/>
<path d="M48.4,35.3c3.2-2.8,5.2-7.1,5.1-11.7C53.2,15.4,46.3,9,38.1,9L20.5,9c-2.2,0-4,1.8-4,4v46c0,2.2,1.8,4,4,4l19.6,0
	c7.9,0,14.8-6,15.4-13.9C55.9,43.2,52.9,38.1,48.4,35.3z M22.5,15h15.7c4.8,0,9,3.6,9.3,8.4c0.3,5.2-3.8,9.6-9,9.6h-16V15z M40.2,57
	H22.5V39h18c5.2,0,9.3,4.4,9,9.6C49.2,53.4,45,57,40.2,57z"/>
</svg>
