<?xml version="1.0" encoding="utf-8"?>
<!-- Generator: Adobe Illustrator 24.0.0, SVG Export Plug-In . SVG Version: 6.00 Build 0)  -->
<svg version="1.1" id="Layer_1" xmlns="http://www.w3.org/2000/svg" xmlns:xlink="http://www.w3.org/1999/xlink" x="0px" y="0px"
	 viewBox="0 0 72 72" style="enable-background:new 0 0 72 72;" xml:space="preserve">
<style type="text/css">
	.st0{fill:none;}
</style>
<title>assignment_returned</title>
<rect class="st0" width="72" height="72"/>
<path d="M50,11.1v22c0,7.7-6.3,14-14,14h0c-7.7,0-14-6.3-14-14v-22c0-1.1-0.9-2-2-2h0c-1.1,0-2,0.9-2,2v22c0,9.9,8.1,18,18,18h0
	c9.9,0,18-8.1,18-18v-22c0-1.1-0.9-2-2-2h0C50.9,9.1,50,10,50,11.1z"/>
<path d="M55,62.9H17c-1.1,0-2-0.9-2-2v0c0-1.1,0.9-2,2-2h38c1.1,0,2,0.9,2,2v0C57,62,56.1,62.9,55,62.9z"/>
</svg>
