<?xml version="1.0" encoding="utf-8"?>
<!-- Generator: Adobe Illustrator 24.0.0, SVG Export Plug-In . SVG Version: 6.00 Build 0)  -->
<svg version="1.1" id="Layer_1" xmlns="http://www.w3.org/2000/svg" xmlns:xlink="http://www.w3.org/1999/xlink" x="0px" y="0px"
	 viewBox="0 0 72 72" style="enable-background:new 0 0 72 72;" xml:space="preserve">
<style type="text/css">
	.st0{fill:none;}
</style>
<title>assignment_returned</title>
<rect class="st0" width="72" height="72"/>
<path d="M47.5,45.3L47.5,45.3c-0.8,0.8-0.8,2,0,2.8l3.2,3.2H16.4c-1.1,0-2,0.9-2,2v0c0,1.1,0.9,2,2,2h34.3l-3.2,3.2
	c-0.8,0.8-0.8,2,0,2.8l0,0c0.8,0.8,2,0.8,2.8,0l6.6-6.6c0.8-0.8,0.8-2,0-2.8l-6.6-6.6C49.6,44.5,48.3,44.5,47.5,45.3z"/>
<path d="M45.8,10.1l-19.2,0c-6.1,0-11.3,4.7-11.4,10.8c-0.1,6.2,4.9,11.2,11,11.2v11.1c0,1.1,0.9,2,2,2h0c1.1,0,2-0.9,2-2V14.1h8.1
	v29.1c0,1.1,0.9,2,2,2h0c1.1,0,2-0.9,2-2V14.1h3.5c1.1,0,2-0.9,2-2v0C47.8,11,46.9,10.1,45.8,10.1z M26.2,28.1c-3.9,0-7-3.1-7-7
	c0-3.9,3.1-7,7-7V28.1z"/>
</svg>
