<?xml version="1.0" encoding="utf-8"?>
<!-- Generator: Adobe Illustrator 24.0.0, SVG Export Plug-In . SVG Version: 6.00 Build 0)  -->
<svg version="1.1" id="Layer_1" xmlns="http://www.w3.org/2000/svg" xmlns:xlink="http://www.w3.org/1999/xlink" x="0px" y="0px"
	 viewBox="0 0 72 72" style="enable-background:new 0 0 72 72;" xml:space="preserve">
<style type="text/css">
	.st0{fill:none;}
</style>
<rect class="st0" width="72" height="72"/>
<g>
	<path d="M34,19.5L34,19.5c0,1.1,0.9,2,2,2h25c1.1,0,2-0.9,2-2v0c0-1.1-0.9-2-2-2H36C34.9,17.5,34,18.4,34,19.5z"/>
	<path d="M36,38h25c1.1,0,2-0.9,2-2v0c0-1.1-0.9-2-2-2H36c-1.1,0-2,0.9-2,2v0C34,37.1,34.9,38,36,38z"/>
	<path d="M36,54.5h25c1.1,0,2-0.9,2-2v0c0-1.1-0.9-2-2-2H36c-1.1,0-2,0.9-2,2v0C34,53.6,34.9,54.5,36,54.5z"/>
	<path d="M21,56.2V15.8l4.6,4.6c0.8,0.8,2,0.8,2.8,0l0,0c0.8-0.8,0.8-2,0-2.8l-8-8c-0.8-0.8-2-0.8-2.8,0l-8,8c-0.8,0.8-0.8,2,0,2.8
		l0,0c0.8,0.8,2,0.8,2.8,0l4.6-4.6v40.3l-4.6-4.6c-0.8-0.8-2-0.8-2.8,0l0,0c-0.8,0.8-0.8,2,0,2.8l8,8c0.8,0.8,2,0.8,2.8,0l8-8
		c0.8-0.8,0.8-2,0-2.8l0,0c-0.8-0.8-2-0.8-2.8,0L21,56.2z"/>
</g>
</svg>
