<?xml version="1.0" encoding="utf-8"?>
<!-- Generator: Adobe Illustrator 24.0.0, SVG Export Plug-In . SVG Version: 6.00 Build 0)  -->
<svg version="1.1" id="Layer_1" xmlns="http://www.w3.org/2000/svg" xmlns:xlink="http://www.w3.org/1999/xlink" x="0px" y="0px"
	 viewBox="0 0 72 72" style="enable-background:new 0 0 72 72;" xml:space="preserve">
<style type="text/css">
	.st0{fill:none;}
</style>
<title>assignment_returned</title>
<rect class="st0" width="72" height="72"/>
<path d="M31,15h12h4h12h0c2.2,0,4,1.8,4,4v0v3c0,1.1-0.9,2-2,2h0c-1.1,0-2-0.9-2-2v-3H47v34h2c1.1,0,2,0.9,2,2v0c0,1.1-0.9,2-2,2h-2
	h-4h-2c-1.1,0-2-0.9-2-2v0c0-1.1,0.9-2,2-2h2V19H31v3c0,1.1-0.9,2-2,2h0c-1.1,0-2-0.9-2-2v-3v0C27,16.8,28.8,15,31,15L31,15z"/>
<path d="M13,32h7h4h7h0c2.2,0,4,1.8,4,4v0v3c0,1.1-0.9,2-2,2h0c-1.1,0-2-0.9-2-2v-3h-7v17h2c1.1,0,2,0.9,2,2v0c0,1.1-0.9,2-2,2h-2
	h-4h-2c-1.1,0-2-0.9-2-2v0c0-1.1,0.9-2,2-2h2V36h-7v3c0,1.1-0.9,2-2,2h0c-1.1,0-2-0.9-2-2v-3v0C9,33.8,10.8,32,13,32L13,32z"/>
</svg>
