<?xml version="1.0" encoding="utf-8"?>
<!-- Generator: Adobe Illustrator 24.0.0, SVG Export Plug-In . SVG Version: 6.00 Build 0)  -->
<svg version="1.1" id="Layer_1" xmlns="http://www.w3.org/2000/svg" xmlns:xlink="http://www.w3.org/1999/xlink" x="0px" y="0px"
	 viewBox="0 0 72 72" style="enable-background:new 0 0 72 72;" xml:space="preserve">
<style type="text/css">
	.st0{fill:none;}
</style>
<title>announcement</title>
<rect class="st0" width="72" height="72"/>
<path d="M11,14h50c1.1,0,2-0.9,2-2v0c0-1.1-0.9-2-2-2H11c-1.1,0-2,0.9-2,2v0C9,13.1,9.9,14,11,14z"/>
<path d="M35,26h26c1.1,0,2-0.9,2-2v0c0-1.1-0.9-2-2-2H35c-1.1,0-2,0.9-2,2v0C33,25.1,33.9,26,35,26z"/>
<path d="M35,38h26c1.1,0,2-0.9,2-2v0c0-1.1-0.9-2-2-2H35c-1.1,0-2,0.9-2,2v0C33,37.1,33.9,38,35,38z"/>
<path d="M35,50h26c1.1,0,2-0.9,2-2v0c0-1.1-0.9-2-2-2H35c-1.1,0-2,0.9-2,2v0C33,49.1,33.9,50,35,50z"/>
<path d="M11,62h50c1.1,0,2-0.9,2-2v0c0-1.1-0.9-2-2-2H11c-1.1,0-2,0.9-2,2v0C9,61.1,9.9,62,11,62z"/>
<path d="M12,21.5l13.2,13.2c0.7,0.7,0.7,1.8,0,2.5L12,50.5c-1.1,1.1-3,0.3-3-1.2V22.8C9,21.2,10.9,20.4,12,21.5z M13,43.8l7.8-7.8
	L13,28.2V43.8z"/>
</svg>
