<?xml version="1.0" encoding="utf-8"?>
<!-- Generator: Adobe Illustrator 24.0.0, SVG Export Plug-In . SVG Version: 6.00 Build 0)  -->
<svg version="1.1" id="Layer_1" xmlns="http://www.w3.org/2000/svg" xmlns:xlink="http://www.w3.org/1999/xlink" x="0px" y="0px"
	 viewBox="0 0 72 72" style="enable-background:new 0 0 72 72;" xml:space="preserve">
<style type="text/css">
	.st0{fill:none;}
	.st1{display:none;fill:#EF2020;}
</style>
<title>lock</title>
<rect class="st0" width="72" height="72"/>
<rect x="19.6" y="58.8" class="st1" width="19.2" height="4"/>
<rect x="33.6" y="8.8" class="st1" width="19.2" height="4"/>
<path d="M55.5,11L55.5,11c0-1.1-0.9-2-2-2h-20c-1.1,0-2,0.9-2,2v0c0,1.1,0.9,2,2,2h7.9L26.4,59h-7.9c-1.1,0-2,0.9-2,2v0
	c0,1.1,0.9,2,2,2h20c1.1,0,2-0.9,2-2v0c0-1.1-0.9-2-2-2h-7.9l14.9-46h7.9C54.6,13,55.5,12.1,55.5,11z"/>
</svg>
