<?xml version="1.0" encoding="utf-8"?>
<!-- Generator: Adobe Illustrator 24.0.0, SVG Export Plug-In . SVG Version: 6.00 Build 0)  -->
<svg version="1.1" id="Layer_1" xmlns="http://www.w3.org/2000/svg" xmlns:xlink="http://www.w3.org/1999/xlink" x="0px" y="0px"
	 viewBox="0 0 72 72" style="enable-background:new 0 0 72 72;" xml:space="preserve">
<style type="text/css">
	.st0{fill:none;}
</style>
<title>assignment_returned</title>
<rect class="st0" width="72" height="72"/>
<g>
	<path d="M11.8,17.8l18.5,18.5l-6.1,14.4c-0.6,1.3,0.4,2.8,1.8,2.8h0c0.8,0,1.5-0.5,1.8-1.2l5.5-12.9l17.8,17.8c0.8,0.8,2,0.8,2.8,0
		l0,0c0.8-0.8,0.8-2,0-2.8L14.6,14.9c-0.8-0.8-2-0.8-2.8,0l0,0C11,15.7,11,17,11.8,17.8z"/>
	<path d="M44.3,13.5h-4.4H18.8l5,5h14l-4.2,9.8l3.1,3.1l5.5-12.9h17c1.4,0,2.5-1.1,2.5-2.5v0c0-1.4-1.1-2.5-2.5-2.5H44.3z"/>
</g>
</svg>
