<?xml version="1.0" encoding="utf-8"?>
<!-- Generator: Adobe Illustrator 24.0.0, SVG Export Plug-In . SVG Version: 6.00 Build 0)  -->
<svg version="1.1" id="Layer_1" xmlns="http://www.w3.org/2000/svg" xmlns:xlink="http://www.w3.org/1999/xlink" x="0px" y="0px"
	 viewBox="0 0 72 72" style="enable-background:new 0 0 72 72;" xml:space="preserve">
<style type="text/css">
	.st0{fill:none;}
</style>
<title>lock</title>
<rect class="st0" width="72" height="72"/>
<path d="M50.8,15.1V12c0-1.7-1.3-3-3-3H16c-1.7,0-3,1.3-3,3v10.2c0,1.7,1.3,3,3,3h31.7c1.7,0,3-1.3,3-3v-3.1H55v12.1H32
	c-1.7,0-3,1.3-3,3V60c0,1.7,1.3,3,3,3h0c1.7,0,3-1.3,3-3V35.2h21c1.7,0,3-1.3,3-3V18.1c0-1.7-1.3-3-3-3H50.8z M46.8,21.2H17V13h29.7
	V21.2z"/>
</svg>
