<?xml version="1.0" encoding="utf-8"?>
<!-- Generator: Adobe Illustrator 24.0.0, SVG Export Plug-In . SVG Version: 6.00 Build 0)  -->
<svg version="1.1" id="Layer_1" xmlns="http://www.w3.org/2000/svg" xmlns:xlink="http://www.w3.org/1999/xlink" x="0px" y="0px"
	 viewBox="0 0 72 72" style="enable-background:new 0 0 72 72;" xml:space="preserve">
<style type="text/css">
	.st0{fill:none;}
</style>
<title>assignment_returned</title>
<rect class="st0" width="72" height="72"/>
<g>
	<path d="M19.2,14h17v17h4V14h17v3c0,1.1,0.9,2,2,2h0c1.1,0,2-0.9,2-2v-5c0-1.1-0.9-2-2-2h-42c-1.1,0-2,0.9-2,2v5c0,1.1,0.9,2,2,2h0
		c1.1,0,2-0.9,2-2V14z"/>
	<path d="M65.2,37L65.2,37c0-1.1-0.9-2-2-2h-50c-1.1,0-2,0.9-2,2v0c0,1.1,0.9,2,2,2h23v21h-4c-1.1,0-2,0.9-2,2v0c0,1.1,0.9,2,2,2h13
		c1.1,0,2-0.9,2-2v0c0-1.1-0.9-2-2-2h-5V39h23C64.3,39,65.2,38.1,65.2,37z"/>
</g>
</svg>
