<?xml version="1.0" encoding="utf-8"?>
<!-- Generator: Adobe Illustrator 24.0.0, SVG Export Plug-In . SVG Version: 6.00 Build 0)  -->
<svg version="1.1" id="Layer_1" xmlns="http://www.w3.org/2000/svg" xmlns:xlink="http://www.w3.org/1999/xlink" x="0px" y="0px"
	 viewBox="0 0 72 72" style="enable-background:new 0 0 72 72;" xml:space="preserve">
<style type="text/css">
	.st0{fill:none;}
</style>
<title>tag_faces</title>
<rect class="st0" width="72" height="72"/>
<path d="M51.3,35.9l-3.1,6c-1.5,2.9,0.2,6.6,3.5,6.9c0.2,0,0.3,0,0.5,0s0.3,0,0.5,0c3.2-0.3,5-4,3.5-6.9l-3.1-6
	C52.7,35.2,51.6,35.2,51.3,35.9z M52.1,40.2l1.6,2.9c0.7,1.2-0.2,2.7-1.6,2.7l0,0l0,0c-1.4,0-2.2-1.5-1.6-2.7L52.1,40.2z"/>
<path d="M24.3,10L24.3,10c-0.8,0.8-0.8,2,0,2.8l4.8,4.8L15.6,31.1c-1.6,1.6-1.6,4.1,0,5.7l12.1,12.1c1.6,1.6,4.1,1.6,5.7,0
	l13.6-13.6c1.6-1.6,1.6-4.1,0-5.7L27.2,10C26.4,9.2,25.1,9.2,24.3,10z M31.9,20.4L44,32.5l-0.4,0.4H19.4L31.9,20.4z M21.3,36.9h18.3
	L30.5,46L21.3,36.9z"/>
<path d="M60.5,62.6h-49c-1.4,0-2.5-1.1-2.5-2.5v0c0-1.4,1.1-2.5,2.5-2.5h49c1.4,0,2.5,1.1,2.5,2.5v0C63,61.5,61.9,62.6,60.5,62.6z"
	/>
</svg>
