<?xml version="1.0" encoding="utf-8"?>
<!-- Generator: Adobe Illustrator 24.0.0, SVG Export Plug-In . SVG Version: 6.00 Build 0)  -->
<svg version="1.1" id="Layer_1" xmlns="http://www.w3.org/2000/svg" xmlns:xlink="http://www.w3.org/1999/xlink" x="0px" y="0px"
	 viewBox="0 0 72 72" style="enable-background:new 0 0 72 72;" xml:space="preserve">
<style type="text/css">
	.st0{fill:none;}
</style>
<title>refresh</title>
<rect class="st0" width="72" height="72"/>
<path d="M55,42.1c-1,10.3-10.3,18.3-21.1,17c-8.6-1-15.6-7.9-16.7-16.6c-1.3-11.3,7.3-20.9,18.2-21.3l-5,5c-0.8,0.8-0.8,2,0,2.8l0,0
	c0.8,0.8,2,0.8,2.8,0l8.5-8.5c0.8-0.8,0.8-2,0-2.8l-8.5-8.5c-0.8-0.8-2-0.8-2.8,0l0,0c-0.8,0.8-0.8,2,0,2.8l5.1,5.1
	c-13,0.3-23.3,11.4-22.4,24.6c0.8,11.4,10.1,20.6,21.5,21.3c12.6,0.8,23.3-8.6,24.4-20.8c0.1-1.2-0.8-2.1-2-2.1h0
	C55.9,40.2,55.1,41,55,42.1z"/>
<g>
	<path d="M29.3,41.2h1.4c0.5,0,0.9-0.2,1.1-0.5c0.2-0.4,0.4-0.8,0.4-1.5c0-0.6-0.1-1-0.4-1.4s-0.6-0.5-1-0.5c-0.4,0-0.7,0.2-1,0.5
		c-0.3,0.3-0.4,0.7-0.4,1.2h-2.8c0-0.8,0.2-1.4,0.5-2c0.4-0.6,0.8-1.1,1.5-1.4c0.6-0.3,1.3-0.5,2.1-0.5c1.3,0,2.4,0.4,3.2,1.1
		c0.8,0.7,1.1,1.8,1.1,3c0,0.7-0.2,1.3-0.5,1.8c-0.3,0.6-0.8,1-1.4,1.3c0.7,0.3,1.2,0.7,1.5,1.3c0.3,0.6,0.5,1.3,0.5,2.1
		c0,1.3-0.4,2.3-1.2,3.1C33.1,49.6,32,50,30.7,50c-1.2,0-2.3-0.4-3-1.2c-0.8-0.8-1.2-1.8-1.2-3h2.8c0,0.5,0.1,1,0.4,1.3
		c0.3,0.4,0.6,0.5,1,0.5c0.5,0,0.9-0.2,1.2-0.5c0.3-0.4,0.4-0.8,0.4-1.4c0-1.4-0.6-2.2-1.7-2.2h-1.4V41.2z"/>
	<path d="M47.5,43.7c0,2-0.4,3.6-1.3,4.6c-0.9,1.1-2.1,1.6-3.8,1.6c-1.6,0-2.9-0.5-3.7-1.6c-0.9-1-1.3-2.5-1.4-4.5v-2.8
		c0-2,0.4-3.5,1.3-4.6c0.9-1.1,2.1-1.6,3.8-1.6c1.6,0,2.9,0.5,3.8,1.6c0.9,1.1,1.3,2.6,1.3,4.5V43.7z M44.1,40.8
		c0-1.1-0.1-2-0.4-2.6c-0.3-0.6-0.7-0.9-1.3-0.9c-1.1,0-1.6,1.1-1.7,3.2v3.6c0,1.2,0.1,2,0.4,2.6c0.3,0.6,0.7,0.9,1.3,0.9
		c0.6,0,1-0.3,1.2-0.8c0.3-0.5,0.4-1.4,0.4-2.5V40.8z"/>
</g>
</svg>
