<?xml version="1.0" encoding="utf-8"?>
<!-- Generator: Adobe Illustrator 24.0.0, SVG Export Plug-In . SVG Version: 6.00 Build 0)  -->
<svg version="1.1" id="Layer_1" xmlns="http://www.w3.org/2000/svg" xmlns:xlink="http://www.w3.org/1999/xlink" x="0px" y="0px"
	 viewBox="0 0 72 72" style="enable-background:new 0 0 72 72;" xml:space="preserve">
<style type="text/css">
	.st0{fill:none;}
</style>
<title>refresh</title>
<rect class="st0" width="72" height="72"/>
<path d="M55,42.1c-1,10.3-10.3,18.3-21.1,17c-8.6-1-15.6-7.9-16.7-16.6c-1.3-11.3,7.3-20.9,18.2-21.3l-5,5c-0.8,0.8-0.8,2,0,2.8l0,0
	c0.8,0.8,2,0.8,2.8,0l8.5-8.5c0.8-0.8,0.8-2,0-2.8l-8.5-8.5c-0.8-0.8-2-0.8-2.8,0l0,0c-0.8,0.8-0.8,2,0,2.8l5.1,5.1
	c-13,0.3-23.3,11.4-22.4,24.6c0.8,11.4,10.1,20.6,21.5,21.3c12.6,0.8,23.3-8.6,24.4-20.8c0.1-1.2-0.8-2.1-2-2.1h0
	C55.9,40.2,55.1,41,55,42.1z"/>
<g>
	<path d="M33,42.5l0.7-7.5h7.2v2.5h-4.8l-0.3,3.2c0.6-0.4,1.1-0.6,1.7-0.6c1.2,0,2.2,0.4,2.8,1.3c0.7,0.9,1,2.1,1,3.7
		c0,1.5-0.4,2.7-1.2,3.6S38.3,50,37,50c-0.8,0-1.5-0.2-2.2-0.6s-1.2-0.9-1.6-1.5c-0.4-0.7-0.6-1.4-0.6-2.2h2.8
		c0,0.6,0.2,1.1,0.5,1.4c0.3,0.3,0.6,0.5,1,0.5c0.5,0,0.8-0.2,1.1-0.7s0.4-1.1,0.4-2c0-0.9-0.2-1.5-0.5-1.9
		c-0.3-0.4-0.7-0.7-1.3-0.7c-0.5,0-1,0.2-1.3,0.6l-0.2,0.3L33,42.5z"/>
</g>
</svg>
