<?xml version="1.0" encoding="utf-8"?>
<!-- Generator: Adobe Illustrator 24.0.0, SVG Export Plug-In . SVG Version: 6.00 Build 0)  -->
<svg version="1.1" id="Layer_1" xmlns="http://www.w3.org/2000/svg" xmlns:xlink="http://www.w3.org/1999/xlink" x="0px" y="0px"
	 viewBox="0 0 72 72" style="enable-background:new 0 0 72 72;" xml:space="preserve">
<style type="text/css">
	.st0{fill:none;}
</style>
<title>refresh</title>
<rect class="st0" width="72" height="72"/>
<path d="M55,42.1c-1,10.3-10.3,18.3-21.1,17c-8.6-1-15.6-7.9-16.7-16.6c-1.3-11.3,7.3-20.9,18.2-21.3l-5,5c-0.8,0.8-0.8,2,0,2.8l0,0
	c0.8,0.8,2,0.8,2.8,0l8.5-8.5c0.8-0.8,0.8-2,0-2.8l-8.5-8.5c-0.8-0.8-2-0.8-2.8,0l0,0c-0.8,0.8-0.8,2,0,2.8l5.1,5.1
	c-13,0.3-23.3,11.4-22.4,24.6c0.8,11.4,10.1,20.6,21.5,21.3c12.6,0.8,23.3-8.6,24.4-20.8c0.1-1.2-0.8-2.1-2-2.1h0
	C55.9,40.2,55.1,41,55,42.1z"/>
<g>
	<path d="M31.2,50.3h-3.1V38.4l-3,1.1V37l5.7-2.3h0.3V50.3z"/>
	<path d="M46.8,43.8c0,2.2-0.5,3.8-1.4,5c-0.9,1.1-2.3,1.7-4,1.7c-1.7,0-3.1-0.6-4-1.7c-0.9-1.1-1.4-2.7-1.5-4.8v-3
		c0-2.2,0.5-3.8,1.4-4.9c0.9-1.1,2.3-1.7,4-1.7c1.8,0,3.1,0.6,4,1.7c0.9,1.1,1.4,2.7,1.4,4.8V43.8z M43.1,40.7
		c0-1.2-0.1-2.2-0.4-2.8c-0.3-0.6-0.7-0.9-1.4-0.9c-1.2,0-1.8,1.1-1.8,3.4v3.9c0,1.3,0.1,2.2,0.4,2.8c0.3,0.6,0.8,0.9,1.4,0.9
		c0.6,0,1-0.3,1.3-0.9c0.3-0.6,0.4-1.5,0.5-2.6V40.7z"/>
</g>
</svg>
