<?xml version="1.0" encoding="utf-8"?>
<!-- Generator: Adobe Illustrator 24.0.0, SVG Export Plug-In . SVG Version: 6.00 Build 0)  -->
<svg version="1.1" id="Layer_1" xmlns="http://www.w3.org/2000/svg" xmlns:xlink="http://www.w3.org/1999/xlink" x="0px" y="0px"
	 viewBox="0 0 72 72" style="enable-background:new 0 0 72 72;" xml:space="preserve">
<style type="text/css">
	.st0{fill:none;}
</style>
<title>videocam</title>
<polyline class="st0" points="72,0 72,72 0,72 "/>
<path d="M19,11v8h-8c-1.1,0-2,0.9-2,2v0c0,1.1,0.9,2,2,2h10c1.1,0,2-0.9,2-2V11c0-1.1-0.9-2-2-2h0C19.9,9,19,9.9,19,11z"/>
<path d="M61,19h-8v-8c0-1.1-0.9-2-2-2h0c-1.1,0-2,0.9-2,2v10c0,1.1,0.9,2,2,2h10c1.1,0,2-0.9,2-2v0C63,19.9,62.1,19,61,19z"/>
<path d="M53,61v-8h8c1.1,0,2-0.9,2-2v0c0-1.1-0.9-2-2-2H51c-1.1,0-2,0.9-2,2v10c0,1.1,0.9,2,2,2h0C52.1,63,53,62.1,53,61z"/>
<path d="M11,53h8v8c0,1.1,0.9,2,2,2h0c1.1,0,2-0.9,2-2V51c0-1.1-0.9-2-2-2H11c-1.1,0-2,0.9-2,2v0C9,52.1,9.9,53,11,53z"/>
</svg>
