<?xml version="1.0" encoding="utf-8"?>
<!-- Generator: Adobe Illustrator 24.0.0, SVG Export Plug-In . SVG Version: 6.00 Build 0)  -->
<svg version="1.1" id="Layer_1" xmlns="http://www.w3.org/2000/svg" xmlns:xlink="http://www.w3.org/1999/xlink" x="0px" y="0px"
	 viewBox="0 0 72 72" style="enable-background:new 0 0 72 72;" xml:space="preserve">
<style type="text/css">
	.st0{fill:none;}
</style>
<title>videocam</title>
<polyline class="st0" points="72,0 72,72 0,72 "/>
<g>
	<path d="M13,21v-8h8c1.1,0,2-0.9,2-2v0c0-1.1-0.9-2-2-2H11c-1.1,0-2,0.9-2,2v10c0,1.1,0.9,2,2,2h0C12.1,23,13,22.1,13,21z"/>
	<path d="M51,13h8v8c0,1.1,0.9,2,2,2h0c1.1,0,2-0.9,2-2V11c0-1.1-0.9-2-2-2H51c-1.1,0-2,0.9-2,2v0C49,12.1,49.9,13,51,13z"/>
	<path d="M59,51v8h-8c-1.1,0-2,0.9-2,2v0c0,1.1,0.9,2,2,2h10c1.1,0,2-0.9,2-2V51c0-1.1-0.9-2-2-2h0C59.9,49,59,49.9,59,51z"/>
	<path d="M21,59h-8v-8c0-1.1-0.9-2-2-2h0c-1.1,0-2,0.9-2,2v10c0,1.1,0.9,2,2,2h10c1.1,0,2-0.9,2-2v0C23,59.9,22.1,59,21,59z"/>
</g>
</svg>
