<?xml version="1.0" encoding="utf-8"?>
<!-- Generator: Adobe Illustrator 24.0.0, SVG Export Plug-In . SVG Version: 6.00 Build 0)  -->
<svg version="1.1" id="Layer_1" xmlns="http://www.w3.org/2000/svg" xmlns:xlink="http://www.w3.org/1999/xlink" x="0px" y="0px"
	 viewBox="0 0 72 72" style="enable-background:new 0 0 72 72;" xml:space="preserve">
<style type="text/css">
	.st0{fill:none;}
</style>
<title>language</title>
<rect class="st0" width="72" height="72"/>
<g>
	<path d="M32.8,17l-1.9-6.6C30.7,9.6,29.9,9,29,9H10c-1.1,0-2,0.9-2,2v42c0,1.1,0.9,2,2,2h23.5l1.9,6.6c0.2,0.9,1,1.4,1.9,1.4H60
		c1.1,0,2-0.9,2-2V19c0-1.1-0.9-2-2-2H32.8z M42.5,42.1l-1.8,1.8L38,34.7h9.8c-0.7,1.5-1.5,3-2.6,4.4c-0.4-0.5-0.7-1-1-1.5
		c-0.4-0.6-1-0.9-1.7-0.9h0c-1.6,0-2.5,1.7-1.7,3.1C41.3,40.6,41.9,41.4,42.5,42.1z M37.8,55.6l-0.9-3.1c-0.2-0.9-1-1.4-1.9-1.4H12
		V13h15.5l12,41L37.8,55.6z M58,59H40l3.1-2.9c0.6-0.5,0.8-1.3,0.6-2L42,48.3l3.2-3.2l5.2,5.2c0.8,0.8,2,0.8,2.8,0l0,0
		c0.8-0.8,0.8-2,0-2.8l-5.4-5.4c2.1-2.7,3.7-5.7,4.7-8.8c0.4-1.3-0.5-2.6-1.9-2.6H36.8L34,21h24V59z"/>
	<path d="M21.5,36.9L21.5,36.9c0,1.1,0.9,2,2,2h3.2c-1.3,1.2-3.1,1.8-5.1,1.3c-2-0.5-3.6-2.1-4.1-4.1c-0.8-3.6,1.9-6.7,5.4-6.7
		c0.9,0,1.8,0.2,2.5,0.6c0.8,0.4,1.7,0.3,2.3-0.3l0,0c0.9-0.9,0.7-2.5-0.5-3.2c-1.6-0.8-3.4-1.3-5.4-1.1c-4.4,0.4-8,4-8.5,8.4
		c-0.6,5.7,3.8,10.6,9.4,10.6c4.4,0,8-2.9,9.2-6.9c0.4-1.3-0.6-2.6-1.9-2.6h-6.7C22.4,35,21.5,35.8,21.5,36.9z"/>
</g>
</svg>
