<?xml version="1.0" encoding="utf-8"?>
<!-- Generator: Adobe Illustrator 24.0.0, SVG Export Plug-In . SVG Version: 6.00 Build 0)  -->
<svg version="1.1" id="Layer_1" xmlns="http://www.w3.org/2000/svg" xmlns:xlink="http://www.w3.org/1999/xlink" x="0px" y="0px"
	 viewBox="0 0 72 72" style="enable-background:new 0 0 72 72;" xml:space="preserve">
<style type="text/css">
	.st0{fill:none;}
</style>
<title>gavel</title>
<rect class="st0" width="72" height="72"/>
<g>
	<path d="M49.2,21.9L39.3,12c-1.2-1.2-3.1-1.2-4.2,0l0,0c-1.2,1.2-1.2,3.1,0,4.2l9.9,9.9c1.2,1.2,3.1,1.2,4.2,0l0,0
		C50.3,25,50.3,23.1,49.2,21.9z"/>
	<path d="M26.5,20.5L26.5,20.5c-1.2,1.2-1.2,3.1,0,4.2L56.8,55c1.2,1.2,3.1,1.2,4.2,0l0,0c1.2-1.2,1.2-3.1,0-4.2L30.8,20.5
		C29.6,19.3,27.7,19.3,26.5,20.5z"/>
	<path d="M18,33.2l9.9,9.9c1.2,1.2,3.1,1.2,4.2,0l0,0c1.2-1.2,1.2-3.1,0-4.2L22.3,29c-1.2-1.2-3.1-1.2-4.2,0l0,0
		C16.9,30.2,16.9,32.1,18,33.2z"/>
</g>
<path d="M34.1,56.9L34.1,56.9c0-1.1-0.9-2-2-2h-12c-1.1,0-2,0.9-2,2v0h-6c-1.1,0-2,0.9-2,2v0c0,1.1,0.9,2,2,2h28c1.1,0,2-0.9,2-2v0
	c0-1.1-0.9-2-2-2H34.1z"/>
</svg>
