<?xml version="1.0" encoding="utf-8"?>
<!-- Generator: Adobe Illustrator 24.0.0, SVG Export Plug-In . SVG Version: 6.00 Build 0)  -->
<svg version="1.1" id="Layer_1" xmlns="http://www.w3.org/2000/svg" xmlns:xlink="http://www.w3.org/1999/xlink" x="0px" y="0px"
	 viewBox="0 0 72 72" style="enable-background:new 0 0 72 72;" xml:space="preserve">
<style type="text/css">
	.st0{fill:none;}
</style>
<title>local_offer</title>
<rect class="st0" width="72" height="72"/>
<path d="M41.9,61c8.6,0,11.7-10.4,12.3-16.6l0.1-1.6h6.2c1.1,0,2-0.9,2-2v0c0-1.1-0.9-2-2-2h-6.2l-0.1-1.5
	c-0.2-2.6-1.7-10.9-10.3-10.9c-6.6,0-12.3,6.5-13.4,7.8c-1.7,2.1-6,7.2-6.9,8.1l-0.1,0.1c-0.9,1.1-2.5,3-4.5,3
	c-0.9,0-1.8-0.5-2.4-1.3c-1.1-1.5-1.2-4-0.3-6.7c1.1-3.4,4.3-8.8,5.7-10.9c2.3-3.4,3.6-5.4,3.6-8.8c0-5.6-4.2-6.8-5.8-6.8
	c-4,0.1-7,1.8-8.7,3.1c-1,0.8-1.1,2.2-0.2,3l0,0c0.7,0.7,1.8,0.8,2.5,0.2c2.4-1.7,5.2-2.3,6.5-1.8c0.7,0.3,1.3,0.9,1.5,1.6
	c0.5,1.6-0.5,3.5-1.6,5.4c-0.1,0.2-0.3,0.5-0.7,1c-1.9,2.8-7.6,11.2-7.6,16.9c0,3.3,1.2,5.9,3.3,7.5c1.8,1.3,4.2,1.8,6.3,1.1
	c2.7-0.8,5.1-3.8,8.2-7.6c4.7-5.8,9.2-10.9,13.5-10.9c6,0,6.6,4.1,6.9,6.3l0.3,2.1l-1.6,0.3c-10.9,1.8-14.6,10.6-14.6,14.3
	C34.1,57.7,37.6,61,41.9,61z M47.9,43.5l2.4-0.6L50,45.3c-1,8.8-4.9,11.9-8,11.9c-1.9,0-3.9-1.5-3.9-3.8
	C38.1,51.1,40.6,45.4,47.9,43.5z"/>
</svg>
