<?xml version="1.0" encoding="utf-8"?>
<!-- Generator: Adobe Illustrator 24.0.0, SVG Export Plug-In . SVG Version: 6.00 Build 0)  -->
<svg version="1.1" id="Layer_1" xmlns="http://www.w3.org/2000/svg" xmlns:xlink="http://www.w3.org/1999/xlink" x="0px" y="0px"
	 viewBox="0 0 72 72" style="enable-background:new 0 0 72 72;" xml:space="preserve">
<style type="text/css">
	.st0{fill:none;}
</style>
<title>assignment_returned</title>
<rect class="st0" width="72" height="72"/>
<g>
	<path d="M44.5,33.7L38,40.2V14.1c0-1.1-0.9-2-2-2h0c-1.1,0-2,0.9-2,2v26.1l-6.5-6.5c-0.8-0.8-2-0.8-2.8,0l0,0c-0.8,0.8-0.8,2,0,2.8
		l9.9,9.9c0.8,0.8,2,0.8,2.8,0l9.9-9.9c0.8-0.8,0.8-2,0-2.8l0,0C46.5,33,45.3,33,44.5,33.7z"/>
	<path d="M16,57.9L16,57.9c0-1.1,0.9-2,2-2h36c1.1,0,2,0.9,2,2v0c0,1.1-0.9,2-2,2H18C16.9,59.9,16,59,16,57.9z"/>
</g>
</svg>
