<?xml version="1.0" encoding="utf-8"?>
<!-- Generator: Adobe Illustrator 24.0.0, SVG Export Plug-In . SVG Version: 6.00 Build 0)  -->
<svg version="1.1" id="Layer_1" xmlns="http://www.w3.org/2000/svg" xmlns:xlink="http://www.w3.org/1999/xlink" x="0px" y="0px"
	 viewBox="0 0 72 72" style="enable-background:new 0 0 72 72;" xml:space="preserve">
<style type="text/css">
	.st0{fill:none;}
</style>
<title>code</title>
<rect class="st0" width="72" height="72"/>
<g>
	<path d="M63.2,26.4L63.2,26.4c0-1.1-0.9-2-2-2H49.8c-2.2,0-4,1.8-4,4v17.1c0,1.1,0.9,2,2,2h0c1.1,0,2-0.9,2-2v-6.5h7.5
		c1.1,0,2-0.9,2-2v0c0-1.1-0.9-2-2-2h-7.5v-6.7h11.4C62.3,28.4,63.2,27.5,63.2,26.4z"/>
	<path d="M36.8,47.6L36.8,47.6c1.1,0,2-0.9,2-2V26.4c0-1.1-0.9-2-2-2h0c-1.1,0-2,0.9-2,2v19.1C34.8,46.7,35.7,47.6,36.8,47.6z"/>
	<path d="M8.8,28.4v15.1c0,2.2,1.8,4,4,4h11.6c2.2,0,4-1.8,4-4V38c0-1.1-0.9-2-2-2h0c-1.1,0-2,0.9-2,2v5.6H12.8V28.4h13.6
		c1.1,0,2-0.9,2-2v0c0-1.1-0.9-2-2-2H12.8C10.6,24.4,8.8,26.2,8.8,28.4z"/>
</g>
</svg>
