<?xml version="1.0" encoding="utf-8"?>
<!-- Generator: Adobe Illustrator 24.0.0, SVG Export Plug-In . SVG Version: 6.00 Build 0)  -->
<svg version="1.1" id="Layer_1" xmlns="http://www.w3.org/2000/svg" xmlns:xlink="http://www.w3.org/1999/xlink" x="0px" y="0px"
	 viewBox="0 0 72 72" style="enable-background:new 0 0 72 72;" xml:space="preserve">
<style type="text/css">
	.st0{fill:none;}
</style>
<title>language</title>
<rect class="st0" width="72" height="72"/>
<circle cx="54.8" cy="55.2" r="4"/>
<path d="M30.5,51V27.1l13.6-6.6c1.6-0.8,1.6-3.2,0-4l-14.4-7c-1.5-0.7-3.2,0.4-3.2,2v44.4c0,1.1,0.9,2,2,2h0c1.1,0,2-0.9,2-2V55
	c4.6,0.1,8,1.1,9.8,1.9c-1.9,0.9-5.8,1.9-11.1,1.9c-5.3,0-9.1-1-11.1-1.9c1-0.5,2.4-0.9,4.3-1.3v-4.1c-5.5,0.9-9.4,3-9.4,5.4
	c0,3.3,7.2,5.9,16.1,5.9s16.1-2.6,16.1-5.9C45.4,53.7,38.8,51.2,30.5,51z M30.5,14.4l8.5,4.1l-8.5,4.1V14.4z"/>
</svg>
