<?xml version="1.0" encoding="utf-8"?>
<!-- Generator: Adobe Illustrator 24.0.0, SVG Export Plug-In . SVG Version: 6.00 Build 0)  -->
<svg version="1.1" id="Layer_1" xmlns="http://www.w3.org/2000/svg" xmlns:xlink="http://www.w3.org/1999/xlink" x="0px" y="0px"
	 viewBox="0 0 72 72" style="enable-background:new 0 0 72 72;" xml:space="preserve">
<style type="text/css">
	.st0{fill:none;}
</style>
<title>group</title>
<rect class="st0" width="72" height="72"/>
<g>
	<path d="M54.4,39.5c-3-1.2-6.8-2-9.8-2c-2.7,0-6,0.6-8.8,1.6c-3.8-1.8-8.5-2.6-11.6-2.6c-6,0-17.7,3-17.7,9.8V53c0,1.1,0.9,2,2,2
		h21.6h11.7h17.3c1.1,0,2-0.9,2-2v-6.2C61.1,44.7,59.9,41.7,54.4,39.5z M10.5,46.4c0-3.2,8.4-5.8,13.7-5.8s13.7,2.7,13.7,5.8V51
		H10.5V46.4z M57.1,51H41.8v-4.6c0-1.7-0.7-3.1-1.8-4.3c1.4-0.3,3-0.5,4.6-0.5c6.8,0,12.5,3.2,12.5,5.2V51z"/>
	<path d="M44.6,35.7c4.5,0,8.2-3.7,8.2-8.2s-3.7-8.2-8.2-8.2s-8.2,3.7-8.2,8.2S40,35.7,44.6,35.7z M44.6,23.3c2.3,0,4.2,1.9,4.2,4.2
		s-1.9,4.2-4.2,4.2s-4.2-1.9-4.2-4.2S42.2,23.3,44.6,23.3z"/>
	<path d="M24.2,34.3c4.8,0,8.7-3.9,8.7-8.7c0-4.9-4-8.9-9-8.7c-4.5,0.1-8.3,3.9-8.4,8.5C15.3,30.2,19.3,34.3,24.2,34.3z M24.2,20.9
		c2.6,0,4.7,2.1,4.7,4.7c0,2.9-2.7,5.3-5.7,4.6c-1.8-0.4-3.2-1.8-3.6-3.6C18.9,23.5,21.2,20.9,24.2,20.9z"/>
</g>
</svg>
