<?xml version="1.0" encoding="utf-8"?>
<!-- Generator: Adobe Illustrator 24.0.0, SVG Export Plug-In . SVG Version: 6.00 Build 0)  -->
<svg version="1.1" id="Layer_1" xmlns="http://www.w3.org/2000/svg" xmlns:xlink="http://www.w3.org/1999/xlink" x="0px" y="0px"
	 viewBox="0 0 72 72" style="enable-background:new 0 0 72 72;" xml:space="preserve">
<style type="text/css">
	.st0{fill:none;}
</style>
<title>headset</title>
<rect class="st0" width="72" height="72"/>
<path d="M36,9C22.2,9,11,20.2,11,34v21.2c0,4.4,3.6,8,8,8h4.5c2.2,0,4-1.8,4-4V44.5c0-2.2-1.8-4-4-4H15V34c0-11.6,9.4-21,21-21
	s21,9.4,21,21v6.5h-8.5c-2.2,0-4,1.8-4,4v14.7c0,2.2,1.8,4,4,4H53c4.4,0,8-3.6,8-8V34C61,20.2,49.8,9,36,9z M23.5,44.5v14.7H19
	c-2.2,0-4-1.8-4-4V44.5H23.5z M57,55.2c0,2.2-1.8,4-4,4h-4.5V44.5H57V55.2z"/>
</svg>
