<?xml version="1.0" encoding="utf-8"?>
<!-- Generator: Adobe Illustrator 24.0.0, SVG Export Plug-In . SVG Version: 6.00 Build 0)  -->
<svg version="1.1" id="Layer_1" xmlns="http://www.w3.org/2000/svg" xmlns:xlink="http://www.w3.org/1999/xlink" x="0px" y="0px"
	 viewBox="0 0 72 72" style="enable-background:new 0 0 72 72;" xml:space="preserve">
<style type="text/css">
	.st0{fill:none;}
</style>
<title>headset</title>
<rect class="st0" width="72" height="72"/>
<path d="M36.5,4.9C22.5,4.6,11,16.5,11,30.5v20.6c0,4.4,3.6,8,8,8h4.5c2.2,0,4-1.8,4-4V40.4c0-2.2-1.8-4-4-4H15v-6
	C15,19,23.9,9.3,35.2,8.9C47.2,8.5,57,18,57,29.9v6.5h-8.5c-2.2,0-4,1.8-4,4v14.7c0,2.2,1.8,4,4,4H57v4H46.5c-1.1,0-2,0.9-2,2v0
	c0,1.1,0.9,2,2,2H57c2.2,0,4-1.8,4-4V29.9C61,16.3,50.1,5.2,36.5,4.9z M23.5,40.4v14.7H19c-2.2,0-4-1.8-4-4V40.4H23.5z M48.5,55.1
	V40.4H57v14.7L48.5,55.1z"/>
</svg>
