<?xml version="1.0" encoding="utf-8"?>
<!-- Generator: Adobe Illustrator 24.0.0, SVG Export Plug-In . SVG Version: 6.00 Build 0)  -->
<svg version="1.1" id="Layer_1" xmlns="http://www.w3.org/2000/svg" xmlns:xlink="http://www.w3.org/1999/xlink" x="0px" y="0px"
	 viewBox="0 0 72 72" style="enable-background:new 0 0 72 72;" xml:space="preserve">
<style type="text/css">
	.st0{fill:none;}
</style>
<title>info</title>
<rect class="st0" width="72" height="72"/>
<path d="M36,9C21.1,9,9,21.1,9,36s12.1,27,27,27s27-12.1,27-27S50.9,9,36,9z M36,59c-12.7,0-23-10.3-23-23c0-12.7,10.3-23,23-23
	s23,10.3,23,23C59,48.7,48.7,59,36,59z"/>
<g>
	<path d="M36.4,22.6c-4.1-0.3-7.7,2.3-9,5.9c-0.5,1.3,0.5,2.6,1.9,2.6h0c0.8,0,1.6-0.5,1.9-1.3c0.8-2.2,3.1-3.7,5.7-3.2
		c2.3,0.5,3.9,2.6,3.8,4.9c-0.1,2.1-1.5,3.2-2.9,4.3c-1.3,1-2.7,2.1-3.5,4.1c-0.5,1.3,0.5,2.7,1.9,2.7h0c0.9,0,1.6-0.6,1.9-1.4
		c0.5-1.7,1.9-2.8,3.2-4c1.8-1.6,3.7-3.2,3.5-6.3C44.4,26.6,40.8,22.9,36.4,22.6z"/>
	<path d="M35.8,49.4L35.8,49.4c1.1,0,2-0.9,2-2v0c0-1.1-0.9-2-2-2h0c-1.1,0-2,0.9-2,2v0C33.8,48.5,34.7,49.4,35.8,49.4z"/>
</g>
</svg>
