<?xml version="1.0" encoding="utf-8"?>
<!-- Generator: Adobe Illustrator 24.0.0, SVG Export Plug-In . SVG Version: 6.00 Build 0)  -->
<svg version="1.1" id="Layer_1" xmlns="http://www.w3.org/2000/svg" xmlns:xlink="http://www.w3.org/1999/xlink" x="0px" y="0px"
	 viewBox="0 0 72 72" style="enable-background:new 0 0 72 72;" xml:space="preserve">
<style type="text/css">
	.st0{fill:none;}
</style>
<title>photo</title>
<rect class="st0" width="72" height="72"/>
<g>
	<path d="M48.2,27.4H23.8c-2.2,0-4,1.8-4,4v7.4c0,1.1,0.4,2.1,1.2,2.8l7,7v10.8c0,2.2,1.8,4,4,4h8c2.2,0,4-1.8,4-4V48.6l7-7
		c0.8-0.8,1.2-1.8,1.2-2.8v-7.4C52.2,29.2,50.4,27.4,48.2,27.4z M48.2,38.8L40,47v12.5h-8L32,47l-8.2-8.2v-7.4h24.4V38.8z"/>
	<g>
		<path d="M17.7,16.8c-0.8-0.8-2-0.8-2.8,0s-0.8,2,0,2.8l2.8,2.8c0.8,0.8,2,0.8,2.8,0c0.8-0.8,0.8-2,0-2.8L17.7,16.8z"/>
		<path d="M57.1,16.8L57.1,16.8c-0.8-0.8-2-0.8-2.8,0l-2.8,2.8c-0.8,0.8-0.8,2,0,2.8c0.8,0.8,2,0.8,2.8,0l2.8-2.8
			C57.9,18.8,57.9,17.6,57.1,16.8z"/>
		<path d="M36,8.5c-1.1,0-2,0.9-2,2v4c0,1.1,0.9,2,2,2c1.1,0,2-0.9,2-2v-4C38,9.4,37.1,8.5,36,8.5z"/>
	</g>
</g>
</svg>
