<?xml version="1.0" encoding="utf-8"?>
<!-- Generator: Adobe Illustrator 24.0.0, SVG Export Plug-In . SVG Version: 6.00 Build 0)  -->
<svg version="1.1" id="Layer_1" xmlns="http://www.w3.org/2000/svg" xmlns:xlink="http://www.w3.org/1999/xlink" x="0px" y="0px"
	 viewBox="0 0 72 72" style="enable-background:new 0 0 72 72;" xml:space="preserve">
<style type="text/css">
	.st0{fill:none;}
</style>
<title>photo</title>
<rect class="st0" width="72" height="72"/>
<path d="M59,13H13c-2.2,0-4,1.8-4,4v38c0,2.2,1.8,4,4,4h46c2.2,0,4-1.8,4-4V17C63,14.8,61.2,13,59,13z M59,55H13V17h46V55z"/>
<path d="M29,34h-7v-5c0-1.1-0.9-2-2-2h0c-1.1,0-2,0.9-2,2v14c0,1.1,0.9,2,2,2h0c1.1,0,2-0.9,2-2v-5h7v5c0,1.1,0.9,2,2,2h0
	c1.1,0,2-0.9,2-2V29c0-1.1-0.9-2-2-2h0c-1.1,0-2,0.9-2,2V34z"/>
<path d="M50,27h-7c-2.2,0-4,1.8-4,4v10c0,2.2,1.8,4,4,4h1.5v4c0,1.1,0.9,2,2,2h0c1.1,0,2-0.9,2-2v-4H50c2.2,0,4-1.8,4-4V31
	C54,28.8,52.2,27,50,27z M50,41h-7V31h7V41z"/>
</svg>
