<?xml version="1.0" encoding="utf-8"?>
<!-- Generator: Adobe Illustrator 24.0.0, SVG Export Plug-In . SVG Version: 6.00 Build 0)  -->
<svg version="1.1" id="Layer_1" xmlns="http://www.w3.org/2000/svg" xmlns:xlink="http://www.w3.org/1999/xlink" x="0px" y="0px"
	 viewBox="0 0 72 72" style="enable-background:new 0 0 72 72;" xml:space="preserve">
<style type="text/css">
	.st0{fill:none;}
</style>
<title>refresh</title>
<rect class="st0" width="72" height="72"/>
<path d="M41.3,12.1c-13.8-1-25.3,9.7-25.7,23.2l-3.8-3.8c-0.8-0.8-2-0.8-2.8,0l0,0c-0.8,0.8-0.8,2,0,2.8l7.1,7.1
	c0.8,0.8,2,0.8,2.8,0l7.1-7.1c0.8-0.8,0.8-2,0-2.8l0,0c-0.8-0.8-2-0.8-2.8,0L19.6,35c0.5-10.6,9.3-19.1,20.1-19
	c10.4,0.1,19.2,8.5,19.8,18.9C60.2,46.4,51,56,39.6,56c-3,0-5.9-0.7-8.5-1.9c-0.8-0.4-1.7-0.2-2.2,0.4l0,0c-1,1-0.7,2.7,0.6,3.3
	C32.5,59.2,36,60,39.6,60c13.8,0,24.8-11.6,24-25.6C62.8,22.6,53.2,12.9,41.3,12.1z"/>
<path d="M49.8,42.2l-9.4-5.4V24.1c0-1.1-0.9-2-2-2h0c-1.1,0-2,0.9-2,2v13.8c0,0.7,0.4,1.4,1,1.7l10.4,6c1,0.6,2.2,0.2,2.7-0.7l0,0
	C51.1,43.9,50.8,42.7,49.8,42.2z"/>
</svg>
