<?xml version="1.0" encoding="utf-8"?>
<!-- Generator: Adobe Illustrator 24.0.0, SVG Export Plug-In . SVG Version: 6.00 Build 0)  -->
<svg version="1.1" id="Layer_1" xmlns="http://www.w3.org/2000/svg" xmlns:xlink="http://www.w3.org/1999/xlink" x="0px" y="0px"
	 viewBox="0 0 72 72" style="enable-background:new 0 0 72 72;" xml:space="preserve">
<style type="text/css">
	.st0{fill:none;}
</style>
<title>info</title>
<rect class="st0" width="72" height="72"/>
<path d="M48.2,9H23.8c-2.2,0-4,1.8-4,4v9.5c0,1.1,0.4,2.1,1.2,2.8L31.6,36L21,46.7c-0.8,0.8-1.2,1.8-1.2,2.8V59c0,2.2,1.8,4,4,4
	h24.4c2.2,0,4-1.8,4-4v-9.5c0-1.1-0.4-2.1-1.2-2.8L40.4,36L51,25.3c0.8-0.8,1.2-1.8,1.2-2.8V13C52.2,10.8,50.4,9,48.2,9z M48.2,59
	H23.8v-9.5L36,37.3l12.2,12.2V59z M48.2,22.5L36,34.7L23.8,22.5V13h24.4V22.5z"/>
</svg>
