<?xml version="1.0" encoding="utf-8"?>
<!-- Generator: Adobe Illustrator 24.0.0, SVG Export Plug-In . SVG Version: 6.00 Build 0)  -->
<svg version="1.1" id="Layer_1" xmlns="http://www.w3.org/2000/svg" xmlns:xlink="http://www.w3.org/1999/xlink" x="0px" y="0px"
	 viewBox="0 0 72 72" style="enable-background:new 0 0 72 72;" xml:space="preserve">
<style type="text/css">
	.st0{fill:none;}
</style>
<title>info</title>
<rect class="st0" width="72" height="72"/>
<path d="M36,9C21.1,9,9,21.1,9,36s12.1,27,27,27s27-12.1,27-27S50.9,9,36,9z M36,59c-12.7,0-23-10.3-23-23s10.3-23,23-23
	c12.7,0,23,10.3,23,23S48.7,59,36,59z"/>
<path d="M36,49.5L36,49.5c-1.1,0-2-0.9-2-2v-14c0-1.1,0.9-2,2-2h0c1.1,0,2,0.9,2,2v14C38,48.6,37.1,49.5,36,49.5z"/>
<path d="M36,27.5L36,27.5c-1.4,0-2.5-1.1-2.5-2.5v0c0-1.4,1.1-2.5,2.5-2.5h0c1.4,0,2.5,1.1,2.5,2.5v0C38.5,26.4,37.4,27.5,36,27.5z"
	/>
</svg>
