<?xml version="1.0" encoding="utf-8"?>
<!-- Generator: Adobe Illustrator 24.0.0, SVG Export Plug-In . SVG Version: 6.00 Build 0)  -->
<svg version="1.1" id="Layer_1" xmlns="http://www.w3.org/2000/svg" xmlns:xlink="http://www.w3.org/1999/xlink" x="0px" y="0px"
	 viewBox="0 0 72 72" style="enable-background:new 0 0 72 72;" xml:space="preserve">
<style type="text/css">
	.st0{fill:none;}
</style>
<title>place</title>
<rect class="st0" width="72" height="72"/>
<path d="M39.7,9H18.4c-2.2,0-4,1.8-4,4v46c0,2.2,1.8,4,4,4h35.1c2.2,0,4-1.8,4-4V26.9c0-1.1-0.4-2.1-1.2-2.8L42.5,10.2
	C41.7,9.4,40.7,9,39.7,9z M53.5,26.9H39.6V13h0L53.5,26.9z M18.4,59V13h17.2v13.9c0,2.2,1.8,4,4,4h13.9V59H18.4z"/>
</svg>
