<?xml version="1.0" encoding="utf-8"?>
<!-- Generator: Adobe Illustrator 24.0.0, SVG Export Plug-In . SVG Version: 6.00 Build 0)  -->
<svg version="1.1" id="Layer_1" xmlns="http://www.w3.org/2000/svg" xmlns:xlink="http://www.w3.org/1999/xlink" x="0px" y="0px"
	 viewBox="0 0 72 72" style="enable-background:new 0 0 72 72;" xml:space="preserve">
<style type="text/css">
	.st0{fill:none;}
</style>
<rect class="st0" width="72" height="72"/>
<g>
	<path d="M52.3,24.1L37.4,9.3c-0.8-0.8-2-0.8-2.8,0L19.7,24.1c-4,4-6.2,9.4-6.2,15.1v1.1c0,12.2,9.5,22.6,21.7,23
		c12.8,0.5,23.3-9.8,23.3-22.5v-1.7C58.5,33.5,56.3,28.1,52.3,24.1z M17.5,40.1c0.2-5.4,2.4-10.5,6.2-14.3L34,15.5v43.7
		C24.5,58.2,17.2,49.8,17.5,40.1z M47.5,55.3c-0.4,0.1-0.8,0.4-1,0.7c-2.5,1.7-5.4,2.8-8.5,3.2v-1.1c1,0,1.8-0.8,1.8-1.8
		S39,54.6,38,54.6v-3.9c1,0,1.8-0.8,1.8-1.8S39,47.2,38,47.2v-3.9c1,0,1.8-0.8,1.8-1.8S39,39.8,38,39.8v-3.9c1,0,1.8-0.8,1.8-1.8
		S39,32.4,38,32.4v-3.9c1,0,1.8-0.8,1.8-1.8c0-1-0.8-1.8-1.8-1.8v-3.9c1,0,1.8-0.8,1.8-1.8S39,17.6,38,17.6v-2.1l10.1,10.1
		c0,0-0.1,0-0.1,0c-1,0-1.8,0.8-1.8,1.8s0.8,1.8,1.8,1.8c1,0,1.7-0.8,1.7-1.7c0.7,0.9,1.4,1.8,1.9,2.8c-0.3,0.3-0.4,0.7-0.4,1.1
		c0,1,0.8,1.8,1.8,1.8c0,0,0,0,0,0c0.5,1.4,0.9,2.9,1.2,4.4C53.9,37.2,53.5,37,53,37c-1,0-1.8,0.8-1.8,1.8c0,1,0.8,1.8,1.8,1.8
		c0.6,0,1.1-0.3,1.4-0.8c0,0.4,0.1,0.7,0.1,1.1c0,1.4-0.2,2.7-0.4,4c-0.3-0.2-0.7-0.4-1.1-0.4c-1,0-1.8,0.8-1.8,1.8s0.8,1.8,1.8,1.8
		c0,0,0.1,0,0.1,0C51.9,50.8,49.9,53.4,47.5,55.3z"/>
	<circle cx="43" cy="23.4" r="1.8"/>
	<circle cx="43" cy="30.8" r="1.8"/>
	<circle cx="43" cy="38.2" r="1.8"/>
	<circle cx="43" cy="45.6" r="1.8"/>
	<circle cx="43" cy="53" r="1.8"/>
	<circle cx="48" cy="34.8" r="1.8"/>
	<circle cx="48" cy="42.2" r="1.8"/>
	<circle cx="48" cy="49.6" r="1.8"/>
</g>
</svg>
