<?xml version="1.0" encoding="utf-8"?>
<!-- Generator: Adobe Illustrator 24.0.0, SVG Export Plug-In . SVG Version: 6.00 Build 0)  -->
<svg version="1.1" id="Layer_1" xmlns="http://www.w3.org/2000/svg" xmlns:xlink="http://www.w3.org/1999/xlink" x="0px" y="0px"
	 viewBox="0 0 72 72" style="enable-background:new 0 0 72 72;" xml:space="preserve">
<style type="text/css">
	.st0{fill:none;}
</style>
<title>contact_support</title>
<rect class="st0" width="72" height="72"/>
<g>
	<circle cx="43" cy="23.4" r="1.8"/>
	<circle cx="43" cy="30.8" r="1.8"/>
	<circle cx="43" cy="53" r="1.8"/>
	<circle cx="48" cy="34.8" r="1.8"/>
	<path d="M43,36.4c-0.3,0-0.6,0.1-0.9,0.2l2.4,2.4c0.1-0.3,0.2-0.5,0.2-0.9C44.8,37.2,44,36.4,43,36.4z"/>
	<path d="M48,40.4c-0.6,0-1.1,0.3-1.4,0.7l2.4,2.4c0.4-0.3,0.7-0.8,0.7-1.4C49.8,41.2,49,40.4,48,40.4z"/>
	<path d="M52.3,24.1L37.4,9.3c-0.8-0.8-2-0.8-2.8,0l-9.9,9.9l2.8,2.8l6.5-6.5v13l5.7,5.7c0,0,0-0.1,0-0.1c0-1-0.8-1.8-1.8-1.8v-3.9
		c1,0,1.8-0.8,1.8-1.8c0-1-0.8-1.8-1.8-1.8v-3.9c1,0,1.8-0.8,1.8-1.8S39,17.6,38,17.6v-2.1l10.1,10.1c0,0-0.1,0-0.1,0
		c-1,0-1.8,0.8-1.8,1.8s0.8,1.8,1.8,1.8c1,0,1.7-0.8,1.7-1.7c0.7,0.9,1.4,1.8,1.9,2.8c-0.3,0.3-0.4,0.7-0.4,1.1c0,1,0.8,1.8,1.8,1.8
		c0,0,0,0,0,0c0.5,1.4,0.9,2.9,1.2,4.4C53.9,37.2,53.5,37,53,37c-1,0-1.8,0.8-1.8,1.8c0,1,0.8,1.8,1.8,1.8c0.6,0,1.1-0.3,1.4-0.8
		c0,0.4,0.1,0.7,0.1,1.1c0,1.4-0.2,2.7-0.4,4c-0.3-0.2-0.7-0.4-1.1-0.4c-0.8,0-1.5,0.6-1.7,1.4l4.9,4.9c1.5-3,2.3-6.3,2.3-9.9v-1.7
		C58.5,33.5,56.3,28.1,52.3,24.1z"/>
	<path d="M51.2,51.4L38,38.2l-4-4l-9.3-9.3l0,0L21.8,22l-3.1-3.1c-0.8-0.8-2-0.8-2.8,0l0,0c-0.8,0.8-0.8,2,0,2.8l3.1,3.1
		c-3.5,3.9-5.5,9-5.5,14.3v1.1c0,12.2,9.6,22.7,21.8,23c6.2,0.2,11.9-2.2,16.1-6.1l2.4,2.4c0.8,0.8,2,0.8,2.8,0l0,0
		c0.8-0.8,0.8-2,0-2.8l-2.5-2.5L51.2,51.4z M17.5,40.1c0.2-4.5,1.7-8.7,4.5-12.3l12,12v19.4C24.5,58.2,17.2,49.8,17.5,40.1z
		 M47.5,55.3c-0.4,0.1-0.8,0.4-1,0.7c-2.5,1.7-5.4,2.8-8.5,3.2v-1.1c1,0,1.8-0.8,1.8-1.8S39,54.6,38,54.6v-3.9c1,0,1.8-0.8,1.8-1.8
		S39,47.2,38,47.2v-3.4l10.6,10.6C48.2,54.7,47.9,55,47.5,55.3z"/>
</g>
</svg>
