<?xml version="1.0" encoding="utf-8"?>
<!-- Generator: Adobe Illustrator 24.0.0, SVG Export Plug-In . SVG Version: 6.00 Build 0)  -->
<svg version="1.1" id="Layer_1" xmlns="http://www.w3.org/2000/svg" xmlns:xlink="http://www.w3.org/1999/xlink" x="0px" y="0px"
	 viewBox="0 0 72 72" style="enable-background:new 0 0 72 72;" xml:space="preserve">
<style type="text/css">
	.st0{fill:none;}
</style>
<path class="st0" d="M0,0h72v72H0V0z"/>
<g>
	<rect x="34" y="18.3" width="4" height="4"/>
	<rect x="34" y="26.4" width="4" height="4"/>
	<rect x="25.9" y="18.3" width="4" height="4"/>
	<rect x="25.9" y="26.4" width="4" height="4"/>
	<rect x="17.8" y="26.4" width="4" height="4"/>
	<rect x="17.8" y="18.3" width="4" height="4"/>
	<rect x="25" y="34.5" width="22" height="4"/>
	<rect x="42.1" y="26.4" width="4" height="4"/>
	<rect x="42.1" y="18.3" width="4" height="4"/>
	<rect x="50.2" y="26.4" width="4" height="4"/>
	<rect x="50.2" y="18.3" width="4" height="4"/>
	<path d="M9,13.4v30c0,2.2,1.8,4,4,4h46c2.2,0,4-1.8,4-4v-30c0-2.2-1.8-4-4-4H13C10.8,9.4,9,11.2,9,13.4z M59,43.4H13v-30h46V43.4z"
		/>
</g>
<path d="M37.1,62.1l6.9-6.9c1-1,0.3-2.7-1.1-2.7H29.1c-1.4,0-2.2,1.7-1.1,2.7l6.9,6.9C35.5,62.7,36.5,62.7,37.1,62.1z"/>
</svg>
