<?xml version="1.0" encoding="utf-8"?>
<!-- Generator: Adobe Illustrator 24.0.0, SVG Export Plug-In . SVG Version: 6.00 Build 0)  -->
<svg version="1.1" id="Layer_1" xmlns="http://www.w3.org/2000/svg" xmlns:xlink="http://www.w3.org/1999/xlink" x="0px" y="0px"
	 viewBox="0 0 72 72" style="enable-background:new 0 0 72 72;" xml:space="preserve">
<style type="text/css">
	.st0{fill:none;}
</style>
<path class="st0" d="M0,0h72v72H0V0z"/>
<g>
	<rect x="34" y="25.9" width="4" height="4"/>
	<rect x="34" y="34" width="4" height="4"/>
	<rect x="25.9" y="25.9" width="4" height="4"/>
	<rect x="25.9" y="34" width="4" height="4"/>
	<rect x="17.8" y="34" width="4" height="4"/>
	<rect x="17.8" y="25.9" width="4" height="4"/>
	<rect x="25" y="42.1" width="22" height="4"/>
	<rect x="42.1" y="34" width="4" height="4"/>
	<rect x="42.1" y="25.9" width="4" height="4"/>
	<rect x="50.2" y="34" width="4" height="4"/>
	<rect x="50.2" y="25.9" width="4" height="4"/>
	<path d="M9,21v30c0,2.2,1.8,4,4,4h46c2.2,0,4-1.8,4-4V21c0-2.2-1.8-4-4-4H13C10.8,17,9,18.8,9,21z M59,51H13V21h46V51z"/>
</g>
</svg>
