<?xml version="1.0" encoding="utf-8"?>
<!-- Generator: Adobe Illustrator 24.0.0, SVG Export Plug-In . SVG Version: 6.00 Build 0)  -->
<svg version="1.1" id="Layer_1" xmlns="http://www.w3.org/2000/svg" xmlns:xlink="http://www.w3.org/1999/xlink" x="0px" y="0px"
	 viewBox="0 0 72 72" style="enable-background:new 0 0 72 72;" xml:space="preserve">
<style type="text/css">
	.st0{fill:none;}
</style>
<path class="st0" d="M0,0h72v72H0V0z"/>
<path d="M59,30.6h-1.4v-9.5c0-2.2-1.8-4-4-4H18.4c-2.2,0-4,1.8-4,4v9.5H13c-2.2,0-4,1.8-4,4v14.9h4.5l1,5.3h2l1-5.3h37l1,5.3h2
	l1-5.3H63V34.6C63,32.4,61.2,30.6,59,30.6z M53.6,30.6H38v-9.5h15.6V30.6z M18.4,21.1H34v9.5H18.4V21.1z M59,45.5H13V34.6h46V45.5z"
	/>
</svg>
