<?xml version="1.0" encoding="utf-8"?>
<!-- Generator: Adobe Illustrator 24.0.0, SVG Export Plug-In . SVG Version: 6.00 Build 0)  -->
<svg version="1.1" id="Layer_1" xmlns="http://www.w3.org/2000/svg" xmlns:xlink="http://www.w3.org/1999/xlink" x="0px" y="0px"
	 viewBox="0 0 72 72" style="enable-background:new 0 0 72 72;" xml:space="preserve">
<style type="text/css">
	.st0{fill:none;}
</style>
<title>language</title>
<rect class="st0" width="72" height="72"/>
<path d="M36,9C21.1,9,9,21.1,9,36c0,3.5,0.7,7,2.1,10.3l0,0c5.7,13.8,21.5,20.3,35.3,14.6S66.7,39.4,61,25.6C56.8,15.6,46.9,9,36,9z
	 M56.5,25.7H46.1c-1-4.3-2.7-8.3-4.9-12.1C47.8,15.1,53.5,19.6,56.5,25.7z M59,36c0,2.1-0.3,4.3-0.9,6.3H46.9
	c0.3-2.1,0.5-4.2,0.5-6.3s-0.2-4.2-0.5-6.3h11.2C58.7,31.7,59,33.9,59,36z M36,59h-0.3c-2.7-3.8-4.7-8.1-5.9-12.7H42
	C40.8,50.9,38.7,55.2,36,59z M29,42.3c-0.7-4.2-0.7-8.5,0-12.7h13.8c0.7,4.2,0.7,8.5,0,12.7H29z M13,36c0-2.1,0.3-4.3,0.9-6.3h11
	c-0.6,4.2-0.6,8.5,0,12.7h-11C13.3,40.3,13,38.1,13,36z M36,13L36,13c2.7,3.8,4.8,8.1,6,12.7H29.8C31,21.1,33,16.8,35.7,13H36z
	 M30.6,13.6c-2.2,3.7-3.9,7.8-4.9,12H15.4C18.5,19.6,24,15.2,30.6,13.6z M15.4,46.3h10.2c1,4.2,2.7,8.3,4.9,12
	C24,56.7,18.5,52.4,15.4,46.3z M41.2,58.4c2.2-3.8,3.9-7.8,4.9-12.1h10.5C53.5,52.4,47.8,56.9,41.2,58.4z"/>
</svg>
