<?xml version="1.0" encoding="utf-8"?>
<!-- Generator: Adobe Illustrator 24.0.0, SVG Export Plug-In . SVG Version: 6.00 Build 0)  -->
<svg version="1.1" id="Layer_1" xmlns="http://www.w3.org/2000/svg" xmlns:xlink="http://www.w3.org/1999/xlink" x="0px" y="0px"
	 viewBox="0 0 72 72" style="enable-background:new 0 0 72 72;" xml:space="preserve">
<style type="text/css">
	.st0{fill:none;}
</style>
<title>arrow_right_alt</title>
<rect class="st0" width="72" height="72"/>
<path d="M63,25.4L63,11c0-1.1-0.9-2-2-2H46.6c-1.1,0-2,0.9-2,2v0c0,1.1,0.9,2,2,2h9.5L26.6,42.6c-0.8,0.8-0.8,2,0,2.8l0,0
	c0.8,0.8,2,0.8,2.8,0L59,15.8v9.5c0,1.1,0.9,2,2,2h0C62.1,27.4,63,26.5,63,25.4z"/>
<g>
	<path d="M59,37.2V59H13V13h21.9V9H13c-2.2,0-4,1.8-4,4v46c0,2.2,1.8,4,4,4h46c2.2,0,4-1.8,4-4V37.2H59z"/>
</g>
</svg>
