<?xml version="1.0" encoding="utf-8"?>
<!-- Generator: Adobe Illustrator 24.0.0, SVG Export Plug-In . SVG Version: 6.00 Build 0)  -->
<svg version="1.1" id="Layer_1" xmlns="http://www.w3.org/2000/svg" xmlns:xlink="http://www.w3.org/1999/xlink" x="0px" y="0px"
	 viewBox="0 0 72 72" style="enable-background:new 0 0 72 72;" xml:space="preserve">
<style type="text/css">
	.st0{fill:none;}
</style>
<title>language</title>
<rect class="st0" width="72" height="72"/>
<path d="M33.5,10.6L12.6,26.9c-1,0.8-1,2.4,0,3.2l20.9,16.3c1.4,1.1,3.5,1.1,4.9,0L59.4,30c1-0.8,1-2.4,0-3.2L38.5,10.6
	C37,9.4,35,9.4,33.5,10.6z M36,43.2L17.1,28.5L36,13.7l18.9,14.7L36,43.2z"/>
<path d="M56.8,41L36,57.2L15.1,40.9c-0.7-0.6-1.8-0.6-2.5,0l0,0c-1,0.8-1,2.3,0,3.1l22.1,17.3c0.7,0.6,1.7,0.6,2.5,0l22-17.2
	c1-0.8,1-2.3,0-3.1l0,0C58.5,40.4,57.5,40.4,56.8,41z"/>
</svg>
