<?xml version="1.0" encoding="utf-8"?>
<!-- Generator: Adobe Illustrator 24.0.0, SVG Export Plug-In . SVG Version: 6.00 Build 0)  -->
<svg version="1.1" id="Layer_1" xmlns="http://www.w3.org/2000/svg" xmlns:xlink="http://www.w3.org/1999/xlink" x="0px" y="0px"
	 viewBox="0 0 72 72" style="enable-background:new 0 0 72 72;" xml:space="preserve">
<style type="text/css">
	.st0{fill:none;}
</style>
<title>link</title>
<rect class="st0" width="72" height="72"/>
<g>
	<path d="M63,35.7c-0.4-6.9-6.4-12.1-13.3-12.1l-7.6,0c-1.1,0-2,0.9-2,2v0c0,1.1,0.9,2,2,2l7.7,0c4.8,0,9.1,3.9,9.3,8.7
		c0.1,3.7-2,7-5.2,8.5l2.9,2.9C60.7,45.3,63.3,40.8,63,35.7z"/>
	<path d="M46,34.6h-2.3l4,4H48v-2C48,35.5,47.1,34.6,46,34.6z"/>
	<path d="M20.3,16.9c-0.8-0.8-2-0.8-2.8,0l0,0c-0.8,0.8-0.8,2,0,2.8l3.9,3.9C14.8,24.1,9.3,29.3,9,36c-0.4,7.5,5.6,13.6,13,13.6h8
		c1.1,0,2-0.9,2-2v0c0-1.1-0.9-2-2-2l-7.7,0c-4.8,0-9-3.6-9.3-8.4c-0.3-5.2,3.8-9.6,9-9.6h3.3l7,7H26c-1.1,0-2,0.9-2,2v0
		c0,1.1,0.9,2,2,2h10.3l7,7H42c-1.1,0-2,0.9-2,2v0c0,1.1,0.9,2,2,2h5.3l5.5,5.5c0.8,0.8,2,0.8,2.8,0l0,0c0.8-0.8,0.8-2,0-2.8
		L20.3,16.9z"/>
</g>
</svg>
