<?xml version="1.0" encoding="utf-8"?>
<!-- Generator: Adobe Illustrator 24.0.0, SVG Export Plug-In . SVG Version: 6.00 Build 0)  -->
<svg version="1.1" id="Layer_1" xmlns="http://www.w3.org/2000/svg" xmlns:xlink="http://www.w3.org/1999/xlink" x="0px" y="0px"
	 viewBox="0 0 72 72" style="enable-background:new 0 0 72 72;" xml:space="preserve">
<style type="text/css">
	.st0{fill:none;}
</style>
<title>photo_camera</title>
<rect class="st0" width="72" height="72"/>
<path d="M23,36L23,36c0-1.1,0.9-2,2-2h22c1.1,0,2,0.9,2,2v0c0,1.1-0.9,2-2,2H25C23.9,38,23,37.1,23,36z"/>
<path d="M50.8,23c-4.6-0.3-8.7,1.9-11.2,5.3c-1,1.3-0.1,3.2,1.6,3.2h0c0.6,0,1.2-0.3,1.6-0.8c1.8-2.5,4.8-4,8.2-3.7
	c4.2,0.4,7.6,3.8,8,7.9c0.6,5.4-3.6,10-8.9,10c-3,0-5.6-1.5-7.3-3.7c-0.4-0.5-1-0.8-1.6-0.8h0c-1.7,0-2.6,1.9-1.6,3.2
	C41.9,46.9,45.7,49,50,49c7.4,0,13.3-6.1,13-13.5C62.7,28.9,57.4,23.4,50.8,23z"/>
<path d="M29.3,41.3c-1.8,2.5-4.8,4-8.2,3.7c-4.2-0.4-7.6-3.8-8-7.9c-0.6-5.4,3.6-10,8.9-10c3,0,5.6,1.5,7.3,3.7
	c0.4,0.5,1,0.8,1.6,0.8h0c1.7,0,2.6-1.9,1.6-3.2c-2.5-3.4-6.6-5.5-11.2-5.3C14.6,23.4,9.3,28.9,9,35.5C8.7,42.9,14.6,49,22,49
	c4.3,0,8.1-2.1,10.4-5.3c1-1.3,0.1-3.2-1.6-3.2h0C30.2,40.5,29.6,40.8,29.3,41.3z"/>
</svg>
