<?xml version="1.0" encoding="utf-8"?>
<!-- Generator: Adobe Illustrator 24.0.0, SVG Export Plug-In . SVG Version: 6.00 Build 0)  -->
<svg version="1.1" id="Layer_1" xmlns="http://www.w3.org/2000/svg" xmlns:xlink="http://www.w3.org/1999/xlink" x="0px" y="0px"
	 viewBox="0 0 72 72" style="enable-background:new 0 0 72 72;" xml:space="preserve">
<style type="text/css">
	.st0{fill:none;}
</style>
<title>list</title>
<rect class="st0" width="72" height="72"/>
<g>
	<g>
		<path d="M14,34h-3c-1.1,0-2,0.9-2,2v0c0,1.1,0.9,2,2,2h3c1.1,0,2-0.9,2-2v0C16,34.9,15.1,34,14,34z"/>
		<path d="M22,36L22,36c0,1.1,0.9,2,2,2h37c1.1,0,2-0.9,2-2v0c0-1.1-0.9-2-2-2H24C22.9,34,22,34.9,22,36z"/>
	</g>
	<g>
		<path d="M22,50L22,50c0,1.1,0.9,2,2,2h37c1.1,0,2-0.9,2-2v0c0-1.1-0.9-2-2-2H24C22.9,48,22,48.9,22,50z"/>
		<path d="M14,48h-3c-1.1,0-2,0.9-2,2v0c0,1.1,0.9,2,2,2h3c1.1,0,2-0.9,2-2v0C16,48.9,15.1,48,14,48z"/>
	</g>
	<g>
		<path d="M14,20h-3c-1.1,0-2,0.9-2,2v0c0,1.1,0.9,2,2,2h3c1.1,0,2-0.9,2-2v0C16,20.9,15.1,20,14,20z"/>
		<path d="M22,22L22,22c0,1.1,0.9,2,2,2h37c1.1,0,2-0.9,2-2v0c0-1.1-0.9-2-2-2H24C22.9,20,22,20.9,22,22z"/>
	</g>
</g>
</svg>
