<?xml version="1.0" encoding="utf-8"?>
<!-- Generator: Adobe Illustrator 24.0.0, SVG Export Plug-In . SVG Version: 6.00 Build 0)  -->
<svg version="1.1" id="Layer_1" xmlns="http://www.w3.org/2000/svg" xmlns:xlink="http://www.w3.org/1999/xlink" x="0px" y="0px"
	 viewBox="0 0 72 72" style="enable-background:new 0 0 72 72;" xml:space="preserve">
<style type="text/css">
	.st0{fill:none;}
</style>
<path class="st0" d="M0,0h72v72H0V0z"/>
<path d="M28,33.6v13.7c0,1.5,1.7,2.5,3,1.7l12-6.8c1.3-0.8,1.3-2.7,0-3.5l-12-6.8C29.7,31.1,28,32.1,28,33.6z M32,37.1l5.9,3.4
	L32,43.8V37.1z"/>
<path d="M59,20.9H41.6l5.5-5.5c0.8-0.8,0.8-2,0-2.8l0,0c-0.8-0.8-2-0.8-2.8,0L36,20.9l-8.2-8.2c-0.8-0.8-2-0.8-2.8,0l0,0
	c-0.8,0.8-0.8,2,0,2.8l5.5,5.5H13c-2.2,0-4,1.8-4,4v31c0,2.2,1.8,4,4,4h46c2.2,0,4-1.8,4-4v-31C63,22.7,61.2,20.9,59,20.9z M59,55.9
	H13v-31h46V55.9z"/>
</svg>
