<?xml version="1.0" encoding="utf-8"?>
<!-- Generator: Adobe Illustrator 24.0.0, SVG Export Plug-In . SVG Version: 6.00 Build 0)  -->
<svg version="1.1" id="Layer_1" xmlns="http://www.w3.org/2000/svg" xmlns:xlink="http://www.w3.org/1999/xlink" x="0px" y="0px"
	 viewBox="0 0 72 72" style="enable-background:new 0 0 72 72;" xml:space="preserve">
<style type="text/css">
	.st0{fill:none;}
</style>
<title>lock</title>
<rect class="st0" width="72" height="72"/>
<g>
	<path d="M58.5,30.6c5.4-5.4,6.4-13.1,2.3-17.3c-4.1-4.1-11.9-3.1-17.3,2.3c-4.8,4.8-6.1,11.4-3.5,15.7L14.2,57
		c-0.8,0.8-0.8,2,0,2.8l0,0c0.8,0.8,2,0.8,2.8,0l18-18l18,18c0.8,0.8,2,0.8,2.8,0h0c0.8-0.8,0.8-2,0-2.8l-18-18l4.9-4.9
		C47.1,36.7,53.7,35.3,58.5,30.6z M46.3,18.4c3.8-3.8,9.1-4.8,11.6-2.3c2.5,2.5,1.5,7.9-2.3,11.6S46.5,32.6,44,30
		C41.5,27.5,42.5,22.2,46.3,18.4z"/>
	<path d="M31.8,33L14.3,15.5c-1.4-1.4-3.7-1-4.5,0.8c-2,4.2-1.3,9.4,2.2,12.9L23.8,41L31.8,33z M14.8,26.3c-1.7-1.8-2.5-4.3-2-6.7
		L26.2,33l-2.3,2.3L14.8,26.3z"/>
</g>
</svg>
