<?xml version="1.0" encoding="utf-8"?>
<!-- Generator: Adobe Illustrator 24.0.0, SVG Export Plug-In . SVG Version: 6.00 Build 0)  -->
<svg version="1.1" id="Layer_1" xmlns="http://www.w3.org/2000/svg" xmlns:xlink="http://www.w3.org/1999/xlink" x="0px" y="0px"
	 viewBox="0 0 72 72" style="enable-background:new 0 0 72 72;" xml:space="preserve">
<style type="text/css">
	.st0{fill:none;}
</style>
<title>place</title>
<rect class="st0" width="72" height="72"/>
<g>
	<path d="M36,12.9c8.8,0,16,7.3,16,16.4c0,3.7-1.2,7.6-2.9,11.4l3,3C54.4,38.9,56,34,56,29.2C56,18,47,8.9,36,8.9
		c-5.2,0-9.8,2-13.4,5.3l2.8,2.8C28.3,14.4,32,12.9,36,12.9z"/>
	<path d="M39,30.5l2.9,2.9c1.4-1.5,2.2-3.4,2.1-5.6c-0.1-4.4-3.5-7.8-7.9-7.9c-2.2,0-4.2,0.8-5.6,2.1l2.9,2.9c1.1-1,2.8-1.4,4.5-0.4
		c0.6,0.4,1.1,0.9,1.5,1.5C40.4,27.7,40,29.4,39,30.5z"/>
	<path d="M55.9,55.9c0.8-0.8,0.8-2,0-2.8L50,47.2l-2.9-2.9l-8.8-8.8h0l-4.1-4.1l-1.9-1.9l-4.1-4.1v0L22.8,20v0l-2.9-2.9v0l-4.6-4.6
		c-0.8-0.8-2-0.8-2.8,0l0,0c-0.8,0.8-0.8,2,0,2.8l5.3,5.3c-1.2,2.6-1.9,5.5-1.9,8.5c0,13.3,12.7,28,17.8,33.4c1.2,1.2,3.2,1.2,4.3,0
		c2.3-2.5,6.2-6.8,9.7-12l5.3,5.3C53.9,56.7,55.2,56.7,55.9,55.9L55.9,55.9z M36,59.1c-5.2-5.6-16-18.6-16-29.9
		c0-1.9,0.3-3.8,0.9-5.5l8.3,8.3c0.7,1,1.5,1.9,2.6,2.6L45,47.8C41.8,52.5,38.4,56.6,36,59.1z"/>
</g>
</svg>
