<?xml version="1.0" encoding="utf-8"?>
<!-- Generator: Adobe Illustrator 24.0.0, SVG Export Plug-In . SVG Version: 6.00 Build 0)  -->
<svg version="1.1" id="Layer_1" xmlns="http://www.w3.org/2000/svg" xmlns:xlink="http://www.w3.org/1999/xlink" x="0px" y="0px"
	 viewBox="0 0 72 72" style="enable-background:new 0 0 72 72;" xml:space="preserve">
<style type="text/css">
	.st0{fill:none;}
</style>
<path class="st0" d="M0,0h72v72H0V0z"/>
<path d="M62,44.8v-3.3c0-1.4-0.7-2.7-1.9-3.4l-17.6-11l0-11.4c0-3.6-2.7-6.7-6.3-6.8c-3.7-0.1-6.7,2.8-6.7,6.5v11.7l-17.6,11
	c-1.2,0.7-1.9,2-1.9,3.4v3.3c0,2.7,2.7,4.7,5.3,3.8l14.2-4.9v7l-2.6,1.9c-1,0.8-1.6,1.9-1.6,3.2l0,2.9c0,2.7,2.5,4.6,5.1,3.8
	l5.5-1.6l6.6,1.9c2,0.6,4-0.9,4-3v0v-4.1c0-1.3-0.6-2.4-1.6-3.2l-2.6-1.9v-7l14.2,4.9C59.3,49.5,62,47.6,62,44.8z M13.5,45v-3.2
	l18.1-11.3c1.2-0.7,1.9-2,1.9-3.4l0-11.5c0-1.3,0.9-2.5,2.2-2.6c1.5-0.1,2.8,1,2.8,2.5v11.7c0,1.4,0.7,2.7,1.9,3.4l18.1,11.3V45
	l-17.4-6c-1.3-0.4-2.7,0.5-2.7,1.9v11.8l4.1,3.1v2.9l-5.5-1.6c-0.7-0.2-1.5-0.2-2.2,0l-5.5,1.6v-2.9l4.1-3.1V40.9
	c0-1.4-1.4-2.3-2.7-1.9L13.5,45z"/>
</svg>
