<?xml version="1.0" encoding="utf-8"?>
<!-- Generator: Adobe Illustrator 24.0.0, SVG Export Plug-In . SVG Version: 6.00 Build 0)  -->
<svg version="1.1" id="Layer_1" xmlns="http://www.w3.org/2000/svg" xmlns:xlink="http://www.w3.org/1999/xlink" x="0px" y="0px"
	 viewBox="0 0 72 72" style="enable-background:new 0 0 72 72;" xml:space="preserve">
<style type="text/css">
	.st0{fill:none;}
</style>
<title>code</title>
<rect class="st0" width="72" height="72"/>
<path d="M14.3,15.7v25c0,5,4,9,9,9h20c5,0,9-4,9-9v-11H59c2.2,0,4-1.8,4-4v-10c0-2.2-1.8-4-4-4H18.3C16.1,11.7,14.3,13.5,14.3,15.7z
	 M43.3,45.7h-20c-2.8,0-5-2.2-5-5v-25h30v25C48.3,43.5,46.1,45.7,43.3,45.7z M59,25.7h-6.7v-10H59V25.7z"/>
<path d="M55.3,59.5h-44c-1.1,0-2-0.9-2-2v0c0-1.1,0.9-2,2-2h44c1.1,0,2,0.9,2,2v0C57.3,58.6,56.4,59.5,55.3,59.5z"/>
</svg>
