<?xml version="1.0" encoding="utf-8"?>
<!-- Generator: Adobe Illustrator 24.0.0, SVG Export Plug-In . SVG Version: 6.00 Build 0)  -->
<svg version="1.1" id="Layer_1" xmlns="http://www.w3.org/2000/svg" xmlns:xlink="http://www.w3.org/1999/xlink" x="0px" y="0px"
	 viewBox="0 0 72 72" style="enable-background:new 0 0 72 72;" xml:space="preserve">
<style type="text/css">
	.st0{fill:none;}
</style>
<title>code</title>
<rect class="st0" width="72" height="72"/>
<circle cx="25.2" cy="19.8" r="3"/>
<circle cx="33.3" cy="19.8" r="3"/>
<path d="M14,13v46c0,2.2,1.8,4,4,4h36c2.2,0,4-1.8,4-4V13c0-2.2-1.8-4-4-4H18C15.8,9,14,10.8,14,13z M54,59H18V13h36V59z"/>
<path d="M36,29.9c-7.2,0-13,5.8-13,13s5.8,13,13,13s13-5.8,13-13S43.2,29.9,36,29.9z M36,33.9c3.9,0,7.2,2.5,8.4,5.9
	c-0.4-0.1-0.8-0.1-1.3-0.1c-2.6,0-4.2,1.3-5.5,2.3c-1,0.8-1.7,1.5-3,1.6c-1.2,0.2-2-0.2-3.1-0.9c-1.1-0.6-2.5-1.3-4.4-1.4
	C27.9,37.1,31.6,33.9,36,33.9z M36,51.9c-4.1,0-7.6-2.8-8.7-6.6c0.8,0.1,1.5,0.5,2.3,0.9c1.3,0.7,3.1,1.6,5.5,1.3
	c2.4-0.3,3.9-1.5,5.1-2.5c1.1-0.9,1.7-1.4,2.8-1.4c0.7,0,1.1,0.2,1.8,0.6c0,0,0,0,0,0C44.2,48.6,40.5,51.9,36,51.9z"/>
</svg>
