<?xml version="1.0" encoding="utf-8"?>
<!-- Generator: Adobe Illustrator 24.0.0, SVG Export Plug-In . SVG Version: 6.00 Build 0)  -->
<svg version="1.1" id="Layer_1" xmlns="http://www.w3.org/2000/svg" xmlns:xlink="http://www.w3.org/1999/xlink" x="0px" y="0px"
	 viewBox="0 0 72 72" style="enable-background:new 0 0 72 72;" xml:space="preserve">
<style type="text/css">
	.st0{fill:none;}
	.st1{display:none;}
</style>
<title>local_offer</title>
<rect class="st0" width="72" height="72"/>
<path class="st1" d="M63,30.6V19.8c0-3-2.4-5.4-5.4-5.4H14.4c-3,0-5.4,2.4-5.4,5.4v10.8c3,0,5.4,2.4,5.4,5.4S12,41.4,9,41.4v10.8
	c0,3,2.4,5.4,5.4,5.4h43.2c3,0,5.4-2.4,5.4-5.4V41.4c-3,0-5.4-2.4-5.4-5.4S60,30.6,63,30.6z M57.6,26.7c-3.2,1.9-5.4,5.4-5.4,9.3
	s2.2,7.5,5.4,9.3v6.9H14.4v-6.9c3.2-1.9,5.4-5.4,5.4-9.3c0-4-2.2-7.5-5.4-9.3l0-6.9h43.2V26.7z M28.1,46.8l7.9-5.1l7.9,5.1l-2.4-9.1
	l7.3-5.9l-9.4-0.6L36,22.5l-3.4,8.7l-9.4,0.6l7.3,5.9L28.1,46.8z"/>
<g>
	<path d="M13,57.5h46c2.2,0,4-1.8,4-4V42.7c0-0.9-0.6-1.6-1.5-1.9c-2-0.6-3.5-2.5-3.5-4.8s1.5-4.1,3.5-4.8c0.9-0.3,1.5-1,1.5-1.9
		V18.5c0-2.2-1.8-4-4-4H13c-2.2,0-4,1.8-4,4v10.8c0,0.9,0.6,1.6,1.5,1.9c2,0.6,3.5,2.5,3.5,4.8s-1.5,4.1-3.5,4.8
		C9.6,41,9,41.8,9,42.7v10.8C9,55.7,10.8,57.5,13,57.5z M59,53.5H13v-9.4c3-1.5,5-4.5,5-8.1s-2-6.6-5-8.1v-9.4h46v9.4
		c-3,1.5-5,4.5-5,8.1s2,6.6,5,8.1V53.5z"/>
	<g>
		<path d="M27,47.9l1.9-8.4l-6.6-5.7c-0.6-0.5-0.3-1.5,0.5-1.6l8.8-0.8l3.5-7.9c0.3-0.7,1.3-0.7,1.7,0l3.5,7.9l8.8,0.8
			c0.8,0.1,1.1,1.1,0.5,1.6l-6.6,5.7l1.9,8.4c0.2,0.8-0.7,1.4-1.3,1L36,44.5l-7.6,4.4C27.7,49.3,26.9,48.7,27,47.9z M36.5,40.6
			l3.6,2.1l-0.9-3.9c-0.1-0.3,0-0.7,0.3-0.9l3-2.6l-4.1-0.4c-0.3,0-0.6-0.2-0.7-0.5L36,30.6l-1.7,3.8c-0.1,0.3-0.4,0.5-0.7,0.5
			l-4.1,0.4l3,2.6c0.3,0.2,0.4,0.6,0.3,0.9L32,42.7l3.6-2.1C35.8,40.5,36.2,40.5,36.5,40.6z"/>
	</g>
</g>
</svg>
