<?xml version="1.0" encoding="utf-8"?>
<!-- Generator: Adobe Illustrator 24.0.0, SVG Export Plug-In . SVG Version: 6.00 Build 0)  -->
<svg version="1.1" id="Layer_1" xmlns="http://www.w3.org/2000/svg" xmlns:xlink="http://www.w3.org/1999/xlink" x="0px" y="0px"
	 viewBox="0 0 72 72" style="enable-background:new 0 0 72 72;" xml:space="preserve">
<style type="text/css">
	.st0{fill:none;}
</style>
<title>code</title>
<rect class="st0" width="72" height="72"/>
<path d="M52,24.5C52,15.9,45.1,9,36.5,9H24c-2.2,0-4,1.8-4,4v48c0,1.1,0.9,2,2,2h0c1.1,0,2-0.9,2-2V40h12.5C45.1,40,52,33.1,52,24.5
	L52,24.5z M36.5,36H24V13h12.5C42.8,13,48,18.1,48,24.5v0C48,30.9,42.8,36,36.5,36z"/>
</svg>
