<?xml version="1.0" encoding="utf-8"?>
<!-- Generator: Adobe Illustrator 24.0.0, SVG Export Plug-In . SVG Version: 6.00 Build 0)  -->
<svg version="1.1" id="Layer_1" xmlns="http://www.w3.org/2000/svg" xmlns:xlink="http://www.w3.org/1999/xlink" x="0px" y="0px"
	 viewBox="0 0 72 72" style="enable-background:new 0 0 72 72;" xml:space="preserve">
<style type="text/css">
	.st0{fill:none;}
</style>
<title>ic_3d_rotation</title>
<rect class="st0" width="72" height="72"/>
<path d="M56,11v5h-9v-3c0-2.2-1.8-4-4-4H29c-2.2,0-4,1.8-4,4v3h-9v-5c0-1.1-0.9-2-2-2h0c-1.1,0-2,0.9-2,2v50c0,1.1,0.9,2,2,2h0
	c1.1,0,2-0.9,2-2v-5h9v3c0,2.2,1.8,4,4,4h14c2.2,0,4-1.8,4-4v-3h9v5c0,1.1,0.9,2,2,2h0c1.1,0,2-0.9,2-2V11c0-1.1-0.9-2-2-2h0
	C56.9,9,56,9.9,56,11z M56,20v8h-9v-8H56z M56,32v8h-9v-8H56z M25,20v8h-9v-8H25z M25,32v8h-9v-8H25z M16,52v-8h9v8H16z M43,59H29
	V13h14V59z M47,52v-8h9v8H47z"/>
</svg>
