<?xml version="1.0" encoding="utf-8"?>
<!-- Generator: Adobe Illustrator 24.0.0, SVG Export Plug-In . SVG Version: 6.00 Build 0)  -->
<svg version="1.1" id="Layer_1" xmlns="http://www.w3.org/2000/svg" xmlns:xlink="http://www.w3.org/1999/xlink" x="0px" y="0px"
	 viewBox="0 0 72 72" style="enable-background:new 0 0 72 72;" xml:space="preserve">
<style type="text/css">
	.st0{fill:none;}
</style>
<title>directions_car</title>
<rect class="st0" width="72" height="72"/>
<g>
	<circle cx="23" cy="49.4" r="3.5"/>
	<circle cx="49" cy="49.4" r="3.5"/>
	<path d="M53.3,20.5H18.7c-1.7,0-3.3,1.1-3.8,2.8l-6,18.3c-0.1,0.4-0.2,0.8-0.2,1.2v21.4c0,1.7,1.3,3,3,3h0c1.7,0,3-1.3,3-3v-3h42.5
		v3c0,1.7,1.3,3,3,3h0c1.7,0,3-1.3,3-3V42.9c0-0.4-0.1-0.8-0.2-1.2l-6-18.3C56.6,21.7,55,20.5,53.3,20.5z M18.7,24.5h34.6l4.4,13.7
		H14.3L18.7,24.5z M59.2,57.2H12.8v-15h46.5V57.2z"/>
</g>
<g>
	<path d="M48.1,5.3l-3.1,6c-1.5,2.9,0.2,6.6,3.5,6.9c0.2,0,0.3,0,0.5,0s0.3,0,0.5,0c3.2-0.3,5-4,3.5-6.9l-3.1-6
		C49.5,4.6,48.5,4.6,48.1,5.3z M49,9.6l1.6,2.9c0.7,1.2-0.2,2.7-1.6,2.7l0,0l0,0c-1.4,0-2.2-1.5-1.6-2.7L49,9.6z"/>
	<path d="M35.1,5.3l-3.1,6c-1.5,2.9,0.2,6.6,3.5,6.9c0.2,0,0.3,0,0.5,0s0.3,0,0.5,0c3.2-0.3,5-4,3.5-6.9l-3.1-6
		C36.5,4.6,35.5,4.6,35.1,5.3z M36,9.6l1.6,2.9c0.7,1.2-0.2,2.7-1.6,2.7l0,0l0,0c-1.4,0-2.2-1.5-1.6-2.7L36,9.6z"/>
	<path d="M22.1,5.3l-3.1,6c-1.5,2.9,0.2,6.6,3.5,6.9c0.2,0,0.3,0,0.5,0s0.3,0,0.5,0c3.2-0.3,5-4,3.5-6.9l-3.1-6
		C23.5,4.6,22.5,4.6,22.1,5.3z M23,9.6l1.6,2.9c0.7,1.2-0.2,2.7-1.6,2.7l0,0l0,0c-1.4,0-2.2-1.5-1.6-2.7L23,9.6z"/>
</g>
</svg>
