<?xml version="1.0" encoding="utf-8"?>
<!-- Generator: Adobe Illustrator 24.0.0, SVG Export Plug-In . SVG Version: 6.00 Build 0)  -->
<svg version="1.1" id="Layer_1" xmlns="http://www.w3.org/2000/svg" xmlns:xlink="http://www.w3.org/1999/xlink" x="0px" y="0px"
	 viewBox="0 0 72 72" style="enable-background:new 0 0 72 72;" xml:space="preserve">
<style type="text/css">
	.st0{fill:none;}
</style>
<title>local_offer</title>
<rect class="st0" width="72" height="72"/>
<g>
	<path d="M23.3,18.3c-2.8,0-5,2.2-5,5s2.2,5,5,5s5-2.2,5-5S26.1,18.3,23.3,18.3z M23.3,25.3c-1.1,0-2-0.9-2-2s0.9-2,2-2s2,0.9,2,2
		S24.4,25.3,23.3,25.3z"/>
	<path d="M33.6,10.5l-19.1,0c-2.2,0-4,1.8-4,4v19.1c0,1.1,0.4,2.1,1.2,2.8l23.9,23.9c1.6,1.6,4.1,1.6,5.7,0l19.1-19.1
		c1.6-1.6,1.6-4.1,0-5.7L36.4,11.7C35.7,10.9,34.7,10.5,33.6,10.5z M57.5,38.4L38.4,57.5L14.5,33.6V14.5h19.1L57.5,38.4z"/>
</g>
</svg>
