<?xml version="1.0" encoding="utf-8"?>
<!-- Generator: Adobe Illustrator 24.0.0, SVG Export Plug-In . SVG Version: 6.00 Build 0)  -->
<svg version="1.1" id="Layer_1" xmlns="http://www.w3.org/2000/svg" xmlns:xlink="http://www.w3.org/1999/xlink" x="0px" y="0px"
	 viewBox="0 0 72 72" style="enable-background:new 0 0 72 72;" xml:space="preserve">
<style type="text/css">
	.st0{fill:none;}
</style>
<title>code</title>
<rect class="st0" width="72" height="72"/>
<g>
	<path d="M48.9,21.4c0-7.2-5.8-13-13-13s-13,5.8-13,13h-6c-2.2,0-4,1.8-4,4v33c0,2.2,1.8,4,4,4h38c2.2,0,4-1.8,4-4v-33
		c0-2.2-1.8-4-4-4H48.9z M35.9,12.4c5,0,9,4,9,9h-18C26.9,16.5,30.9,12.4,35.9,12.4z M54.9,58.4h-38v-33h38V58.4z"/>
	<path d="M35.9,42.4c6.4,0,11.7-4.6,12.8-10.7c0.2-1.2-0.7-2.3-2-2.3h0c-0.9,0-1.8,0.7-2,1.6c-0.8,4.2-4.4,7.4-8.9,7.4
		S27.8,35.2,27,31c-0.2-0.9-1-1.6-2-1.6h0c-1.2,0-2.2,1.1-2,2.3C24.2,37.8,29.5,42.4,35.9,42.4z"/>
</g>
</svg>
