<?xml version="1.0" encoding="utf-8"?>
<!-- Generator: Adobe Illustrator 24.0.0, SVG Export Plug-In . SVG Version: 6.00 Build 0)  -->
<svg version="1.1" id="Layer_1" xmlns="http://www.w3.org/2000/svg" xmlns:xlink="http://www.w3.org/1999/xlink" x="0px" y="0px"
	 viewBox="0 0 72 72" style="enable-background:new 0 0 72 72;" xml:space="preserve">
<style type="text/css">
	.st0{fill:none;}
</style>
<title>code</title>
<rect class="st0" width="72" height="72"/>
<path d="M38,41.5L62.7,14c1.7-1.9,0.4-5-2.2-5h-49c-2.6,0-4,3.1-2.2,5L34,41.5V59H19c-1.1,0-2,0.9-2,2v0c0,1.1,0.9,2,2,2h34
	c1.1,0,2-0.9,2-2v0c0-1.1-0.9-2-2-2H38V41.5z M13.7,13h44.5l-8.1,9H21.8L13.7,13z M25.4,26h21.1L36,37.7L25.4,26z"/>
</svg>
