<?xml version="1.0" encoding="utf-8"?>
<!-- Generator: Adobe Illustrator 24.0.0, SVG Export Plug-In . SVG Version: 6.00 Build 0)  -->
<svg version="1.1" id="Layer_1" xmlns="http://www.w3.org/2000/svg" xmlns:xlink="http://www.w3.org/1999/xlink" x="0px" y="0px"
	 viewBox="0 0 72 72" style="enable-background:new 0 0 72 72;" xml:space="preserve">
<style type="text/css">
	.st0{fill:none;}
</style>
<title>local_offer</title>
<rect class="st0" width="72" height="72"/>
<g>
	<path d="M61.7,42.5c0.1-1.2-0.9-2.3-2.2-2.2c-5.8,0.5-11.5,3-16,7.5c-4.7,4.7-7.2,10.7-7.6,16.8c-0.4-6.1-2.9-12.1-7.6-16.8
		c-4.5-4.5-10.1-7-16-7.5c-1.2-0.1-2.3,0.9-2.2,2.2c0.5,5.8,3,11.5,7.5,16c5,5,11.6,7.5,18.1,7.6c0,0,0,0,0,0c0,0,0,0,0.1,0
		c0,0,0,0,0.1,0c0,0,0,0,0,0c6.6-0.1,13.1-2.6,18.1-7.6C58.6,54,61.1,48.3,61.7,42.5z M20.6,55.6c-3.1-3.1-5.1-6.9-5.9-10.9
		c4,0.9,7.8,2.8,10.9,5.9c3.1,3.1,5.1,6.9,5.9,10.9C27.6,60.7,23.8,58.7,20.6,55.6z M40.5,61.5c0.9-4,2.8-7.8,5.9-10.9
		c3.1-3.1,6.9-5.1,10.9-5.9c-0.9,4-2.8,7.8-5.9,10.9C48.2,58.7,44.4,60.7,40.5,61.5z"/>
	<path d="M50.7,26.4c-0.3-0.2-0.6-0.3-0.9-0.4c0.3-0.1,0.6-0.3,0.9-0.4c3.3-1.9,4.5-6.2,2.6-9.6c-1.9-3.3-6.2-4.5-9.6-2.6
		c-0.3,0.2-0.6,0.4-0.8,0.6c0-0.3,0.1-0.7,0.1-1c0-3.9-3.1-7-7-7c-3.9,0-7,3.1-7,7c0,0.3,0,0.7,0.1,1c-0.3-0.2-0.5-0.4-0.8-0.6
		c-3.3-1.9-7.6-0.8-9.6,2.6c-1.9,3.3-0.8,7.6,2.6,9.6c0.3,0.2,0.6,0.3,0.9,0.4c-0.3,0.1-0.6,0.3-0.9,0.4c-3.3,1.9-4.5,6.2-2.6,9.6
		c1.9,3.3,6.2,4.5,9.6,2.6c0.3-0.2,0.6-0.4,0.8-0.6c0,0.3-0.1,0.7-0.1,1c0,3.9,3.1,7,7,7c3.9,0,7-3.1,7-7c0-0.3,0-0.7-0.1-1
		c0.3,0.2,0.5,0.4,0.8,0.6c3.3,1.9,7.6,0.8,9.6-2.6S54.1,28.3,50.7,26.4z M22.1,18c0.8-1.4,2.7-1.9,4.1-1.1l4.5,3.1
		c-1.4,1.2-2.2,2.8-2.6,4.5l-4.9-2.4C21.8,21.2,21.3,19.4,22.1,18z M26.2,35.1c-1.4,0.8-3.3,0.3-4.1-1.1s-0.3-3.3,1.1-4.1l4.9-2.4
		c0.2,0.8,0.5,1.7,0.9,2.5c0.5,0.8,1,1.5,1.7,2L26.2,35.1z M36,10c1.7,0,3,1.3,3,3l-0.4,5.4c-1.6-0.6-3.5-0.6-5.2,0L33,13
		C33,11.3,34.3,10,36,10z M36,42c-1.7,0-3-1.3-3-3l0.4-5.4c1.6,0.6,3.5,0.6,5.2,0L39,39C39,40.6,37.6,42,36,42z M36,29
		c-1.7,0-3-1.3-3-3s1.3-3,3-3s3,1.3,3,3S37.7,29,36,29z M45.7,16.9c1.4-0.8,3.3-0.3,4.1,1.1s0.3,3.3-1.1,4.1l-4.9,2.4
		c-0.2-0.8-0.5-1.7-0.9-2.5c-0.5-0.8-1-1.5-1.7-2L45.7,16.9z M49.8,34c-0.8,1.4-2.7,1.9-4.1,1.1L41.3,32c1.4-1.2,2.2-2.8,2.6-4.5
		l4.9,2.4C50.2,30.7,50.7,32.5,49.8,34z"/>
</g>
</svg>
