<?xml version="1.0" encoding="utf-8"?>
<!-- Generator: Adobe Illustrator 24.0.0, SVG Export Plug-In . SVG Version: 6.00 Build 0)  -->
<svg version="1.1" id="Layer_1" xmlns="http://www.w3.org/2000/svg" xmlns:xlink="http://www.w3.org/1999/xlink" x="0px" y="0px"
	 viewBox="0 0 72 72" style="enable-background:new 0 0 72 72;" xml:space="preserve">
<style type="text/css">
	.st0{fill:none;}
</style>
<title>mail</title>
<rect class="st0" width="72" height="72"/>
<g>
	<path d="M59,14H13c-2.2,0-4,1.8-4,4v36c0,2.2,1.8,4,4,4h46c2.2,0,4-1.8,4-4V18C63,15.8,61.2,14,59,14z M13,18h46v36H13V18z"/>
	<path d="M61,16.4L36,32.1L11,16.4v4.7l22.9,14.3c1.3,0.8,2.9,0.8,4.2,0l1.7-1L61,21.2V16.4z"/>
</g>
</svg>
