<?xml version="1.0" encoding="utf-8"?>
<!-- Generator: Adobe Illustrator 24.0.0, SVG Export Plug-In . SVG Version: 6.00 Build 0)  -->
<svg version="1.1" id="Layer_1" xmlns="http://www.w3.org/2000/svg" xmlns:xlink="http://www.w3.org/1999/xlink" x="0px" y="0px"
	 viewBox="0 0 72 72" style="enable-background:new 0 0 72 72;" xml:space="preserve">
<style type="text/css">
	.st0{fill:none;}
</style>
<title>map</title>
<rect class="st0" width="72" height="72"/>
<path d="M47.1,14.9L30.8,9.3C29.9,9,29,9,28.1,9.4l-16.5,6.3C10.1,16.3,9,17.8,9,19.4v37.9c0,2.8,2.8,4.7,5.4,3.7l10.4-4l16.3,5.6
	c0.9,0.3,1.9,0.3,2.7,0l16.5-6.3c1.5-0.6,2.6-2.1,2.6-3.7V14.7c0-2.8-2.8-4.7-5.4-3.7L47.1,14.9z M13,57.3V19.4l12.4-4.8v37.9
	L13,57.3z M29.5,54.4V13.1l13.1,4.5v41.3L29.5,54.4z M59,52.6l-12.4,4.8V19.4L59,14.7V52.6z"/>
</svg>
