<?xml version="1.0" encoding="utf-8"?>
<!-- Generator: Adobe Illustrator 24.0.0, SVG Export Plug-In . SVG Version: 6.00 Build 0)  -->
<svg version="1.1" id="Layer_1" xmlns="http://www.w3.org/2000/svg" xmlns:xlink="http://www.w3.org/1999/xlink" x="0px" y="0px"
	 viewBox="0 0 72 72" style="enable-background:new 0 0 72 72;" xml:space="preserve">
<style type="text/css">
	.st0{fill:none;}
</style>
<path class="st0" d="M0,0h72v72H0V0z"/>
<g>
	<path d="M63,29.9L63,29.9c0-1.1-0.9-2-2-2h-4v-9c0-2.2-1.8-4-4-4h-9V11c0-1.1-0.9-2-2-2h0c-1.1,0-2,0.9-2,2v3.9h-8V11
		c0-1.1-0.9-2-2-2h0c-1.1,0-2,0.9-2,2v3.9h-9c-2.2,0-4,1.8-4,4v9h-4c-1.1,0-2,0.9-2,2v0c0,1.1,0.9,2,2,2h4v8h-4c-1.1,0-2,0.9-2,2v0
		c0,1.1,0.9,2,2,2h4v9c0,2.2,1.8,4,4,4h9V61c0,1.1,0.9,2,2,2h0c1.1,0,2-0.9,2-2v-4.1h8V61c0,1.1,0.9,2,2,2h0c1.1,0,2-0.9,2-2v-4.1h9
		c2.2,0,4-1.8,4-4v-9h4c1.1,0,2-0.9,2-2v0c0-1.1-0.9-2-2-2h-4v-8h4C62.1,31.9,63,31.1,63,29.9z M53,52.9H19v-34h34V52.9z"/>
	<path d="M41,27H31c-2.2,0-4,1.8-4,4v10c0,2.2,1.8,4,4,4h10c2.2,0,4-1.8,4-4V31C45,28.8,43.2,27,41,27z M41,41H31V31h10V41z"/>
</g>
</svg>
