<?xml version="1.0" encoding="utf-8"?>
<!-- Generator: Adobe Illustrator 24.0.0, SVG Export Plug-In . SVG Version: 6.00 Build 0)  -->
<svg version="1.1" id="Layer_1" xmlns="http://www.w3.org/2000/svg" xmlns:xlink="http://www.w3.org/1999/xlink" x="0px" y="0px"
	 viewBox="0 0 72 72" style="enable-background:new 0 0 72 72;" xml:space="preserve">
<style type="text/css">
	.st0{fill:none;}
</style>
<rect class="st0" width="72" height="72"/>
<g>
	<path d="M61,23H11c-1.1,0-2-0.9-2-2v0c0-1.1,0.9-2,2-2h50c1.1,0,2,0.9,2,2v0C63,22.1,62.1,23,61,23z"/>
	<path d="M61,38H11c-1.1,0-2-0.9-2-2v0c0-1.1,0.9-2,2-2h50c1.1,0,2,0.9,2,2v0C63,37.1,62.1,38,61,38z"/>
	<path d="M61,53H11c-1.1,0-2-0.9-2-2v0c0-1.1,0.9-2,2-2h50c1.1,0,2,0.9,2,2v0C63,52.1,62.1,53,61,53z"/>
</g>
</svg>
