<?xml version="1.0" encoding="utf-8"?>
<!-- Generator: Adobe Illustrator 24.0.0, SVG Export Plug-In . SVG Version: 6.00 Build 0)  -->
<svg version="1.1" id="Layer_1" xmlns="http://www.w3.org/2000/svg" xmlns:xlink="http://www.w3.org/1999/xlink" x="0px" y="0px"
	 viewBox="0 0 72 72" style="enable-background:new 0 0 72 72;" xml:space="preserve">
<style type="text/css">
	.st0{fill:none;}
</style>
<title>announcement</title>
<rect class="st0" width="72" height="72"/>
<path d="M59,8.8H13c-2.2,0-4,1.8-4,4v48.1c0,1.8,2.2,2.7,3.4,1.4l9.5-9.5H59c2.2,0,4-1.8,4-4v-36C63,10.6,61.2,8.8,59,8.8z M59,48.8
	H21.9c-1.1,0-2.1,0.4-2.8,1.2L13,56V12.8h46V48.8z"/>
<g>
	<path d="M20,22.8L20,22.8c0,1.1,0.9,2,2,2h28c1.1,0,2-0.9,2-2v0c0-1.1-0.9-2-2-2H22C20.9,20.8,20,21.7,20,22.8z"/>
	<path d="M22,32.8h28c1.1,0,2-0.9,2-2v0c0-1.1-0.9-2-2-2H22c-1.1,0-2,0.9-2,2v0C20,31.9,20.9,32.8,22,32.8z"/>
	<path d="M22,40.8h28c1.1,0,2-0.9,2-2v0c0-1.1-0.9-2-2-2H22c-1.1,0-2,0.9-2,2v0C20,39.9,20.9,40.8,22,40.8z"/>
</g>
</svg>
