<?xml version="1.0" encoding="utf-8"?>
<!-- Generator: Adobe Illustrator 24.0.0, SVG Export Plug-In . SVG Version: 6.00 Build 0)  -->
<svg version="1.1" id="Layer_1" xmlns="http://www.w3.org/2000/svg" xmlns:xlink="http://www.w3.org/1999/xlink" x="0px" y="0px"
	 viewBox="0 0 72 72" style="enable-background:new 0 0 72 72;" xml:space="preserve">
<style type="text/css">
	.st0{fill:none;}
</style>
<title>mic</title>
<rect class="st0" width="72" height="72"/>
<g>
	<path d="M26,18.7v14c0,5.5,4.5,10,10,10h0c5.5,0,10-4.5,10-10v-14c0-5.5-4.5-10-10-10h0C30.5,8.7,26,13.2,26,18.7z M36,38.7
		L36,38.7c-3.3,0-6-2.7-6-6v-14c0-3.3,2.7-6,6-6h0c3.3,0,6,2.7,6,6v14C42,36.1,39.3,38.7,36,38.7z"/>
	<path d="M53.9,34.3L53.9,34.3c-1,0-1.9,0.8-2,1.8c-0.9,8-7.7,14.2-15.9,14.2s-15-6.2-15.9-14.2c-0.1-1-1-1.8-2-1.8h0
		c-1.2,0-2.1,1-2,2.2c1,9.4,8.5,16.8,17.9,17.7v7.1c0,1.1,0.9,2,2,2h0c1.1,0,2-0.9,2-2v-7.1c9.4-0.9,16.9-8.4,17.9-17.7
		C56,35.3,55.1,34.3,53.9,34.3z"/>
</g>
</svg>
