<?xml version="1.0" encoding="utf-8"?>
<!-- Generator: Adobe Illustrator 24.0.0, SVG Export Plug-In . SVG Version: 6.00 Build 0)  -->
<svg version="1.1" id="Layer_1" xmlns="http://www.w3.org/2000/svg" xmlns:xlink="http://www.w3.org/1999/xlink" x="0px" y="0px"
	 viewBox="0 0 72 72" style="enable-background:new 0 0 72 72;" xml:space="preserve">
<style type="text/css">
	.st0{fill:none;}
</style>
<title>info</title>
<rect class="st0" width="72" height="72"/>
<g>
	<g>
		<path d="M31.5,21.9c1.1-1.1,2.7-1.7,4.9-1.7c2.1,0,3.7,0.8,4.9,2.3c0.8,1.1,1.3,2.3,1.6,3.8c0.2,1.3,1.4,2.3,2.7,2.3h0
			c1.7,0,3-1.5,2.7-3.1c-0.4-2.3-1.1-4.3-2.4-5.8c-1.7-2.2-4.1-3.5-7.2-4v-4c0-1.2-1-2.2-2.2-2.2h0c-1.2,0-2.2,1-2.2,2.2v4
			c-2.9,0.4-5.2,1.4-6.9,3.2l3.7,3.7C31.2,22.3,31.3,22.1,31.5,21.9z"/>
	</g>
	<g>
		<path d="M55.1,55.1c0.8-0.8,0.8-2,0-2.8L48.9,46L36.6,33.7l-6.6-6.6l-4.8-4.8l-5.4-5.4c-0.8-0.8-2-0.8-2.8,0l0,0
			c-0.8,0.8-0.8,2,0,2.8l7.5,7.5c0.1,2.9,1.1,5.2,2.8,7c1.9,1.9,4.9,3.5,8.7,4.6c0,0,0,0,0.1,0l7.3,7.3c0,2-0.7,3.6-2,4.7
			c-1.3,1.1-3.2,1.7-5.6,1.7c-2.1,0-3.9-0.6-5.3-1.8c-1-0.8-1.6-2.1-2-3.7c-0.2-1.3-1.3-2.2-2.7-2.2h0c-1.7,0-3,1.5-2.7,3.2
			c0.4,2.3,1.3,4.2,2.7,5.6c2,2,4.7,3.2,7.8,3.5v3.1c0,1.2,1,2.2,2.2,2.2h0c1.2,0,2.2-1,2.2-2.2v-3.2c3.3-0.4,6-1.5,7.9-3.4
			c0.9-0.8,1.5-1.8,2-2.9l4.3,4.3C53,55.9,54.3,55.9,55.1,55.1L55.1,55.1z"/>
	</g>
</g>
</svg>
