<?xml version="1.0" encoding="utf-8"?>
<!-- Generator: Adobe Illustrator 24.0.0, SVG Export Plug-In . SVG Version: 6.00 Build 0)  -->
<svg version="1.1" id="Layer_1" xmlns="http://www.w3.org/2000/svg" xmlns:xlink="http://www.w3.org/1999/xlink" x="0px" y="0px"
	 viewBox="0 0 72 72" style="enable-background:new 0 0 72 72;" xml:space="preserve">
<style type="text/css">
	.st0{fill:none;}
</style>
<title>info</title>
<rect class="st0" width="72" height="72"/>
<g>
	<path d="M42.9,37.8c-1.2-1.2-3.2-2.3-5.8-3.1c-2-0.7-3.4-1.4-4.1-2.2c-0.8-0.8-1.1-1.7-1.1-3c0-1.4,0.4-2.4,1.1-3.2
		c0.7-0.8,1.9-1.2,3.3-1.2c1.4,0,2.5,0.5,3.3,1.6c0.5,0.7,0.9,1.6,1.1,2.6c0.2,0.9,0.9,1.6,1.8,1.6h0c1.1,0,2-1,1.9-2.1
		c-0.2-1.6-0.8-2.9-1.6-4c-1.2-1.5-2.8-2.4-4.9-2.7v-2.7c0-0.8-0.7-1.5-1.5-1.5h0c-0.8,0-1.5,0.7-1.5,1.5v2.7
		c-2.1,0.3-3.7,1.1-4.9,2.4c-1.2,1.3-1.8,3-1.8,5.1c0,2.1,0.7,3.9,2,5.2c1.3,1.3,3.2,2.3,5.8,3.1c1.8,0.6,3.2,1.4,4,2.2
		c0.8,0.8,1.2,1.8,1.2,2.9c0,1.4-0.5,2.5-1.4,3.2c-0.9,0.8-2.2,1.2-3.8,1.2c-1.4,0-2.6-0.4-3.6-1.2c-0.7-0.6-1.1-1.4-1.3-2.5
		C30.7,42.7,30,42,29.1,42h0c-1.1,0-2,1-1.8,2.1c0.3,1.6,0.9,2.9,1.9,3.8c1.4,1.4,3.2,2.1,5.3,2.4v2.1c0,0.8,0.7,1.5,1.5,1.5h0
		c0.8,0,1.5-0.7,1.5-1.5v-2.1c2.3-0.2,4.1-1,5.4-2.3c1.3-1.3,2-3,2-5.2C44.8,40.8,44.1,39.1,42.9,37.8z"/>
	<path d="M36,9C21.1,9,9,21.1,9,36s12.1,27,27,27s27-12.1,27-27S50.9,9,36,9z M36,59c-12.7,0-23-10.3-23-23c0-12.7,10.3-23,23-23
		c12.7,0,23,10.3,23,23C59,48.7,48.7,59,36,59z"/>
</g>
</svg>
