<?xml version="1.0" encoding="utf-8"?>
<!-- Generator: Adobe Illustrator 24.0.0, SVG Export Plug-In . SVG Version: 6.00 Build 0)  -->
<svg version="1.1" id="Layer_1" xmlns="http://www.w3.org/2000/svg" xmlns:xlink="http://www.w3.org/1999/xlink" x="0px" y="0px"
	 viewBox="0 0 72 72" style="enable-background:new 0 0 72 72;" xml:space="preserve">
<style type="text/css">
	.st0{fill:none;}
</style>
<title>tag_faces</title>
<rect class="st0" width="72" height="72"/>
<path d="M36,9C21.1,9,9,21.1,9,36s12.1,27,27,27s27-12.1,27-27S50.9,9,36,9z M36,59c-12.7,0-23-10.3-23-23s10.3-23,23-23
	s23,10.3,23,23S48.7,59,36,59z"/>
<g>
	<path d="M23.7,40.3c-0.7,0-1.2,0.8-0.9,1.5c2.5,4.7,7.5,8,13.2,8s10.7-3.2,13.2-8c0.4-0.7-0.1-1.5-0.9-1.5H23.7z"/>
	<g>
		<circle cx="45.5" cy="29.3" r="3.5"/>
		<circle cx="26.6" cy="29.3" r="3.5"/>
	</g>
</g>
</svg>
