<?xml version="1.0" encoding="utf-8"?>
<!-- Generator: Adobe Illustrator 24.0.0, SVG Export Plug-In . SVG Version: 6.00 Build 0)  -->
<svg version="1.1" id="Layer_1" xmlns="http://www.w3.org/2000/svg" xmlns:xlink="http://www.w3.org/1999/xlink" x="0px" y="0px"
	 viewBox="0 0 72 72" style="enable-background:new 0 0 72 72;" xml:space="preserve">
<style type="text/css">
	.st0{fill:none;}
</style>
<title>more_vert</title>
<rect class="st0" width="72" height="72"/>
<g>
	<path d="M49,36c0,3.9,3.1,7,7,7s7-3.1,7-7s-3.1-7-7-7S49,32.1,49,36z M59,36c0,1.7-1.3,3-3,3s-3-1.3-3-3s1.3-3,3-3S59,34.3,59,36z"
		/>
	<path d="M23,36c0-3.9-3.1-7-7-7s-7,3.1-7,7s3.1,7,7,7S23,39.9,23,36z M13,36c0-1.7,1.3-3,3-3s3,1.3,3,3s-1.3,3-3,3S13,37.7,13,36z"
		/>
	<path d="M43,36c0-3.9-3.1-7-7-7s-7,3.1-7,7s3.1,7,7,7S43,39.9,43,36z M33,36c0-1.7,1.3-3,3-3s3,1.3,3,3s-1.3,3-3,3S33,37.7,33,36z"
		/>
</g>
</svg>
