<?xml version="1.0" encoding="utf-8"?>
<!-- Generator: Adobe Illustrator 24.0.0, SVG Export Plug-In . SVG Version: 6.00 Build 0)  -->
<svg version="1.1" id="Layer_1" xmlns="http://www.w3.org/2000/svg" xmlns:xlink="http://www.w3.org/1999/xlink" x="0px" y="0px"
	 viewBox="0 0 72 72" style="enable-background:new 0 0 72 72;" xml:space="preserve">
<style type="text/css">
	.st0{fill:none;}
</style>
<title>announcement</title>
<rect class="st0" width="72" height="72"/>
<path d="M54.5,28.6l-8.9-8.9c-0.8-0.8-1.8-1.2-2.8-1.2h-7.4c-1.1,0-2,0.9-2,2v0c0,1.1,0.9,2,2,2h7.4l6,6l-29.9,0
	C12,28.5,6.1,33.9,6,40.8c-0.1,7,5.5,12.7,12.5,12.7c6.2,0,11.3-4.5,12.3-10.4h2.1c1.1,0,2.1-0.4,2.8-1.2l6.6-6.6
	c-0.9,1.8-1.4,3.9-1.3,6.1c0.2,6.5,5.6,11.8,12.1,12C60.2,53.7,66,48,66,41C66,34.4,60.9,29.1,54.5,28.6z M18.5,49.5
	c-4.8,0-8.6-3.9-8.5-8.7c0.1-4.3,3.6-7.9,7.8-8.2c4.4-0.3,8.1,2.6,9,6.6h-6.3c-1.1,0-2,0.9-2,2v0c0,1.1,0.9,2,2,2h6.2
	C25.8,46.8,22.5,49.5,18.5,49.5z M32.9,39.1h-2.1c-0.4-2.5-1.5-4.8-3.2-6.6h11.9L32.9,39.1z M54.9,49.4c-5.8,1-10.8-4-9.8-9.8
	c0.6-3.5,3.4-6.4,6.9-6.9c5.8-1,10.8,4,9.8,9.8C61.3,46,58.5,48.8,54.9,49.4z"/>
</svg>
