<?xml version="1.0" encoding="utf-8"?>
<!-- Generator: Adobe Illustrator 24.0.0, SVG Export Plug-In . SVG Version: 6.00 Build 0)  -->
<svg version="1.1" id="Layer_1" xmlns="http://www.w3.org/2000/svg" xmlns:xlink="http://www.w3.org/1999/xlink" x="0px" y="0px"
	 viewBox="0 0 72 72" style="enable-background:new 0 0 72 72;" xml:space="preserve">
<style type="text/css">
	.st0{fill:none;}
</style>
<title>info</title>
<rect class="st0" width="72" height="72"/>
<path d="M36,9L36,9c-11,0-20,9-20,20v14c0,11,9,20,20,20h0c11,0,20-9,20-20V29C56,18,47,9,36,9z M52,28.9H38V13.1
	C45.8,14.1,51.9,20.8,52,28.9z M34,13.1v15.7H20C20.1,20.8,26.2,14.1,34,13.1z M36,59L36,59c-8.8,0-16-7.2-16-16V32.9h32V43
	C52,51.8,44.8,59,36,59z"/>
</svg>
