<?xml version="1.0" encoding="utf-8"?>
<!-- Generator: Adobe Illustrator 24.0.0, SVG Export Plug-In . SVG Version: 6.00 Build 0)  -->
<svg version="1.1" id="Layer_1" xmlns="http://www.w3.org/2000/svg" xmlns:xlink="http://www.w3.org/1999/xlink" x="0px" y="0px"
	 viewBox="0 0 72 72" style="enable-background:new 0 0 72 72;" xml:space="preserve">
<style type="text/css">
	.st0{fill:none;}
</style>
<title>my_location</title>
<rect class="st0" width="72" height="72"/>
<g>
	<path d="M61,34h-3.1C57,23.4,48.6,15,38,14.1V11c0-1.1-0.9-2-2-2h0c-1.1,0-2,0.9-2,2v3.1C23.4,15,15,23.4,14.1,34H11
		c-1.1,0-2,0.9-2,2v0c0,1.1,0.9,2,2,2h3.1c1,10.6,9.4,19,19.9,19.9V61c0,1.1,0.9,2,2,2h0c1.1,0,2-0.9,2-2v-3.1
		c10.6-1,19-9.4,19.9-19.9H61c1.1,0,2-0.9,2-2v0C63,34.9,62.1,34,61,34z M36,54c-9.9,0-18-8.1-18-18c0-9.9,8.1-18,18-18
		s18,8.1,18,18C54,45.9,45.9,54,36,54z"/>
	<path d="M36,28c-4.4,0-8,3.6-8,8s3.6,8,8,8s8-3.6,8-8S40.4,28,36,28z M36,40c-2.2,0-4-1.8-4-4s1.8-4,4-4s4,1.8,4,4S38.2,40,36,40z"
		/>
</g>
</svg>
