<?xml version="1.0" encoding="utf-8"?>
<!-- Generator: Adobe Illustrator 24.0.0, SVG Export Plug-In . SVG Version: 6.00 Build 0)  -->
<svg version="1.1" id="Layer_1" xmlns="http://www.w3.org/2000/svg" xmlns:xlink="http://www.w3.org/1999/xlink" x="0px" y="0px"
	 viewBox="0 0 72 72" style="enable-background:new 0 0 72 72;" xml:space="preserve">
<style type="text/css">
	.st0{fill:none;}
</style>
<title>notifications</title>
<rect class="st0" width="72" height="72"/>
<path d="M38,59.1V46.8c10.1-1.1,17.8-10,16.9-20.5C54.2,17.3,47.1,10,38.2,9C26.7,7.7,17,16.7,17,27.9c0,9.8,7.4,17.9,17,18.9v12.3
	H18c-1.1,0-2,0.9-2,2v0c0,1.1,0.9,2,2,2h36c1.1,0,2-0.9,2-2v0c0-1.1-0.9-2-2-2H38z M21,27.9c0-8.3,6.7-15,15-15c8.3,0,15,6.7,15,15
	c0,8.3-6.7,15-15,15C27.7,42.9,21,36.2,21,27.9z"/>
</svg>
