<?xml version="1.0" encoding="utf-8"?>
<!-- Generator: Adobe Illustrator 24.0.0, SVG Export Plug-In . SVG Version: 6.00 Build 0)  -->
<svg version="1.1" id="Layer_1" xmlns="http://www.w3.org/2000/svg" xmlns:xlink="http://www.w3.org/1999/xlink" x="0px" y="0px"
	 viewBox="0 0 72 72" style="enable-background:new 0 0 72 72;" xml:space="preserve">
<style type="text/css">
	.st0{fill:none;}
</style>
<title>notifications</title>
<rect class="st0" width="72" height="72"/>
<g>
	<path d="M57,59.1H47V46.8c10.1-1.1,17.8-10,16.9-20.5C63.2,17.3,56.1,10,47.2,9C35.7,7.7,26,16.7,26,27.9c0,9.8,7.4,17.9,17,18.9
		v12.3H25.8V43.5c1.4,1,2.5,2.5,2.8,4.2c0.2,0.9,1,1.5,1.9,1.5c1.3,0,2.2-1.2,2-2.5c-1.1-4.9-5.5-8.5-10.7-8.5h-3
		c-5.2,0-9.6,3.6-10.7,8.5c-0.3,1.3,0.7,2.5,2,2.5c0.9,0,1.7-0.6,1.9-1.5c0.4-1.7,1.4-3.2,2.8-4.2v15.6H10c-1.1,0-2,0.9-2,2
		c0,1.1,0.9,2,2,2h47c1.1,0,2-0.9,2-2C59,60,58.1,59.1,57,59.1z M18.8,42.2h3v7h-3V42.2z M18.8,53.2h3v5.9h-3V53.2z M30,27.9
		c0-8.3,6.7-15,15-15c8.3,0,15,6.7,15,15c0,8.3-6.7,15-15,15C36.7,42.9,30,36.2,30,27.9z"/>
	<circle cx="19.8" cy="32" r="4"/>
</g>
</svg>
