<?xml version="1.0" encoding="utf-8"?>
<!-- Generator: Adobe Illustrator 24.0.0, SVG Export Plug-In . SVG Version: 6.00 Build 0)  -->
<svg version="1.1" id="Layer_1" xmlns="http://www.w3.org/2000/svg" xmlns:xlink="http://www.w3.org/1999/xlink" x="0px" y="0px"
	 viewBox="0 0 72 72" style="enable-background:new 0 0 72 72;" xml:space="preserve">
<style type="text/css">
	.st0{display:none;opacity:0.56;enable-background:new    ;}
	.st1{display:none;}
	.st2{display:inline;}
	.st3{fill:none;}
</style>
<title>Asset 33</title>
<path class="st0" d="M36,17C20,17,7,30,7,46s13,29,29,29s29-13,29-29S52,17,36,17z M36,71c-13.8,0-25-11.2-25-25s11.2-25,25-25
	s25,11.2,25,25S49.8,71,36,71z"/>
<g class="st1">
	<g id="news" class="st2">
		<path d="M58.4,16.3l-4.3-4.6l-4.6,4.6l-4.6-4.6l-4.6,4.6L36,11.7l-4.6,4.6l-4.3-4.6l-4.6,4.6l-4.6-4.6l-4.3,4.6L9,11.7v43.2
			c0,3,2.4,5.4,5.4,5.4h43.2c3,0,5.4-2.4,5.4-5.4V11.7L58.4,16.3z M36,54.9H14.4V36H36V54.9z M57.6,54.9H38.7v-2.7h18.9V54.9z
			 M57.6,49.5H38.7v-2.7h18.9V49.5z M57.6,44.1H38.7v-2.7h18.9V44.1z M57.6,38.7H38.7V36h18.9V38.7z M57.6,33.3H14.4v-8.1h43.2V33.3
			z"/>
	</g>
</g>
<path d="M58.1,16.1l-3-3c-0.8-0.8-2-0.8-2.8,0l-3,3l-3-3c-0.8-0.8-2-0.8-2.8,0l-3,3l-3-3c-0.8-0.8-2-0.8-2.8,0l-3,3l-3-3
	c-0.8-0.8-2.1-0.8-2.8,0l-3,3l-3-3c-0.8-0.8-2-0.8-2.8,0l-3,3L10,12.2v43.5c0,2.2,1.8,4,4,4h44c2.2,0,4-1.8,4-4V12.2L58.1,16.1z
	 M58,20.6v11.1H14V20.6H58z M38.9,39.8v-4H58v4H38.9z M58,43.8v4H38.9v-4H58z M14,35.8h20.9v20H14V35.8z M38.9,55.8v-4H58v4H38.9z"
	/>
<rect class="st3" width="72" height="72"/>
</svg>
