<?xml version="1.0" encoding="utf-8"?>
<!-- Generator: Adobe Illustrator 24.0.0, SVG Export Plug-In . SVG Version: 6.00 Build 0)  -->
<svg version="1.1" id="Layer_1" xmlns="http://www.w3.org/2000/svg" xmlns:xlink="http://www.w3.org/1999/xlink" x="0px" y="0px"
	 viewBox="0 0 72 72" style="enable-background:new 0 0 72 72;" xml:space="preserve">
<style type="text/css">
	.st0{fill:none;}
</style>
<title>notifications</title>
<rect class="st0" width="72" height="72"/>
<g>
	<path d="M36,64.5c2.8,0,5-2.2,5-5H31C31,62.3,33.2,64.5,36,64.5z"/>
	<path d="M55.2,50.9C53.2,48.8,52,46,52,43V29.6c0-8-5.8-15-13.5-16.2V10c0-1.4-1.1-2.5-2.5-2.5h0c-1.4,0-2.5,1.1-2.5,2.5v3.4
		C25.9,14.6,20,21.2,20,29.2V43c0,2.9-1.2,5.8-3.2,7.8l-0.5,0.5c-1.9,1.9-0.6,5.1,2.1,5.1h35.3c2.7,0,4-3.2,2.1-5.1L55.2,50.9z
		 M20.8,52.5L20.8,52.5c2.1-2.1,3.2-4.9,3.2-7.8V29.2c0-6.7,5.5-12.1,12.2-12C42.8,17.3,48,23,48,29.6v15.1c0,2.9,1.2,5.8,3.2,7.8
		l0,0H20.8z"/>
	<path d="M59.9,24c-1.4-6.4-5.3-11.8-10.7-15.2c-1.3-0.8-3,0.2-3,1.7v0c0,0.7,0.4,1.3,1,1.7c4.4,2.8,7.7,7.3,8.9,12.6
		c0.2,0.9,1,1.6,1.9,1.6h0C59.2,26.4,60.2,25.2,59.9,24z"/>
	<path d="M22.8,8.8c-5.4,3.4-9.3,8.8-10.7,15.2c-0.3,1.2,0.7,2.4,2,2.4h0c0.9,0,1.7-0.7,1.9-1.6c1.2-5.3,4.4-9.8,8.9-12.6
		c0.6-0.4,1-1,1-1.7v0C25.8,9,24.1,8,22.8,8.8z"/>
</g>
</svg>
