<?xml version="1.0" encoding="utf-8"?>
<!-- Generator: Adobe Illustrator 24.0.0, SVG Export Plug-In . SVG Version: 6.00 Build 0)  -->
<svg version="1.1" id="Layer_1" xmlns="http://www.w3.org/2000/svg" xmlns:xlink="http://www.w3.org/1999/xlink" x="0px" y="0px"
	 viewBox="0 0 72 72" style="enable-background:new 0 0 72 72;" xml:space="preserve">
<style type="text/css">
	.st0{fill:none;}
</style>
<title>notifications</title>
<rect class="st0" width="72" height="72"/>
<g>
	<path d="M36,64.5c2.8,0,5-2.2,5-5H31C31,62.3,33.2,64.5,36,64.5z"/>
</g>
<g>
	<path d="M36.6,17.2C43,17.5,48,23.1,48,29.6v9.9l4,4V29.6c0-8-5.8-15-13.5-16.2V10c0-1.4-1.1-2.5-2.5-2.5s-2.5,1.1-2.5,2.5v3.4
		c-3,0.5-5.7,1.8-7.9,3.7l2.8,2.8C30.6,18.1,33.5,17,36.6,17.2z"/>
	<path d="M59.4,56.6L15.4,12.6c-0.8-0.8-2-0.8-2.8,0l0,0c-0.8,0.8-0.8,2,0,2.8l8.4,8.4c-0.6,1.7-0.9,3.5-0.9,5.4V43
		c0,2.9-1.2,5.8-3.2,7.8l-0.5,0.5c-1.9,1.9-0.6,5.1,2.1,5.1h35.3l2.9,2.9c0.8,0.8,2,0.8,2.8,0l0,0C60.2,58.7,60.2,57.4,59.4,56.6z
		 M20.8,52.5L20.8,52.5c2.1-2.1,3.2-4.9,3.2-7.8V29.2c0-0.7,0.1-1.4,0.2-2.1l25.5,25.5H20.8z"/>
</g>
</svg>
