<?xml version="1.0" encoding="utf-8"?>
<!-- Generator: Adobe Illustrator 24.0.0, SVG Export Plug-In . SVG Version: 6.00 Build 0)  -->
<svg version="1.1" id="Layer_1" xmlns="http://www.w3.org/2000/svg" xmlns:xlink="http://www.w3.org/1999/xlink" x="0px" y="0px"
	 viewBox="0 0 72 72" style="enable-background:new 0 0 72 72;" xml:space="preserve">
<style type="text/css">
	.st0{fill:none;}
</style>
<title>contact_support</title>
<rect class="st0" width="72" height="72"/>
<g>
	<path d="M52.3,24.1L37.4,9.3c-0.8-0.8-2-0.8-2.8,0L19.7,24.1c-4,4-6.2,9.4-6.2,15.1v1.1c0,12.2,9.5,22.6,21.7,23
		c12.8,0.5,23.3-9.8,23.3-22.5v-1.7C58.5,33.5,56.3,28.1,52.3,24.1z M35.7,59.3c-10.3-0.2-18.5-9-18.2-19.3
		c0.2-5.4,2.4-10.5,6.2-14.3L36,13.5l12.3,12.3c4,4,6.2,9.4,6.2,15.1C54.5,51.2,46,59.5,35.7,59.3z"/>
	<path d="M23.7,40.8c-1.2,0-2.2,1.1-2,2.3c1.1,6.9,7.1,12.2,14.3,12.2s13.2-5.3,14.3-12.2c0.2-1.2-0.7-2.3-2-2.3H23.7z M36,51.3
		c-4.4,0-8.1-2.7-9.7-6.5h19.4C44.1,48.6,40.4,51.3,36,51.3z"/>
</g>
</svg>
