<?xml version="1.0" encoding="utf-8"?>
<!-- Generator: Adobe Illustrator 24.0.0, SVG Export Plug-In . SVG Version: 6.00 Build 0)  -->
<svg version="1.1" id="Layer_1" xmlns="http://www.w3.org/2000/svg" xmlns:xlink="http://www.w3.org/1999/xlink" x="0px" y="0px"
	 viewBox="0 0 72 72" style="enable-background:new 0 0 72 72;" xml:space="preserve">
<style type="text/css">
	.st0{fill:none;}
</style>
<title>person</title>
<rect class="st0" width="72" height="72"/>
<g>
	<g id="Master">
		<g>
			<path d="M27.9,21.1c-0.1,0.8,0.5,1.4,1.2,1.4h0.1c0.6,0,1.2-0.5,1.2-1.1c0.3-2.3,0.1-3.8-2.5-6.9c-1-1.2-1.6-1.9-1.4-4.2
				C26.6,9.6,26,9,25.3,9h-0.1c-0.6,0-1.2,0.5-1.3,1.2c-0.2,2.5,0.5,4.7,2.6,6.8C27,17.6,28.2,18.5,27.9,21.1z"/>
			<path d="M34.7,21.1c-0.1,0.8,0.5,1.4,1.2,1.4H36c0.6,0,1.2-0.5,1.2-1.1c0.3-2.3,0.1-3.8-2.5-6.9c-1-1.2-1.6-1.9-1.4-4.2
				C33.3,9.6,32.7,9,32,9h-0.1c-0.6,0-1.2,0.5-1.3,1.2c-0.2,2.5,0.5,4.7,2.6,6.8C33.7,17.6,34.9,18.5,34.7,21.1z"/>
			<path d="M41.4,21.1c-0.1,0.8,0.5,1.4,1.2,1.4h0.1c0.6,0,1.2-0.5,1.2-1.1c0.3-2.3,0.1-3.8-2.5-6.9c-1-1.2-1.6-1.9-1.4-4.2
				C40.1,9.6,39.5,9,38.8,9h-0.1c-0.6,0-1.2,0.5-1.3,1.2C37.2,12.7,38,14.9,40,17C40.5,17.6,41.7,18.5,41.4,21.1z"/>
		</g>
	</g>
	<path d="M56,53.4c-0.6-3.2-3.2-5.7-6.4-6.3c-4.4-0.8-8.2,2-9.2,5.9H25.7l5.9-9.1c1,0.2,2,0.3,3,0.3s2-0.1,3-0.3l1.8,2.8
		c0.9-1,2-1.8,3.2-2.4l-1-1.5c6.1-2.5,10.7-8,11.7-14.8c0.2-1.5-0.9-2.8-2.4-2.8l0,0v0H18v0h0c-1.3,0-2.3,1.1-2.2,2.4
		c0.9,7,5.5,12.7,11.8,15.3L16.5,59.9c-0.6,0.9-0.3,2.2,0.6,2.8l0,0c0.9,0.6,2.2,0.3,2.8-0.6l3.3-5.1h17.3c0.9,3.4,4,6,7.7,6
		C53.1,63,57,58.5,56,53.4z M20.2,29.1h28.9c-1.8,6.3-7.6,11-14.4,11S22,35.4,20.2,29.1z M52,56.1c-0.4,1.3-1.4,2.4-2.8,2.8
		c-3,0.8-5.7-1.9-4.9-4.9c0.4-1.3,1.4-2.4,2.8-2.8C50.1,50.3,52.9,53,52,56.1z"/>
</g>
</svg>
