<?xml version="1.0" encoding="utf-8"?>
<!-- Generator: Adobe Illustrator 24.0.0, SVG Export Plug-In . SVG Version: 6.00 Build 0)  -->
<svg version="1.1" id="Layer_1" xmlns="http://www.w3.org/2000/svg" xmlns:xlink="http://www.w3.org/1999/xlink" x="0px" y="0px"
	 viewBox="0 0 72 72" style="enable-background:new 0 0 72 72;" xml:space="preserve">
<style type="text/css">
	.st0{fill:none;}
</style>
<title>account_box</title>
<rect class="st0" width="72" height="72"/>
<path d="M61.1,21.9c0-2.9-1.9-5.5-4.7-6.1c-1.2-0.3-2.3-0.1-3.3,0.2l0-1.1c0-3-2.1-5.7-5-6.1c-1.3-0.2-2.5,0-3.5,0.5
	c-1-2.2-3.2-3.7-5.8-3.6c-3.2,0.2-5.7,3-5.7,6.2V12c-1-0.4-2.1-0.5-3.3-0.2c-2.8,0.6-4.7,3.2-4.7,6.1l0,24.2l-5.4-2.9
	c-2.2-1.2-4.9-0.8-6.8,0.8l0,0c-2.5,2.3-2.7,6.2-0.3,8.6L25.5,62c2.7,2.8,6.3,4.3,10.2,4.3h15.3c5.6,0,10.2-4.6,10.2-10.2L61.1,21.9
	z M28.6,59.5L15.5,45.9c-0.8-0.8-0.7-2.1,0.1-2.9l0,0c0.6-0.6,1.5-0.7,2.3-0.3l6.9,3.6c2,1.1,4.4-0.4,4.4-2.6l0-26
	c0-1,0.7-1.9,1.7-2.1c1.3-0.2,2.3,0.8,2.3,2v16.7c0,1.1,0.9,2,2,2h0c1.1,0,2-0.9,2-2l0-22.6c0-1,0.7-1.9,1.7-2.1
	c1.3-0.2,2.3,0.8,2.3,2v22.7c0,1.1,0.9,2,2,2h0c1.1,0,2-0.9,2-2l0-19.6c0-1,0.7-1.9,1.7-2.1c1.3-0.2,2.3,0.8,2.3,2v19.7
	c0,1.1,0.9,2,2,2h0c1.1,0,2-0.9,2-2l0-12.6c0-1,0.7-1.9,1.7-2.1c1.3-0.2,2.3,0.8,2.3,2v34.5c0,3.4-2.8,6.2-6.2,6.2H35.2
	C32.7,62.3,30.4,61.3,28.6,59.5z"/>
</svg>
