<?xml version="1.0" encoding="utf-8"?>
<!-- Generator: Adobe Illustrator 24.0.0, SVG Export Plug-In . SVG Version: 6.00 Build 0)  -->
<svg version="1.1" id="Layer_1" xmlns="http://www.w3.org/2000/svg" xmlns:xlink="http://www.w3.org/1999/xlink" x="0px" y="0px"
	 viewBox="0 0 72 72" style="enable-background:new 0 0 72 72;" xml:space="preserve">
<style type="text/css">
	.st0{fill:none;}
</style>
<title>play_circle</title>
<rect class="st0" width="72" height="72"/>
<g>
	<path d="M36,9C21.1,9,9,21.1,9,36c0,14.9,12.1,27,27,27s27-12.1,27-27C63,21.1,50.9,9,36,9z M36,59c-12.7,0-23-10.3-23-23
		c0-12.7,10.3-23,23-23c12.7,0,23,10.3,23,23C59,48.7,48.7,59,36,59z"/>
	<g>
		<path d="M40,26v20c0,1.1,0.9,2,2,2h0c1.1,0,2-0.9,2-2V26c0-1.1-0.9-2-2-2h0C40.9,24,40,24.9,40,26z"/>
		<path d="M30,48L30,48c1.1,0,2-0.9,2-2V26c0-1.1-0.9-2-2-2h0c-1.1,0-2,0.9-2,2v20C28,47.1,28.9,48,30,48z"/>
	</g>
</g>
</svg>
