<?xml version="1.0" encoding="utf-8"?>
<!-- Generator: Adobe Illustrator 24.0.0, SVG Export Plug-In . SVG Version: 6.00 Build 0)  -->
<svg version="1.1" id="Layer_1" xmlns="http://www.w3.org/2000/svg" xmlns:xlink="http://www.w3.org/1999/xlink" x="0px" y="0px"
	 viewBox="0 0 72 72" style="enable-background:new 0 0 72 72;" xml:space="preserve">
<style type="text/css">
	.st0{fill:none;}
</style>
<title>person</title>
<rect class="st0" width="72" height="72"/>
<g>
	<path d="M63,56.2c0-3.4-1.7-6.6-4.6-8.4C52,43.6,44.3,41.2,36,41.2s-16,2.4-22.4,6.6c-2.8,1.8-4.6,5-4.6,8.4v3c0,2.2,1.8,4,4,4h46
		c2.2,0,4-1.8,4-4V56.2z M13,59.2v-3.5c0-1.6,0.8-3.2,2.2-4.1c6-4,13.1-6.3,20.8-6.3s14.9,2.3,20.8,6.3c1.4,0.9,2.2,2.5,2.2,4.1v3.5
		H13z"/>
	<path d="M36,8.8c-7.7,0-14,6.3-14,14s6.3,14,14,14s14-6.3,14-14S43.7,8.8,36,8.8z M36,32.8c-5.5,0-10-4.5-10-10s4.5-10,10-10
		s10,4.5,10,10S41.5,32.8,36,32.8z"/>
</g>
</svg>
