<?xml version="1.0" encoding="utf-8"?>
<!-- Generator: Adobe Illustrator 24.0.0, SVG Export Plug-In . SVG Version: 6.00 Build 0)  -->
<svg version="1.1" id="Layer_1" xmlns="http://www.w3.org/2000/svg" xmlns:xlink="http://www.w3.org/1999/xlink" x="0px" y="0px"
	 viewBox="0 0 72 72" style="enable-background:new 0 0 72 72;" xml:space="preserve">
<style type="text/css">
	.st0{fill:none;}
	.st1{display:none;}
	.st2{display:none;opacity:0.67;}
	.st3{display:inline;fill:#00B962;}
</style>
<title>alarm_on</title>
<rect class="st0" width="72" height="72"/>
<path class="st1" d="M50.2,42.1c-2.2-2.6-4.1-4.8-6.4-7.5c-1.2-1.4-2.7-2.8-4.5-3.4c-0.3-0.1-0.6-0.2-0.8-0.2
	c-0.6-0.1-1.3-0.1-2-0.1c-0.7,0-1.4,0-2,0.1c-0.3,0.1-0.6,0.1-0.8,0.2c-1.8,0.6-3.3,2-4.5,3.4c-2.2,2.6-4.1,4.8-6.4,7.5
	c-3.4,3.4-7.5,7.1-6.7,12.3c0.7,2.6,2.6,5.2,6,5.9c1.9,0.4,7.8-1.1,14.2-1.1h0.5c6.4,0,12.3,1.5,14.2,1.1c3.4-0.7,5.2-3.4,6-5.9
	C57.7,49.1,53.6,45.4,50.2,42.1z"/>
<g class="st2">
	<path class="st3" d="M50,60.5c7.1,0,9.8-8.6,5.1-14l-11.2-13c-1.7-1.9-4.1-2.9-6.5-2.9c-2.4,0-4.7,1-6.5,2.9l-11.2,13
		c-4.7,5.4-1.9,14,5.1,14H50z"/>
</g>
<g>
	<path d="M14.9,21.6c-3.9,0-7,3.1-7,7c0,3.9,3.1,7,7,7s7-3.1,7-7C21.9,24.7,18.8,21.6,14.9,21.6z M14.9,31.6c-1.7,0-3-1.3-3-3
		s1.3-3,3-3s3,1.3,3,3S16.6,31.6,14.9,31.6z"/>
	<path d="M27.1,10.8c-3.9,0-7,3.1-7,7c0,3.9,3.1,7,7,7s7-3.1,7-7C34.1,13.9,31,10.8,27.1,10.8z M27.1,20.8c-1.7,0-3-1.3-3-3
		s1.3-3,3-3s3,1.3,3,3S28.8,20.8,27.1,20.8z"/>
	<path d="M43.3,10.8c-3.9,0-7,3.1-7,7c0,3.9,3.1,7,7,7s7-3.1,7-7C50.3,13.9,47.2,10.8,43.3,10.8z M43.3,20.8c-1.7,0-3-1.3-3-3
		s1.3-3,3-3s3,1.3,3,3S45,20.8,43.3,20.8z"/>
	<path d="M55.4,21.6c-3.9,0-7,3.1-7,7c0,3.9,3.1,7,7,7s7-3.1,7-7C62.4,24.7,59.3,21.6,55.4,21.6z M55.4,31.6c-1.7,0-3-1.3-3-3
		s1.3-3,3-3s3,1.3,3,3S57.1,31.6,55.4,31.6z"/>
	<path d="M43.5,34.6c-3.7-4.5-10.6-4.5-14.4,0c-3.4,4.7-7,9.2-11.1,13.4c-4.4,5.3-0.6,13.2,6.2,13.2c10.7-0.7,10.7-0.7,24.2,0
		c6.8,0,10.6-8,6.2-13.2C50.5,43.7,46.8,39.3,43.5,34.6z M52.1,54.9c-0.3,0.5-1.3,2.3-3.6,2.3c-6.8-0.3-10.2-0.5-13.3-0.5
		c-3.1,0-5.8,0.2-11.2,0.5c-2.3-0.1-3.3-1.8-3.6-2.3c-0.3-0.5-1-2.4,0.5-4.2c4-4.1,7.7-8.6,11.3-13.6c1-1.2,2.5-1.8,4-1.8
		s3,0.7,4,1.8c3.6,5,7.3,9.5,11.3,13.6C53.1,52.5,52.4,54.3,52.1,54.9z"/>
</g>
</svg>
