<?xml version="1.0" encoding="utf-8"?>
<!-- Generator: Adobe Illustrator 24.0.0, SVG Export Plug-In . SVG Version: 6.00 Build 0)  -->
<svg version="1.1" id="Layer_1" xmlns="http://www.w3.org/2000/svg" xmlns:xlink="http://www.w3.org/1999/xlink" x="0px" y="0px"
	 viewBox="0 0 72 72" style="enable-background:new 0 0 72 72;" xml:space="preserve">
<style type="text/css">
	.st0{fill:none;}
</style>
<title>call</title>
<rect class="st0" width="72" height="72"/>
<path d="M26.8,54.8v-4.9c3-1,6.1-1.5,9.2-1.5c3.1,0,6.2,0.5,9.2,1.5v4.9c0,1.2,0.7,2.3,1.7,2.9c2.4,1.3,4.7,2.9,6.8,4.9
	c1.3,1.3,3.4,1.3,4.6,0l6.7-6.7c1.3-1.3,1.3-3.4,0-4.7c-4.8-4.8-10.9-8.5-17.9-10.5c-3.7-1-7.5-1.5-11.1-1.5
	c-3.7,0-7.4,0.5-11.1,1.5c-7,2-13.1,5.7-17.9,10.5c-1.3,1.3-1.3,3.4,0,4.7l6.7,6.7c1.3,1.3,3.3,1.3,4.6,0c2-2,4.3-3.6,6.8-4.9
	C26.1,57.1,26.8,56,26.8,54.8z M9.3,53.5c4.8-4.8,10.9-8.4,18-10.1c2.9-0.7,5.8-1,8.7-1c2.9,0,5.8,0.3,8.7,1
	c7.1,1.7,13.2,5.2,18,10.1L56,60.2c-2.3-2.2-4.8-4.1-7.5-5.5v-4.9c0-1.4-0.9-2.7-2.2-3.1c-3.3-1.1-6.8-1.6-10.3-1.6
	c-3.5,0-6.9,0.5-10.3,1.6c-1.3,0.4-2.2,1.7-2.2,3.1v4.9c-2.7,1.4-5.2,3.3-7.5,5.5L9.3,53.5z"/>
<path d="M34.3,14.2L34.3,14.2c0,1.1-0.9,2-2,2H21.8l14.4,14.4l17.5-17.5c0.8-0.8,2-0.8,2.8,0l0,0c0.8,0.8,0.8,2,0,2.8L39,33.5
	c-1.6,1.6-4.1,1.6-5.7,0L18.9,19.1v10.5c0,1.1-0.9,2-2,2h0c-1.1,0-2-0.9-2-2V15.2c0-1.7,1.3-3,3-3l14.4,0
	C33.4,12.2,34.3,13.1,34.3,14.2z"/>
</svg>
