<?xml version="1.0" encoding="utf-8"?>
<!-- Generator: Adobe Illustrator 24.0.0, SVG Export Plug-In . SVG Version: 6.00 Build 0)  -->
<svg version="1.1" id="Layer_1" xmlns="http://www.w3.org/2000/svg" xmlns:xlink="http://www.w3.org/1999/xlink" x="0px" y="0px"
	 viewBox="0 0 72 72" style="enable-background:new 0 0 72 72;" xml:space="preserve">
<style type="text/css">
	.st0{fill:none;}
</style>
<title>call</title>
<rect class="st0" width="72" height="72"/>
<path d="M45,44.6l-4.2,4.2c-3.4-1.7-6.5-4-9.2-6.7c-2.7-2.7-4.9-5.8-6.7-9.2l4.2-4.2c1-1,1.4-2.6,1-4c-1-3.2-1.5-6.6-1.6-10
	c0-2.2-1.8-4-4-4H13c-2.2,0-4,1.8-4,4c0,8.3,2.1,16.7,6.4,24.4c2.3,4.1,5.1,7.7,8.3,10.9c3.2,3.2,6.8,6,10.9,8.3
	c7.7,4.3,16.1,6.4,24.4,6.4c2.2,0,4-1.8,4-4V49.3c0-2.2-1.8-4-4-4c-3.4-0.1-6.8-0.6-10-1.6C47.6,43.2,46,43.6,45,44.6z M59,60.8
	c-8.3,0-16.6-2.2-24.2-6.9c-3.1-1.9-5.9-4.1-8.3-6.6c-2.5-2.5-4.7-5.2-6.6-8.3C15.2,31.4,13,23,13,14.8h11.5
	c0.1,3.9,0.7,7.7,1.8,11.2l-4.2,4.2c-1.2,1.2-1.5,3.1-0.8,4.6c1.9,3.8,4.5,7.3,7.4,10.3c3,3,6.4,5.5,10.3,7.4
	c1.5,0.8,3.4,0.4,4.6-0.8l4.2-4.2c3.5,1.1,7.3,1.7,11.2,1.8V60.8z"/>
<g>
	<path d="M58.5,15.7V14c0-3.3-2.4-6.3-5.6-6.7c-4-0.5-7.4,2.6-7.4,6.4v2H44c-1.7,0-3,1.3-3,3v13.5c0,1.7,1.3,3,3,3h16
		c1.7,0,3-1.3,3-3V18.7c0-1.7-1.3-3-3-3H58.5z M48.5,13.7c0-2.2,2-3.9,4.2-3.4c1.6,0.3,2.8,1.9,2.8,3.5v1.9h-7V13.7z M60,32.2H44
		V18.7h16V32.2z"/>
	<g>
		<circle cx="52" cy="25.5" r="2.5"/>
	</g>
</g>
</svg>
