<?xml version="1.0" encoding="utf-8"?>
<!-- Generator: Adobe Illustrator 24.0.0, SVG Export Plug-In . SVG Version: 6.00 Build 0)  -->
<svg version="1.1" id="Layer_1" xmlns="http://www.w3.org/2000/svg" xmlns:xlink="http://www.w3.org/1999/xlink" x="0px" y="0px"
	 viewBox="0 0 72 72" style="enable-background:new 0 0 72 72;" xml:space="preserve">
<style type="text/css">
	.st0{fill:none;}
</style>
<title>photo_camera</title>
<rect class="st0" width="72" height="72"/>
<path d="M59,17.9h-9.5l-4.4-4.4c-0.8-0.8-1.8-1.2-2.8-1.2H29.7c-1.1,0-2.1,0.4-2.8,1.2l-4.4,4.4H13c-2.2,0-4,1.8-4,4v33.7
	c0,2.2,1.8,4,4,4h46c2.2,0,4-1.8,4-4V21.9C63,19.7,61.2,17.9,59,17.9z M59,55.6H13V21.9h9.5c1.1,0,2.1-0.4,2.8-1.2l4.4-4.4h12.6
	l4.4,4.4c0.8,0.8,1.8,1.2,2.8,1.2h4H59V55.6z"/>
<path d="M36,28.3c-6.1,0-11,4.9-11,11c0,6.1,4.9,11,11,11s11-4.9,11-11C47,33.2,42.1,28.3,36,28.3z M36,46.3c-3.9,0-7-3.1-7-7
	c0-3.9,3.1-7,7-7c3.9,0,7,3.1,7,7C43,43.1,39.9,46.3,36,46.3z"/>
</svg>
