<?xml version="1.0" encoding="utf-8"?>
<!-- Generator: Adobe Illustrator 24.0.0, SVG Export Plug-In . SVG Version: 6.00 Build 0)  -->
<svg version="1.1" id="Layer_1" xmlns="http://www.w3.org/2000/svg" xmlns:xlink="http://www.w3.org/1999/xlink" x="0px" y="0px"
	 viewBox="0 0 72 72" style="enable-background:new 0 0 72 72;" xml:space="preserve">
<style type="text/css">
	.st0{fill:none;}
</style>
<title>photo</title>
<rect class="st0" width="72" height="72"/>
<g>
	<path d="M59,9H13c-2.2,0-4,1.8-4,4v46c0,2.2,1.8,4,4,4h46c2.2,0,4-1.8,4-4V13C63,10.8,61.2,9,59,9z M59,59H13V13h46V59z"/>
	<path d="M41.1,35.1l-7.9,9.1l-4.6-5.3c-1.3-1.5-3.7-1.3-4.8,0.4l-6.9,11c-1.2,2,0.2,4.6,2.5,4.6h33.2c2.4,0,3.8-2.6,2.5-4.6
		l-9.2-14.8C44.8,33.7,42.4,33.6,41.1,35.1z M21.2,50.8l5.2-8.3l4.5,5.2c1.2,1.4,3.3,1.4,4.5,0l7.8-9l7.6,12.1H21.2z"/>
	<path d="M28.8,19.5c-3.3,0-6,2.7-6,6s2.7,6,6,6s6-2.7,6-6S32.1,19.5,28.8,19.5z M28.8,28c-1.4,0-2.5-1.1-2.5-2.5
		c0-1.4,1.1-2.5,2.5-2.5c1.4,0,2.5,1.1,2.5,2.5C31.3,26.9,30.2,28,28.8,28z"/>
</g>
</svg>
