<?xml version="1.0" encoding="utf-8"?>
<!-- Generator: Adobe Illustrator 24.0.0, SVG Export Plug-In . SVG Version: 6.00 Build 0)  -->
<svg version="1.1" id="Layer_1" xmlns="http://www.w3.org/2000/svg" xmlns:xlink="http://www.w3.org/1999/xlink" x="0px" y="0px"
	 viewBox="0 0 72 72" style="enable-background:new 0 0 72 72;" xml:space="preserve">
<style type="text/css">
	.st0{fill:none;}
</style>
<title>place</title>
<rect class="st0" width="72" height="72"/>
<g>
	<g>
		<path d="M36,31.8c4.1,0,7.4-3.2,7.4-7.4c0-4.1-3.3-7.4-7.4-7.4c-4.1,0-7.4,3.2-7.4,7.4C28.6,28.5,31.9,31.8,36,31.8z M32.4,23.4
			c0.3-1.2,1.3-2.2,2.5-2.5c2.8-0.7,5.3,1.8,4.6,4.6c-0.3,1.2-1.3,2.2-2.5,2.5C34.2,28.7,31.7,26.2,32.4,23.4z"/>
		<path d="M36,7.3c-10.1,0-18.2,8.3-18.2,18.6c0,7.8,4.9,16.1,9,21.7c2.2,3,4.5,5.7,6.3,7.6c1.6,1.7,4.3,1.7,5.8,0
			c1.8-1.9,4.1-4.6,6.3-7.6c4.1-5.6,9-13.9,9-21.7C54.2,15.6,46.1,7.3,36,7.3z M36,11c7.9,0,14.4,6.6,14.4,14.7
			c0,10.2-9.8,22-14.4,27c-4.5-4.9-14.4-16.8-14.4-27C21.6,17.5,28.1,11,36,11z"/>
	</g>
	<path d="M58,64.7H14c-1.1,0-2-0.9-2-2v0c0-1.1,0.9-2,2-2h44c1.1,0,2,0.9,2,2v0C60,63.8,59.1,64.7,58,64.7z"/>
</g>
</svg>
