<?xml version="1.0" encoding="utf-8"?>
<!-- Generator: Adobe Illustrator 24.0.0, SVG Export Plug-In . SVG Version: 6.00 Build 0)  -->
<svg version="1.1" id="Layer_1" xmlns="http://www.w3.org/2000/svg" xmlns:xlink="http://www.w3.org/1999/xlink" x="0px" y="0px"
	 viewBox="0 0 72 72" style="enable-background:new 0 0 72 72;" xml:space="preserve">
<style type="text/css">
	.st0{fill:none;}
</style>
<title>place</title>
<rect class="st0" width="72" height="72"/>
<path d="M36,19.9c-4.5,0-8,3.5-8,8s3.5,8,8,8s8-3.5,8-8S40.5,19.9,36,19.9z M36,31.9c-2.2,0-4-1.8-4-4s1.8-4,4-4s4,1.8,4,4
	S38.2,31.9,36,31.9z"/>
<path d="M36,12.9c8.8,0,16,7.3,16,16.4c0,11.3-10.8,24.3-16,29.9c-5.2-5.6-16-18.6-16-29.9C20,20.2,27.2,12.9,36,12.9 M36,8.9
	c-11,0-20,9.1-20,20.4c0,12.7,11.5,26.6,17.1,32.6c1.6,1.7,4.3,1.7,5.9,0c5.6-6,17.1-19.9,17.1-32.6C56,18,47,8.9,36,8.9L36,8.9z"/>
</svg>
