<?xml version="1.0" encoding="utf-8"?>
<!-- Generator: Adobe Illustrator 24.0.0, SVG Export Plug-In . SVG Version: 6.00 Build 0)  -->
<svg version="1.1" id="Layer_1" xmlns="http://www.w3.org/2000/svg" xmlns:xlink="http://www.w3.org/1999/xlink" x="0px" y="0px"
	 viewBox="0 0 72 72" style="enable-background:new 0 0 72 72;" xml:space="preserve">
<style type="text/css">
	.st0{fill:none;}
</style>
<title>alarm_add</title>
<rect class="st0" width="72" height="72"/>
<g>
	<path d="M27,22.9L27,22.9c-1.1,0-2,0.9-2,2v14H11c-1.1,0-2,0.9-2,2v0c0,1.1,0.9,2,2,2h14v14c0,1.1,0.9,2,2,2h0c1.1,0,2-0.9,2-2v-14
		h14c1.1,0,2-0.9,2-2v0c0-1.1-0.9-2-2-2H29v-14C29,23.8,28.1,22.9,27,22.9z"/>
	<path d="M46.8,18v0.1c0,1.2,1.1,2.2,2.3,2l9.9-1.7v38.5c0,1.1,0.9,2,2,2h0c1.1,0,2-0.9,2-2V17.7v-2.6c0-1.3-1.2-2.2-2.4-1.9
		L48.4,16C47.4,16.2,46.8,17,46.8,18z"/>
</g>
</svg>
