<?xml version="1.0" encoding="utf-8"?>
<!-- Generator: Adobe Illustrator 24.0.0, SVG Export Plug-In . SVG Version: 6.00 Build 0)  -->
<svg version="1.1" id="Layer_1" xmlns="http://www.w3.org/2000/svg" xmlns:xlink="http://www.w3.org/1999/xlink" x="0px" y="0px"
	 viewBox="0 0 72 72" style="enable-background:new 0 0 72 72;" xml:space="preserve">
<style type="text/css">
	.st0{fill:none;}
</style>
<title>play_circle</title>
<rect class="st0" width="72" height="72"/>
<path d="M52.2,19.9c4.4,4.4,7.1,10.5,6.8,17.3c-0.5,11.7-9.9,21.3-21.5,22C24.1,60.1,13,49.5,13,36.3c0-6.4,2.6-12.2,6.8-16.3
	c0.8-0.8,0.8-2,0-2.8l0,0c-0.8-0.8-2-0.8-2.8,0c-5.2,5.2-8.4,12.5-8,20.5c0.6,13.6,11.6,24.8,25.3,25.7C50,64.2,63,51.7,63,36.3
	c0-7.5-3.1-14.3-8-19.2c-0.8-0.8-2-0.8-2.8,0l0,0C51.4,17.9,51.4,19.1,52.2,19.9z"/>
<path d="M36,8.7L36,8.7c1.1,0,2,0.9,2,2v27.5c0,1.1-0.9,2-2,2h0c-1.1,0-2-0.9-2-2V10.7C34,9.6,34.9,8.7,36,8.7z"/>
</svg>
