<?xml version="1.0" encoding="utf-8"?>
<!-- Generator: Adobe Illustrator 24.0.0, SVG Export Plug-In . SVG Version: 6.00 Build 0)  -->
<svg version="1.1" id="Layer_1" xmlns="http://www.w3.org/2000/svg" xmlns:xlink="http://www.w3.org/1999/xlink" x="0px" y="0px"
	 viewBox="0 0 72 72" style="enable-background:new 0 0 72 72;" xml:space="preserve">
<style type="text/css">
	.st0{fill:none;}
</style>
<title>call</title>
<rect class="st0" width="72" height="72"/>
<path d="M33.3,8.2c-2.8,0-5,2.2-5,5c0,2.8,2.2,5,5,5c2.8,0,5-2.2,5-5C38.3,10.4,36.1,8.2,33.3,8.2z M33.3,14.6
	c-0.8,0-1.4-0.6-1.4-1.4s0.6-1.4,1.4-1.4s1.4,0.6,1.4,1.4S34.1,14.6,33.3,14.6z"/>
<path d="M46.8,37.5c0-3.6-2.2-6.8-5.4-8.1c0-4.7-3.9-8.4-8.6-8.1c-4.3,0.3-7.6,4-7.6,8.3l0,13.2c0,3.6,1.8,5.4,4,5.4h1.3v9
	c0,3,2.5,5.5,5.5,5.5h0c3,0,5.5-2.5,5.5-5.5v-9h1.3c2.2,0,4-1.8,4-4V37.5z M36,58.8L36,58.8c-0.8,0-1.5-0.7-1.5-1.5v-9h3v9
	C37.5,58.1,36.9,58.8,36,58.8z M42.8,44.3H29.2l0-14.7c0-2.1,1.6-4.1,3.7-4.3c2.4-0.2,4.5,1.7,4.5,4.1v0c0,1.6,1,3.1,2.5,3.7l0,0
	c1.7,0.7,2.9,2.5,2.9,4.4V44.3z"/>
</svg>
