<?xml version="1.0" encoding="utf-8"?>
<!-- Generator: Adobe Illustrator 24.0.0, SVG Export Plug-In . SVG Version: 6.00 Build 0)  -->
<svg version="1.1" id="Layer_1" xmlns="http://www.w3.org/2000/svg" xmlns:xlink="http://www.w3.org/1999/xlink" x="0px" y="0px"
	 viewBox="0 0 72 72" style="enable-background:new 0 0 72 72;" xml:space="preserve">
<style type="text/css">
	.st0{fill:none;}
</style>
<title>print</title>
<rect class="st0" width="72" height="72"/>
<g>
	<path d="M59,25.2h-6.8v-9.5c0-2.2-1.8-4-4-4H23.8c-2.2,0-4,1.8-4,4v9.5H13c-2.2,0-4,1.8-4,4v15.5c0,2.2,1.8,4,4,4h6.8v7.6
		c0,2.2,1.8,4,4,4h24.5c2.2,0,4-1.8,4-4v-7.6H59c2.2,0,4-1.8,4-4V29.2C63,27,61.2,25.2,59,25.2z M23.8,15.7h24.5v9.5H23.8V15.7z
		 M48.3,56.3L48.3,56.3H23.8V42.7h24.5V56.3z M59,44.7h-6.8v-2c0-2.2-1.8-4-4-4H23.8c-2.2,0-4,1.8-4,4v2H13V29.2h46V44.7z"/>
	<circle cx="53" cy="34.2" r="2"/>
</g>
</svg>
