<?xml version="1.0" encoding="utf-8"?>
<!-- Generator: Adobe Illustrator 24.0.0, SVG Export Plug-In . SVG Version: 6.00 Build 0)  -->
<svg version="1.1" id="Layer_1" xmlns="http://www.w3.org/2000/svg" xmlns:xlink="http://www.w3.org/1999/xlink" x="0px" y="0px"
	 viewBox="0 0 72 72" style="enable-background:new 0 0 72 72;" xml:space="preserve">
<style type="text/css">
	.st0{fill:none;}
	.st1{display:none;}
</style>
<title>local_offer</title>
<rect class="st0" width="72" height="72"/>
<path class="st1" d="M63,30.6V19.8c0-3-2.4-5.4-5.4-5.4H14.4c-3,0-5.4,2.4-5.4,5.4v10.8c3,0,5.4,2.4,5.4,5.4S12,41.4,9,41.4v10.8
	c0,3,2.4,5.4,5.4,5.4h43.2c3,0,5.4-2.4,5.4-5.4V41.4c-3,0-5.4-2.4-5.4-5.4S60,30.6,63,30.6z M57.6,26.7c-3.2,1.9-5.4,5.4-5.4,9.3
	s2.2,7.5,5.4,9.3v6.9H14.4v-6.9c3.2-1.9,5.4-5.4,5.4-9.3c0-4-2.2-7.5-5.4-9.3l0-6.9h43.2V26.7z M28.1,46.8l7.9-5.1l7.9,5.1l-2.4-9.1
	l7.3-5.9l-9.4-0.6L36,22.5l-3.4,8.7l-9.4,0.6l7.3,5.9L28.1,46.8z"/>
<path d="M13,57.5h46c2.2,0,4-1.8,4-4V42.7c0-0.9-0.6-1.6-1.5-1.9c-2-0.6-3.5-2.5-3.5-4.8s1.5-4.1,3.5-4.8c0.9-0.3,1.5-1,1.5-1.9
	V18.5c0-2.2-1.8-4-4-4H13c-2.2,0-4,1.8-4,4v10.8c0,0.9,0.6,1.6,1.5,1.9c2,0.6,3.5,2.5,3.5,4.8s-1.5,4.1-3.5,4.8
	C9.6,41,9,41.8,9,42.7v10.8C9,55.7,10.8,57.5,13,57.5z M59,53.5H13v-9.4c3-1.5,5-4.5,5-8.1s-2-6.6-5-8.1v-9.4h46v9.4
	c-3,1.5-5,4.5-5,8.1s2,6.6,5,8.1V53.5z"/>
<g>
	<path d="M45.9,48.7L23.3,26.1c-0.8-0.8-0.8-2,0-2.8l0,0c0.8-0.8,2-0.8,2.8,0l22.6,22.6c0.8,0.8,0.8,2,0,2.8l0,0
		C47.9,49.5,46.7,49.5,45.9,48.7z"/>
	<path d="M47.3,24.7c-2-2-5.1-2-7.1,0c-2,2-2,5.1,0,7.1c2,2,5.1,2,7.1,0C49.3,29.8,49.3,26.6,47.3,24.7z M42.4,29.6
		c-0.8-0.8-0.8-2,0-2.8c0.8-0.8,2-0.8,2.8,0s0.8,2,0,2.8C44.4,30.4,43.1,30.4,42.4,29.6z"/>
	<path d="M31.8,40.2c-2-2-5.1-2-7.1,0c-2,2-2,5.1,0,7.1c2,2,5.1,2,7.1,0C33.7,45.4,33.7,42.2,31.8,40.2z M26.8,45.2
		c-0.8-0.8-0.8-2,0-2.8c0.8-0.8,2-0.8,2.8,0c0.8,0.8,0.8,2,0,2.8C28.9,46,27.6,46,26.8,45.2z"/>
</g>
</svg>
