<?xml version="1.0" encoding="utf-8"?>
<!-- Generator: Adobe Illustrator 24.0.0, SVG Export Plug-In . SVG Version: 6.00 Build 0)  -->
<svg version="1.1" id="Layer_1" xmlns="http://www.w3.org/2000/svg" xmlns:xlink="http://www.w3.org/1999/xlink" x="0px" y="0px"
	 viewBox="0 0 72 72" style="enable-background:new 0 0 72 72;" xml:space="preserve">
<style type="text/css">
	.st0{fill:none;}
</style>
<title>account_circle</title>
<rect class="st0" width="72" height="72"/>
<path d="M62.9,33.8c-1-13.1-11.6-23.7-24.7-24.7C21.6,7.8,7.8,21.6,9.1,38.2c1,13.1,11.6,23.7,24.7,24.7
	C50.4,64.2,64.2,50.4,62.9,33.8z M15.3,26C19,18.3,26.9,13,36,13c1.4,0,2.7,0.1,4,0.4v7.1h-3.7c-2.2,0-4,1.8-4,4v4.1h-7.1
	c-2,0-3.7,1.5-4,3.4L15.3,26L15.3,26z M31.5,58.5c-9.8-2-17.4-10.2-18.4-20.4c-0.2-2.8,0-5.5,0.7-8l8.6,8.6c0.8,0.8,1.8,1.2,2.8,1.2
	h2.3v8.2c0,2.2,1.8,4,4,4V58.5z M35.5,59v-7.3c0-1.7-1.3-3-3-3h-1V40H41v6.8c0,2.2,1.8,4,4,4h8.5C49.2,56,42.7,59.2,35.5,59z
	 M56.3,46.8H45V40c0-2.2-1.8-4-4-4H25.2l0,0v-3.4h7.1c2.2,0,4-1.8,4-4v-4.1H40c2.2,0,4-1.8,4-4v-6c8.8,3.2,15,11.7,15,21.6
	C59,39.9,58,43.6,56.3,46.8z"/>
</svg>
