<?xml version="1.0" encoding="utf-8"?>
<!-- Generator: Adobe Illustrator 24.0.0, SVG Export Plug-In . SVG Version: 6.00 Build 0)  -->
<svg version="1.1" id="Layer_1" xmlns="http://www.w3.org/2000/svg" xmlns:xlink="http://www.w3.org/1999/xlink" x="0px" y="0px"
	 viewBox="0 0 72 72" style="enable-background:new 0 0 72 72;" xml:space="preserve">
<style type="text/css">
	.st0{fill:none;}
</style>
<title>place</title>
<rect class="st0" width="72" height="72"/>
<g>
	<g id="Outline">
		<g id="ui_x5F_spec_x5F_header">
		</g>
		<g id="XMLID_1588_">
			<g id="XMLID_1589_" transform="matrix(1 0 0 1 144 120)">
				<path d="M-134.7-101.9L-134.7-101.9c0,1.1,0.9,2,2,2h30.1c1.1,0,2-0.9,2-2l0,0c0-1.1-0.9-2-2-2h-30.1
					C-133.8-103.9-134.7-103-134.7-101.9z"/>
				<path d="M-134.7-90.5L-134.7-90.5c0,1.1,0.9,2,2,2h30.1c1.1,0,2-0.9,2-2v0c0-1.1-0.9-2-2-2h-30.1
					C-133.8-92.5-134.7-91.6-134.7-90.5z"/>
				<path d="M-134.7-79.1L-134.7-79.1c0,1.1,0.9,2,2,2h18.7c1.1,0,2-0.9,2-2v0c0-1.1-0.9-2-2-2h-18.7
					C-133.8-81.1-134.7-80.2-134.7-79.1z"/>
			</g>
		</g>
	</g>
	<path d="M54.7,20.1h6c1.1,0,2-0.9,2-2v0c0-1.1-0.9-2-2-2h-8c-1.1,0-2,0.9-2,2v22.1c-1.6-1-3.6-1.5-5.7-1.2
		c-3.8,0.5-6.8,3.6-7.2,7.4c-0.6,5.3,3.7,9.8,8.9,9.5c4.6-0.2,8-4.2,8-8.8V20.1z M45.9,51.9c-2.5,0-4.5-2-4.5-4.5s2-4.5,4.5-4.5
		s4.5,2,4.5,4.5S48.4,51.9,45.9,51.9z"/>
</g>
</svg>
