<?xml version="1.0" encoding="utf-8"?>
<!-- Generator: Adobe Illustrator 24.0.0, SVG Export Plug-In . SVG Version: 6.00 Build 0)  -->
<svg version="1.1" id="Layer_1" xmlns="http://www.w3.org/2000/svg" xmlns:xlink="http://www.w3.org/1999/xlink" x="0px" y="0px"
	 viewBox="0 0 72 72" style="enable-background:new 0 0 72 72;" xml:space="preserve">
<style type="text/css">
	.st0{fill:none;}
</style>
<title>photo_camera</title>
<rect x="0.2" class="st0" width="72" height="72"/>
<circle cx="25.7" cy="49.2" r="4"/>
<path d="M20.7,22.4L45,12.5c1-0.4,1.5-1.6,1.1-2.6l0,0c-0.4-1-1.6-1.5-2.6-1.1l-29.8,12C11.5,21.8,10,24,10,26.4v32.9
	c0,2.2,1.8,4,4,4l44,0c2.2,0,4-1.8,4-4v-33c0-2.2-1.8-4-4-4H20.7z M58,59.4H14v-20h44V59.4z M58,35.4h-7.1v-3.5c0-1.1-0.9-2-2-2h0
	c-1.1,0-2,0.9-2,2v3.5H14v-9h44V35.4z"/>
</svg>
