<?xml version="1.0" encoding="utf-8"?>
<!-- Generator: Adobe Illustrator 24.0.0, SVG Export Plug-In . SVG Version: 6.00 Build 0)  -->
<svg version="1.1" id="Layer_1" xmlns="http://www.w3.org/2000/svg" xmlns:xlink="http://www.w3.org/1999/xlink" x="0px" y="0px"
	 viewBox="0 0 72 72" style="enable-background:new 0 0 72 72;" xml:space="preserve">
<style type="text/css">
	.st0{fill:none;}
</style>
<title>receipt</title>
<path d="M60.2,8.9l-4.8,4.8l-5.1-5.1c-0.8-0.8-2-0.8-2.8,0l-5.1,5.1l-5.1-5.1c-0.8-0.8-2-0.8-2.8,0l-5.1,5.1l-5.1-5.1
	c-0.8-0.8-2-0.8-2.8,0l-5.1,5.1l-4.8-4.8C11,8.3,9.9,8.7,9.9,9.6v52.8c0,0.9,1.1,1.3,1.7,0.7l4.8-4.8l5.1,5.1c0.8,0.8,2,0.8,2.8,0
	l5.1-5.1l5.1,5.1c0.8,0.8,2,0.8,2.8,0l5.1-5.1l5.1,5.1c0.8,0.8,2,0.8,2.8,0l5.1-5.1l4.8,4.8c0.6,0.6,1.7,0.2,1.7-0.7v-3.2V12.8V9.6
	C61.9,8.7,60.9,8.2,60.2,8.9z M57.9,55.2l-1.1-1.1c-0.8-0.8-2-0.8-2.8,0l-5,5.1l-5.1-5.1c-0.8-0.8-2-0.8-2.8,0L36,59.2l-5.1-5.1
	c-0.8-0.8-2-0.8-2.8,0L23,59.2l-5-5.1c-0.8-0.8-2-0.8-2.8,0l-1.1,1.1V16.8l1.1,1.1c0.8,0.8,2,0.8,2.8,0l5.1-5.1l5.1,5.1
	c0.8,0.8,2,0.8,2.8,0l5.1-5.1l5.1,5.1c0.8,0.8,2,0.8,2.8,0l5.1-5.1l5.1,5.1c0.8,0.8,2,0.8,2.8,0l1.1-1.1v38.4H57.9z"/>
<g>
	<path d="M49.7,27.5h-28c-1.1,0-2-0.9-2-2l0,0c0-1.1,0.9-2,2-2h28c1.1,0,2,0.9,2,2l0,0C51.7,26.6,50.8,27.5,49.7,27.5z"/>
	<path d="M49.7,38h-28c-1.1,0-2-0.9-2-2l0,0c0-1.1,0.9-2,2-2h28c1.1,0,2,0.9,2,2l0,0C51.7,37.1,50.8,38,49.7,38z"/>
	<path d="M49.7,48.5h-28c-1.1,0-2-0.9-2-2l0,0c0-1.1,0.9-2,2-2h28c1.1,0,2,0.9,2,2l0,0C51.7,47.6,50.8,48.5,49.7,48.5z"/>
</g>
<rect class="st0" width="72" height="72"/>
</svg>
