<?xml version="1.0" encoding="utf-8"?>
<!-- Generator: Adobe Illustrator 24.0.0, SVG Export Plug-In . SVG Version: 6.00 Build 0)  -->
<svg version="1.1" id="Layer_1" xmlns="http://www.w3.org/2000/svg" xmlns:xlink="http://www.w3.org/1999/xlink" x="0px" y="0px"
	 viewBox="0 0 72 72" style="enable-background:new 0 0 72 72;" xml:space="preserve">
<style type="text/css">
	.st0{fill:none;}
</style>
<title>refresh</title>
<rect class="st0" width="72" height="72"/>
<path d="M56.6,47.2L56.6,47.2c-0.8-0.1-1.6,0.2-2,0.9c-1.7,2.6-3.9,4.9-6.8,6.6c-9.1,5.5-21.2,3.2-27.7-5.3
	c-7.2-9.6-5-23.2,4.8-29.9c9-6.2,21.1-4.5,28,3.7h-7.8c-1.1,0-2,0.9-2,2v0c0,1.1,0.9,2,2,2h13c1.1,0,2-0.9,2-2v-13c0-1.1-0.9-2-2-2
	h0c-1.1,0-2,0.9-2,2v8.6c-8.6-10.4-24.4-12.3-35.2-3.3c-9.4,7.8-11.8,21.6-5.5,32.1c7.5,12.5,23.9,15.9,35.7,7.7
	c2.8-1.9,5.1-4.3,6.8-7C58.7,49.1,58,47.5,56.6,47.2z"/>
</svg>
