<?xml version="1.0" encoding="utf-8"?>
<!-- Generator: Adobe Illustrator 24.0.0, SVG Export Plug-In . SVG Version: 6.00 Build 0)  -->
<svg version="1.1" id="Layer_1" xmlns="http://www.w3.org/2000/svg" xmlns:xlink="http://www.w3.org/1999/xlink" x="0px" y="0px"
	 viewBox="0 0 72 72" style="enable-background:new 0 0 72 72;" xml:space="preserve">
<style type="text/css">
	.st0{fill:none;}
</style>
<title>info</title>
<rect class="st0" width="72" height="72"/>
<g>
	<path d="M49.6,11.6L49.6,11.6c-0.8,0.8-0.8,2,0,2.8l3.2,3.2H19.5c-1.1,0-2,0.9-2,2v8.2c0,1.1,0.9,2,2,2h0c1.1,0,2-0.9,2-2v-6.2
		h31.3l-3.2,3.2c-0.8,0.8-0.8,2,0,2.8v0c0.8,0.8,2,0.8,2.8,0l6.6-6.6c0.8-0.8,0.8-2,0-2.8l-6.6-6.6C51.6,10.8,50.4,10.8,49.6,11.6z"
		/>
	<path d="M22.4,60.4L22.4,60.4c0.8-0.8,0.8-2,0-2.8l-3.2-3.2h33.3c1.1,0,2-0.9,2-2v-8.2c0-1.1-0.9-2-2-2h0c-1.1,0-2,0.9-2,2v6.2
		H19.2l3.2-3.2c0.8-0.8,0.8-2,0-2.8l0,0c-0.8-0.8-2-0.8-2.8,0l-6.6,6.6c-0.8,0.8-0.8,2,0,2.8l6.6,6.6C20.4,61.2,21.6,61.2,22.4,60.4
		z"/>
	<path d="M37.4,27.4l-4.8,2.4c-0.3,0.2-0.6,0.5-0.6,0.9v1.1c0,0.6,0.4,1,1,1h3.1v9.8c0,1.1,0.9,2,2,2h0c1.1,0,2-0.9,2-2V29.4
		c0-1.1-0.9-2-2-2H37.4z"/>
</g>
</svg>
