<?xml version="1.0" encoding="utf-8"?>
<!-- Generator: Adobe Illustrator 24.0.0, SVG Export Plug-In . SVG Version: 6.00 Build 0)  -->
<svg version="1.1" id="Layer_1" xmlns="http://www.w3.org/2000/svg" xmlns:xlink="http://www.w3.org/1999/xlink" x="0px" y="0px"
	 viewBox="0 0 72 72" style="enable-background:new 0 0 72 72;" xml:space="preserve">
<style type="text/css">
	.st0{fill:none;}
</style>
<title>report</title>
<rect class="st0" width="72" height="72"/>
<path d="M45.5,9H26.5c-1.1,0-2.1,0.4-2.8,1.2L10.2,23.6C9.4,24.4,9,25.4,9,26.5v19.1c0,1.1,0.4,2.1,1.2,2.8l13.5,13.5
	c0.8,0.8,1.8,1.2,2.8,1.2h19.1c1.1,0,2.1-0.4,2.8-1.2l13.5-13.5c0.8-0.8,1.2-1.8,1.2-2.8V26.5c0-1.1-0.4-2.1-1.2-2.8L48.4,10.2
	C47.6,9.4,46.6,9,45.5,9z M59,45.5L45.5,59h-19L13,45.5v-19L26.5,13h19.1L59,26.5V45.5z"/>
<g>
	<path d="M36,21.9L36,21.9c-1.1,0-2,0.9-2,2v14c0,1.1,0.9,2,2,2h0c1.1,0,2-0.9,2-2v-14C38,22.8,37.1,21.9,36,21.9z"/>
	<path d="M33.5,45.5L33.5,45.5c0,1.4,1.1,2.5,2.5,2.5h0c1.4,0,2.5-1.1,2.5-2.5v0c0-1.4-1.1-2.5-2.5-2.5h0
		C34.6,43,33.5,44.1,33.5,45.5z"/>
</g>
</svg>
