<?xml version="1.0" encoding="utf-8"?>
<!-- Generator: Adobe Illustrator 24.0.0, SVG Export Plug-In . SVG Version: 6.00 Build 0)  -->
<svg version="1.1" id="Layer_1" xmlns="http://www.w3.org/2000/svg" xmlns:xlink="http://www.w3.org/1999/xlink" x="0px" y="0px"
	 viewBox="0 0 72 72" style="enable-background:new 0 0 72 72;" xml:space="preserve">
<style type="text/css">
	.st0{fill:none;}
</style>
<path class="st0" d="M0,0h72v72H0V0z"/>
<path d="M45.9,16.2c-4.4,4.4-5.9,10.4-3.7,14.4L15,57.8c-0.8,0.8-0.8,2,0,2.8h0c0.8,0.8,2,0.8,2.8,0l19.2-19.2l19.2,19.2
	c0.8,0.8,2,0.8,2.8,0h0c0.8-0.8,0.8-2,0-2.8L39.9,38.6l5.2-5.2C49,35.4,55,34,59.4,29.6c5.1-5.1,6.2-12.2,2.5-15.9
	C58.2,10,51,11.1,45.9,16.2z M56.5,26.8c-3.5,3.5-8.1,4.6-10.3,2.5c-2.1-2.1-1-6.7,2.5-10.3s8.1-4.6,10.3-2.5
	C61.2,18.7,60,23.3,56.5,26.8z"/>
<path d="M12.4,27.7l13.4,13.4l8.5-8.5L13.8,12.2l-1.4,1.4C8.5,17.5,8.5,23.8,12.4,27.7z M29,32.3l-3.5,3.5L14.2,24.5
	c-2-2-2-5.1,0-7.1l0,0L29,32.3z"/>
</svg>
