<?xml version="1.0" encoding="utf-8"?>
<!-- Generator: Adobe Illustrator 24.0.0, SVG Export Plug-In . SVG Version: 6.00 Build 0)  -->
<svg version="1.1" id="Layer_1" xmlns="http://www.w3.org/2000/svg" xmlns:xlink="http://www.w3.org/1999/xlink" x="0px" y="0px"
	 viewBox="0 0 72 72" style="enable-background:new 0 0 72 72;" xml:space="preserve">
<style type="text/css">
	.st0{fill:none;}
</style>
<path class="st0" d="M0,0h72v72H0V0z"/>
<g>
	<path d="M47.8,16.8v24h8v20.4c0,1.1,0.9,2,2,2h0c1.1,0,2-0.9,2-2V40.8v-1.6V8.8h-4C51.4,8.8,47.8,12.4,47.8,16.8z M55.8,12.8
		L55.8,12.8l0,24h-4v-20C51.8,14.6,53.6,12.8,55.8,12.8z"/>
	<path d="M36.2,9c-1.1,0-2,0.9-2,2v15c0,4.3-3,7.9-7,8.8V11c0-1.1-0.9-2-2-2h0c-1.1,0-2,0.9-2,2v23.8c-4-0.9-7-4.5-7-8.8V11
		c0-1.1-0.9-2-2-2h0c-1.1,0-2,0.9-2,2v15c0,6.5,4.8,11.8,11,12.8V61c0,1.1,0.9,2,2,2h0c1.1,0,2-0.9,2-2V38.8c6.2-0.9,11-6.3,11-12.8
		V11C38.2,9.9,37.3,9,36.2,9L36.2,9z"/>
</g>
</svg>
