<?xml version="1.0" encoding="utf-8"?>
<!-- Generator: Adobe Illustrator 24.0.0, SVG Export Plug-In . SVG Version: 6.00 Build 0)  -->
<svg version="1.1" id="Layer_1" xmlns="http://www.w3.org/2000/svg" xmlns:xlink="http://www.w3.org/1999/xlink" x="0px" y="0px"
	 viewBox="0 0 72 72" style="enable-background:new 0 0 72 72;" xml:space="preserve">
<style type="text/css">
	.st0{fill:none;}
	.st1{display:none;opacity:0.68;fill:#DD2C2C;}
</style>
<title>info</title>
<rect class="st0" width="72" height="72"/>
<path class="st1" d="M39.4,41.4c-9.7,0-17.5,7.8-17.5,17.5s7.8,17.5,17.5,17.5s17.5-7.8,17.5-17.5S49,41.4,39.4,41.4z"/>
<g>
	<path d="M42.3,23.2C42.2,23.1,42.1,23,42,23c-8.1-8.1-18.4-12.7-29-13.7l0,0c-2.2-0.2-4,1.6-3.8,3.8l0,0c1,10.6,5.6,20.9,13.7,29
		c0.1,0.1,0.2,0.2,0.2,0.2c-1.2,6.1,1,12.3,5.5,16.3c0.9,0.8,1.8,1.5,2.9,2.1c0.8,0.4,1.7-0.3,1.5-1.1c-0.3-1-0.5-2-0.6-3.1
		c-0.2-2.3,0-4.6,0.6-6.8c0.9,0.5,1.7,0.9,2.6,1.4c1.3,0.7,3,0.4,4-0.7l10.8-10.8c1.1-1.1,1.3-2.7,0.7-4c-0.4-0.9-0.9-1.7-1.4-2.6
		c2.2-0.6,4.5-0.9,6.8-0.6c1,0.1,2.1,0.3,3.1,0.6c0.9,0.2,1.6-0.7,1.1-1.5c-0.6-1-1.3-2-2.1-2.9C54.6,24.2,48.4,22,42.3,23.2z
		 M28.5,52.1c-1.1-2-1.6-4.2-1.6-6.5c0.9,0.7,1.8,1.4,2.7,2C29.1,49,28.7,50.5,28.5,52.1z M47.3,37.1L37.1,47.4
		c-4.1-2-7.9-4.7-11.3-8.2C18.5,32,14.4,22.8,13.3,13.3c9.5,1.1,18.6,5.2,25.9,12.4C42.6,29.2,45.3,33,47.3,37.1z M47.5,29.6
		c-0.6-0.9-1.3-1.8-2-2.7c2.3,0,4.5,0.6,6.5,1.6C50.5,28.7,49,29.1,47.5,29.6z"/>
	<path d="M23.7,23.7c-2.3,2.3-2.3,6.1,0,8.5s6.1,2.3,8.5,0c2.3-2.3,2.3-6.1,0-8.5S26.1,21.4,23.7,23.7z M29.4,29.4
		c-0.8,0.8-2,0.8-2.8,0c-0.8-0.8-0.8-2,0-2.8c0.8-0.8,2-0.8,2.8,0C30.2,27.4,30.2,28.6,29.4,29.4z"/>
	<g>
		<path d="M53,45.2l6.4,6.4c0.8,0.8,2,0.8,2.8,0l0,0c0.8-0.8,0.8-2,0-2.8l-6.4-6.4c-0.8-0.8-2-0.8-2.8,0v0
			C52.2,43.1,52.2,44.4,53,45.2z"/>
		<path d="M51.6,62.2L51.6,62.2c0.8-0.8,0.8-2,0-2.8L45.2,53c-0.8-0.8-2-0.8-2.8,0v0c-0.8,0.8-0.8,2,0,2.8l6.4,6.4
			C49.5,62.9,50.8,62.9,51.6,62.2z"/>
		<path d="M59,59L59,59c0.8-0.8,0.8-2,0-2.8l-8.5-8.5c-0.8-0.8-2-0.8-2.8,0l0,0c-0.8,0.8-0.8,2,0,2.8l8.5,8.5
			C57,59.8,58.2,59.8,59,59z"/>
	</g>
</g>
</svg>
