<?xml version="1.0" encoding="utf-8"?>
<!-- Generator: Adobe Illustrator 24.0.0, SVG Export Plug-In . SVG Version: 6.00 Build 0)  -->
<svg version="1.1" id="Layer_1" xmlns="http://www.w3.org/2000/svg" xmlns:xlink="http://www.w3.org/1999/xlink" x="0px" y="0px"
	 viewBox="0 0 72 72" style="enable-background:new 0 0 72 72;" xml:space="preserve">
<style type="text/css">
	.st0{fill:none;}
</style>
<title>report</title>
<rect class="st0" width="72" height="72"/>
<g>
	<path d="M38,22.6v-3.1c0-1.1-0.9-2-2-2h0c-1.1,0-2,0.9-2,2v3.1c-10.7,0.9-19.4,8.8-21.5,19.1c-0.5,2.5,1.4,4.9,3.9,4.9h39.2
		c2.6,0,4.4-2.4,3.9-4.9C57.4,31.4,48.7,23.5,38,22.6z M36,26.5c9.7,0,17.7,6.9,19.6,16H16.4C18.3,33.4,26.3,26.5,36,26.5z"/>
	<path d="M9,52.5L9,52.5c0,1.1,0.9,2,2,2h50c1.1,0,2-0.9,2-2v0c0-1.1-0.9-2-2-2H11C9.9,50.5,9,51.4,9,52.5z"/>
</g>
</svg>
