<?xml version="1.0" encoding="utf-8"?>
<!-- Generator: Adobe Illustrator 24.0.0, SVG Export Plug-In . SVG Version: 6.00 Build 0)  -->
<svg version="1.1" id="Layer_1" xmlns="http://www.w3.org/2000/svg" xmlns:xlink="http://www.w3.org/1999/xlink" x="0px" y="0px"
	 viewBox="0 0 72 72" style="enable-background:new 0 0 72 72;" xml:space="preserve">
<style type="text/css">
	.st0{fill:none;}
</style>
<title>refresh</title>
<rect class="st0" width="72" height="72"/>
<g>
	<path d="M17.9,54l2.7-2.7c-1.8-2.4-3.1-5.2-3.6-8.3h-3.9C13.7,47,15.4,50.8,17.9,54z"/>
	<path d="M16.9,37.2c0.5-3.9,2.2-7.4,4.7-10.2c0.7-0.8,0.7-1.9-0.1-2.6l0,0c-0.8-0.8-2.1-0.8-2.8,0.1c-3.1,3.5-5.2,7.9-5.7,12.8
		H16.9z"/>
	<path d="M33.1,58.6c-3.1-0.5-5.9-1.7-8.3-3.4L22,58c3.2,2.4,7,4,11.1,4.5V58.6z"/>
	<path d="M37.1,16.7l3.8-3.8c0.8-0.8,0.8-2,0-2.8l0,0c-0.8-0.8-2-0.8-2.8,0L31,17.2c-0.8,0.8-0.8,2,0,2.8l7.1,7.1
		c0.8,0.8,2,0.8,2.8,0l0,0c0.8-0.8,0.8-2,0-2.8l-3.7-3.7c10,0.7,17.9,9,17.9,19.1c0,9.6-7.1,17.6-16.3,18.9v3.9
		c11.4-1.4,20.1-11.1,20.1-22.8C58.9,27.4,49.3,17.3,37.1,16.7z"/>
</g>
</svg>
