<?xml version="1.0" encoding="utf-8"?>
<!-- Generator: Adobe Illustrator 24.0.0, SVG Export Plug-In . SVG Version: 6.00 Build 0)  -->
<svg version="1.1" id="Layer_1" xmlns="http://www.w3.org/2000/svg" xmlns:xlink="http://www.w3.org/1999/xlink" x="0px" y="0px"
	 viewBox="0 0 72 72" style="enable-background:new 0 0 72 72;" xml:space="preserve">
<style type="text/css">
	.st0{fill:none;}
</style>
<title>lock</title>
<rect class="st0" width="72" height="72"/>
<g>
	<path d="M50,39V29c0-1.1-0.9-2-2-2h0c-1.1,0-2,0.9-2,2v10H13c-2.2,0-4,1.8-4,4v16c0,2.2,1.8,4,4,4h46c2.2,0,4-1.8,4-4V43
		c0-2.2-1.8-4-4-4H50z M59,59H13V43h46V59z"/>
	<path d="M39.9,21.5L39.9,21.5c0.7,0.7,1.7,0.8,2.5,0.3C44,20.6,46,20,48.1,20c2.1,0,4.1,0.7,5.7,1.8c0.8,0.5,1.8,0.4,2.5-0.3l0,0
		c0.9-0.9,0.8-2.3-0.3-3c-2.3-1.6-5-2.5-8-2.5c-3,0-5.7,0.9-8,2.5C39.1,19.2,39,20.6,39.9,21.5z"/>
	<path d="M48.1,13c4,0,7.7,1.4,10.6,3.7c0.8,0.6,1.9,0.6,2.7-0.1l0,0c0.8-0.8,0.8-2.2-0.1-3C57.6,10.7,53.1,9,48.1,9
		c-5,0-9.5,1.7-13.1,4.6c-0.9,0.7-1,2.1-0.1,3l0,0c0.7,0.7,1.9,0.8,2.7,0.1C40.5,14.4,44.1,13,48.1,13z"/>
	<path d="M22.5,48.5h-3c-0.6,0-1,0.4-1,1v3c0,0.6,0.4,1,1,1h3c0.6,0,1-0.4,1-1v-3C23.5,49,23.1,48.5,22.5,48.5z"/>
	<path d="M33,48.5h-3c-0.6,0-1,0.4-1,1v3c0,0.6,0.4,1,1,1h3c0.6,0,1-0.4,1-1v-3C34,49,33.6,48.5,33,48.5z"/>
	<path d="M43.5,48.5h-3c-0.6,0-1,0.4-1,1v3c0,0.6,0.4,1,1,1h3c0.6,0,1-0.4,1-1v-3C44.5,49,44.1,48.5,43.5,48.5z"/>
</g>
</svg>
