<?xml version="1.0" encoding="utf-8"?>
<!-- Generator: Adobe Illustrator 24.0.0, SVG Export Plug-In . SVG Version: 6.00 Build 0)  -->
<svg version="1.1" id="Layer_1" xmlns="http://www.w3.org/2000/svg" xmlns:xlink="http://www.w3.org/1999/xlink" x="0px" y="0px"
	 viewBox="0 0 72 72" style="enable-background:new 0 0 72 72;" xml:space="preserve">
<style type="text/css">
	.st0{fill:none;}
</style>
<title>call</title>
<rect class="st0" width="72" height="72"/>
<path d="M41.7,19.4c2.8,0,5-2.2,5-5c0-2.8-2.2-5-5-5s-5,2.2-5,5C36.7,17.1,38.9,19.4,41.7,19.4z M41.7,12.7c0.9,0,1.7,0.8,1.7,1.7
	S42.6,16,41.7,16S40,15.3,40,14.4S40.8,12.7,41.7,12.7z"/>
<path d="M26.9,43.8c-1.1,0-2.1,0.4-2.8,1.2l-6.4,6.4c-0.8,0.8-0.8,2,0,2.8l0,0c0.8,0.8,2,0.8,2.8,0l6.4-6.4h7.4l-4-4H26.9z"/>
<path d="M52,52.9c-1.7-1.7-4-2.5-6.3-2.2L30.4,35.4c2-0.9,3.9-2.1,5.5-3.5v6.2l4,4V27.5c0-0.8,0.7-1.5,1.5-1.5s1.5,0.7,1.5,1.5v16.3
	h-1.3l3.4,3.4c1.1-0.7,1.9-2,1.9-3.4V27.5c0-3.3-2.9-5.9-6.2-5.5c-1.7,0.2-3.2,1.3-4.1,2.8c-2.4,4.1-6.5,7-11.3,8
	c-0.9,0.2-1.6,0.8-1.7,1.7c-0.2,1.4,1,2.5,2.3,2.3c0.1,0,0.1,0,0.2,0l16.8,16.8c-0.3,2.3,0.5,4.7,2.2,6.3l1.6,1.6
	c1.6,1.6,4.1,1.6,5.7,0l1.3-1.3c1.6-1.6,1.6-4.1,0-5.7L52,52.9z M47.2,57.7c-0.8-0.8-1.3-1.8-1.3-2.9l1.2-1.2
	c1.1,0.1,2.1,0.6,2.9,1.3l2.3,2.3l-2.7,2.7L47.2,57.7z"/>
</svg>
