<?xml version="1.0" encoding="utf-8"?>
<!-- Generator: Adobe Illustrator 24.0.0, SVG Export Plug-In . SVG Version: 6.00 Build 0)  -->
<svg version="1.1" id="Layer_1" xmlns="http://www.w3.org/2000/svg" xmlns:xlink="http://www.w3.org/1999/xlink" x="0px" y="0px"
	 viewBox="0 0 72 72" style="enable-background:new 0 0 72 72;" xml:space="preserve">
<style type="text/css">
	.st0{fill:none;}
</style>
<title>lock</title>
<rect class="st0" width="72" height="72"/>
<g>
	<path d="M22.8,44.1h-3c-0.6,0-1,0.4-1,1v2c0,0.6,0.4,1,1,1h3c0.6,0,1-0.4,1-1v-2C23.8,44.6,23.3,44.1,22.8,44.1z"/>
	<path d="M52.2,44.1h-22c-0.6,0-1,0.4-1,1v2c0,0.6,0.4,1,1,1h22c0.6,0,1-0.4,1-1v-2C53.2,44.6,52.8,44.1,52.2,44.1z"/>
	<path d="M9.7,15.2L9.7,15.2c-0.4,1,0.2,2.2,1.2,2.6l45,16.4H13c-2.2,0-4,1.8-4,4v16c0,2.2,1.8,4,4,4h46c2.2,0,4-1.8,4-4V35.3
		c0-1.7-1.1-3.2-2.6-3.8L12.2,14C11.2,13.6,10.1,14.2,9.7,15.2z M59,54.1H13v-16h46V54.1z"/>
</g>
</svg>
