<?xml version="1.0" encoding="utf-8"?>
<!-- Generator: Adobe Illustrator 24.0.0, SVG Export Plug-In . SVG Version: 6.00 Build 0)  -->
<svg version="1.1" id="Layer_1" xmlns="http://www.w3.org/2000/svg" xmlns:xlink="http://www.w3.org/1999/xlink" x="0px" y="0px"
	 viewBox="0 0 72 72" style="enable-background:new 0 0 72 72;" xml:space="preserve">
<style type="text/css">
	.st0{fill:none;}
</style>
<title>all_out</title>
<rect class="st0" width="72" height="72"/>
<path d="M52,42v5.2l-9.4-9.4l-6.4-6.4L26.8,22H32c1.1,0,2-0.9,2-2v0c0-1.1-0.9-2-2-2H22c-1.1,0-2,0.9-2,2v10c0,1.1,0.9,2,2,2h0
	c1.1,0,2-0.9,2-2v-5.2l9.4,9.4l6.4,6.4l9.4,9.4H44c-1.1,0-2,0.9-2,2v0c0,1.1,0.9,2,2,2h10c1.1,0,2-0.9,2-2V42c0-1.1-0.9-2-2-2h0
	C52.9,40,52,40.9,52,42z"/>
<path d="M11,13v46c0,2.2,1.8,4,4,4h46c2.2,0,4-1.8,4-4V13c0-2.2-1.8-4-4-4H15C12.8,9,11,10.8,11,13z M61,59H15V13h46V59z"/>
</svg>
