<?xml version="1.0" encoding="utf-8"?>
<!-- Generator: Adobe Illustrator 24.0.0, SVG Export Plug-In . SVG Version: 6.00 Build 0)  -->
<svg version="1.1" id="Layer_1" xmlns="http://www.w3.org/2000/svg" xmlns:xlink="http://www.w3.org/1999/xlink" x="0px" y="0px"
	 viewBox="0 0 72 72" style="enable-background:new 0 0 72 72;" xml:space="preserve">
<style type="text/css">
	.st0{fill:none;}
</style>
<title>ic_3d_rotation</title>
<rect class="st0" width="72" height="72"/>
<path d="M36.3,12l5.4,5.5c0.8,0.8,2.1,0.8,2.8,0l1.1-1.1c7,3.2,12.1,9.9,13.2,17.9c0.1,1,1,1.8,2.1,1.7h0c1.2-0.1,2-1.1,1.9-2.3
	c-1.7-13-12.7-23-25.8-23.4C36.1,10.3,35.7,11.4,36.3,12z"/>
<path d="M35.7,60l-5.4-5.5c-0.8-0.8-2.1-0.8-2.8,0l-1.1,1.1c-7-3.2-12.1-9.9-13.2-17.9c-0.1-1-1-1.8-2.1-1.7h0
	c-1.2,0.1-2,1.1-1.9,2.3c1.7,13,12.7,23,25.8,23.4C35.9,61.7,36.3,60.6,35.7,60z"/>
<path d="M27.2,15.6L15.6,27.2c-1.6,1.6-1.6,4.1,0,5.7l23.5,23.5c1.6,1.6,4.1,1.6,5.7,0l11.6-11.6c1.6-1.6,1.6-4.1,0-5.7L32.9,15.6
	C31.3,14,28.8,14,27.2,15.6z M41.9,53.6L18.4,30.1l11.6-11.6l23.5,23.5L41.9,53.6z"/>
</svg>
