<?xml version="1.0" encoding="utf-8"?>
<!-- Generator: Adobe Illustrator 24.0.0, SVG Export Plug-In . SVG Version: 6.00 Build 0)  -->
<svg version="1.1" id="Layer_1" xmlns="http://www.w3.org/2000/svg" xmlns:xlink="http://www.w3.org/1999/xlink" x="0px" y="0px"
	 viewBox="0 0 72 72" style="enable-background:new 0 0 72 72;" xml:space="preserve">
<style type="text/css">
	.st0{fill:none;}
</style>
<title>search</title>
<rect class="st0" width="72" height="72"/>
<g>
	<path d="M31.5,9.5C18.8,8.3,8.3,18.8,9.5,31.5c0.9,9.4,8.5,16.9,17.9,17.9c6.3,0.6,12.1-1.7,16.2-5.8c4.1-4.1,6.4-9.9,5.8-16.2
		C48.4,18,40.8,10.5,31.5,9.5z M31.5,45.3c-10.5,1.3-19.3-7.5-17.9-17.9c0.9-7.1,6.7-12.9,13.8-13.8c10.5-1.3,19.3,7.5,17.9,17.9
		C44.4,38.7,38.7,44.4,31.5,45.3z"/>
	<path d="M62,62L62,62c0.8-0.8,0.8-2,0-2.8L46.4,43.6c-0.8-0.8-2-0.8-2.8,0l0,0l0,0c-0.8,0.8-0.8,2,0,2.8L59.1,62
		C59.9,62.8,61.2,62.8,62,62z"/>
</g>
</svg>
