<?xml version="1.0" encoding="utf-8"?>
<!-- Generator: Adobe Illustrator 24.0.0, SVG Export Plug-In . SVG Version: 6.00 Build 0)  -->
<svg version="1.1" id="Layer_1" xmlns="http://www.w3.org/2000/svg" xmlns:xlink="http://www.w3.org/1999/xlink" x="0px" y="0px"
	 viewBox="0 0 72 72" style="enable-background:new 0 0 72 72;" xml:space="preserve">
<style type="text/css">
	.st0{fill:none;}
</style>
<title>info</title>
<rect class="st0" width="72" height="72"/>
<path d="M34.3,9.4l-18,8c-1.4,0.6-2.4,2.1-2.4,3.7V33c0,13.6,8.7,25.3,20.8,29.6c0.8,0.3,1.7,0.3,2.6,0c12.1-4.4,20.8-16,20.8-29.6
	V21.2c0-1.6-0.9-3-2.4-3.7L37.5,9.4C36.5,9,35.3,9,34.3,9.4z M54.1,31.7H40V14.9l14.1,6.3V31.7z M17.9,21.1l18-8l0.1,0v22.5H18
	c-0.1-0.9-0.1-1.7-0.1-2.6V21.1z M18.7,39.7H32V57C25.5,53.4,20.6,47.1,18.7,39.7z M36,58.9V35.7h17.9C52.9,46.4,45.7,55.3,36,58.9z
	"/>
</svg>
