<?xml version="1.0" encoding="utf-8"?>
<!-- Generator: Adobe Illustrator 24.0.0, SVG Export Plug-In . SVG Version: 6.00 Build 0)  -->
<svg version="1.1" id="Layer_1" xmlns="http://www.w3.org/2000/svg" xmlns:xlink="http://www.w3.org/1999/xlink" x="0px" y="0px"
	 viewBox="0 0 72 72" style="enable-background:new 0 0 72 72;" xml:space="preserve">
<style type="text/css">
	.st0{fill:none;}
</style>
<title>send</title>
<rect class="st0" width="72" height="72"/>
<path d="M60.3,34.2L16,15.4c-2.6-1.1-5.6,0.8-5.6,3.7v8.5c0,2,1.5,3.7,3.5,4L50.3,36L14,40.5c-2,0.2-3.5,1.9-3.5,4V53
	c0,2.9,2.9,4.8,5.6,3.7l44.3-18.8C61.9,37.2,61.9,34.8,60.3,34.2z M14.5,27.6V19l28.3,12L14.5,27.6z M14.5,53v-8.5L42.7,41L14.5,53z
	"/>
</svg>
