<?xml version="1.0" encoding="utf-8"?>
<!-- Generator: Adobe Illustrator 24.0.0, SVG Export Plug-In . SVG Version: 6.00 Build 0)  -->
<svg version="1.1" id="Layer_1" xmlns="http://www.w3.org/2000/svg" xmlns:xlink="http://www.w3.org/1999/xlink" x="0px" y="0px"
	 viewBox="0 0 72 72" style="enable-background:new 0 0 72 72;" xml:space="preserve">
<style type="text/css">
	.st0{fill:none;}
</style>
<title>tag_faces</title>
<rect class="st0" width="72" height="72"/>
<path d="M36,9C21.1,9,9,21.1,9,36s12.1,27,27,27s27-12.1,27-27S50.9,9,36,9z M36,59c-12.7,0-23-10.3-23-23s10.3-23,23-23
	s23,10.3,23,23S48.7,59,36,59z"/>
<g>
	<path d="M23.7,48.7c-0.7,0-1.2-0.8-0.9-1.5c2.5-4.7,7.5-8,13.2-8s10.7,3.2,13.2,8c0.4,0.7-0.1,1.5-0.9,1.5H23.7z"/>
	<g>
		<path d="M48.8,23.9L48.8,23.9c-0.8-0.8-2-0.8-2.8,0l-1.4,1.4l-1.4-1.4c-0.8-0.8-2-0.8-2.8,0v0c-0.8,0.8-0.8,2,0,2.8l1.4,1.4
			l-1.4,1.4c-0.8,0.8-0.8,2,0,2.8v0c0.8,0.8,2,0.8,2.8,0l1.4-1.4l1.4,1.4c0.8,0.8,2,0.8,2.8,0v0c0.8-0.8,0.8-2,0-2.8l-1.4-1.4
			l1.4-1.4C49.5,25.9,49.5,24.7,48.8,23.9z"/>
		<path d="M28.9,23.9l-1.4,1.4l-1.4-1.4c-0.8-0.8-2-0.8-2.8,0l0,0c-0.8,0.8-0.8,2,0,2.8l1.4,1.4l-1.4,1.4c-0.8,0.8-0.8,2,0,2.8l0,0
			c0.8,0.8,2,0.8,2.8,0l1.4-1.4l1.4,1.4c0.8,0.8,2,0.8,2.8,0l0,0c0.8-0.8,0.8-2,0-2.8l-1.4-1.4l1.4-1.4c0.8-0.8,0.8-2,0-2.8l0,0
			C31,23.1,29.7,23.1,28.9,23.9z"/>
	</g>
</g>
</svg>
