<?xml version="1.0" encoding="utf-8"?>
<!-- Generator: Adobe Illustrator 24.0.0, SVG Export Plug-In . SVG Version: 6.00 Build 0)  -->
<svg version="1.1" id="Layer_1" xmlns="http://www.w3.org/2000/svg" xmlns:xlink="http://www.w3.org/1999/xlink" x="0px" y="0px"
	 viewBox="0 0 72 72" style="enable-background:new 0 0 72 72;" xml:space="preserve">
<style type="text/css">
	.st0{fill:none;}
</style>
<title>tag_faces</title>
<rect class="st0" width="72" height="72"/>
<path d="M36,9C21.1,9,9,21.1,9,36s12.1,27,27,27s27-12.1,27-27S50.9,9,36,9z M36,59c-12.7,0-23-10.3-23-23s10.3-23,23-23
	s23,10.3,23,23S48.7,59,36,59z"/>
<g>
	<circle cx="45.5" cy="28" r="3.5"/>
	<circle cx="26.5" cy="28" r="3.5"/>
	<path d="M46.6,49.5c-0.6,0-1.2-0.3-1.6-0.8c-2-2.8-5.3-4.6-9-4.6s-7,1.8-9,4.6c-0.4,0.5-1,0.8-1.6,0.8h0c-1.6,0-2.6-1.8-1.6-3.2
		c2.7-3.8,7.2-6.3,12.2-6.3s9.5,2.5,12.2,6.3C49.1,47.7,48.2,49.5,46.6,49.5L46.6,49.5z"/>
</g>
</svg>
