<?xml version="1.0" encoding="utf-8"?>
<!-- Generator: Adobe Illustrator 24.0.0, SVG Export Plug-In . SVG Version: 6.00 Build 0)  -->
<svg version="1.1" id="Layer_1" xmlns="http://www.w3.org/2000/svg" xmlns:xlink="http://www.w3.org/1999/xlink" x="0px" y="0px"
	 viewBox="0 0 72 72" style="enable-background:new 0 0 72 72;" xml:space="preserve">
<style type="text/css">
	.st0{fill:none;}
</style>
<title>settings</title>
<rect class="st0" width="72" height="72"/>
<g>
	<path d="M57,36c0-1.1-0.1-2.2-0.3-3.3l3.2-2.8c1.5-1.3,1.8-3.4,0.8-5.1l-3.2-5.4c-1-1.7-3-2.4-4.9-1.7l-4,1.5c-1.5-1.1-3-2-4.8-2.7
		l-0.7-4.2c-0.3-1.9-2-3.3-3.9-3.3h-6.3c-1.9,0-3.6,1.4-3.9,3.3l-0.7,4.2c-1.7,0.7-3.4,1.6-4.8,2.7l-4-1.5c-1.8-0.7-3.9,0-4.9,1.7
		l-3.2,5.4c-1,1.7-0.7,3.8,0.8,5.1l3.2,2.8C15.1,33.8,15,34.9,15,36s0.1,2.2,0.3,3.3L12,42.1c-1.5,1.3-1.8,3.4-0.8,5.1l3.2,5.4
		c1,1.7,3,2.4,4.9,1.7l4-1.5c1.5,1.1,3.1,2,4.8,2.7l0.7,4.2c0.3,1.9,2,3.3,3.9,3.3h6.3c1.9,0,3.6-1.4,3.9-3.3l0.7-4.2
		c1.7-0.7,3.3-1.6,4.8-2.7l4,1.5c1.8,0.7,3.9,0,4.9-1.7l3.2-5.4c1-1.7,0.7-3.8-0.8-5.1l-3.2-2.8C56.9,38.2,57,37.1,57,36z
		 M57.3,45.1l-3.2,5.4l-4.6-1.8c-1.2-0.5-2.7-0.3-3.7,0.5c-1.1,0.8-2.2,1.4-3.4,2c-1.2,0.5-2.1,1.7-2.3,3L39.2,59h-6.3L32,54.3
		c-0.2-1.3-1.1-2.5-2.4-3c-1.3-0.5-2.4-1.2-3.5-2c-1.1-0.8-2.5-0.9-3.7-0.5l-4.6,1.8l-3.2-5.4l3.7-3.2c1-0.9,1.5-2.2,1.3-3.6
		c-0.1-0.8-0.2-1.6-0.2-2.4s0.1-1.6,0.2-2.4c0.2-1.3-0.3-2.7-1.3-3.6l-3.7-3.2l3.2-5.4l4.6,1.8c1.2,0.5,2.7,0.3,3.7-0.5
		c1.1-0.8,2.3-1.5,3.5-2c1.3-0.5,2.1-1.7,2.4-3l0.8-4.7h6.3l0.8,4.8c0.2,1.3,1.1,2.5,2.3,3c1.2,0.5,2.4,1.2,3.4,2
		c1.1,0.8,2.5,0.9,3.7,0.5l4.6-1.8l3.2,5.4l-3.7,3.2c-1,0.9-1.5,2.2-1.3,3.6c0.1,0.8,0.2,1.6,0.2,2.4c0,0.8-0.1,1.6-0.2,2.4
		c-0.2,1.3,0.3,2.7,1.3,3.6L57.3,45.1z"/>
	<path d="M37.7,26.1C30.8,25,25,30.8,26.1,37.7c0.7,4.1,4,7.5,8.2,8.2C41.2,47,47,41.2,45.9,34.3C45.2,30.2,41.8,26.8,37.7,26.1z
		 M36,42c-3.3,0-6-2.7-6-6s2.7-6,6-6s6,2.7,6,6S39.3,42,36,42z"/>
</g>
</svg>
