<?xml version="1.0" encoding="utf-8"?>
<!-- Generator: Adobe Illustrator 24.0.0, SVG Export Plug-In . SVG Version: 6.00 Build 0)  -->
<svg version="1.1" id="Layer_1" xmlns="http://www.w3.org/2000/svg" xmlns:xlink="http://www.w3.org/1999/xlink" x="0px" y="0px"
	 viewBox="0 0 72 72" style="enable-background:new 0 0 72 72;" xml:space="preserve">
<style type="text/css">
	.st0{fill:none;}
</style>
<title>settings</title>
<rect class="st0" width="72" height="72"/>
<g>
	<path d="M36,10.3c-14.2,0-25.8,11-26.9,24.9c-0.1,1.1,0.8,2.1,2,2.1h0.1c1,0,1.9-0.8,1.9-1.8C14,23.7,23.9,14.3,36,14.3
		c12.1,0,22,9.3,22.9,21.2c0.1,1,0.9,1.8,1.9,1.8H61c1.1,0,2.1-1,2-2.1C61.8,21.3,50.2,10.3,36,10.3z"/>
	<path d="M36,20.3c-8.6,0-15.8,6.4-16.9,14.8c-0.2,1.2,0.8,2.2,1.9,2.2h0.1c1,0,1.8-0.8,2-1.8C24,29.2,29.4,24.3,36,24.3
		c6.6,0,12,4.9,12.9,11.2c0.1,1,0.9,1.8,2,1.8h0.1c1.2,0,2.1-1.1,1.9-2.2C51.8,26.7,44.6,20.3,36,20.3z"/>
	<path d="M38,51v-9.2c2-0.9,3.3-3,2.9-5.5c-0.3-2-1.9-3.6-3.8-4c-3.2-0.7-6.1,1.8-6.1,4.9c0,2,1.2,3.8,3,4.6V51l-7.3,7.3
		c-0.8,0.8-0.8,2,0,2.8l0.1,0.1c0.8,0.8,2,0.8,2.8,0l6.4-6.4l6.4,6.4c0.8,0.8,2,0.8,2.8,0l0.1-0.1c0.8-0.8,0.8-2,0-2.8L38,51z"/>
</g>
</svg>
