<?xml version="1.0" encoding="utf-8"?>
<!-- Generator: Adobe Illustrator 24.0.0, SVG Export Plug-In . SVG Version: 6.00 Build 0)  -->
<svg version="1.1" id="Layer_1" xmlns="http://www.w3.org/2000/svg" xmlns:xlink="http://www.w3.org/1999/xlink" x="0px" y="0px"
	 viewBox="0 0 72 72" style="enable-background:new 0 0 72 72;" xml:space="preserve">
<style type="text/css">
	.st0{fill:none;}
</style>
<title>photo_camera</title>
<rect x="0.2" class="st0" width="72" height="72"/>
<path d="M20,11.9v41c0,2.2,1.8,4,4,4h24c2.2,0,4-1.8,4-4v-41c0-2.2-1.8-4-4-4H24C21.8,7.9,20,9.6,20,11.9z M48,44.9H24v-25h24V44.9z
	 M48,11.9v4H24v-4H48z M24,52.9v-4h24v4H24z"/>
<path d="M24,64.6h-1c-1.1,0-2-0.9-2-2v-1c0-1.1,0.9-2,2-2h1c1.1,0,2,0.9,2,2v1C26,63.8,25.1,64.6,24,64.6z"/>
<path d="M36.5,64.6h-1c-1.1,0-2-0.9-2-2v-1c0-1.1,0.9-2,2-2h1c1.1,0,2,0.9,2,2v1C38.5,63.8,37.6,64.6,36.5,64.6z"/>
<path d="M49,64.6h-1c-1.1,0-2-0.9-2-2v-1c0-1.1,0.9-2,2-2h1c1.1,0,2,0.9,2,2v1C51,63.8,50.1,64.6,49,64.6z"/>
</svg>
