<?xml version="1.0" encoding="utf-8"?>
<!-- Generator: Adobe Illustrator 24.0.0, SVG Export Plug-In . SVG Version: 6.00 Build 0)  -->
<svg version="1.1" id="Layer_1" xmlns="http://www.w3.org/2000/svg" xmlns:xlink="http://www.w3.org/1999/xlink" x="0px" y="0px"
	 viewBox="0 0 72 72" style="enable-background:new 0 0 72 72;" xml:space="preserve">
<style type="text/css">
	.st0{fill:none;}
</style>
<title>Asset 21</title>
<rect class="st0" width="72" height="72"/>
<path d="M12.6,40c2.2,3.8,7.1,5.1,10.9,2.9l0,0c0.6-0.4,1.2-0.8,1.7-1.3l19.5,11.3c-1.2,4.3,1.3,8.7,5.6,9.9
	c4.3,1.2,8.7-1.3,9.9-5.6s-1.3-8.7-5.6-9.9c-2.8-0.8-5.8,0-7.9,2.1L27.2,38.1l0,0c0.4-1.4,0.4-2.9,0-4.3l19.5-11.3
	c3.1,3.2,8.2,3.2,11.3,0.1s3.2-8.2,0.1-11.3s-8.1-3.1-11.3,0c-2.1,2-2.9,5-2.1,7.9L25.2,30.4c-3.1-3.1-8.2-3.2-11.3-0.1
	C11.4,32.9,10.8,36.9,12.6,40z M54.5,51.5c1.9,1.1,2.6,3.5,1.5,5.5c-1.1,1.9-3.5,2.6-5.5,1.5S47.9,54.9,49,53l0,0
	C50.1,51.1,52.5,50.4,54.5,51.5z M50.5,13.5c1.9-1.1,4.4-0.5,5.5,1.4s0.5,4.4-1.4,5.5s-4.4,0.5-5.5-1.4l0,0
	C47.9,17.1,48.5,14.6,50.5,13.5z M17.5,32.5c1.9-1.1,4.4-0.4,5.5,1.5s0.4,4.4-1.5,5.5S17.1,39.9,16,38l0,0
	C15,36.1,15.6,33.6,17.5,32.5z"/>
</svg>
