<?xml version="1.0" encoding="utf-8"?>
<!-- Generator: Adobe Illustrator 24.0.0, SVG Export Plug-In . SVG Version: 6.00 Build 0)  -->
<svg version="1.1" id="Layer_1" xmlns="http://www.w3.org/2000/svg" xmlns:xlink="http://www.w3.org/1999/xlink" x="0px" y="0px"
	 viewBox="0 0 72 72" style="enable-background:new 0 0 72 72;" xml:space="preserve">
<style type="text/css">
	.st0{fill:none;}
</style>
<title>add_shopping_cart</title>
<rect class="st0" width="72" height="72"/>
<circle cx="28.1" cy="57" r="4"/>
<circle cx="51.5" cy="57" r="4"/>
<path d="M52.9,35.9l7-12.7c1.5-2.7-0.5-5.9-3.5-5.9h-34l-2-4.1c-0.7-1.4-2.1-2.2-3.6-2.2h-3.4c-1.1,0-2,0.9-2,2v0c0,1.1,0.9,2,2,2
	h3.4l9.6,19.6l-4.9,9.3c-1.1,2,0.4,4.4,2.6,4.4h31.4c1.1,0,2-0.9,2-2v0c0-1.1-0.9-2-2-2H25.9l3.3-6.3h20.2
	C50.9,38,52.2,37.2,52.9,35.9z M24.5,21.3h32l-7,12.7H30.7L24.5,21.3z"/>
</svg>
