<?xml version="1.0" encoding="utf-8"?>
<!-- Generator: Adobe Illustrator 24.0.0, SVG Export Plug-In . SVG Version: 6.00 Build 0)  -->
<svg version="1.1" id="Layer_1" xmlns="http://www.w3.org/2000/svg" xmlns:xlink="http://www.w3.org/1999/xlink" x="0px" y="0px"
	 viewBox="0 0 72 72" style="enable-background:new 0 0 72 72;" xml:space="preserve">
<style type="text/css">
	.st0{fill:none;}
</style>
<title>info</title>
<rect class="st0" width="72" height="72"/>
<g>
	<path d="M45.2,38.5l-14.4-7.7c-1.3-0.7-2.9,0.3-2.9,1.8v17.2c0,1.6,1.8,2.6,3.1,1.7l14.4-9.6C46.6,41.1,46.5,39.2,45.2,38.5z
		 M31.9,35.9l8.5,4.5l-8.5,5.6V35.9z"/>
	<path d="M46.8,21.2v-6.8c0-2.2-1.8-4-4-4H29.3c-2.2,0-4,1.8-4,4v6.8H13c-2.2,0-4,1.8-4,4v32.5c0,2.2,1.8,4,4,4h46c2.2,0,4-1.8,4-4
		V25.2c0-2.2-1.8-4-4-4H46.8z M29.3,14.3h13.5v6.8H29.3V14.3z M59,57.7H13V25.2h46V57.7z"/>
</g>
</svg>
