<?xml version="1.0" encoding="utf-8"?>
<!-- Generator: Adobe Illustrator 24.0.0, SVG Export Plug-In . SVG Version: 6.00 Build 0)  -->
<svg version="1.1" id="Layer_1" xmlns="http://www.w3.org/2000/svg" xmlns:xlink="http://www.w3.org/1999/xlink" x="0px" y="0px"
	 viewBox="0 0 72 72" style="enable-background:new 0 0 72 72;" xml:space="preserve">
<style type="text/css">
	.st0{fill:none;}
</style>
<title>add_shopping_cart</title>
<rect class="st0" width="72" height="72"/>
<g>
	<path d="M36,40.8c-2.2,0-4,1.8-4,4s1.8,4,4,4s4-1.8,4-4S38.2,40.8,36,40.8z"/>
	<path d="M48.9,30.1L37.7,13.4c-0.8-1.2-2.5-1.2-3.3,0L23.1,30.1h-9.5c-2.6,0-4.5,2.5-3.9,5l5.7,21.5c0.5,1.7,2.1,3,3.9,3h33.4
		c1.8,0,3.4-1.2,3.9-3l5.7-21.5c0.7-2.5-1.2-5-3.9-5H48.9z M36,18l8.1,12H27.9L36,18z M52.7,55.5H19.3l-5.7-21.5h44.9L52.7,55.5z"/>
</g>
</svg>
