<?xml version="1.0" encoding="utf-8"?>
<!-- Generator: Adobe Illustrator 24.0.0, SVG Export Plug-In . SVG Version: 6.00 Build 0)  -->
<svg version="1.1" id="Layer_1" xmlns="http://www.w3.org/2000/svg" xmlns:xlink="http://www.w3.org/1999/xlink" x="0px" y="0px"
	 viewBox="0 0 72 72" style="enable-background:new 0 0 72 72;" xml:space="preserve">
<style type="text/css">
	.st0{fill:none;}
</style>
<title>tag_faces</title>
<rect class="st0" width="72" height="72"/>
<g>
	<path d="M32.8,30.3l-2.8,2.8L10.1,13.3c-0.8-0.8-0.8-2,0-2.8l0,0c0.8-0.8,2-0.8,2.8,0L32.8,30.3z"/>
	<path d="M62.5,46.9v14c0,1.1-0.9,2-2,2h-14c-1.1,0-2-0.9-2-2v0c0-1.1,0.9-2,2-2h9.2L38.4,41.7l2.8-2.8l17.3,17.3v-9.2
		c0-1.1,0.9-2,2-2h0C61.6,44.9,62.5,45.8,62.5,46.9z"/>
	<path d="M58.5,25.1l0-9.2L12.9,61.5c-0.8,0.8-2,0.8-2.8,0l0,0c-0.8-0.8-0.8-2,0-2.8l45.6-45.6h-9.2c-1.1,0-2-0.9-2-2v0
		c0-1.1,0.9-2,2-2h14c1.1,0,2,0.9,2,2l0,14c0,1.1-0.9,2-2,2h0C59.4,27.1,58.5,26.2,58.5,25.1z"/>
</g>
</svg>
