<?xml version="1.0" encoding="utf-8"?>
<!-- Generator: Adobe Illustrator 24.0.0, SVG Export Plug-In . SVG Version: 6.00 Build 0)  -->
<svg version="1.1" id="Layer_1" xmlns="http://www.w3.org/2000/svg" xmlns:xlink="http://www.w3.org/1999/xlink" x="0px" y="0px"
	 viewBox="0 0 72 72" style="enable-background:new 0 0 72 72;" xml:space="preserve">
<style type="text/css">
	.st0{fill:none;}
</style>
<title>lock</title>
<rect class="st0" width="72" height="72"/>
<g>
	<path d="M53.6,9H32C31,9,30,9.4,29.2,10.2L15.6,23.8c-0.8,0.8-1.2,1.8-1.2,2.8V59c0,2.2,1.8,4,4,4h35.2c2.2,0,4-1.8,4-4V13
		C57.6,10.8,55.8,9,53.6,9z M53.6,59H18.4V26.6L32,13h21.6V59z"/>
	<g>
		<path d="M43.8,35.2v7c0,1.1,0.9,2,2,2h0c1.1,0,2-0.9,2-2v-7c0-1.1-0.9-2-2-2h0C44.7,33.2,43.8,34.1,43.8,35.2z"/>
		<path d="M45.8,54.2L45.8,54.2c1.1,0,2-0.9,2-2v-2c0-1.1-0.9-2-2-2h0c-1.1,0-2,0.9-2,2v2C43.8,53.3,44.7,54.2,45.8,54.2z"/>
	</g>
	<g>
		<path d="M24.2,35.2v7c0,1.1,0.9,2,2,2h0c1.1,0,2-0.9,2-2v-7c0-1.1-0.9-2-2-2h0C25.1,33.2,24.2,34.1,24.2,35.2z"/>
		<path d="M26.2,54.2L26.2,54.2c1.1,0,2-0.9,2-2v-2c0-1.1-0.9-2-2-2h0c-1.1,0-2,0.9-2,2v2C24.2,53.3,25.1,54.2,26.2,54.2z"/>
	</g>
	<g>
		<path d="M34,53.2v-7c0-1.1,0.9-2,2-2h0c1.1,0,2,0.9,2,2v7c0,1.1-0.9,2-2,2h0C34.9,55.2,34,54.3,34,53.2z"/>
		<path d="M36,34.2L36,34.2c1.1,0,2,0.9,2,2v2c0,1.1-0.9,2-2,2h0c-1.1,0-2-0.9-2-2v-2C34,35.1,34.9,34.2,36,34.2z"/>
	</g>
</g>
</svg>
