<?xml version="1.0" encoding="utf-8"?>
<!-- Generator: Adobe Illustrator 24.0.0, SVG Export Plug-In . SVG Version: 6.00 Build 0)  -->
<svg version="1.1" id="Layer_1" xmlns="http://www.w3.org/2000/svg" xmlns:xlink="http://www.w3.org/1999/xlink" x="0px" y="0px"
	 viewBox="0 0 72 72" style="enable-background:new 0 0 72 72;" xml:space="preserve">
<style type="text/css">
	.st0{fill:none;}
</style>
<title>ic_3d_rotation</title>
<rect class="st0" width="72" height="72"/>
<path d="M63,17v-4c0-2.2-1.8-4-4-4h-4c-2.2,0-4,1.8-4,4v1H21v-1c0-2.2-1.8-4-4-4h-4c-2.2,0-4,1.8-4,4v4c0,2.2,1.8,4,4,4h1v30h-1
	c-2.2,0-4,1.8-4,4v4c0,2.2,1.8,4,4,4h4c2.2,0,4-1.8,4-4v-1h30v1c0,2.2,1.8,4,4,4h4c2.2,0,4-1.8,4-4v-4c0-2.2-1.8-4-4-4h-1V21h1
	C61.2,21,63,19.2,63,17z M55,13h4v4h-4V13z M13,13h4v4h-4V13z M17,59h-4v-4h4V59z M59,59h-4v-4h4V59z M54,51L54,51c-1.7,0-3,1.3-3,3
	v0H21v0c0-1.7-1.3-3-3-3h0V21h0c1.7,0,3-1.3,3-3v0h30v0c0,1.7,1.3,3,3,3h0V51z"/>
<path d="M35.3,24.7L35.3,24.7c0,1.1,0.9,2,2,2h5.2L26.7,42.5v-5.2c0-1.1-0.9-2-2-2h0c-1.1,0-2,0.9-2,2v10c0,1.1,0.9,2,2,2h10
	c1.1,0,2-0.9,2-2v0c0-1.1-0.9-2-2-2h-5.2l15.8-15.8v5.2c0,1.1,0.9,2,2,2h0c1.1,0,2-0.9,2-2v-10c0-1.1-0.9-2-2-2h-10
	C36.2,22.7,35.3,23.6,35.3,24.7z"/>
</svg>
