<?xml version="1.0" encoding="utf-8"?>
<!-- Generator: Adobe Illustrator 24.0.0, SVG Export Plug-In . SVG Version: 6.00 Build 0)  -->
<svg version="1.1" id="Layer_1" xmlns="http://www.w3.org/2000/svg" xmlns:xlink="http://www.w3.org/1999/xlink" x="0px" y="0px"
	 viewBox="0 0 72 72" style="enable-background:new 0 0 72 72;" xml:space="preserve">
<style type="text/css">
	.st0{fill:none;}
</style>
<title>filter</title>
<rect class="st0" width="72" height="72"/>
<g>
	<path d="M43.5,33.8L16.1,14.5c-1.7-1.2-4.2,0-4.2,2.2v38.7c0,2.1,2.4,3.4,4.2,2.2l27.4-19.4C45,37.1,45,34.9,43.5,33.8z M15.9,52.7
		V19.3L39.6,36L15.9,52.7z"/>
	<path d="M58.1,58L58.1,58c-1.1,0-2-0.9-2-2V16c0-1.1,0.9-2,2-2h0c1.1,0,2,0.9,2,2v40C60.1,57.1,59.2,58,58.1,58z"/>
</g>
</svg>
