<?xml version="1.0" encoding="utf-8"?>
<!-- Generator: Adobe Illustrator 24.0.0, SVG Export Plug-In . SVG Version: 6.00 Build 0)  -->
<svg version="1.1" id="Layer_1" xmlns="http://www.w3.org/2000/svg" xmlns:xlink="http://www.w3.org/1999/xlink" x="0px" y="0px"
	 viewBox="0 0 72 72" style="enable-background:new 0 0 72 72;" xml:space="preserve">
<style type="text/css">
	.st0{fill:none;}
</style>
<path class="st0" d="M0,0h72v72H0V0z"/>
<g>
	<g>
		<path d="M48.9,16.9L48.9,16.9c0,0.6,0.4,1.1,0.9,1.2c2.4,0.7,4.1,2.9,4.1,5.5c0,2.5-1.6,4.6-3.9,5.4c-0.7,0.2-1.1,0.8-1.1,1.5v0
			c0,0.8,0.5,1.4,1.3,1.5c5.4,1,9.5,5.8,9.5,11.6v4c0,0.7,0.6,1.3,1.3,1.3l0,0c0.7,0,1.3-0.6,1.3-1.3v-4c0-5.5-3.2-10.6-8.1-12.9
			l-1-0.5l0.8-0.8c1.6-1.6,2.5-3.7,2.5-5.9c0-3.7-2.5-6.9-5.9-7.9C49.7,15.4,48.9,16,48.9,16.9z"/>
		<path d="M43,39.9l3.9,0c3,0,6.1,2.2,6.1,6.3v1.5c0,0.7,0.6,1.3,1.3,1.3l0,0c0.7,0,1.3-0.6,1.3-1.3v-2.4c0-4.3-3.9-7.8-8.6-7.8
			h-4.1c-3.1,0-5.7-2.9-5.7-6.1c0-2.5,1.7-4.6,4.1-5.2c0.5-0.2,0.9-0.6,0.9-1.2v0c0-0.9-0.8-1.5-1.7-1.2c-3.7,1.1-6.3,4.7-5.9,8.8
			C34.9,36.7,38.7,39.9,43,39.9z"/>
	</g>
	<path d="M52.2,52.4h4v4h-4V52.4z M11,52.4h38.5v4H11c-1.1,0-2-0.9-2-2v0C9,53.3,9.9,52.4,11,52.4z M59,52.4h4v4h-4V52.4z"/>
</g>
</svg>
