<?xml version="1.0" encoding="utf-8"?>
<!-- Generator: Adobe Illustrator 24.0.0, SVG Export Plug-In . SVG Version: 6.00 Build 0)  -->
<svg version="1.1" id="Layer_1" xmlns="http://www.w3.org/2000/svg" xmlns:xlink="http://www.w3.org/1999/xlink" x="0px" y="0px"
	 viewBox="0 0 72 72" style="enable-background:new 0 0 72 72;" xml:space="preserve">
<style type="text/css">
	.st0{fill:none;}
</style>
<path class="st0" d="M0,0h72v72H0V0z"/>
<g>
	<path d="M48.9,9.3L48.9,9.3c0,0.6,0.4,1.1,0.9,1.2c2.4,0.7,4.1,2.9,4.1,5.5c0,2.5-1.6,4.6-3.9,5.4c-0.7,0.2-1.1,0.8-1.1,1.5v0
		c0,0.8,0.5,1.4,1.3,1.5c5.4,1,9.5,5.8,9.5,11.6v4c0,0.7,0.6,1.3,1.3,1.3l0,0c0.7,0,1.3-0.6,1.3-1.3v-4c0-5.5-3.2-10.6-8.1-12.9
		l-1-0.5l0.8-0.8c1.6-1.6,2.5-3.7,2.5-5.9c0-3.7-2.5-6.9-5.9-7.9C49.7,7.8,48.9,8.4,48.9,9.3z"/>
	<path d="M43,32.2l3.9,0c3,0,6.1,2.2,6.1,6.3V40c0,0.7,0.6,1.3,1.3,1.3l0,0c0.7,0,1.3-0.6,1.3-1.3v-2.4c0-4.3-3.9-7.8-8.6-7.8h-4.1
		c-3.1,0-5.7-2.9-5.7-6.1c0-2.5,1.7-4.6,4.1-5.2c0.5-0.2,0.9-0.6,0.9-1.2v0c0-0.9-0.8-1.5-1.7-1.2c-3.7,1.1-6.3,4.7-5.9,8.8
		C34.9,29.1,38.7,32.2,43,32.2z"/>
	<polygon points="49.5,48.8 49.5,44.8 43.8,44.8 47.3,48.8 	"/>
	<rect x="52.2" y="44.8" width="4" height="4"/>
	<rect x="59" y="44.8" width="4" height="4"/>
	<path d="M43.3,48.8l-3.6-4l0,0L15.4,17.6c-0.7-0.8-2-0.9-2.8-0.2l0,0c-0.8,0.7-0.9,2-0.2,2.8l21.9,24.5H11c-1.1,0-2,0.9-2,2v0
		c0,1.1,0.9,2,2,2h26.9l13,14.6c0.7,0.8,2,0.9,2.8,0.2h0c0.8-0.7,0.9-2,0.2-2.8L43.3,48.8L43.3,48.8z"/>
</g>
</svg>
