<?xml version="1.0" encoding="utf-8"?>
<!-- Generator: Adobe Illustrator 24.0.0, SVG Export Plug-In . SVG Version: 6.00 Build 0)  -->
<svg version="1.1" id="Layer_1" xmlns="http://www.w3.org/2000/svg" xmlns:xlink="http://www.w3.org/1999/xlink" x="0px" y="0px"
	 viewBox="0 0 72 72" style="enable-background:new 0 0 72 72;" xml:space="preserve">
<style type="text/css">
	.st0{fill:none;}
</style>
<title>tag_faces</title>
<rect class="st0" width="72" height="72"/>
<path d="M39.9,16.4h-7.8c-0.9,0-1.3-1.1-0.7-1.7l3.9-3.9c0.4-0.4,1-0.4,1.4,0l3.9,3.9C41.2,15.3,40.8,16.4,39.9,16.4z"/>
<path d="M32.2,55.7h7.6c0.9,0,1.3,1.1,0.7,1.7l-3.8,3.8c-0.4,0.4-1,0.4-1.4,0l-3.8-3.8C30.9,56.7,31.3,55.7,32.2,55.7z"/>
<g>
	<path d="M45.5,47.4l15.8-21.8c0.4-0.5,0.6-1.1,0.6-1.8v0c0-1.7-1.4-3-3-3h-17c-1.1,0-2,0.9-2,2v0c0,1.1,0.9,2,2,2h15.1L41.1,46.6
		c-0.4,0.5-0.6,1.1-0.6,1.8v0c0,1.7,1.4,3,3,3h17c1.1,0,2-0.9,2-2v0c0-1.1-0.9-2-2-2H45.5z"/>
	<path d="M20.4,22.7l-9.9,25.9c-0.5,1.3,0.5,2.7,1.9,2.7h0c0.8,0,1.6-0.5,1.9-1.3l2.2-5.6h13.9l2.2,5.6c0.3,0.8,1,1.3,1.9,1.3h0
		c1.4,0,2.4-1.4,1.9-2.7l-9.9-25.9c-0.5-1.2-1.6-2-2.9-2h0C22,20.6,20.9,21.4,20.4,22.7z M17.9,40.3l5.4-14.1l5.4,14.1H17.9z"/>
</g>
</svg>
