<?xml version="1.0" encoding="utf-8"?>
<!-- Generator: Adobe Illustrator 24.0.0, SVG Export Plug-In . SVG Version: 6.00 Build 0)  -->
<svg version="1.1" id="Layer_1" xmlns="http://www.w3.org/2000/svg" xmlns:xlink="http://www.w3.org/1999/xlink" x="0px" y="0px"
	 viewBox="0 0 72 72" style="enable-background:new 0 0 72 72;" xml:space="preserve">
<style type="text/css">
	.st0{fill:none;}
</style>
<title>language</title>
<rect class="st0" width="72" height="72"/>
<path d="M36,45.3c-5.3-8.3-14.4-14-24.8-14.8C10,30.5,9,31.5,9.1,32.7c1,14.9,11.9,27.1,26.1,30.1c0.5,0.1,1.1,0.1,1.6,0
	c14.3-3,25.1-15.2,26.1-30.1c0.1-1.2-0.9-2.2-2.1-2.1C50.4,31.3,41.3,37,36,45.3z M36,58.8c-11.7-2.5-20.8-12.1-22.6-24
	c9.2,1.4,16.9,7.4,20.8,15.4c0.7,1.5,2.9,1.5,3.6,0c3.9-8.1,11.7-14,20.8-15.4C56.8,46.8,47.7,56.4,36,58.8z"/>
<path d="M35.4,9.4c-5.1,4.7-8.4,11.4-8.7,18.8c0,0.5,0.3,0.9,0.8,1c2.8,0.5,5.3,2.1,6.9,4.4c0.8,1.1,2.5,1.1,3.3,0
	c1.6-2.3,4.1-3.9,6.9-4.4c0.5-0.1,0.8-0.5,0.8-1c-0.3-7.4-3.6-14.1-8.7-18.8C36.3,9.1,35.8,9.1,35.4,9.4z M36.1,29.3
	c-1.4-1.4-3.2-2.6-5.1-3.3c0.6-4.3,2.4-8.3,5.1-11.5c2.7,3.2,4.5,7.2,5.1,11.5C39.2,26.7,37.5,27.9,36.1,29.3z"/>
</svg>
