<?xml version="1.0" encoding="utf-8"?>
<!-- Generator: Adobe Illustrator 24.0.0, SVG Export Plug-In . SVG Version: 6.00 Build 0)  -->
<svg version="1.1" id="Layer_1" xmlns="http://www.w3.org/2000/svg" xmlns:xlink="http://www.w3.org/1999/xlink" x="0px" y="0px"
	 viewBox="0 0 72 72" style="enable-background:new 0 0 72 72;" xml:space="preserve">
<style type="text/css">
	.st0{fill:none;}
</style>
<title>announcement</title>
<rect class="st0" width="72" height="72"/>
<path d="M59,9H13c-2.2,0-4,1.8-4,4V61c0,1.8,2.2,2.7,3.4,1.4l9.5-9.5H59c2.2,0,4-1.8,4-4V13C63,10.8,61.2,9,59,9z M59,49H21.9
	c-1.1,0-2.1,0.4-2.8,1.2L13,56.2V13h46V49z"/>
<g>
	<path d="M40.9,36.7h-8c-1.1,0-2,0.9-2,2s0.9,2,2,2h8c1.1,0,2-0.9,2-2S42,36.7,40.9,36.7z"/>
	<path d="M48.9,28.6h-16c-1.1,0-2,0.9-2,2s0.9,2,2,2h16c1.1,0,2-0.9,2-2S50,28.6,48.9,28.6z"/>
	<path d="M32.9,24.5h16c1.1,0,2-0.9,2-2s-0.9-2-2-2h-16c-1.1,0-2,0.9-2,2S31.8,24.5,32.9,24.5z"/>
	<circle cx="23.6" cy="22.5" r="2.5"/>
	<circle cx="23.6" cy="30.6" r="2.5"/>
	<circle cx="23.6" cy="38.7" r="2.5"/>
</g>
</svg>
