<?xml version="1.0" encoding="utf-8"?>
<!-- Generator: Adobe Illustrator 24.0.0, SVG Export Plug-In . SVG Version: 6.00 Build 0)  -->
<svg version="1.1" id="Layer_1" xmlns="http://www.w3.org/2000/svg" xmlns:xlink="http://www.w3.org/1999/xlink" x="0px" y="0px"
	 viewBox="0 0 72 72" style="enable-background:new 0 0 72 72;" xml:space="preserve">
<style type="text/css">
	.st0{fill:none;}
</style>
<title>code</title>
<rect class="st0" width="72" height="72"/>
<g>
	<path d="M57.9,25.6L55.3,29c2.3,3.6,3.7,7.9,3.7,12.4c0,4.5-1.3,8.6-3.5,12.2h-39c-2.2-3.5-3.5-7.7-3.5-12.2
		c0-12.5,9.8-22.6,22.4-23c5-0.1,9.7,1.3,13.5,4l3.4-2.5c-4.9-3.7-11.2-5.8-17.9-5.4C20.9,15.3,9.9,26.2,9.1,39.7
		c-0.4,5.9,1.2,11.5,4.1,16.1c0.7,1.1,2,1.8,3.4,1.8h39c1.4,0,2.6-0.7,3.4-1.8c2.6-4.2,4.1-9.1,4.1-14.4C63,35.5,61.1,30,57.9,25.6z
		"/>
	<path d="M32.2,39.9c-1.6,1.6-1.6,4.1,0,5.7c1.6,1.6,4.1,1.6,5.7,0L55,22.8L32.2,39.9z"/>
</g>
</svg>
