<?xml version="1.0" encoding="utf-8"?>
<!-- Generator: Adobe Illustrator 24.0.0, SVG Export Plug-In . SVG Version: 6.00 Build 0)  -->
<svg version="1.1" id="Layer_1" xmlns="http://www.w3.org/2000/svg" xmlns:xlink="http://www.w3.org/1999/xlink" x="0px" y="0px"
	 viewBox="0 0 72 72" style="enable-background:new 0 0 72 72;" xml:space="preserve">
<style type="text/css">
	.st0{fill:none;}
	.st1{display:none;}
	.st2{display:inline;}
</style>
<title>code</title>
<rect class="st0" width="72" height="72"/>
<g id="Master" class="st1">
	<g class="st2">
		<g>
			<path d="M33.9,19.6c-4.5,0-8.7,1.8-11.8,4.7c-0.9-2.7-3.4-4.7-6.4-4.7c-3.7,0-6.8,3-6.8,6.8s3,6.7,6.8,6.7c0.6,0,1.1-0.1,1.6-0.2
				c-0.1,0.7-0.2,1.4-0.3,2.1c-0.5,9.9,8,18,18,16.9c6.9-0.8,12.6-6.1,14-12.9c0.4-1.9,0.4-3.8,0.2-5.6c-0.2-1.6,1-3.1,2.7-3.1h11
				V19.6H33.9z M15.8,27.7c-0.8,0-1.4-0.6-1.4-1.4c0-0.8,0.6-1.4,1.4-1.4s1.4,0.6,1.4,1.4C17.1,27.1,16.5,27.7,15.8,27.7z
				 M33.3,43.9c-4.5,0-8.1-3.6-8.1-8.1s3.6-8.1,8.1-8.1s8.1,3.6,8.1,8.1S37.8,43.9,33.3,43.9z"/>
		</g>
		<g>
			<circle cx="33.3" cy="35.8" r="5.4"/>
		</g>
	</g>
</g>
<g>
	<path d="M31.4,29c-3.9,0-7,3.1-7,7s3.1,7,7,7s7-3.1,7-7S35.2,29,31.4,29z M31.4,39c-1.7,0-3-1.3-3-3c0-1.7,1.3-3,3-3s3,1.3,3,3
		C34.4,37.7,33,39,31.4,39z"/>
	<path d="M31.4,21c-3.8,0-7.3,1.5-10,3.8c-1-2.1-3-3.6-5.5-3.8c-3.6-0.2-6.9,2.8-6.9,6.4C8.9,31,11.9,34,15.5,34c0.4,0,0.7,0,1-0.1
		c-0.1,0.7-0.2,1.4-0.2,2.1c0,8.3,6.7,15,15,15c8.3,0,15-6.7,15-15v-3H59c2.2,0,4-1.8,4-4v-4c0-2.2-1.8-4-4-4H31.4z M16.1,29.9
		c-1.9,0.5-3.5-1.2-3-3c0.2-0.9,0.9-1.6,1.8-1.8c1.9-0.5,3.5,1.2,3,3C17.7,29,17,29.7,16.1,29.9z M42.4,33l0,2.7
		c0,5.7-4.2,10.7-9.9,11.3c-6.5,0.6-12.1-4.5-12.1-11c0-6.1,4.9-11,11-11H59v4H46.4C44.2,29,42.4,30.8,42.4,33z"/>
</g>
</svg>
