<?xml version="1.0" encoding="utf-8"?>
<!-- Generator: Adobe Illustrator 24.0.0, SVG Export Plug-In . SVG Version: 6.00 Build 0)  -->
<svg version="1.1" id="Layer_1" xmlns="http://www.w3.org/2000/svg" xmlns:xlink="http://www.w3.org/1999/xlink" x="0px" y="0px"
	 viewBox="0 0 72 72" style="enable-background:new 0 0 72 72;" xml:space="preserve">
<style type="text/css">
	.st0{fill:none;}
</style>
<title>tag_faces</title>
<rect class="st0" width="72" height="72"/>
<g>
	<g>
		<path d="M31.3,29.8h-3v-3c0-1.1-0.9-2-2-2h0c-1.1,0-2,0.9-2,2v3h-3c-1.1,0-2,0.9-2,2v0c0,1.1,0.9,2,2,2h3v3c0,1.1,0.9,2,2,2h0
			c1.1,0,2-0.9,2-2v-3h3c1.1,0,2-0.9,2-2v0C33.3,30.7,32.4,29.8,31.3,29.8z"/>
		<circle cx="50.2" cy="36" r="2.5"/>
		<circle cx="44.6" cy="27.6" r="2.5"/>
	</g>
	<path d="M53.3,16.4H18.7c-3,0-5.5,2.2-5.9,5.2l-3.7,26c-0.4,2.9,1,5.7,3.5,7.1l0,0c2.8,1.6,6.3,1.1,8.6-1.1l8.1-8.1h13.5l8,8
		c2.3,2.3,5.8,2.7,8.6,1.1l0,0c2.5-1.5,3.9-4.3,3.5-7.1l-3.7-26C58.8,18.6,56.3,16.4,53.3,16.4z M57.4,51.2
		c-1.2,0.7-2.8,0.5-3.8-0.5l-5.2-5.2l-2.8-2.8c-0.8-0.8-1.8-1.2-2.8-1.2H29.3c-1.1,0-2.1,0.4-2.8,1.2l-8.1,8.1c-1,1-2.5,1.2-3.8,0.5
		l0,0c-1.1-0.6-1.7-1.9-1.5-3.1l3.5-25.2c0.2-1.5,1.5-2.6,3-2.6h32.8c1.5,0,2.8,1.1,3,2.6l3.5,25.2C59.1,49.4,58.5,50.6,57.4,51.2
		L57.4,51.2z"/>
</g>
</svg>
