<?xml version="1.0" encoding="utf-8"?>
<!-- Generator: Adobe Illustrator 24.0.0, SVG Export Plug-In . SVG Version: 6.00 Build 0)  -->
<svg version="1.1" id="Layer_1" xmlns="http://www.w3.org/2000/svg" xmlns:xlink="http://www.w3.org/1999/xlink" x="0px" y="0px"
	 viewBox="0 0 72 72" style="enable-background:new 0 0 72 72;" xml:space="preserve">
<style type="text/css">
	.st0{fill:none;}
</style>
<path class="st0" d="M0,0h72v72H0V0z"/>
<path d="M41.5,14.5h-0.4C23.7,14.5,8.8,28.8,9,46.3c0,2.2,0.3,4.4,0.7,6.5c0.6,2.8,3,4.7,5.9,4.7l25.4,0c11.7,0,21.6-9.1,22-20.7
	C63.4,24.6,53.6,14.5,41.5,14.5z M23.2,24.6l10.7,4.8c2.8,1.2,4,4.5,2.8,7.3l0,0c-0.9,2-2.9,3.3-5,3.3h-18
	C15,33.9,18.5,28.5,23.2,24.6z M41,53.5l-25.4,0c-0.9,0-1.8-0.7-2-1.6C13.2,50,13,48,13,46c0-0.7,0-1.3,0.1-2h18.6
	c3.8,0,7.2-2.2,8.7-5.6l0,0c2.1-4.8,0-10.4-4.8-12.6L27.1,22c4-2.2,8.5-3.5,13.4-3.5l1,0c9.6,0,17.3,7.7,17.5,17.2
	C59.2,45.5,50.8,53.5,41,53.5z"/>
</svg>
