<?xml version="1.0" encoding="utf-8"?>
<!-- Generator: Adobe Illustrator 24.0.0, SVG Export Plug-In . SVG Version: 6.00 Build 0)  -->
<svg version="1.1" id="Layer_1" xmlns="http://www.w3.org/2000/svg" xmlns:xlink="http://www.w3.org/1999/xlink" x="0px" y="0px"
	 viewBox="0 0 72 72" style="enable-background:new 0 0 72 72;" xml:space="preserve">
<style type="text/css">
	.st0{fill:none;}
</style>
<title>language</title>
<rect class="st0" width="72" height="72"/>
<path d="M61.7,27.7c-4.6-14.2-19.8-21.9-34-17.3c-14.2,4.6-21.9,19.8-17.3,34c4.6,14.2,19.8,21.9,34,17.3
	C58.5,57.1,66.3,41.8,61.7,27.7z M41.3,13.6L41.3,13.6L36,17.3l-5.2-3.7l0,0C34.3,12.8,37.9,12.8,41.3,13.6z M26.1,15.2l6.4,4.5
	l1.2,0.9v3.5l-8.5,6.5l-3-1l-0.6-2l-2.3-7.5C21.2,18.2,23.5,16.5,26.1,15.2z M13.1,34.1c0.3-3.6,1.4-7,3.3-10l1.9,6.1L13.1,34.1
	L13.1,34.1z M18.6,51L18.6,51l6.4,0.1l2.1,6.1C23.8,55.8,20.9,53.7,18.6,51z M25.7,47.1l-2.1,0L15.8,47c-0.7-1.2-1.2-2.5-1.7-3.9
	c-0.4-1.4-0.7-2.7-0.9-4.1l6.3-4.7l1.2-0.9l3.4,1.1l3.6,10.1L25.7,47.1z M42.7,51.2l-2.5,7.4c-2.8,0.5-5.7,0.5-8.4,0l-2.5-7.4
	l-0.5-1.4l2.1-2.9l10.7-0.3l1.9,2.6L42.7,51.2z M41.1,42.6l-9.8,0.3L28,33.6l7.8-6l8.1,5.6L41.1,42.6z M37.8,24.1V21l1.7-1.2
	l6.4-4.5c2.5,1.2,4.8,2.9,6.8,4.9l0,0l-2.3,7.5l-0.4,1.4l-3.4,1.1L37.8,24.1z M44.9,57.2L44.9,57.2l2.1-6.1l6.4-0.1h0
	C51.1,53.7,48.3,55.8,44.9,57.2z M56.2,47l-7.8,0.1l-1.5,0l-2.1-2.9l3-10.3l3-1l1.7,1.3l6.3,4.7C58.4,41.8,57.5,44.5,56.2,47z
	 M58.9,34.1l-5.1-3.9l1.9-6.1l0,0c0.9,1.5,1.6,3.1,2.2,4.8C58.4,30.6,58.8,32.3,58.9,34.1L58.9,34.1z"/>
</svg>
