<?xml version="1.0" encoding="utf-8"?>
<!-- Generator: Adobe Illustrator 24.0.0, SVG Export Plug-In . SVG Version: 6.00 Build 0)  -->
<svg version="1.1" id="Layer_1" xmlns="http://www.w3.org/2000/svg" xmlns:xlink="http://www.w3.org/1999/xlink" x="0px" y="0px"
	 viewBox="0 0 72 72" style="enable-background:new 0 0 72 72;" xml:space="preserve">
<style type="text/css">
	.st0{fill:none;}
</style>
<title>language</title>
<rect class="st0" width="72" height="72"/>
<path d="M36,9C21.1,9,9,21.1,9,36c0,14.9,12.1,27,27,27c14.9,0,27-12.1,27-27C63,21.1,50.9,9,36,9z M59,36c0,5.8-2.2,11.1-5.7,15.2
	c0,0,0,0,0,0c-4.6-3.5-7.5-9-7.5-15.1c0-6.2,3-11.7,7.5-15.2c0,0,0,0,0,0C56.8,24.9,59,30.2,59,36z M13,36c0-5.8,2.2-11.2,5.8-15.2
	c4.6,3.5,7.6,9,7.6,15.2c0,6.2-3,11.8-7.6,15.2C15.2,47.2,13,41.8,13,36z M21.7,54c5.3-4.2,8.7-10.7,8.7-18c0-7.3-3.4-13.8-8.7-18
	c3.9-3.1,8.9-5,14.3-5c5.4,0,10.4,1.9,14.4,5c0,0,0,0,0,0c-5.3,4.2-8.6,10.7-8.6,18c0,7.3,3.4,13.7,8.6,17.9c0,0,0,0,0,0
	c-3.9,3.2-8.9,5-14.4,5C30.6,59,25.6,57.1,21.7,54z"/>
</svg>
