<?xml version="1.0" encoding="utf-8"?>
<!-- Generator: Adobe Illustrator 24.0.0, SVG Export Plug-In . SVG Version: 6.00 Build 0)  -->
<svg version="1.1" id="Layer_1" xmlns="http://www.w3.org/2000/svg" xmlns:xlink="http://www.w3.org/1999/xlink" x="0px" y="0px"
	 viewBox="0 0 72 72" style="enable-background:new 0 0 72 72;" xml:space="preserve">
<style type="text/css">
	.st0{fill:none;}
</style>
<title>photo_camera</title>
<rect x="0.2" class="st0" width="72" height="72"/>
<g>
	<path d="M12.7,54.6L12.7,54.6c0.8,0.8,2,0.8,2.8,0l9.1-9.1c2.8-2.8,6.8-4.2,10.6-3.4c5.5,1.1,12-0.9,16.9-5.8
		c7.1-7.1,8.1-17.6,2.3-23.5C48.5,7.1,38,8.1,30.8,15.2c-4.9,4.9-6.9,11.4-5.8,16.9c0.8,3.8-0.6,7.8-3.4,10.6l-9.1,9.1
		C11.9,52.6,11.9,53.9,12.7,54.6z M31.4,35.9c-4.3-4.3-3.3-12.3,2.3-17.8s13.5-6.6,17.8-2.3s3.3,12.3-2.3,17.8S35.7,40.2,31.4,35.9z
		"/>
	<path d="M57.3,47.5c-3.5-3.5-9.2-3.5-12.7,0c-3.5,3.5-3.5,9.2,0,12.7s9.2,3.5,12.7,0C60.8,56.7,60.8,51,57.3,47.5z M47.4,57.4
		c-1.9-1.9-1.9-5.1,0-7.1c1.9-1.9,5.1-1.9,7.1,0c1.9,1.9,1.9,5.1,0,7.1C52.5,59.3,49.3,59.3,47.4,57.4z"/>
</g>
</svg>
