<?xml version="1.0" encoding="utf-8"?>
<!-- Generator: Adobe Illustrator 24.0.0, SVG Export Plug-In . SVG Version: 6.00 Build 0)  -->
<svg version="1.1" id="Layer_1" xmlns="http://www.w3.org/2000/svg" xmlns:xlink="http://www.w3.org/1999/xlink" x="0px" y="0px"
	 viewBox="0 0 72 72" style="enable-background:new 0 0 72 72;" xml:space="preserve">
<style type="text/css">
	.st0{fill:none;}
</style>
<title>photo_camera</title>
<rect x="0.2" class="st0" width="72" height="72"/>
<g>
	<path d="M39.6,22.5h-12c-1.7,0-3,1.3-3,3s1.3,3,3,3h12c1.7,0,3-1.3,3-3S41.2,22.5,39.6,22.5z"/>
	<path d="M21.6,59c0,2.2,1.8,4,4,4h22c2.2,0,4-1.8,4-4v-8h-30V59z M25.6,55h22v4h-22V55z"/>
	<path d="M53.9,19.2c-0.6,0-1.2,0.3-1.6,0.7c-0.4,0.4-0.6,0.9-0.7,1.4V15c0-3.3-2.7-6-6-6H21.5c-3.3,0-6,2.7-6,6v17.6l2.3,12.1
		c0.4,1.9,2,3.2,3.9,3.2h28.1c1.9,0,3.5-1.3,3.9-3.2l2.8-13l0-9.9C56.5,20.4,55.3,19.1,53.9,19.2z M21.7,43.9l-2.3-11.7V15
		c0-1.1,0.9-2,2-2h24.1c1.1,0,2,0.9,2,2v13.3h4v7.8l-1.7,7.8H21.7z"/>
</g>
</svg>
