<?xml version="1.0" encoding="utf-8"?>
<!-- Generator: Adobe Illustrator 24.0.0, SVG Export Plug-In . SVG Version: 6.00 Build 0)  -->
<svg version="1.1" id="Layer_1" xmlns="http://www.w3.org/2000/svg" xmlns:xlink="http://www.w3.org/1999/xlink" x="0px" y="0px"
	 viewBox="0 0 72 72" style="enable-background:new 0 0 72 72;" xml:space="preserve">
<style type="text/css">
	.st0{fill:none;}
</style>
<title>language</title>
<rect class="st0" width="72" height="72"/>
<path d="M36,9C21.1,9,9,21.1,9,36c0,14.9,12.1,27,27,27c14.9,0,27-12.1,27-27C63,21.1,50.9,9,36,9z M53.3,20.8
	C53.3,20.8,53.3,20.8,53.3,20.8c3.2,3.6,5.2,8.1,5.6,13.2H45.8C46.4,28.6,49.2,23.9,53.3,20.8z M50.4,18c-4.8,3.8-8,9.5-8.5,16H38
	V13.1C42.7,13.5,46.9,15.3,50.4,18C50.4,18,50.4,18,50.4,18z M34,13.1V34h-3.7c-0.6-6.5-3.8-12.2-8.6-16
	C25.1,15.3,29.4,13.5,34,13.1z M18.8,20.8c4.1,3.1,7,7.8,7.5,13.2H13.1C13.5,29,15.6,24.4,18.8,20.8z M18.8,51.2
	c-3.2-3.6-5.2-8.2-5.7-13.2h13.2C25.7,43.4,22.9,48.1,18.8,51.2z M30.3,38H34v20.9c-4.6-0.4-8.9-2.2-12.3-4.9
	C26.5,50.2,29.8,44.5,30.3,38z M38,58.9V38h3.8c0.6,6.4,3.8,12.1,8.5,15.9c0,0,0,0,0,0C46.9,56.7,42.7,58.5,38,58.9z M53.3,51.2
	C53.3,51.2,53.3,51.1,53.3,51.2c-4.1-3.1-6.9-7.8-7.5-13.2h13.1C58.5,43,56.4,47.6,53.3,51.2z"/>
</svg>
