<?xml version="1.0" encoding="utf-8"?>
<!-- Generator: Adobe Illustrator 24.0.0, SVG Export Plug-In . SVG Version: 6.00 Build 0)  -->
<svg version="1.1" id="Layer_1" xmlns="http://www.w3.org/2000/svg" xmlns:xlink="http://www.w3.org/1999/xlink" x="0px" y="0px"
	 viewBox="0 0 72 72" style="enable-background:new 0 0 72 72;" xml:space="preserve">
<style type="text/css">
	.st0{fill:none;}
</style>
<title>photo_camera</title>
<rect x="0.2" class="st0" width="72" height="72"/>
<path d="M54.7,9.2c-11.6-2.9-25,0.8-34.9,10.6S6.3,43.2,9.2,54.7c0,0,0,0,0,0.1c1,3.9,4.1,7,8,8c0,0,0,0,0.1,0
	c11.6,2.9,25-0.8,34.9-10.6s13.5-23.3,10.6-34.9c0,0,0,0,0-0.1C61.8,13.3,58.7,10.2,54.7,9.2C54.8,9.2,54.7,9.2,54.7,9.2z
	 M22.7,22.7c8.5-8.5,20-11.9,30-9.8c-8.2,2.5-16.9,7.8-24.5,15.4c-7.6,7.6-12.8,16.3-15.4,24.4C10.8,42.7,14.2,31.2,22.7,22.7z
	 M55.8,16.2c-2.1,8.1-7.2,17.1-14.9,24.8c-7.7,7.7-16.7,12.8-24.8,14.9c2.1-8.1,7.2-17.1,14.9-24.8C38.7,23.4,47.7,18.2,55.8,16.2z
	 M49.3,49.3c-8.5,8.5-20,11.9-30,9.8c8.2-2.5,16.9-7.8,24.4-15.4c7.6-7.6,12.8-16.3,15.4-24.4C61.2,29.3,57.8,40.8,49.3,49.3z"/>
</svg>
