<?xml version="1.0" encoding="utf-8"?>
<!-- Generator: Adobe Illustrator 24.0.0, SVG Export Plug-In . SVG Version: 6.00 Build 0)  -->
<svg version="1.1" id="Layer_1" xmlns="http://www.w3.org/2000/svg" xmlns:xlink="http://www.w3.org/1999/xlink" x="0px" y="0px"
	 viewBox="0 0 72 72" style="enable-background:new 0 0 72 72;" xml:space="preserve">
<style type="text/css">
	.st0{fill:none;}
</style>
<title>info</title>
<rect class="st0" width="72" height="72"/>
<path d="M49.5,12.6c-12.9-7.5-29.4-3-36.9,9.9c-7.5,12.9-3,29.4,9.9,36.9c12.9,7.5,29.4,3,36.9-9.9C66.8,36.6,62.4,20.1,49.5,12.6z
	 M38,34.8V24.4l21,12.1c-0.1,3.1-0.8,6.3-2.2,9.2L38,34.8z M24.9,15.8c2.8-1.5,5.9-2.5,9.1-2.7v21.8l-9.1,5.2V15.8z M58.6,31.6
	L38,19.8v-6.7c3.2,0.3,6.5,1.3,9.5,3C53.5,19.5,57.3,25.3,58.6,31.6z M16.1,24.5c1.3-2.3,3-4.2,4.8-5.9v23.8l-5.8,3.3
	C12.1,39.2,12.2,31.3,16.1,24.5z M17.2,49.2L36,38.3l9.1,5.2l-21,12.1C21.3,54,18.9,51.7,17.2,49.2z M28.5,57.7l20.6-11.9l5.8,3.3
	C48.9,57.7,38.1,61.1,28.5,57.7z"/>
</svg>
