<?xml version="1.0" encoding="utf-8"?>
<!-- Generator: Adobe Illustrator 24.0.0, SVG Export Plug-In . SVG Version: 6.00 Build 0)  -->
<svg version="1.1" id="Layer_1" xmlns="http://www.w3.org/2000/svg" xmlns:xlink="http://www.w3.org/1999/xlink" x="0px" y="0px"
	 viewBox="0 0 72 72" style="enable-background:new 0 0 72 72;" xml:space="preserve">
<style type="text/css">
	.st0{fill:none;}
</style>
<title>photo_camera</title>
<rect x="0.2" class="st0" width="72" height="72"/>
<g>
	<path d="M61.8,12.7c-0.4-1.2-1.3-2.1-2.5-2.5c-13.5-4.7-29.1-1.7-39.9,9.1C8.6,30.1,5.5,45.7,10.2,59.3c0.4,1.2,1.3,2.1,2.5,2.5
		c13.5,4.7,29.1,1.7,39.9-9.1C63.4,41.9,66.5,26.3,61.8,12.7z M14,58c-1.9-5.5-2.4-11.3-1.5-17L31,59.4C25.3,60.4,19.5,59.9,14,58z
		 M49.8,49.8c-4.1,4.1-9,7-14.2,8.6l-22-22c1.6-5.2,4.4-10.1,8.6-14.2c4.1-4.1,8.9-6.9,14-8.5l22.1,22.1
		C56.7,40.9,53.9,45.8,49.8,49.8z M59.4,31.3L40.7,12.6c5.7-1,11.7-0.5,17.2,1.4C59.9,19.6,60.4,25.5,59.4,31.3z"/>
	<path d="M30.3,44.5l14.1-14.1c0.8-0.8,0.8-2,0-2.8l0,0c-0.8-0.8-2-0.8-2.8,0L27.5,41.7c-0.8,0.8-0.8,2,0,2.8l0,0
		C28.3,45.3,29.6,45.3,30.3,44.5z"/>
</g>
</svg>
