<?xml version="1.0" encoding="utf-8"?>
<!-- Generator: Adobe Illustrator 24.0.0, SVG Export Plug-In . SVG Version: 6.00 Build 0)  -->
<svg version="1.1" id="Layer_1" xmlns="http://www.w3.org/2000/svg" xmlns:xlink="http://www.w3.org/1999/xlink" x="0px" y="0px"
	 viewBox="0 0 72 72" style="enable-background:new 0 0 72 72;" xml:space="preserve">
<style type="text/css">
	.st0{fill:none;}
</style>
<title>star</title>
<rect class="st0" width="72" height="72"/>
<path d="M61.5,28.3l-16.9-1.6l-6.8-15.6c-0.7-1.6-3-1.6-3.7,0l-6.8,15.6l-16.9,1.6c-1.7,0.2-2.4,2.3-1.1,3.5l12.7,11.2l-3.7,16.6
	c-0.4,1.7,1.5,3,3,2.2L36,53.2l14.6,8.6c1.5,0.9,3.3-0.4,3-2.2l-3.7-16.6l12.7-11.2C63.9,30.7,63.2,28.5,61.5,28.3z M24.7,40.1
	l-9.3-8.2l12.3-1.2c1.4-0.1,2.7-1.1,3.3-2.4L36,17l4.9,11.3c0.6,1.3,1.8,2.2,3.3,2.4l12.3,1.2l-9.3,8.2c-1.1,1-1.6,2.4-1.3,3.9
	L48.7,56L38,49.7c-1.3-0.7-2.8-0.7-4.1,0L23.3,56L26,43.9C26.3,42.5,25.8,41,24.7,40.1z"/>
</svg>
