<?xml version="1.0" encoding="utf-8"?>
<!-- Generator: Adobe Illustrator 24.0.0, SVG Export Plug-In . SVG Version: 6.00 Build 0)  -->
<svg version="1.1" id="Layer_1" xmlns="http://www.w3.org/2000/svg" xmlns:xlink="http://www.w3.org/1999/xlink" x="0px" y="0px"
	 viewBox="0 0 72 72" style="enable-background:new 0 0 72 72;" xml:space="preserve">
<style type="text/css">
	.st0{fill:none;}
</style>
<title>store_mall_directory</title>
<rect class="st0" width="72" height="72"/>
<g>
	<path d="M57.1,13.4h-42c-1.1,0-2,0.9-2,2v0c0,1.1,0.9,2,2,2h42c1.1,0,2-0.9,2-2v0C59.1,14.3,58.3,13.4,57.1,13.4z"/>
	<path d="M55.9,20.6H16.4c-1.9,0-3.5,1.3-3.9,3.2L9.6,37.1c-0.3,1.2,0.7,2.4,2,2.4h1.6v15c0,2.2,1.8,4,4,4h20c2.2,0,4-1.8,4-4v-15
		h14v17c0,1.1,0.9,2,2,2h0c1.1,0,2-0.9,2-2v-17h0c2.1,0,3.6-1.9,3.2-3.9l-2.5-11.9C59.4,21.9,57.8,20.6,55.9,20.6z M37.1,54.6h-20
		v-15h20V54.6z M14.1,35.6l2.3-11h39.5l2.3,11H14.1z"/>
</g>
</svg>
