<?xml version="1.0" encoding="utf-8"?>
<!-- Generator: Adobe Illustrator 24.0.0, SVG Export Plug-In . SVG Version: 6.00 Build 0)  -->
<svg version="1.1" id="Layer_1" xmlns="http://www.w3.org/2000/svg" xmlns:xlink="http://www.w3.org/1999/xlink" x="0px" y="0px"
	 viewBox="0 0 72 72" style="enable-background:new 0 0 72 72;" xml:space="preserve">
<style type="text/css">
	.st0{fill:none;}
</style>
<title>local_shipping</title>
<rect class="st0" width="72" height="72"/>
<path d="M62.7,27.6l-3.1-12.9c-0.4-1.8-2-3.1-3.9-3.1H16.3c-1.9,0-3.5,1.3-3.9,3.1L9.3,27.9c-0.8,3.5,0.6,7,3.2,9v19.4
	c0,2.2,1.8,4,4,4h39c2.2,0,4-1.8,4-4V37C62.2,34.9,63.6,31.3,62.7,27.6z M55.7,15.7l3.1,13.2c0.7,3-1.5,5.8-4.6,5.8h0
	c-2.4,0-4.4-1.8-4.7-4.1l-1.8-14.8H55.7z M38,15.7h5.7l1.8,14.7c0.3,2.3-1.6,4.3-3.9,4.3c-2.1-0.1-3.7-1.9-3.7-4V15.7z M26.5,30.3
	l1.8-14.6H34v15.2v0c0,2.3-2,4.1-4.3,3.8C27.6,34.4,26.2,32.4,26.5,30.3z M13.2,28.7l3.1-13h7.9l-1.8,14.8c-0.3,2.5-2.6,4.4-5.2,4.1
	C14.3,34.3,12.5,31.5,13.2,28.7z M53.5,56.3h-35c-1.1,0-2-0.9-2-2V38.6c0.4,0.1,0.8,0.1,1.2,0.1h0c2.5,0,4.8-1.1,6.5-2.9
	c1.4,1.7,3.6,2.9,6,2.9c2.3,0,4.4-1,5.8-2.6c1.4,1.6,3.5,2.6,5.8,2.6c2.5,0,4.6-1.1,6-2.9c1.8,2,4.5,3.1,7.4,2.8c0.1,0,0.2,0,0.2,0
	v15.7C55.5,55.4,54.6,56.3,53.5,56.3z"/>
</svg>
