<?xml version="1.0" encoding="utf-8"?>
<!-- Generator: Adobe Illustrator 24.0.0, SVG Export Plug-In . SVG Version: 6.00 Build 0)  -->
<svg version="1.1" id="Layer_1" xmlns="http://www.w3.org/2000/svg" xmlns:xlink="http://www.w3.org/1999/xlink" x="0px" y="0px"
	 viewBox="0 0 72 72" style="enable-background:new 0 0 72 72;" xml:space="preserve">
<style type="text/css">
	.st0{fill:none;}
</style>
<title>arrow_right_alt</title>
<rect class="st0" width="72" height="72"/>
<path d="M31.5,36.1L31.5,36.1c0.8,0.8,0.8,2,0,2.8L24,46.4h26.3V12.7c0-1.1,0.9-2,2-2h0c1.1,0,2,0.9,2,2v33.7c0,2.2-1.8,4-4,4H24
	l7.5,7.5c0.8,0.8,0.8,2,0,2.8l0,0c-0.8,0.8-2,0.8-2.8,0L18.5,50.5c-1.2-1.2-1.2-3.1,0-4.2l10.2-10.2C29.4,35.4,30.7,35.4,31.5,36.1z
	"/>
</svg>
