<?xml version="1.0" encoding="utf-8"?>
<!-- Generator: Adobe Illustrator 24.0.0, SVG Export Plug-In . SVG Version: 6.00 Build 0)  -->
<svg version="1.1" id="Layer_1" xmlns="http://www.w3.org/2000/svg" xmlns:xlink="http://www.w3.org/1999/xlink" x="0px" y="0px"
	 viewBox="0 0 72 72" style="enable-background:new 0 0 72 72;" xml:space="preserve">
<style type="text/css">
	.st0{fill:none;}
</style>
<rect class="st0" width="72" height="72"/>
<g>
	<path d="M16.4,20.2h39.2c1.1,0,2,0.9,2,2v0c0,1.1-0.9,2-2,2H16.4c-1.1,0-2-0.9-2-2v0C14.4,21.1,15.3,20.2,16.4,20.2z M21.8,10.4
		h28.4c1.1,0,2,0.9,2,2v0c0,1.1-0.9,2-2,2H21.8c-1.1,0-2-0.9-2-2v0C19.8,11.3,20.7,10.4,21.8,10.4z"/>
	<path d="M43.4,43.7l-9.8-5.6c-1.3-0.8-3,0.2-3,1.7V51c0,1.5,1.7,2.5,3,1.7l9.8-5.6C44.7,46.4,44.7,44.5,43.4,43.7z M34.1,48.4v-6
		l5.3,3L34.1,48.4z"/>
	<path d="M59,29.3H13c-2.2,0-4,1.8-4,4v24.4c0,2.2,1.8,4,4,4h46c2.2,0,4-1.8,4-4V33.3C63,31.1,61.2,29.3,59,29.3z M13,57.6V33.3h46
		v24.4H13z"/>
</g>
</svg>
