<?xml version="1.0" encoding="utf-8"?>
<!-- Generator: Adobe Illustrator 24.0.0, SVG Export Plug-In . SVG Version: 6.00 Build 0)  -->
<svg version="1.1" id="Layer_1" xmlns="http://www.w3.org/2000/svg" xmlns:xlink="http://www.w3.org/1999/xlink" x="0px" y="0px"
	 viewBox="0 0 72 72" style="enable-background:new 0 0 72 72;" xml:space="preserve">
<style type="text/css">
	.st0{fill:none;}
</style>
<title>arrow_right_alt</title>
<rect class="st0" width="72" height="72"/>
<g>
	<path d="M27,37V15.8l-3.7,3.7c-0.8,0.8-2,0.8-2.8,0l0,0c-0.8-0.8-0.8-2,0-2.8l7.1-7.1c0.8-0.8,2-0.8,2.8,0l7.1,7.1
		c0.8,0.8,0.8,2,0,2.8l0,0c-0.8,0.8-2,0.8-2.8,0L31,15.8V37c0,1.1-0.9,2-2,2h0C27.9,39,27,38.1,27,37z"/>
	<path d="M41,35v21.2l-3.7-3.7c-0.8-0.8-2-0.8-2.8,0l0,0c-0.8,0.8-0.8,2,0,2.8l7.1,7.1c0.8,0.8,2,0.8,2.8,0l7.1-7.1
		c0.8-0.8,0.8-2,0-2.8l0,0c-0.8-0.8-2-0.8-2.8,0L45,56.2V35c0-1.1-0.9-2-2-2h0C41.9,33,41,33.9,41,35z"/>
</g>
</svg>
