<?xml version="1.0" encoding="utf-8"?>
<!-- Generator: Adobe Illustrator 24.0.0, SVG Export Plug-In . SVG Version: 6.00 Build 0)  -->
<svg version="1.1" id="Layer_1" xmlns="http://www.w3.org/2000/svg" xmlns:xlink="http://www.w3.org/1999/xlink" x="0px" y="0px"
	 viewBox="0 0 72 72" style="enable-background:new 0 0 72 72;" xml:space="preserve">
<style type="text/css">
	.st0{fill:none;}
</style>
<title>home</title>
<rect class="st0" width="72" height="72"/>
<path d="M34.7,12.4l-25,22.5c-0.8,0.7-0.9,2-0.1,2.8l0,0c0.7,0.8,2,0.9,2.8,0.1l1.5-1.4v21.5c0,1.2,1.1,2.2,2.4,2
	c3.1-0.6,6-1.8,8.6-3.3c5-3,8.9-7.5,11.1-12.9c2.2,5.4,6.1,10,11.1,13c2.7,1.6,5.6,2.8,8.8,3.4c1.2,0.2,2.4-0.7,2.4-2V36.5l1.5,1.4
	c0.8,0.7,2.1,0.7,2.8-0.1l0,0c0.7-0.8,0.7-2.1-0.1-2.8l-25-22.5C36.6,11.7,35.4,11.7,34.7,12.4z M54.1,55.5
	C45.3,52.8,38.8,44.9,38,35.4c-0.1-1-0.9-1.8-2-1.8h-0.2c-1,0-1.9,0.8-2,1.8c-0.8,9.5-7.3,17.3-16,20.1V32.9L36,16.6l18.1,16.3V55.5
	z"/>
</svg>
