<?xml version="1.0" encoding="utf-8"?>
<!-- Generator: Adobe Illustrator 24.0.0, SVG Export Plug-In . SVG Version: 6.00 Build 0)  -->
<svg version="1.1" id="Layer_1" xmlns="http://www.w3.org/2000/svg" xmlns:xlink="http://www.w3.org/1999/xlink" x="0px" y="0px"
	 viewBox="0 0 72 72" style="enable-background:new 0 0 72 72;" xml:space="preserve">
<style type="text/css">
	.st0{fill:none;}
</style>
<title>info</title>
<rect class="st0" width="72" height="72"/>
<g>
	<path d="M46.2,43.6L46.2,43.6c1.7,0,2.8-1.7,2.2-3.3L35.8,10.6c-1-2.4-4.5-2.4-5.5,0L17.6,40.3c-0.7,1.6,0.5,3.3,2.2,3.3h0
		c1,0,1.8-0.6,2.2-1.5l2.6-6.5h16.9l2.6,6.5C44.4,43,45.3,43.6,46.2,43.6z M26.1,31.6L33,14.3l6.9,17.3H26.1z"/>
	<path d="M49.5,46.6L49.5,46.6c-0.8,0.8-0.8,2,0,2.8l3.2,3.2H14.4c-1.1,0-2,0.9-2,2v0c0,1.1,0.9,2,2,2h38.3l-3.2,3.2
		c-0.8,0.8-0.8,2,0,2.8l0,0c0.8,0.8,2,0.8,2.8,0L59,56c0.8-0.8,0.8-2,0-2.8l-6.6-6.6C51.6,45.8,50.3,45.8,49.5,46.6z"/>
</g>
</svg>
