<?xml version="1.0" encoding="utf-8"?>
<!-- Generator: Adobe Illustrator 24.0.0, SVG Export Plug-In . SVG Version: 6.00 Build 0)  -->
<svg version="1.1" id="Layer_1" xmlns="http://www.w3.org/2000/svg" xmlns:xlink="http://www.w3.org/1999/xlink" x="0px" y="0px"
	 viewBox="0 0 72 72" style="enable-background:new 0 0 72 72;" xml:space="preserve">
<style type="text/css">
	.st0{fill:none;}
</style>
<title>info</title>
<rect class="st0" width="72" height="72"/>
<g>
	<path d="M43.6,46.2L43.6,46.2c0,1.7-1.7,2.8-3.3,2.2L10.6,35.8c-2.4-1-2.4-4.5,0-5.5l29.8-12.6c1.6-0.7,3.3,0.5,3.3,2.2v0
		c0,1-0.6,1.8-1.5,2.2l-6.5,2.6v16.9l6.5,2.6C43,44.4,43.6,45.3,43.6,46.2z M31.6,26.1L14.3,33l17.3,6.9V26.1z"/>
	<path d="M46.6,49.5L46.6,49.5c0.8-0.8,2-0.8,2.8,0l3.2,3.2V14.4c0-1.1,0.9-2,2-2h0c1.1,0,2,0.9,2,2v38.3l3.2-3.2
		c0.8-0.8,2-0.8,2.8,0l0,0c0.8,0.8,0.8,2,0,2.8L56,59c-0.8,0.8-2,0.8-2.8,0l-6.6-6.6C45.8,51.6,45.8,50.3,46.6,49.5z"/>
</g>
</svg>
