<?xml version="1.0" encoding="utf-8"?>
<!-- Generator: Adobe Illustrator 24.0.0, SVG Export Plug-In . SVG Version: 6.00 Build 0)  -->
<svg version="1.1" id="Layer_1" xmlns="http://www.w3.org/2000/svg" xmlns:xlink="http://www.w3.org/1999/xlink" x="0px" y="0px"
	 viewBox="0 0 72 72" style="enable-background:new 0 0 72 72;" xml:space="preserve">
<style type="text/css">
	.st0{fill:none;}
</style>
<title>info</title>
<rect class="st0" width="72" height="72"/>
<g>
	<path d="M44.6,28L44.6,28c1.2-1.2,0.8-3.2-0.8-3.8L13.8,12c-2.5-1-4.9,1.5-3.9,3.9l12.1,30c0.6,1.6,2.7,2,3.8,0.8l0,0
		c0.7-0.7,0.9-1.7,0.5-2.6l-2.8-6.4l12-12l6.4,2.8C42.8,28.8,43.9,28.7,44.6,28z M21.9,33.7l-7.4-17.1L31.6,24L21.9,33.7z"/>
	<path d="M49,27.7L49,27.7c0,1.1,0.9,2,2,2l4.5,0L28.4,56.8c-0.8,0.8-0.8,2,0,2.8l0,0c0.8,0.8,2,0.8,2.8,0l27.1-27.1v4.5
		c0,1.1,0.9,2,2,2h0c1.1,0,2-0.9,2-2v-9.4c0-1.1-0.9-2-2-2l-9.4,0C49.9,25.7,49,26.6,49,27.7z"/>
</g>
</svg>
