<?xml version="1.0" encoding="utf-8"?>
<!-- Generator: Adobe Illustrator 24.0.0, SVG Export Plug-In . SVG Version: 6.00 Build 0)  -->
<svg version="1.1" id="Layer_1" xmlns="http://www.w3.org/2000/svg" xmlns:xlink="http://www.w3.org/1999/xlink" x="0px" y="0px"
	 viewBox="0 0 72 72" style="enable-background:new 0 0 72 72;" xml:space="preserve">
<style type="text/css">
	.st0{fill:none;}
</style>
<title>info</title>
<rect class="st0" width="72" height="72"/>
<path d="M32.7,47.3L32.7,47.3c-1.7,0-2.8-1.7-2.2-3.3l12.6-29.8c1-2.4,4.5-2.4,5.5,0L61.3,44c0.7,1.6-0.5,3.3-2.2,3.3h0
	c-1,0-1.8-0.6-2.2-1.5l-2.6-6.5H37.4l-2.6,6.5C34.5,46.7,33.6,47.3,32.7,47.3z M52.8,35.3L45.9,18L39,35.3H52.8z"/>
<path d="M11.1,49.5L11.1,49.5c0.8-0.8,2-0.8,2.8,0l3.2,3.2V14.4c0-1.1,0.9-2,2-2h0c1.1,0,2,0.9,2,2v38.3l3.2-3.2
	c0.8-0.8,2-0.8,2.8,0l0,0c0.8,0.8,0.8,2,0,2.8L20.6,59c-0.8,0.8-2,0.8-2.8,0l-6.6-6.6C10.3,51.6,10.3,50.3,11.1,49.5z"/>
</svg>
