<?xml version="1.0" encoding="utf-8"?>
<!-- Generator: Adobe Illustrator 24.0.0, SVG Export Plug-In . SVG Version: 6.00 Build 0)  -->
<svg version="1.1" id="Layer_1" xmlns="http://www.w3.org/2000/svg" xmlns:xlink="http://www.w3.org/1999/xlink" x="0px" y="0px"
	 viewBox="0 0 72 72" style="enable-background:new 0 0 72 72;" xml:space="preserve">
<style type="text/css">
	.st0{fill:none;}
</style>
<title>info</title>
<rect class="st0" width="72" height="72"/>
<g>
	<path d="M44,44.6L44,44.6c1.2,1.2,3.2,0.8,3.8-0.8l12.1-30c1-2.5-1.5-4.9-3.9-3.9L26.1,22c-1.6,0.6-2,2.7-0.8,3.8l0,0
		c0.7,0.7,1.7,0.9,2.6,0.5l6.4-2.8l12,12L43.5,42C43.2,42.8,43.3,43.9,44,44.6z M38.3,21.9l17.1-7.4L48,31.6L38.3,21.9z"/>
	<path d="M44.3,49L44.3,49c-1.1,0-2,0.9-2,2l0,4.5L15.2,28.4c-0.8-0.8-2-0.8-2.8,0l0,0c-0.8,0.8-0.8,2,0,2.8l27.1,27.1h-4.5
		c-1.1,0-2,0.9-2,2v0c0,1.1,0.9,2,2,2h9.4c1.1,0,2-0.9,2-2l0-9.4C46.3,49.9,45.4,49,44.3,49z"/>
</g>
</svg>
