<?xml version="1.0" encoding="utf-8"?>
<!-- Generator: Adobe Illustrator 24.0.0, SVG Export Plug-In . SVG Version: 6.00 Build 0)  -->
<svg version="1.1" id="Layer_1" xmlns="http://www.w3.org/2000/svg" xmlns:xlink="http://www.w3.org/1999/xlink" x="0px" y="0px"
	 viewBox="0 0 72 72" style="enable-background:new 0 0 72 72;" xml:space="preserve">
<style type="text/css">
	.st0{fill:none;}
</style>
<title>assignment_returned</title>
<rect class="st0" width="72" height="72"/>
<path d="M41,15H29h-4H13h0c-2.2,0-4,1.8-4,4v0v3c0,1.1,0.9,2,2,2h0c1.1,0,2-0.9,2-2v-3h12v34h-2c-1.1,0-2,0.9-2,2v0c0,1.1,0.9,2,2,2
	h2h4h2c1.1,0,2-0.9,2-2v0c0-1.1-0.9-2-2-2h-2V19h12v3c0,1.1,0.9,2,2,2h0c1.1,0,2-0.9,2-2v-3v0C45,16.8,43.2,15,41,15L41,15z"/>
<path d="M59,32h-7h-4h-7h0c-2.2,0-4,1.8-4,4v0v3c0,1.1,0.9,2,2,2h0c1.1,0,2-0.9,2-2v-3h7v17h-2c-1.1,0-2,0.9-2,2v0c0,1.1,0.9,2,2,2
	h2h4h2c1.1,0,2-0.9,2-2v0c0-1.1-0.9-2-2-2h-2V36h7v3c0,1.1,0.9,2,2,2h0c1.1,0,2-0.9,2-2v-3v0C63,33.8,61.2,32,59,32L59,32z"/>
</svg>
