<?xml version="1.0" encoding="utf-8"?>
<!-- Generator: Adobe Illustrator 24.0.0, SVG Export Plug-In . SVG Version: 6.00 Build 0)  -->
<svg version="1.1" id="Layer_1" xmlns="http://www.w3.org/2000/svg" xmlns:xlink="http://www.w3.org/1999/xlink" x="0px" y="0px"
	 viewBox="0 0 72 72" style="enable-background:new 0 0 72 72;" xml:space="preserve">
<style type="text/css">
	.st0{fill:none;}
</style>
<title>thumb_up</title>
<rect class="st0" width="72" height="72"/>
<g>
	<path d="M45.3,58H19.7c-1.6,0-3-0.9-3.7-2.4L9.3,40.5c-1.2-2.7-1.8-5.5-1.8-8.4v-0.9c0-2.2,1.8-4,4-4h19l-2.2-10.3
		c-0.8-3.9,3.9-6.5,6.7-3.7l13,13c0.8,0.8,1.2,1.8,1.2,2.8V54C49.3,56.2,47.5,58,45.3,58z M32.3,16.1l2.2,10.3
		c0.5,2.5-1.4,4.8-3.9,4.8h-19v0c0,2.9,0.6,5.8,1.8,8.4L19.7,54h25.6V29.1L32.3,16.1z"/>
	<path d="M52.5,54V34c0-2.2,1.8-4,4-4h4c2.2,0,4,1.8,4,4v20c0,2.2-1.8,4-4,4h-4C54.3,58,52.5,56.2,52.5,54z M60.5,34h-4v20h4V34z"/>
</g>
</svg>
