<?xml version="1.0" encoding="utf-8"?>
<!-- Generator: Adobe Illustrator 24.0.0, SVG Export Plug-In . SVG Version: 6.00 Build 0)  -->
<svg version="1.1" id="Layer_1" xmlns="http://www.w3.org/2000/svg" xmlns:xlink="http://www.w3.org/1999/xlink" x="0px" y="0px"
	 viewBox="0 0 72 72" style="enable-background:new 0 0 72 72;" xml:space="preserve">
<style type="text/css">
	.st0{fill:none;}
</style>
<title>thumb_up</title>
<rect class="st0" width="72" height="72"/>
<g>
	<path d="M45.3,13H19.7c-1.6,0-3,0.9-3.7,2.4L9.3,30.5c-1.2,2.7-1.8,5.5-1.8,8.4v0.9c0,2.2,1.8,4,4,4h19l-2.2,10.3
		c-0.8,3.9,3.9,6.5,6.7,3.7l13-13c0.8-0.8,1.2-1.8,1.2-2.8V17C49.3,14.8,47.5,13,45.3,13z M32.3,54.9l2.2-10.3
		c0.5-2.5-1.4-4.8-3.9-4.8h-19v0c0-2.9,0.6-5.8,1.8-8.4L19.7,17h25.6v24.9L32.3,54.9z"/>
	<path d="M52.5,17v20c0,2.2,1.8,4,4,4h4c2.2,0,4-1.8,4-4V17c0-2.2-1.8-4-4-4h-4C54.3,13,52.5,14.8,52.5,17z M60.5,37h-4V17h4V37z"/>
</g>
</svg>
