<?xml version="1.0" encoding="utf-8"?>
<!-- Generator: Adobe Illustrator 24.0.0, SVG Export Plug-In . SVG Version: 6.00 Build 0)  -->
<svg version="1.1" id="Layer_1" xmlns="http://www.w3.org/2000/svg" xmlns:xlink="http://www.w3.org/1999/xlink" x="0px" y="0px"
	 viewBox="0 0 72 72" style="enable-background:new 0 0 72 72;" xml:space="preserve">
<style type="text/css">
	.st0{fill:none;}
</style>
<title>timer</title>
<rect class="st0" width="72" height="72"/>
<g>
	<path d="M42,8.9H30c-1.1,0-2,0.9-2,2v0c0,1.1,0.9,2,2,2h12c1.1,0,2-0.9,2-2v0C44,9.8,43.1,8.9,42,8.9z"/>
	<path d="M51.6,23.2l2-2c0.8-0.8,0.8-2,0-2.8l0,0c-0.8-0.8-2-0.8-2.8,0l-2.3,2.3c-4.2-2.7-9.4-4.1-14.9-3.5
		c-3.2,0.3-6.1,1.3-8.8,2.8l3.2,3.2c3.4-1.6,7.3-2.3,11.5-1.5c7.8,1.4,14,7.6,15.3,15.3c0.7,4.2,0.1,8.1-1.5,11.5l2.9,2.9
		c1.5-2.6,2.5-5.6,2.8-8.7C59.7,35,56.7,27.9,51.6,23.2z"/>
	<path d="M51,52L38,39l-4-4l-9.6-9.6l-3-3l-3-3c-0.8-0.8-2-0.8-2.8,0l0,0c-0.8,0.8-0.8,2,0,2.8l2.9,2.9c-3,3.5-4.9,7.8-5.4,12.6
		c-1.4,14.6,10.7,26.7,25.3,25.2c4.7-0.5,9-2.4,12.5-5.4l2.7,2.7c0.8,0.8,2,0.8,2.8,0v0c0.8-0.8,0.8-2,0-2.8l-2.7-2.7L51,52z
		 M36,59.4c-10.5,0-19-8.5-19-19c0-4.7,1.7-8.9,4.5-12.2l26.7,26.7C44.9,57.7,40.7,59.4,36,59.4z"/>
	<path d="M36,26.1L36,26.1c-1.1,0-2,0.9-2,2v1.3l4,4v-5.3C38,27,37.1,26.1,36,26.1z"/>
</g>
</svg>
