<?xml version="1.0" encoding="utf-8"?>
<!-- Generator: Adobe Illustrator 24.0.0, SVG Export Plug-In . SVG Version: 6.00 Build 0)  -->
<svg version="1.1" id="Layer_1" xmlns="http://www.w3.org/2000/svg" xmlns:xlink="http://www.w3.org/1999/xlink" x="0px" y="0px"
	 viewBox="0 0 72 72" style="enable-background:new 0 0 72 72;" xml:space="preserve">
<style type="text/css">
	.st0{fill:none;}
</style>
<title>timer</title>
<rect class="st0" width="72" height="72"/>
<g>
	<path d="M36,40L36,40c1.1,0,2-0.9,2-2V28c0-1.1-0.9-2-2-2h0c-1.1,0-2,0.9-2,2v10C34,39.1,34.9,40,36,40z"/>
	<path d="M42,9H30c-1.1,0-2,0.9-2,2v0c0,1.1,0.9,2,2,2h12c1.1,0,2-0.9,2-2v0C44,9.9,43.1,9,42,9z"/>
	<path d="M51.6,23.1l2-2c0.8-0.8,0.8-2,0-2.8l0,0c-0.8-0.8-2-0.8-2.8,0l-2.3,2.3c-4.2-2.7-9.4-4.1-14.9-3.5
		C22.8,18.3,14.2,27,13.1,37.7c-1.4,14.6,10.7,26.7,25.3,25.2c10.6-1.1,19.3-9.6,20.4-20.3C59.7,34.9,56.7,27.9,51.6,23.1z M36,59.3
		c-10.5,0-19-8.5-19-19c0-10.5,8.5-19,19-19c10.5,0,19,8.5,19,19C55,50.8,46.5,59.3,36,59.3z"/>
</g>
</svg>
