<?xml version="1.0" encoding="utf-8"?>
<!-- Generator: Adobe Illustrator 24.0.0, SVG Export Plug-In . SVG Version: 6.00 Build 0)  -->
<svg version="1.1" id="Layer_1" xmlns="http://www.w3.org/2000/svg" xmlns:xlink="http://www.w3.org/1999/xlink" x="0px" y="0px"
	 viewBox="0 0 72 72" style="enable-background:new 0 0 72 72;" xml:space="preserve">
<style type="text/css">
	.st0{fill:none;}
</style>
<title>assignment_returned</title>
<rect class="st0" width="72" height="72"/>
<path d="M55,9H38h-4H17h0c-2.2,0-4,1.8-4,4v0v3c0,1.1,0.9,2,2,2h0c1.1,0,2-0.9,2-2v-3h17v46h-4c-1.1,0-2,0.9-2,2v0c0,1.1,0.9,2,2,2
	h4h4h5c1.1,0,2-0.9,2-2v0c0-1.1-0.9-2-2-2h-5V13h17v3c0,1.1,0.9,2,2,2h0c1.1,0,2-0.9,2-2v-3v0C59,10.8,57.2,9,55,9L55,9z"/>
</svg>
