<?xml version="1.0" encoding="utf-8"?>
<!-- Generator: Adobe Illustrator 24.0.0, SVG Export Plug-In . SVG Version: 6.00 Build 0)  -->
<svg version="1.1" id="Layer_1" xmlns="http://www.w3.org/2000/svg" xmlns:xlink="http://www.w3.org/1999/xlink" x="0px" y="0px"
	 viewBox="0 0 72 72" style="enable-background:new 0 0 72 72;" xml:space="preserve">
<style type="text/css">
	.st0{fill:none;}
</style>
<title>Asset 33</title>
<rect class="st0" width="72" height="72"/>
<path d="M55.4,40.3l-13.6-6.9c4.5-2.7,7.4-7.9,6.7-13.8c-0.8-6.3-5.9-11.4-12.3-12.1c-8.5-0.9-15.6,5.6-15.6,13.9
	c0,5.6,3.3,10.4,8,12.6V45l-6.7-1.4c-2-0.4-4.1,0.2-5.6,1.7l-0.8,0.9c-1.5,1.6-1.5,4.1,0,5.6l11.7,11.7c0.8,0.8,1.8,1.2,2.8,1.2
	l20.5,0c1.9,0,3.6-1.4,3.9-3.3l3-16.8C57.8,42.8,57,41.1,55.4,40.3z M36.6,35.2l17,8.6l-3,16.8l-20.5,0L18.4,49l1.6-1.6l10.2,2.2
	c1.2,0.3,2.4-0.7,2.4-2v-26c0-1,0.7-1.9,1.7-2.1c1.3-0.2,2.3,0.8,2.3,2V35.2z M24.6,21.4c0-5.9,5.1-10.6,11.2-9.9
	c4.5,0.5,8.1,4.1,8.7,8.5c0.5,3.8-1.1,7.3-3.9,9.4l0-7.7c0-3.3-2.5-6.2-5.8-6.2c-3.4-0.1-6.2,2.6-6.2,6v8
	C26.1,27.5,24.6,24.6,24.6,21.4z"/>
</svg>
