<?xml version="1.0" encoding="utf-8"?>
<!-- Generator: Adobe Illustrator 24.0.0, SVG Export Plug-In . SVG Version: 6.00 Build 0)  -->
<svg version="1.1" id="Layer_1" xmlns="http://www.w3.org/2000/svg" xmlns:xlink="http://www.w3.org/1999/xlink" x="0px" y="0px"
	 viewBox="0 0 72 72" style="enable-background:new 0 0 72 72;" xml:space="preserve">
<style type="text/css">
	.st0{fill:none;}
</style>
<title>refresh</title>
<rect class="st0" width="72" height="72"/>
<path d="M64,36.4c0-8.1-6.2-15-14.3-15.4c-4.6-0.2-8.8,1.7-11.7,4.8V9.6C38,8.7,37.3,8,36.4,8h0c-8.1,0-15,6.2-15.4,14.3
	c-0.2,4.6,1.7,8.8,4.8,11.7H9.6C8.7,34,8,34.7,8,35.6v0c0,8.1,6.2,15,14.3,15.4c4.6,0.2,8.8-1.7,11.7-4.8v16.3
	c0,0.9,0.7,1.6,1.6,1.6h0c8.1,0,15-6.2,15.4-14.3c0.2-4.6-1.7-8.8-4.8-11.7h16.3C63.3,38,64,37.3,64,36.4L64,36.4z M25,23
	c0-5.4,3.9-9.9,9-10.8v21.6C28.9,32.9,25,28.4,25,23z M23,47c-5.4,0-9.9-3.9-10.8-9h21.6C32.9,43.1,28.4,47,23,47z M47,49
	c0,5.4-3.9,9.9-9,10.8V38.2C43.1,39.1,47,43.6,47,49z M38.2,34c0.9-5.1,5.4-9,10.8-9s9.9,3.9,10.8,9H38.2z"/>
</svg>
