<?xml version="1.0" encoding="utf-8"?>
<!-- Generator: Adobe Illustrator 24.0.0, SVG Export Plug-In . SVG Version: 6.00 Build 0)  -->
<svg version="1.1" id="Layer_1" xmlns="http://www.w3.org/2000/svg" xmlns:xlink="http://www.w3.org/1999/xlink" x="0px" y="0px"
	 viewBox="0 0 72 72" style="enable-background:new 0 0 72 72;" xml:space="preserve">
<style type="text/css">
	.st0{fill:none;}
	.st1{display:none;opacity:0.56;}
</style>
<title>Asset 33</title>
<rect class="st0" width="72" height="72"/>
<path class="st1" d="M36,17C20,17,7,30,7,46c0,16,13,29,29,29c16,0,29-13,29-29C65,30,52,17,36,17z M36,71c-13.8,0-25-11.2-25-25
	c0-13.8,11.2-25,25-25c13.8,0,25,11.2,25,25C61,59.8,49.8,71,36,71z"/>
<path d="M53.8,18.6L53.8,18.6c-0.7,0.7-0.8,1.9-0.1,2.7c3.8,4.6,5.9,10.7,5.2,17.3c-1.1,10.6-9.6,19.2-20.3,20.3
	C24.7,60.4,13,49.6,13,36c0-12,9.2-21.9,21-22.9v7c-8.3,1-14.6,8.4-13.9,17.2c0.6,7.9,7.2,14.3,15.1,14.7C44.4,52.4,52,45.1,52,36
	c0-3.5-1.2-6.8-3.1-9.5c-0.7-0.9-2.1-1.1-2.9-0.2l-0.1,0.1c-0.7,0.7-0.7,1.7-0.2,2.5c1.5,2,2.4,4.6,2.3,7.3
	c-0.1,6.3-5.3,11.5-11.5,11.7C29.6,48.2,24,42.8,24,36c0-5.9,4.3-10.9,10-11.8v8.4c-1.5,0.8-2.3,2.6-1.9,4.4
	c0.3,1.4,1.5,2.6,2.9,2.9c2.6,0.6,5-1.4,5-3.9c0-1.5-0.8-2.8-2-3.4v-8.4v-4v-7V11c0-1.1-0.9-2-2-2c0,0,0,0,0,0
	C20.5,9,8.1,22,9.1,37.7c0.8,13.4,11.8,24.4,25.2,25.2C50,63.9,63,51.5,63,36c0-6.6-2.4-12.6-6.3-17.3C56,17.8,54.6,17.7,53.8,18.6z
	"/>
</svg>
