<?xml version="1.0" encoding="utf-8"?>
<!-- Generator: Adobe Illustrator 24.0.0, SVG Export Plug-In . SVG Version: 6.00 Build 0)  -->
<svg version="1.1" id="Layer_1" xmlns="http://www.w3.org/2000/svg" xmlns:xlink="http://www.w3.org/1999/xlink" x="0px" y="0px"
	 viewBox="0 0 72 72" style="enable-background:new 0 0 72 72;" xml:space="preserve">
<style type="text/css">
	.st0{fill:none;}
</style>
<title>language</title>
<rect class="st0" width="72" height="72"/>
<g>
	<circle cx="36.4" cy="49.5" r="4"/>
	<circle cx="36.4" cy="36" r="4"/>
	<circle cx="36.4" cy="22.5" r="4"/>
	<path d="M51,41.3c0,0,0.1,0,0.1,0c5.5,0,10-4.5,10-10c0-0.2,0-0.4,0-0.5H51v-5c0,0,0.1,0,0.1,0c5.5,0,10-4.5,10-10
		c0-0.2,0-0.4,0-0.5H51v-2.3c0-2.2-1.8-4-4-4H25c-2.2,0-4,1.8-4,4v2.3H10.9c0,0.2,0,0.4,0,0.5c0,5.5,4.5,10,10,10c0,0,0.1,0,0.1,0v5
		H10.9c0,0.2,0,0.4,0,0.5c0,5.5,4.5,10,10,10c0,0,0.1,0,0.1,0v5H10.9c0,0.2,0,0.4,0,0.5c0,5.5,4.5,10,10,10c0,0,0.1,0,0.1,0v2.3
		c0,2.2,1.8,4,4,4h22c2.2,0,4-1.8,4-4v-2.3c0,0,0.1,0,0.1,0c5.5,0,10-4.5,10-10c0-0.2,0-0.4,0-0.5H51V41.3z M51,19.2h5
		c-1.1,1.5-2.9,2.5-4.9,2.5c0,0-0.1,0-0.1,0V19.2z M51,34.7h5c-1.1,1.5-2.9,2.5-4.9,2.5c0,0-0.1,0-0.1,0V34.7z M21,52.8
		c0,0-0.1,0-0.1,0c-2,0-3.8-1-4.9-2.5h5V52.8z M21,37.3c0,0-0.1,0-0.1,0c-2,0-3.8-1-4.9-2.5h5V37.3z M21,21.8c0,0-0.1,0-0.1,0
		c-2,0-3.8-1-4.9-2.5h5V21.8z M47,59.1H25V12.9h22V59.1z M56,50.2c-1.1,1.5-2.9,2.5-4.9,2.5c0,0-0.1,0-0.1,0v-2.5H56z"/>
</g>
</svg>
