<?xml version="1.0" encoding="utf-8"?>
<!-- Generator: Adobe Illustrator 24.0.0, SVG Export Plug-In . SVG Version: 6.00 Build 0)  -->
<svg version="1.1" id="Layer_1" xmlns="http://www.w3.org/2000/svg" xmlns:xlink="http://www.w3.org/1999/xlink" x="0px" y="0px"
	 viewBox="0 0 72 72" style="enable-background:new 0 0 72 72;" xml:space="preserve">
<style type="text/css">
	.st0{fill:none;}
	.st1{display:none;}
</style>
<title>info</title>
<rect class="st0" width="72" height="72"/>
<path class="st1" d="M38.1,43.5l-6.2-6.2l0.1-0.1c4.3-4.8,7.3-10.2,9.1-16h7.2v-4.9H31.1v-4.9h-4.9v4.9H9v4.9h27.4
	c-1.6,4.7-4.2,9.2-7.8,13.2c-2.3-2.5-4.2-5.3-5.7-8.2h-4.9c1.8,4,4.2,7.8,7.3,11.2L12.9,49.7l3.5,3.5l12.3-12.3l7.6,7.6
	C36.3,48.5,38.1,43.5,38.1,43.5z M52,31.1H47L36,60.5h4.9l2.7-7.4h11.7l2.8,7.4H63L52,31.1z M45.5,48.3l4-10.6l4,10.6H45.5z"/>
<path d="M60.7,60.6L60.7,60.6c1.6,0,2.7-1.7,2.1-3.2L52.3,32.7c-1-2.4-4.5-2.4-5.5,0L36.3,57.4c-0.6,1.5,0.5,3.2,2.1,3.2h0
	c0.9,0,1.8-0.6,2.1-1.4l2.7-6.8h12.6l2.7,6.8C58.9,60,59.7,60.6,60.7,60.6z M44.8,48.3l4.7-11.9l4.7,11.9H44.8z"/>
<path d="M41,20.5H47c1.1,0,2-0.9,2-2v0c0-1.1-0.9-2-2-2H31v-3.1c0-1.1-0.9-2-2-2h0c-1.1,0-2,0.9-2,2v3.1H11c-1.1,0-2,0.9-2,2v0
	c0,1.1,0.9,2,2,2h25.8c-0.7,2.3-1.6,4.5-2.7,6.7c-1.4,2.7-3.2,5.1-5.2,7.3c-0.2,0-0.3,0-0.4,0c-0.7-0.8-2.1-2.2-3.6-4.4
	c-0.6-0.9-1.2-1.8-1.7-2.8c-0.4-0.7-1-1.1-1.8-1.1h0c-1.5,0-2.5,1.6-1.8,3c0.6,1.1,1.2,2.2,1.9,3.2c1.4,2.1,2.7,3.5,3.7,4.6
	c0.2,0.2,0.4,0.4,0.6,0.6L14.7,48.8c-0.8,0.8-0.8,2,0,2.8l0,0c0.8,0.8,2,0.8,2.8,0l11.1-11.1c1.7,1.8,3.6,3.7,5.6,5.6
	c1,1,2.8,0.6,3.3-0.7l0,0c0.3-0.7,0.1-1.6-0.5-2.2c-2-1.9-3.8-3.8-5.5-5.6c2.4-2.6,4.5-5.5,6.2-8.6C39.1,26.3,40.2,23.5,41,20.5z"/>
</svg>
