<?xml version="1.0" encoding="utf-8"?>
<!-- Generator: Adobe Illustrator 24.0.0, SVG Export Plug-In . SVG Version: 6.00 Build 0)  -->
<svg version="1.1" id="Layer_1" xmlns="http://www.w3.org/2000/svg" xmlns:xlink="http://www.w3.org/1999/xlink" x="0px" y="0px"
	 viewBox="0 0 72 72" style="enable-background:new 0 0 72 72;" xml:space="preserve">
<style type="text/css">
	.st0{fill:none;}
	.st1{display:none;}
</style>
<title>directions</title>
<rect class="st0" width="72" height="72"/>
<path class="st1" d="M21.3,59.5h4.9V25.2h29.5v4.9l7.4-7.4l-7.4-7.4v4.9h-4.9v-9.8h-4.9v9.8H26.2c-2.7,0-4.9,2.2-4.9,4.9v19.6h-4.9
	v-4.9L9,47.3l7.4,7.4v-4.9h4.9V59.5z M45.8,30.1v14.7H31.1v4.9h14.7c2.7,0,4.9-2.2,4.9-4.9V30.1H45.8z"/>
<g>
	<path d="M14.7,17.5L14.7,17.5c0.8,0.8,2,0.8,2.8,0l2.2-2.2v7.3h-4.5c-1.1,0-2,0.9-2,2v0c0,1.1,0.9,2,2,2h4.5v18.8c0,2.2,1.8,4,4,4
		h24.5v7.3L46,54.5c-0.8-0.8-2-0.8-2.8,0l0,0c-0.8,0.8-0.8,2,0,2.8l5.7,5.7c0.8,0.8,2,0.8,2.8,0l5.7-5.7c0.8-0.8,0.8-2,0-2.8l0,0
		c-0.8-0.8-2-0.8-2.8,0l-2.2,2.2v-7.3h4.5c1.1,0,2-0.9,2-2v0c0-1.1-0.9-2-2-2h-33V26.6v-4v-7.3l2.2,2.2c0.8,0.8,2,0.8,2.8,0l0,0
		c0.8-0.8,0.8-2,0-2.8L23.2,9c-0.8-0.8-2-0.8-2.8,0l-5.7,5.7C13.9,15.5,13.9,16.7,14.7,17.5z"/>
	<path d="M48.3,26.6v13.8h4V26.6c0-2.2-1.8-4-4-4H28.7v4H48.3z"/>
</g>
</svg>
