<?xml version="1.0" encoding="utf-8"?>
<!-- Generator: Adobe Illustrator 24.0.0, SVG Export Plug-In . SVG Version: 6.00 Build 0)  -->
<svg version="1.1" id="Layer_1" xmlns="http://www.w3.org/2000/svg" xmlns:xlink="http://www.w3.org/1999/xlink" x="0px" y="0px"
	 viewBox="0 0 72 72" style="enable-background:new 0 0 72 72;" xml:space="preserve">
<style type="text/css">
	.st0{fill:none;}
</style>
<title>info</title>
<rect class="st0" width="72" height="72"/>
<path d="M60.6,36.6L60.6,36.6c-1.1,0-2,0.9-2,2l0,6.5L40.1,26.5c-0.8-0.8-2-0.8-2.8,0l-9.3,9.3L12.8,20.7c-0.8-0.8-2-0.8-2.8,0l0,0
	c-0.8,0.8-0.8,2,0,2.8l16.6,16.6c0.8,0.8,2,0.8,2.8,0l9.3-9.3l17.2,17.2h-6.5c-1.1,0-2,0.9-2,2v0c0,1.1,0.9,2,2,2h11.4
	c1.1,0,2-0.9,2-2l0-11.4C62.6,37.5,61.7,36.6,60.6,36.6z"/>
</svg>
