<?xml version="1.0" encoding="utf-8"?>
<!-- Generator: Adobe Illustrator 24.0.0, SVG Export Plug-In . SVG Version: 6.00 Build 0)  -->
<svg version="1.1" id="Layer_1" xmlns="http://www.w3.org/2000/svg" xmlns:xlink="http://www.w3.org/1999/xlink" x="0px" y="0px"
	 viewBox="0 0 72 72" style="enable-background:new 0 0 72 72;" xml:space="preserve">
<style type="text/css">
	.st0{fill:none;}
</style>
<title>tune</title>
<rect class="st0" width="72" height="72"/>
<g>
	<path d="M11,21.2h29.3v-4H11c-1.1,0-2,0.9-2,2v0C9,20.3,9.9,21.2,11,21.2z"/>
	<path d="M61,17.2H50.3V12c0-1.1-0.9-2-2-2h0c-1.1,0-2,0.9-2,2v14c0,1.1,0.9,2,2,2h0c1.1,0,2-0.9,2-2v-4.8H61c1.1,0,2-0.9,2-2v0
		C63,18.1,62.1,17.2,61,17.2z"/>
	<path d="M11,38.2h9.3v-4H11c-1.1,0-2,0.9-2,2v0C9,37.3,9.9,38.2,11,38.2z"/>
	<path d="M61,34.2H30.3V29c0-1.1-0.9-2-2-2h0c-1.1,0-2,0.9-2,2v14c0,1.1,0.9,2,2,2h0c1.1,0,2-0.9,2-2v-4.8H61c1.1,0,2-0.9,2-2v0
		C63,35.1,62.1,34.2,61,34.2z"/>
	<path d="M11,55.2h19.3v-4H11c-1.1,0-2,0.9-2,2v0C9,54.3,9.9,55.2,11,55.2z"/>
	<path d="M61,51.2H40.3V46c0-1.1-0.9-2-2-2h0c-1.1,0-2,0.9-2,2v14c0,1.1,0.9,2,2,2h0c1.1,0,2-0.9,2-2v-4.8H61c1.1,0,2-0.9,2-2v0
		C63,52.1,62.1,51.2,61,51.2z"/>
</g>
</svg>
