<?xml version="1.0" encoding="utf-8"?>
<!-- Generator: Adobe Illustrator 24.0.0, SVG Export Plug-In . SVG Version: 6.00 Build 0)  -->
<svg version="1.1" id="Layer_1" xmlns="http://www.w3.org/2000/svg" xmlns:xlink="http://www.w3.org/1999/xlink" x="0px" y="0px"
	 viewBox="0 0 72 72" style="enable-background:new 0 0 72 72;" xml:space="preserve">
<style type="text/css">
	.st0{fill:none;}
</style>
<path class="st0" d="M0,0h72v72H0V0z"/>
<path d="M9,18.5v31c0,2.2,1.8,4,4,4h13v2c0,1.1,0.9,2,2,2h16c1.1,0,2-0.9,2-2v-2h13c2.2,0,4-1.8,4-4v-31c0-2.2-1.8-4-4-4H13
	C10.8,14.5,9,16.3,9,18.5z M59,49.5H13v-31h46V49.5z"/>
</svg>
