<?xml version="1.0" encoding="utf-8"?>
<!-- Generator: Adobe Illustrator 24.0.0, SVG Export Plug-In . SVG Version: 6.00 Build 0)  -->
<svg version="1.1" id="Layer_1" xmlns="http://www.w3.org/2000/svg" xmlns:xlink="http://www.w3.org/1999/xlink" x="0px" y="0px"
	 viewBox="0 0 72 72" style="enable-background:new 0 0 72 72;" xml:space="preserve">
<style type="text/css">
	.st0{fill:none;}
</style>
<title>code</title>
<rect class="st0" width="72" height="72"/>
<g>
	<path d="M36,21.8l9.9-9.9c0.8-0.8,2-0.8,2.8,0l0,0c0.8,0.8,0.8,2,0,2.8L37.4,26.1c-0.8,0.8-2,0.8-2.8,0L23.3,14.8
		c-0.8-0.8-0.8-2,0-2.8l0,0c0.8-0.8,2-0.8,2.8,0L36,21.8z"/>
	<path d="M36,50.2l9.9,9.9c0.8,0.8,2,0.8,2.8,0h0c0.8-0.8,0.8-2,0-2.8L37.4,45.9c-0.8-0.8-2-0.8-2.8,0L23.3,57.2
		c-0.8,0.8-0.8,2,0,2.8h0c0.8,0.8,2,0.8,2.8,0L36,50.2z"/>
</g>
</svg>
