<?xml version="1.0" encoding="utf-8"?>
<!-- Generator: Adobe Illustrator 24.0.0, SVG Export Plug-In . SVG Version: 6.00 Build 0)  -->
<svg version="1.1" id="Layer_1" xmlns="http://www.w3.org/2000/svg" xmlns:xlink="http://www.w3.org/1999/xlink" x="0px" y="0px"
	 viewBox="0 0 72 72" style="enable-background:new 0 0 72 72;" xml:space="preserve">
<style type="text/css">
	.st0{fill:none;}
</style>
<title>refresh</title>
<rect class="st0" width="72" height="72"/>
<g>
	<path d="M18.5,20.7c9.1-10.4,24.8-11,34.6-1.8v-5.3c0-1.1,0.9-2,2-2h0c1.1,0,2,0.9,2,2v10c0,1.1-0.9,2-2,2l-10,0c-1.1,0-2-0.9-2-2
		v0c0-1.1,0.9-2,2-2l5,0c-7.9-7.2-20.1-6.9-27.7,0.8c-7.3,7.4-7.6,19.6-0.6,27.4c7.7,8.6,21,8.9,29,0.8c2.1-2.1,3.7-4.7,4.7-7.4
		c0.3-0.8,1-1.3,1.9-1.3h0c1.4,0,2.4,1.4,1.9,2.7c-1.2,3.2-3,6.2-5.6,8.8c-9.7,9.7-25.8,9.4-35-1.1C10.7,43.3,10.7,29.7,18.5,20.7z"
		/>
	<path d="M45.4,44.2L36,38.8V26.1c0-1.1-0.9-2-2-2h0c-1.1,0-2,0.9-2,2v13.8c0,0.7,0.4,1.4,1,1.7l10.4,6c1,0.6,2.2,0.2,2.7-0.7l0,0
		C46.7,45.9,46.3,44.7,45.4,44.2z"/>
</g>
</svg>
