<?xml version="1.0" encoding="utf-8"?>
<!-- Generator: Adobe Illustrator 24.0.0, SVG Export Plug-In . SVG Version: 6.00 Build 0)  -->
<svg version="1.1" id="Layer_1" xmlns="http://www.w3.org/2000/svg" xmlns:xlink="http://www.w3.org/1999/xlink" x="0px" y="0px"
	 viewBox="0 0 72 72" style="enable-background:new 0 0 72 72;" xml:space="preserve">
<style type="text/css">
	.st0{fill:none;}
</style>
<title>code</title>
<rect class="st0" width="72" height="72"/>
<path d="M44,25.8v10h3.1v5.8h-9V19.7h5.1l-7.1-9.1L29,19.7h5.1v20.9h-9v-6.2c1.8-0.8,3.1-2.5,3.1-4.6c0-2.8-2.2-5-5-5s-5,2.2-5,5
	c0,2,1.2,3.8,2.9,4.5v10.2h13V55c-1.8,0.8-3,2.5-3,4.6c0,2.8,2.2,5,5,5c2.8,0,5-2.2,5-5c0-2-1.2-3.8-3-4.6v-9.5h13v-9.8H54v-10H44z"
	/>
</svg>
