<?xml version="1.0" encoding="utf-8"?>
<!-- Generator: Adobe Illustrator 24.0.0, SVG Export Plug-In . SVG Version: 6.00 Build 0)  -->
<svg version="1.1" id="Layer_1" xmlns="http://www.w3.org/2000/svg" xmlns:xlink="http://www.w3.org/1999/xlink" x="0px" y="0px"
	 viewBox="0 0 72 72" style="enable-background:new 0 0 72 72;" xml:space="preserve">
<style type="text/css">
	.st0{fill:none;}
</style>
<title>info</title>
<rect class="st0" width="72" height="72"/>
<g>
	<path d="M35.9,13.1l18.2,8.1V33c0,11.7-7.2,21.9-18.1,25.8C25.1,54.9,17.9,44.7,17.9,33V21.1L35.9,13.1z M16.3,17.5
		c-1.4,0.6-2.4,2.1-2.4,3.7V33c0,13.6,8.7,25.3,20.8,29.6c0.8,0.3,1.7,0.3,2.6,0c12.1-4.4,20.8-16,20.8-29.6V21.2
		c0-1.6-0.9-3-2.4-3.7L37.5,9.4c-1-0.5-2.2-0.5-3.3,0L16.3,17.5z"/>
	<path d="M43.1,28.9l-9.9,9.9l-4.2-4.2c-0.8-0.8-2-0.8-2.8,0l0,0c-0.8,0.8-0.8,2,0,2.8l5.7,5.7c0.8,0.8,2,0.8,2.8,0l11.3-11.3
		c0.8-0.8,0.8-2,0-2.8l0,0C45.1,28.1,43.9,28.1,43.1,28.9z"/>
</g>
</svg>
