<?xml version="1.0" encoding="utf-8"?>
<!-- Generator: Adobe Illustrator 24.0.0, SVG Export Plug-In . SVG Version: 6.00 Build 0)  -->
<svg version="1.1" id="Layer_1" xmlns="http://www.w3.org/2000/svg" xmlns:xlink="http://www.w3.org/1999/xlink" x="0px" y="0px"
	 viewBox="0 0 72 72" style="enable-background:new 0 0 72 72;" xml:space="preserve">
<style type="text/css">
	.st0{fill:none;}
</style>
<title>videocam</title>
<polyline class="st0" points="72,0 72,72 0,72 "/>
<path d="M57.9,23.7L51,30.6V22c0-2.2-1.8-4-4-4H13c-2.2,0-4,1.8-4,4v28c0,2.2,1.8,4,4,4h34c2.2,0,4-1.8,4-4v-8.6l6.9,6.9
	c1.9,1.9,5.1,0.6,5.1-2.1V25.8C63,23.2,59.8,21.8,57.9,23.7z M47,50H13V22h34V50z M59,43.7L51.3,36l7.7-7.7V43.7z"/>
</svg>
