<?xml version="1.0" encoding="utf-8"?>
<!-- Generator: Adobe Illustrator 24.0.0, SVG Export Plug-In . SVG Version: 6.00 Build 0)  -->
<svg version="1.1" id="Layer_1" xmlns="http://www.w3.org/2000/svg" xmlns:xlink="http://www.w3.org/1999/xlink" x="0px" y="0px"
	 viewBox="0 0 72 72" style="enable-background:new 0 0 72 72;" xml:space="preserve">
<style type="text/css">
	.st0{fill:none;}
</style>
<title>videocam</title>
<polyline class="st0" points="72,0 72,72 0,72 "/>
<g>
	<path d="M47,44.2L24.8,22l-4-4l-5.1-5.1c-0.8-0.8-2-0.8-2.8,0l0,0c-0.8,0.8-0.8,2,0,2.8l2.3,2.3H13c-2.2,0-4,1.8-4,4v28
		c0,2.2,1.8,4,4,4h38v-0.2l1.3,1.3c0.8,0.8,2,0.8,2.8,0l0,0c0.8-0.8,0.8-2,0-2.8L51,48.2L47,44.2z M47,50H13V22h6.2L47,49.8V50z"/>
	<path d="M51,30.6V22c0-2.2-1.8-4-4-4H26.5l4,4H47v16.5l4,4v-1.1l6.9,6.9c1.9,1.9,5.1,0.6,5.1-2.1V25.8c0-2.7-3.2-4-5.1-2.1L51,30.6
		z M59,43.7L51.3,36l7.7-7.7V43.7z"/>
</g>
</svg>
