<?xml version="1.0" encoding="utf-8"?>
<!-- Generator: Adobe Illustrator 24.0.0, SVG Export Plug-In . SVG Version: 6.00 Build 0)  -->
<svg version="1.1" id="Layer_1" xmlns="http://www.w3.org/2000/svg" xmlns:xlink="http://www.w3.org/1999/xlink" x="0px" y="0px"
	 viewBox="0 0 72 72" style="enable-background:new 0 0 72 72;" xml:space="preserve">
<style type="text/css">
	.st0{fill:none;}
</style>
<title>Asset 33</title>
<rect class="st0" width="72" height="72"/>
<g>
	<path d="M36,17c-3.2,0-6.2,0.5-9.1,1.4l3.2,3.2C32,21.2,34,21,36,21c10.3,0,19.1,6.2,22.9,15c-1.4,3.2-3.5,6.1-6,8.4l2.8,2.8
		c2.9-2.7,5.2-5.9,6.8-9.6c0.5-1,0.5-2.2,0-3.3C58.1,24.1,47.9,17,36,17z"/>
	<path d="M41.4,32.9l4.7,4.7c0.2-1.1,0.2-2.2,0-3.3c-0.7-4.1-4-7.5-8.2-8.2c-1.1-0.2-2.3-0.2-3.3,0l4.7,4.7
		C40.2,31.4,40.9,32.1,41.4,32.9z"/>
	<path d="M49.7,46.9l-5.2-5.2l-2.9-2.9l-8.1-8.1l-2.9-2.9l-4.7-4.7l-3-3l-3.2-3.2c-0.8-0.8-2-0.8-2.8,0l0,0c-0.8,0.8-0.8,2,0,2.8
		l2.5,2.5c-4.3,3-7.8,7.2-10,12.1c-0.5,1-0.5,2.2,0,3.3C13.9,47.9,24.1,55,36,55c4.7,0,9.1-1.1,13.1-3.1l3.2,3.2
		c0.8,0.8,2,0.8,2.8,0l0,0c0.8-0.8,0.8-2,0-2.8l-2.5-2.5L49.7,46.9z M38.7,41.5c-0.3,0.1-0.7,0.3-1,0.4c-4.4,1-8.2-2.9-7.2-7.2
		c0.1-0.4,0.2-0.7,0.4-1L38.7,41.5z M36,51c-10.3,0-19.1-6.2-22.9-15c2-4.5,5.2-8.2,9.2-10.9l5.5,5.5c-1.3,2.1-1.9,4.6-1.4,7.4
		c0.8,3.9,3.9,7,7.8,7.8c2.7,0.5,5.3,0,7.4-1.4l4.5,4.5C43,50.2,39.6,51,36,51z"/>
</g>
</svg>
