<?xml version="1.0" encoding="utf-8"?>
<!-- Generator: Adobe Illustrator 24.0.0, SVG Export Plug-In . SVG Version: 6.00 Build 0)  -->
<svg version="1.1" id="Layer_1" xmlns="http://www.w3.org/2000/svg" xmlns:xlink="http://www.w3.org/1999/xlink" x="0px" y="0px"
	 viewBox="0 0 72 72" style="enable-background:new 0 0 72 72;" xml:space="preserve">
<style type="text/css">
	.st0{fill:none;}
	.st1{display:none;}
</style>
<title>wb_incandescent</title>
<rect class="st0" width="72" height="72"/>
<path class="st1" d="M49.1,21.5c-6.8,0-12.4,5.5-12.4,12.4c0,3,1.1,5.7,2.8,7.9H29.4c1.8-2.1,2.8-4.9,2.8-7.9
	c0-6.8-5.5-12.4-12.4-12.4S7.5,27,7.5,33.9S13,46.2,19.9,46.2h29.3c6.8,0,12.4-5.5,12.4-12.4S56,21.5,49.1,21.5z M19.9,41.7
	c-4.3,0-7.9-3.5-7.9-7.9s3.5-7.9,7.9-7.9s7.9,3.5,7.9,7.9S24.2,41.7,19.9,41.7z M49.1,41.7c-4.3,0-7.9-3.5-7.9-7.9s3.5-7.9,7.9-7.9
	s7.9,3.5,7.9,7.9S53.5,41.7,49.1,41.7z"/>
<path d="M51,24c-6.6,0-12,5.4-12,12c0,3.1,1.2,5.9,3.1,8H29.9c1.9-2.1,3.1-4.9,3.1-8c0-6.6-5.4-12-12-12c-6.6,0-12,5.4-12,12
	c0,6.6,5.4,12,12,12h30c6.6,0,12-5.4,12-12C63,29.4,57.6,24,51,24z M21,44c-4.4,0-8-3.6-8-8c0-4.4,3.6-8,8-8s8,3.6,8,8
	C29,40.4,25.4,44,21,44z M51,44c-4.4,0-8-3.6-8-8c0-4.4,3.6-8,8-8s8,3.6,8,8C59,40.4,55.4,44,51,44z"/>
</svg>
