<?xml version="1.0" encoding="utf-8"?>
<!-- Generator: Adobe Illustrator 24.0.0, SVG Export Plug-In . SVG Version: 6.00 Build 0)  -->
<svg version="1.1" id="Layer_1" xmlns="http://www.w3.org/2000/svg" xmlns:xlink="http://www.w3.org/1999/xlink" x="0px" y="0px"
	 viewBox="0 0 72 72" style="enable-background:new 0 0 72 72;" xml:space="preserve">
<style type="text/css">
	.st0{fill:none;}
	.st1{display:none;opacity:0.56;}
</style>
<title>Asset 33</title>
<rect class="st0" width="72" height="72"/>
<path class="st1" d="M36,17C20,17,7,30,7,46c0,16,13,29,29,29c16,0,29-13,29-29C65,30,52,17,36,17z M36,71c-13.8,0-25-11.2-25-25
	c0-13.8,11.2-25,25-25c13.8,0,25,11.2,25,25C61,59.8,49.8,71,36,71z"/>
<path d="M27.4,24.8h-11c-2.2,0-4,1.8-4,4v14.5c0,2.2,1.8,4,4,4h11l13.6,13.6c1.9,1.9,5.1,0.6,5.1-2.1V13.2c0-2.7-3.2-4-5.1-2.1
	L27.4,24.8z M42.2,56.3L30.3,44.4c-0.8-0.8-1.8-1.2-2.8-1.2h-11V28.8h11c1.1,0,2.1-0.4,2.8-1.2l11.9-11.9V56.3z"/>
<g>
	<path d="M50.2,24v0.6c0,0.5,0.3,1,0.7,1.4c2.9,2.4,4.7,6,4.7,10c0,4-1.8,7.6-4.7,10c-0.4,0.3-0.7,0.8-0.7,1.4V48
		c0,1.5,1.7,2.3,2.9,1.4c4-3.1,6.5-7.9,6.5-13.4c0-5.4-2.5-10.2-6.5-13.4C51.9,21.7,50.2,22.5,50.2,24z"/>
</g>
</svg>
