<?xml version="1.0" encoding="utf-8"?>
<!-- Generator: Adobe Illustrator 24.0.0, SVG Export Plug-In . SVG Version: 6.00 Build 0)  -->
<svg version="1.1" id="Layer_1" xmlns="http://www.w3.org/2000/svg" xmlns:xlink="http://www.w3.org/1999/xlink" x="0px" y="0px"
	 viewBox="0 0 72 72" style="enable-background:new 0 0 72 72;" xml:space="preserve">
<style type="text/css">
	.st0{fill:none;}
</style>
<title>Asset 33</title>
<rect class="st0" width="72" height="72"/>
<g>
	<path d="M50.6,36c0,2.1-0.5,4-1.4,5.7l3,3c1.5-2.5,2.4-5.5,2.4-8.7c0-5.3-2.4-10-6.2-13.1c-1.3-1.1-3.2-0.1-3.2,1.5v0
		c0,0.6,0.2,1.2,0.7,1.5C48.7,28.4,50.6,32,50.6,36z"/>
</g>
<path d="M60.6,36c0,4.8-1.5,9.3-4.1,13l2.9,2.9c3.3-4.5,5.2-9.9,5.2-15.9c0-11.2-6.8-20.8-16.6-24.9c-1.3-0.6-2.8,0.4-2.8,1.8v0
	c0,0.8,0.5,1.5,1.2,1.8C54.7,18.2,60.6,26.4,60.6,36z"/>
<g>
	<path d="M37.2,15.7v14l4,4V10.8c0-1.8-2.2-2.7-3.4-1.4L27.3,19.9l2.8,2.8L37.2,15.7z"/>
	<path d="M58.6,59.6c0.8-0.8,0.8-2,0-2.8l-1.8-1.8l-2.8-2.8L41.2,39.4l-4-4l-9.9-9.9l-2.8-2.8l-8.3-8.3c-0.8-0.8-2-0.8-2.8,0l0,0
		c-0.8,0.8-0.8,2,0,2.8l7.5,7.5h-9.5c-2.2,0-4,1.8-4,4v14.5c0,2.2,1.8,4,4,4h11l15.3,15.3c1.3,1.3,3.4,0.4,3.4-1.4V45l9.7,9.7
		c-1.4,1-2.9,1.8-4.5,2.5c-0.7,0.3-1.2,1-1.2,1.8v0c0,1.4,1.5,2.4,2.8,1.8c2.1-0.9,4-2,5.8-3.3l2,2C56.6,60.4,57.8,60.4,58.6,59.6
		L58.6,59.6z M37.2,56.3L25.3,44.4c-0.8-0.8-1.8-1.2-2.8-1.2h-11V28.8h12.2c0.3,0,0.5-0.1,0.7-0.3l0.1-0.1L37.2,41V56.3z"/>
</g>
</svg>
