<?xml version="1.0" encoding="utf-8"?>
<!-- Generator: Adobe Illustrator 24.0.0, SVG Export Plug-In . SVG Version: 6.00 Build 0)  -->
<svg version="1.1" id="Layer_1" xmlns="http://www.w3.org/2000/svg" xmlns:xlink="http://www.w3.org/1999/xlink" x="0px" y="0px"
	 viewBox="0 0 72 72" style="enable-background:new 0 0 72 72;" xml:space="preserve">
<style type="text/css">
	.st0{fill:none;}
</style>
<title>Asset 33</title>
<rect class="st0" width="72" height="72"/>
<g>
	<path d="M22.4,24.8h-11c-2.2,0-4,1.8-4,4v14.5c0,2.2,1.8,4,4,4h11l13.6,13.6c1.9,1.9,5.1,0.6,5.1-2.1V13.2c0-2.7-3.2-4-5.1-2.1
		L22.4,24.8z M37.2,56.3L25.3,44.4c-0.8-0.8-1.8-1.2-2.8-1.2h-11V28.8h11c1.1,0,2.1-0.4,2.8-1.2l11.9-11.9V56.3z"/>
	<path d="M45.2,24v0.6c0,0.5,0.3,1,0.7,1.4c2.9,2.4,4.7,6,4.7,10c0,4-1.8,7.6-4.7,10c-0.4,0.3-0.7,0.8-0.7,1.4V48
		c0,1.5,1.7,2.3,2.9,1.4c4-3.1,6.5-7.9,6.5-13.4c0-5.4-2.5-10.2-6.5-13.4C46.9,21.7,45.2,22.5,45.2,24z"/>
	<path d="M45.2,12.9L45.2,12.9c0,0.8,0.5,1.5,1.2,1.8c8.3,3.5,14.2,11.7,14.2,21.2c0,9.6-5.9,17.8-14.2,21.2c-0.7,0.3-1.2,1-1.2,1.8
		v0c0,1.4,1.5,2.4,2.8,1.8c9.7-4.1,16.6-13.7,16.6-24.9c0-11.2-6.8-20.8-16.6-24.9C46.7,10.5,45.2,11.5,45.2,12.9z"/>
</g>
</svg>
