<?xml version="1.0" encoding="utf-8"?>
<!-- Generator: Adobe Illustrator 24.0.0, SVG Export Plug-In . SVG Version: 6.00 Build 0)  -->
<svg version="1.1" id="Layer_1" xmlns="http://www.w3.org/2000/svg" xmlns:xlink="http://www.w3.org/1999/xlink" x="0px" y="0px"
	 viewBox="0 0 72 72" style="enable-background:new 0 0 72 72;" xml:space="preserve">
<style type="text/css">
	.st0{fill:none;}
</style>
<title>place</title>
<rect class="st0" width="72" height="72"/>
<path d="M33.2,34c-1-5.7-6-10.1-12-10c-6.3,0.1-11.5,5.2-11.8,11.5C9.1,42.4,14.6,48,21.4,48c5.9,0,10.9-4.3,11.8-10H52v6h6v-6h2.6
	c1.1,0,2-0.9,2-2v0c0-1.1-0.9-2-2-2H33.2z M21.4,44c-4.4,0-8-3.6-8-8s3.6-8,8-8s8,3.6,8,8S25.8,44,21.4,44z"/>
</svg>
