<?xml version="1.0" encoding="utf-8"?>
<!-- Generator: Adobe Illustrator 24.0.0, SVG Export Plug-In . SVG Version: 6.00 Build 0)  -->
<svg version="1.1" id="Layer_1" xmlns="http://www.w3.org/2000/svg" xmlns:xlink="http://www.w3.org/1999/xlink" x="0px" y="0px"
	 viewBox="0 0 72 72" style="enable-background:new 0 0 72 72;" xml:space="preserve">
<style type="text/css">
	.st0{fill:none;}
</style>
<title>Asset 33</title>
<rect class="st0" width="72" height="72"/>
<path d="M36,51.8L36,51.8c-1.1,0-2-0.9-2-2v-1.5c0-1.1,0.9-2,2-2h0c1.1,0,2,0.9,2,2v1.5C38,50.9,37.1,51.8,36,51.8z M36,42.8
	L36,42.8c-1.1,0-2-0.9-2-2v-6c0-1.1,0.9-2,2-2h0c1.1,0,2,0.9,2,2v6C38,41.9,37.1,42.8,36,42.8z"/>
<path d="M34.3,13.1L7.7,58.9c-0.8,1.3,0.2,3,1.7,3h53.1c1.5,0,2.5-1.7,1.7-3L37.7,13.1C37,11.7,35,11.7,34.3,13.1z M36,18.1
	l23.1,39.8H12.9L36,18.1z"/>
</svg>
