<?xml version="1.0" encoding="utf-8"?>
<!-- Generator: Adobe Illustrator 24.0.0, SVG Export Plug-In . SVG Version: 6.00 Build 0)  -->
<svg version="1.1" id="Layer_1" xmlns="http://www.w3.org/2000/svg" xmlns:xlink="http://www.w3.org/1999/xlink" x="0px" y="0px"
	 viewBox="0 0 72 72" style="enable-background:new 0 0 72 72;" xml:space="preserve">
<style type="text/css">
	.st0{fill:none;}
</style>
<title>wb_incandescent</title>
<rect class="st0" width="72" height="72"/>
<g>
	<path d="M56,34.7L56,34.7c0,1.1,0.9,2,2,2h3c1.1,0,2-0.9,2-2v0c0-1.1-0.9-2-2-2h-3C56.9,32.7,56,33.6,56,34.7z"/>
	<path d="M14,32.7h-3c-1.1,0-2,0.9-2,2v0c0,1.1,0.9,2,2,2h3c1.1,0,2-0.9,2-2v0C16,33.6,15.1,32.7,14,32.7z"/>
	<path d="M50.1,51.7l2.1,2.1c0.8,0.8,2,0.8,2.8,0l0,0c0.8-0.8,0.8-2,0-2.8L53,48.8c-0.8-0.8-2-0.8-2.8,0l0,0
		C49.4,49.6,49.4,50.9,50.1,51.7z"/>
	<path d="M16.9,53.8L16.9,53.8c0.8,0.8,2,0.8,2.8,0l2.1-2.1c0.8-0.8,0.8-2,0-2.8h0c-0.8-0.8-2-0.8-2.8,0l-2.1,2.1
		C16.1,51.7,16.1,53,16.9,53.8z"/>
	<path d="M36,61.7L36,61.7c1.1,0,2-0.9,2-2v-3c0-1.1-0.9-2-2-2h0c-1.1,0-2,0.9-2,2v3C34,60.8,34.9,61.7,36,61.7z"/>
	<path d="M43.5,22.4v-8.1c0-2.2-1.8-4-4-4h-7c-2.2,0-4,1.8-4,4v8.1c-4.7,2.7-7.8,7.9-7.5,13.8c0.4,7.6,6.7,13.8,14.3,14.2
		c8.6,0.4,15.7-6.5,15.7-15C51,29.8,48,25,43.5,22.4z M34.7,46.3c-5-0.6-9-4.6-9.6-9.6c-0.6-5,2.1-9.4,6.2-11.3
		c0.7-0.3,1.2-1,1.2-1.8v-9.3h7v9.3c0,0.8,0.5,1.5,1.2,1.8c3.7,1.8,6.3,5.5,6.3,10C47,41.9,41.4,47,34.7,46.3z"/>
</g>
</svg>
