<?xml version="1.0" encoding="utf-8"?>
<!-- Generator: Adobe Illustrator 24.0.0, SVG Export Plug-In . SVG Version: 6.00 Build 0)  -->
<svg version="1.1" id="Layer_1" xmlns="http://www.w3.org/2000/svg" xmlns:xlink="http://www.w3.org/1999/xlink" x="0px" y="0px"
	 viewBox="0 0 72 72" style="enable-background:new 0 0 72 72;" xml:space="preserve">
<style type="text/css">
	.st0{fill:none;}
</style>
<title>wb_incandescent</title>
<rect class="st0" width="72" height="72"/>
<path d="M50.1,21.9L50.1,21.9c0.8,0.8,2,0.8,2.8,0l0.7-0.7c0.8-0.8,0.8-2,0-2.8v0c-0.8-0.8-2-0.8-2.8,0L50.1,19
	C49.4,19.8,49.4,21.1,50.1,21.9z"/>
<path d="M19,50.1l-0.7,0.7c-0.8,0.8-0.8,2,0,2.8h0c0.8,0.8,2,0.8,2.8,0l0.7-0.7c0.8-0.8,0.8-2,0-2.8h0C21.1,49.4,19.8,49.4,19,50.1z
	"/>
<path d="M58,38h3c1.1,0,2-0.9,2-2v0c0-1.1-0.9-2-2-2h-3c-1.1,0-2,0.9-2,2v0C56,37.1,56.9,38,58,38z"/>
<path d="M36,63L36,63c1.1,0,2-0.9,2-2v-3c0-1.1-0.9-2-2-2h0c-1.1,0-2,0.9-2,2v3C34,62.1,34.9,63,36,63z"/>
<path d="M53.7,53.7L53.7,53.7c0.8-0.8,0.8-2,0-2.8L53,50.1c-0.8-0.8-2-0.8-2.8,0l0,0c-0.8,0.8-0.8,2,0,2.8l0.7,0.7
	C51.6,54.5,52.9,54.5,53.7,53.7z"/>
<path d="M34,14v-3c0-1.1,0.9-2,2-2h0c1.1,0,2,0.9,2,2v3c0,1.1-0.9,2-2,2h0C34.9,16,34,15.1,34,14z"/>
<path d="M9,36L9,36c0-1.1,0.9-2,2-2h3c1.1,0,2,0.9,2,2v0c0,1.1-0.9,2-2,2h-3C9.9,38,9,37.1,9,36z"/>
<path d="M18.3,18.3L18.3,18.3c0.8-0.8,2-0.8,2.8,0l0.7,0.7c0.8,0.8,0.8,2,0,2.8l0,0c-0.8,0.8-2,0.8-2.8,0l-0.7-0.7
	C17.5,20.4,17.5,19.1,18.3,18.3z"/>
<path d="M36,20c-8.8,0-16,7.2-16,16s7.2,16,16,16s16-7.2,16-16S44.8,20,36,20z M36,48c-6.6,0-12-5.4-12-12c0-6.6,5.4-12,12-12
	c6.6,0,12,5.4,12,12C48,42.6,42.6,48,36,48z"/>
</svg>
