<?xml version="1.0" encoding="utf-8"?>
<!-- Generator: Adobe Illustrator 24.0.0, SVG Export Plug-In . SVG Version: 6.00 Build 0)  -->
<svg version="1.1" id="Layer_1" xmlns="http://www.w3.org/2000/svg" xmlns:xlink="http://www.w3.org/1999/xlink" x="0px" y="0px"
	 viewBox="0 0 72 72" style="enable-background:new 0 0 72 72;" xml:space="preserve">
<style type="text/css">
	.st0{fill:none;}
	.st1{display:none;}
	.st2{display:inline;}
</style>
<title>work_outline</title>
<rect class="st0" width="72" height="72"/>
<g id="Outline" class="st1">
	<g id="ui_x5F_spec_x5F_header" class="st2">
	</g>
	<path class="st2" d="M57.6,14.4H14.4c-3,0-5.4,2.4-5.4,5.4l0,32.4c0,3,2.4,5.4,5.4,5.4h43.2c3,0,5.4-2.4,5.4-5.4V19.8
		C63,16.8,60.6,14.4,57.6,14.4z M14.4,27.9h28.4v9.4H14.4V27.9z M14.4,42.8h28.4v9.5H14.4V42.8z M57.6,52.2h-9.4V27.9h9.4V52.2z"/>
</g>
<path d="M9,18.4v35.2c0,2.2,1.8,4,4,4h46c2.2,0,4-1.8,4-4V18.4c0-2.2-1.8-4-4-4H13C10.8,14.4,9,16.2,9,18.4z M13,29.5h46v24.1H13
	V29.5z M59,25.5H13v-7.1h46V25.5z"/>
</svg>
