<?xml version="1.0" encoding="utf-8"?>
<!-- Generator: Adobe Illustrator 24.0.0, SVG Export Plug-In . SVG Version: 6.00 Build 0)  -->
<svg version="1.1" id="Layer_1" xmlns="http://www.w3.org/2000/svg" xmlns:xlink="http://www.w3.org/1999/xlink" x="0px" y="0px"
	 viewBox="0 0 72 72" style="enable-background:new 0 0 72 72;" xml:space="preserve">
<style type="text/css">
	.st0{fill:none;}
</style>
<title>work_outline</title>
<rect class="st0" width="72" height="72"/>
<path d="M56.3,29.2L56.3,29.2C56.3,29.2,56.3,29.3,56.3,29.2l0-3.2c0-4.4-3.6-8-8-8H23.8c-4.4,0-8,3.6-8,8v3.3c0,0,0,0,0,0h0
	C12,29.2,9,32.3,9,36v14c0,2.2,1.8,4,4,4h46c2.2,0,4-1.8,4-4V36C63,32.3,60,29.2,56.3,29.2z M19.8,26c0-2.2,1.8-4,4-4h24.5
	c2.2,0,4,1.8,4,4v4.6c-1.6,1.2-2.7,3.2-2.7,5.4v4.6H22.5V36c0-2.2-1.1-4.2-2.7-5.4V26z M59,50H13V36c0-1.5,1.2-2.7,2.7-2.7
	s2.7,1.2,2.7,2.7v4.6c0,2.2,1.8,4,4,4h27.1c2.2,0,4-1.8,4-4V36c0-1.5,1.2-2.7,2.7-2.7S59,34.5,59,36V50z"/>
</svg>
