<?xml version="1.0" encoding="utf-8"?>
<!-- Generator: Adobe Illustrator 24.0.0, SVG Export Plug-In . SVG Version: 6.00 Build 0)  -->
<svg version="1.1" id="Layer_1" xmlns="http://www.w3.org/2000/svg" xmlns:xlink="http://www.w3.org/1999/xlink" x="0px" y="0px"
	 viewBox="0 0 72 72" style="enable-background:new 0 0 72 72;" xml:space="preserve">
<style type="text/css">
	.st0{fill:none;}
</style>
<title>work_outline</title>
<rect class="st0" width="72" height="72"/>
<path d="M51.7,10L35.3,39.9L19,10c-0.4-0.6-1-1-1.8-1h0c-1.5,0-2.5,1.6-1.8,3l17.6,32.1L28.2,53c-0.8-0.9-1.9-1.6-3.3-1.9
	c-2.1-0.4-4.4,0.3-5.8,2c-3.3,3.9-0.7,10.1,5.2,10c2,0,3.8-1.3,4.6-3.2l0,0l6.4-11.7l6.4,11.7l0,0c0.8,1.8,2.6,3.1,4.6,3.2
	c5.9,0.1,8.5-6.1,5.2-10c-1.4-1.7-3.7-2.4-5.8-2c-1.4,0.3-2.5,1-3.3,1.9l-4.9-8.9L55.2,12c0.7-1.3-0.2-3-1.8-3h0
	C52.7,9,52.1,9.4,51.7,10z M25.9,58.2c-0.7,1.2-2.2,1.7-3.4,1c-1.2-0.7-1.7-2.2-1-3.4c0.7-1.2,2.2-1.7,3.4-1
	C26.1,55.5,26.5,57,25.9,58.2z M45.8,54.8c1.2-0.7,2.7-0.2,3.4,1c0.7,1.2,0.2,2.7-1,3.4s-2.7,0.2-3.4-1C44.1,57,44.6,55.5,45.8,54.8
	z"/>
</svg>
