<?xml version="1.0" encoding="utf-8"?>
<!-- Generator: Adobe Illustrator 24.0.0, SVG Export Plug-In . SVG Version: 6.00 Build 0)  -->
<svg version="1.1" id="Layer_1" xmlns="http://www.w3.org/2000/svg" xmlns:xlink="http://www.w3.org/1999/xlink" x="0px" y="0px"
	 viewBox="0 0 72 72" style="enable-background:new 0 0 72 72;" xml:space="preserve">
<style type="text/css">
	.st0{fill:none;}
</style>
<title>work_outline</title>
<rect class="st0" width="72" height="72"/>
<path d="M49,20.7v-5.4c0-2.2-1.8-4-4-4H27c-2.2,0-4,1.8-4,4v5.4H13c-2.2,0-4,1.8-4,4v32c0,2.2,1.8,4,4,4h46c2.2,0,4-1.8,4-4v-32
	c0-2.2-1.8-4-4-4H49z M27,15.3h18v5.4H27V15.3z M59,56.7H13v-32h46V56.7z"/>
</svg>
